G75*
%MOIN*%
%OFA0B0*%
%FSLAX25Y25*%
%IPPOS*%
%LPD*%
%AMOC8*
5,1,8,0,0,1.08239X$1,22.5*
%
%ADD10C,0.00000*%
%ADD11R,0.06500X0.06500*%
%ADD12C,0.06500*%
%ADD13C,0.01250*%
%ADD14OC8,0.06500*%
%ADD15C,0.01500*%
%ADD16C,0.02000*%
%ADD17C,0.00800*%
D10*
X0001400Y0007206D02*
X0001400Y0060194D01*
X0001402Y0060346D01*
X0001408Y0060498D01*
X0001418Y0060650D01*
X0001431Y0060801D01*
X0001449Y0060952D01*
X0001470Y0061103D01*
X0001496Y0061253D01*
X0001525Y0061402D01*
X0001558Y0061551D01*
X0001595Y0061698D01*
X0001635Y0061845D01*
X0001680Y0061990D01*
X0001728Y0062134D01*
X0001780Y0062277D01*
X0001835Y0062419D01*
X0001894Y0062559D01*
X0001957Y0062698D01*
X0002023Y0062835D01*
X0002093Y0062970D01*
X0002166Y0063103D01*
X0002243Y0063234D01*
X0002323Y0063364D01*
X0002406Y0063491D01*
X0002492Y0063616D01*
X0002582Y0063739D01*
X0002675Y0063859D01*
X0002771Y0063977D01*
X0002870Y0064093D01*
X0002972Y0064206D01*
X0003076Y0064316D01*
X0003184Y0064424D01*
X0003294Y0064528D01*
X0003407Y0064630D01*
X0003523Y0064729D01*
X0003641Y0064825D01*
X0003761Y0064918D01*
X0003884Y0065008D01*
X0004009Y0065094D01*
X0004136Y0065177D01*
X0004266Y0065257D01*
X0004397Y0065334D01*
X0004530Y0065407D01*
X0004665Y0065477D01*
X0004802Y0065543D01*
X0004941Y0065606D01*
X0005081Y0065665D01*
X0005223Y0065720D01*
X0005366Y0065772D01*
X0005510Y0065820D01*
X0005655Y0065865D01*
X0005802Y0065905D01*
X0005949Y0065942D01*
X0006098Y0065975D01*
X0006247Y0066004D01*
X0006397Y0066030D01*
X0006548Y0066051D01*
X0006699Y0066069D01*
X0006850Y0066082D01*
X0007002Y0066092D01*
X0007154Y0066098D01*
X0007306Y0066100D01*
X0043994Y0066100D01*
X0044146Y0066098D01*
X0044298Y0066092D01*
X0044450Y0066082D01*
X0044601Y0066069D01*
X0044752Y0066051D01*
X0044903Y0066030D01*
X0045053Y0066004D01*
X0045202Y0065975D01*
X0045351Y0065942D01*
X0045498Y0065905D01*
X0045645Y0065865D01*
X0045790Y0065820D01*
X0045934Y0065772D01*
X0046077Y0065720D01*
X0046219Y0065665D01*
X0046359Y0065606D01*
X0046498Y0065543D01*
X0046635Y0065477D01*
X0046770Y0065407D01*
X0046903Y0065334D01*
X0047034Y0065257D01*
X0047164Y0065177D01*
X0047291Y0065094D01*
X0047416Y0065008D01*
X0047539Y0064918D01*
X0047659Y0064825D01*
X0047777Y0064729D01*
X0047893Y0064630D01*
X0048006Y0064528D01*
X0048116Y0064424D01*
X0048224Y0064316D01*
X0048328Y0064206D01*
X0048430Y0064093D01*
X0048529Y0063977D01*
X0048625Y0063859D01*
X0048718Y0063739D01*
X0048808Y0063616D01*
X0048894Y0063491D01*
X0048977Y0063364D01*
X0049057Y0063234D01*
X0049134Y0063103D01*
X0049207Y0062970D01*
X0049277Y0062835D01*
X0049343Y0062698D01*
X0049406Y0062559D01*
X0049465Y0062419D01*
X0049520Y0062277D01*
X0049572Y0062134D01*
X0049620Y0061990D01*
X0049665Y0061845D01*
X0049705Y0061698D01*
X0049742Y0061551D01*
X0049775Y0061402D01*
X0049804Y0061253D01*
X0049830Y0061103D01*
X0049851Y0060952D01*
X0049869Y0060801D01*
X0049882Y0060650D01*
X0049892Y0060498D01*
X0049898Y0060346D01*
X0049900Y0060194D01*
X0049900Y0007206D01*
X0049898Y0007054D01*
X0049892Y0006902D01*
X0049882Y0006750D01*
X0049869Y0006599D01*
X0049851Y0006448D01*
X0049830Y0006297D01*
X0049804Y0006147D01*
X0049775Y0005998D01*
X0049742Y0005849D01*
X0049705Y0005702D01*
X0049665Y0005555D01*
X0049620Y0005410D01*
X0049572Y0005266D01*
X0049520Y0005123D01*
X0049465Y0004981D01*
X0049406Y0004841D01*
X0049343Y0004702D01*
X0049277Y0004565D01*
X0049207Y0004430D01*
X0049134Y0004297D01*
X0049057Y0004166D01*
X0048977Y0004036D01*
X0048894Y0003909D01*
X0048808Y0003784D01*
X0048718Y0003661D01*
X0048625Y0003541D01*
X0048529Y0003423D01*
X0048430Y0003307D01*
X0048328Y0003194D01*
X0048224Y0003084D01*
X0048116Y0002976D01*
X0048006Y0002872D01*
X0047893Y0002770D01*
X0047777Y0002671D01*
X0047659Y0002575D01*
X0047539Y0002482D01*
X0047416Y0002392D01*
X0047291Y0002306D01*
X0047164Y0002223D01*
X0047034Y0002143D01*
X0046903Y0002066D01*
X0046770Y0001993D01*
X0046635Y0001923D01*
X0046498Y0001857D01*
X0046359Y0001794D01*
X0046219Y0001735D01*
X0046077Y0001680D01*
X0045934Y0001628D01*
X0045790Y0001580D01*
X0045645Y0001535D01*
X0045498Y0001495D01*
X0045351Y0001458D01*
X0045202Y0001425D01*
X0045053Y0001396D01*
X0044903Y0001370D01*
X0044752Y0001349D01*
X0044601Y0001331D01*
X0044450Y0001318D01*
X0044298Y0001308D01*
X0044146Y0001302D01*
X0043994Y0001300D01*
X0007306Y0001300D01*
X0007154Y0001302D01*
X0007002Y0001308D01*
X0006850Y0001318D01*
X0006699Y0001331D01*
X0006548Y0001349D01*
X0006397Y0001370D01*
X0006247Y0001396D01*
X0006098Y0001425D01*
X0005949Y0001458D01*
X0005802Y0001495D01*
X0005655Y0001535D01*
X0005510Y0001580D01*
X0005366Y0001628D01*
X0005223Y0001680D01*
X0005081Y0001735D01*
X0004941Y0001794D01*
X0004802Y0001857D01*
X0004665Y0001923D01*
X0004530Y0001993D01*
X0004397Y0002066D01*
X0004266Y0002143D01*
X0004136Y0002223D01*
X0004009Y0002306D01*
X0003884Y0002392D01*
X0003761Y0002482D01*
X0003641Y0002575D01*
X0003523Y0002671D01*
X0003407Y0002770D01*
X0003294Y0002872D01*
X0003184Y0002976D01*
X0003076Y0003084D01*
X0002972Y0003194D01*
X0002870Y0003307D01*
X0002771Y0003423D01*
X0002675Y0003541D01*
X0002582Y0003661D01*
X0002492Y0003784D01*
X0002406Y0003909D01*
X0002323Y0004036D01*
X0002243Y0004166D01*
X0002166Y0004297D01*
X0002093Y0004430D01*
X0002023Y0004565D01*
X0001957Y0004702D01*
X0001894Y0004841D01*
X0001835Y0004981D01*
X0001780Y0005123D01*
X0001728Y0005266D01*
X0001680Y0005410D01*
X0001635Y0005555D01*
X0001595Y0005702D01*
X0001558Y0005849D01*
X0001525Y0005998D01*
X0001496Y0006147D01*
X0001470Y0006297D01*
X0001449Y0006448D01*
X0001431Y0006599D01*
X0001418Y0006750D01*
X0001408Y0006902D01*
X0001402Y0007054D01*
X0001400Y0007206D01*
X0019744Y0031000D02*
X0019746Y0031153D01*
X0019752Y0031307D01*
X0019762Y0031460D01*
X0019776Y0031612D01*
X0019794Y0031765D01*
X0019816Y0031916D01*
X0019841Y0032067D01*
X0019871Y0032218D01*
X0019905Y0032368D01*
X0019942Y0032516D01*
X0019983Y0032664D01*
X0020028Y0032810D01*
X0020077Y0032956D01*
X0020130Y0033100D01*
X0020186Y0033242D01*
X0020246Y0033383D01*
X0020310Y0033523D01*
X0020377Y0033661D01*
X0020448Y0033797D01*
X0020523Y0033931D01*
X0020600Y0034063D01*
X0020682Y0034193D01*
X0020766Y0034321D01*
X0020854Y0034447D01*
X0020945Y0034570D01*
X0021039Y0034691D01*
X0021137Y0034809D01*
X0021237Y0034925D01*
X0021341Y0035038D01*
X0021447Y0035149D01*
X0021556Y0035257D01*
X0021668Y0035362D01*
X0021782Y0035463D01*
X0021900Y0035562D01*
X0022019Y0035658D01*
X0022141Y0035751D01*
X0022266Y0035840D01*
X0022393Y0035927D01*
X0022522Y0036009D01*
X0022653Y0036089D01*
X0022786Y0036165D01*
X0022921Y0036238D01*
X0023058Y0036307D01*
X0023197Y0036372D01*
X0023337Y0036434D01*
X0023479Y0036492D01*
X0023622Y0036547D01*
X0023767Y0036598D01*
X0023913Y0036645D01*
X0024060Y0036688D01*
X0024208Y0036727D01*
X0024357Y0036763D01*
X0024507Y0036794D01*
X0024658Y0036822D01*
X0024809Y0036846D01*
X0024962Y0036866D01*
X0025114Y0036882D01*
X0025267Y0036894D01*
X0025420Y0036902D01*
X0025573Y0036906D01*
X0025727Y0036906D01*
X0025880Y0036902D01*
X0026033Y0036894D01*
X0026186Y0036882D01*
X0026338Y0036866D01*
X0026491Y0036846D01*
X0026642Y0036822D01*
X0026793Y0036794D01*
X0026943Y0036763D01*
X0027092Y0036727D01*
X0027240Y0036688D01*
X0027387Y0036645D01*
X0027533Y0036598D01*
X0027678Y0036547D01*
X0027821Y0036492D01*
X0027963Y0036434D01*
X0028103Y0036372D01*
X0028242Y0036307D01*
X0028379Y0036238D01*
X0028514Y0036165D01*
X0028647Y0036089D01*
X0028778Y0036009D01*
X0028907Y0035927D01*
X0029034Y0035840D01*
X0029159Y0035751D01*
X0029281Y0035658D01*
X0029400Y0035562D01*
X0029518Y0035463D01*
X0029632Y0035362D01*
X0029744Y0035257D01*
X0029853Y0035149D01*
X0029959Y0035038D01*
X0030063Y0034925D01*
X0030163Y0034809D01*
X0030261Y0034691D01*
X0030355Y0034570D01*
X0030446Y0034447D01*
X0030534Y0034321D01*
X0030618Y0034193D01*
X0030700Y0034063D01*
X0030777Y0033931D01*
X0030852Y0033797D01*
X0030923Y0033661D01*
X0030990Y0033523D01*
X0031054Y0033383D01*
X0031114Y0033242D01*
X0031170Y0033100D01*
X0031223Y0032956D01*
X0031272Y0032810D01*
X0031317Y0032664D01*
X0031358Y0032516D01*
X0031395Y0032368D01*
X0031429Y0032218D01*
X0031459Y0032067D01*
X0031484Y0031916D01*
X0031506Y0031765D01*
X0031524Y0031612D01*
X0031538Y0031460D01*
X0031548Y0031307D01*
X0031554Y0031153D01*
X0031556Y0031000D01*
X0031554Y0030847D01*
X0031548Y0030693D01*
X0031538Y0030540D01*
X0031524Y0030388D01*
X0031506Y0030235D01*
X0031484Y0030084D01*
X0031459Y0029933D01*
X0031429Y0029782D01*
X0031395Y0029632D01*
X0031358Y0029484D01*
X0031317Y0029336D01*
X0031272Y0029190D01*
X0031223Y0029044D01*
X0031170Y0028900D01*
X0031114Y0028758D01*
X0031054Y0028617D01*
X0030990Y0028477D01*
X0030923Y0028339D01*
X0030852Y0028203D01*
X0030777Y0028069D01*
X0030700Y0027937D01*
X0030618Y0027807D01*
X0030534Y0027679D01*
X0030446Y0027553D01*
X0030355Y0027430D01*
X0030261Y0027309D01*
X0030163Y0027191D01*
X0030063Y0027075D01*
X0029959Y0026962D01*
X0029853Y0026851D01*
X0029744Y0026743D01*
X0029632Y0026638D01*
X0029518Y0026537D01*
X0029400Y0026438D01*
X0029281Y0026342D01*
X0029159Y0026249D01*
X0029034Y0026160D01*
X0028907Y0026073D01*
X0028778Y0025991D01*
X0028647Y0025911D01*
X0028514Y0025835D01*
X0028379Y0025762D01*
X0028242Y0025693D01*
X0028103Y0025628D01*
X0027963Y0025566D01*
X0027821Y0025508D01*
X0027678Y0025453D01*
X0027533Y0025402D01*
X0027387Y0025355D01*
X0027240Y0025312D01*
X0027092Y0025273D01*
X0026943Y0025237D01*
X0026793Y0025206D01*
X0026642Y0025178D01*
X0026491Y0025154D01*
X0026338Y0025134D01*
X0026186Y0025118D01*
X0026033Y0025106D01*
X0025880Y0025098D01*
X0025727Y0025094D01*
X0025573Y0025094D01*
X0025420Y0025098D01*
X0025267Y0025106D01*
X0025114Y0025118D01*
X0024962Y0025134D01*
X0024809Y0025154D01*
X0024658Y0025178D01*
X0024507Y0025206D01*
X0024357Y0025237D01*
X0024208Y0025273D01*
X0024060Y0025312D01*
X0023913Y0025355D01*
X0023767Y0025402D01*
X0023622Y0025453D01*
X0023479Y0025508D01*
X0023337Y0025566D01*
X0023197Y0025628D01*
X0023058Y0025693D01*
X0022921Y0025762D01*
X0022786Y0025835D01*
X0022653Y0025911D01*
X0022522Y0025991D01*
X0022393Y0026073D01*
X0022266Y0026160D01*
X0022141Y0026249D01*
X0022019Y0026342D01*
X0021900Y0026438D01*
X0021782Y0026537D01*
X0021668Y0026638D01*
X0021556Y0026743D01*
X0021447Y0026851D01*
X0021341Y0026962D01*
X0021237Y0027075D01*
X0021137Y0027191D01*
X0021039Y0027309D01*
X0020945Y0027430D01*
X0020854Y0027553D01*
X0020766Y0027679D01*
X0020682Y0027807D01*
X0020600Y0027937D01*
X0020523Y0028069D01*
X0020448Y0028203D01*
X0020377Y0028339D01*
X0020310Y0028477D01*
X0020246Y0028617D01*
X0020186Y0028758D01*
X0020130Y0028900D01*
X0020077Y0029044D01*
X0020028Y0029190D01*
X0019983Y0029336D01*
X0019942Y0029484D01*
X0019905Y0029632D01*
X0019871Y0029782D01*
X0019841Y0029933D01*
X0019816Y0030084D01*
X0019794Y0030235D01*
X0019776Y0030388D01*
X0019762Y0030540D01*
X0019752Y0030693D01*
X0019746Y0030847D01*
X0019744Y0031000D01*
D11*
X0015300Y0007100D03*
D12*
X0025300Y0007100D03*
X0035300Y0007100D03*
X0044588Y0053200D03*
X0006834Y0053100D03*
D13*
X0011725Y0013975D02*
X0012975Y0013975D01*
X0011725Y0013975D02*
X0011725Y0015225D01*
X0012975Y0015225D01*
X0012975Y0013975D01*
X0012975Y0015224D02*
X0011725Y0015224D01*
X0015225Y0013975D02*
X0016475Y0013975D01*
X0015225Y0013975D02*
X0015225Y0015225D01*
X0016475Y0015225D01*
X0016475Y0013975D01*
X0016475Y0015224D02*
X0015225Y0015224D01*
X0019725Y0015225D02*
X0020975Y0015225D01*
X0020975Y0013975D01*
X0019725Y0013975D01*
X0019725Y0015225D01*
X0019725Y0015224D02*
X0020975Y0015224D01*
X0023225Y0015225D02*
X0024475Y0015225D01*
X0024475Y0013975D01*
X0023225Y0013975D01*
X0023225Y0015225D01*
X0023225Y0015224D02*
X0024475Y0015224D01*
D14*
X0016832Y0053100D03*
X0034590Y0053200D03*
D15*
X0023850Y0014600D02*
X0023850Y0008550D01*
X0025300Y0007100D01*
D16*
X0023850Y0014600D02*
X0028800Y0014600D01*
X0039200Y0025000D01*
X0039200Y0048590D01*
X0034590Y0053200D01*
X0016832Y0053100D02*
X0011000Y0047268D01*
X0011000Y0015950D01*
X0012350Y0014600D01*
X0015850Y0014600D02*
X0015850Y0007650D01*
X0015300Y0007100D01*
X0015850Y0014600D02*
X0020350Y0014600D01*
D17*
X0003867Y0006522D02*
X0004391Y0005258D01*
X0005358Y0004291D01*
X0006622Y0003767D01*
X0007305Y0003700D01*
X0010950Y0003700D01*
X0010950Y0010806D01*
X0011594Y0011450D01*
X0013750Y0011450D01*
X0013750Y0012310D01*
X0013690Y0012250D01*
X0011010Y0012250D01*
X0010000Y0013260D01*
X0010000Y0013980D01*
X0008900Y0015080D01*
X0008900Y0048138D01*
X0010130Y0049368D01*
X0012482Y0051720D01*
X0012482Y0054902D01*
X0015030Y0057450D01*
X0018634Y0057450D01*
X0021182Y0054902D01*
X0021182Y0051298D01*
X0018634Y0048750D01*
X0015452Y0048750D01*
X0013100Y0046398D01*
X0013100Y0016950D01*
X0013690Y0016950D01*
X0014100Y0016540D01*
X0014510Y0016950D01*
X0017190Y0016950D01*
X0017440Y0016700D01*
X0018760Y0016700D01*
X0019010Y0016950D01*
X0021690Y0016950D01*
X0022100Y0016540D01*
X0022510Y0016950D01*
X0025190Y0016950D01*
X0025440Y0016700D01*
X0027930Y0016700D01*
X0031103Y0019873D01*
X0027823Y0018679D01*
X0023477Y0018679D01*
X0019394Y0020165D01*
X0016066Y0022958D01*
X0016066Y0022958D01*
X0016066Y0022958D01*
X0013893Y0026721D01*
X0013893Y0026721D01*
X0013139Y0031000D01*
X0013139Y0031000D01*
X0013893Y0035279D01*
X0013893Y0035279D01*
X0016066Y0039042D01*
X0016066Y0039042D01*
X0019394Y0041835D01*
X0019395Y0041835D01*
X0023477Y0043321D01*
X0027823Y0043321D01*
X0031905Y0041835D01*
X0031906Y0041835D01*
X0035234Y0039042D01*
X0035234Y0039042D01*
X0035234Y0039042D01*
X0037100Y0035810D01*
X0037100Y0047720D01*
X0035970Y0048850D01*
X0032788Y0048850D01*
X0030240Y0051398D01*
X0030240Y0055002D01*
X0032788Y0057550D01*
X0036392Y0057550D01*
X0038940Y0055002D01*
X0038940Y0051820D01*
X0040070Y0050690D01*
X0041300Y0049460D01*
X0041300Y0024130D01*
X0040070Y0022900D01*
X0029670Y0012500D01*
X0025700Y0012500D01*
X0025700Y0011450D01*
X0026165Y0011450D01*
X0027764Y0010788D01*
X0028988Y0009564D01*
X0029650Y0007965D01*
X0029650Y0006235D01*
X0028988Y0004636D01*
X0028052Y0003700D01*
X0043994Y0003700D01*
X0044678Y0003767D01*
X0045942Y0004291D01*
X0046909Y0005258D01*
X0047433Y0006522D01*
X0047500Y0007205D01*
X0047500Y0060194D01*
X0047433Y0060878D01*
X0046909Y0062142D01*
X0045942Y0063109D01*
X0044678Y0063633D01*
X0043994Y0063700D01*
X0007305Y0063700D01*
X0006622Y0063633D01*
X0005358Y0063109D01*
X0004391Y0062142D01*
X0003867Y0060878D01*
X0003800Y0060194D01*
X0003800Y0007206D01*
X0003867Y0006522D01*
X0003831Y0006890D02*
X0010950Y0006890D01*
X0010950Y0007688D02*
X0003800Y0007688D01*
X0003800Y0008487D02*
X0010950Y0008487D01*
X0010950Y0009285D02*
X0003800Y0009285D01*
X0003800Y0010084D02*
X0010950Y0010084D01*
X0011027Y0010882D02*
X0003800Y0010882D01*
X0003800Y0011681D02*
X0013750Y0011681D01*
X0010781Y0012479D02*
X0003800Y0012479D01*
X0003800Y0013278D02*
X0010000Y0013278D01*
X0009904Y0014076D02*
X0003800Y0014076D01*
X0003800Y0014875D02*
X0009105Y0014875D01*
X0008900Y0015673D02*
X0003800Y0015673D01*
X0003800Y0016472D02*
X0008900Y0016472D01*
X0008900Y0017270D02*
X0003800Y0017270D01*
X0003800Y0018069D02*
X0008900Y0018069D01*
X0008900Y0018867D02*
X0003800Y0018867D01*
X0003800Y0019666D02*
X0008900Y0019666D01*
X0008900Y0020464D02*
X0003800Y0020464D01*
X0003800Y0021263D02*
X0008900Y0021263D01*
X0008900Y0022061D02*
X0003800Y0022061D01*
X0003800Y0022860D02*
X0008900Y0022860D01*
X0008900Y0023658D02*
X0003800Y0023658D01*
X0003800Y0024457D02*
X0008900Y0024457D01*
X0008900Y0025255D02*
X0003800Y0025255D01*
X0003800Y0026054D02*
X0008900Y0026054D01*
X0008900Y0026852D02*
X0003800Y0026852D01*
X0003800Y0027651D02*
X0008900Y0027651D01*
X0008900Y0028449D02*
X0003800Y0028449D01*
X0003800Y0029248D02*
X0008900Y0029248D01*
X0008900Y0030046D02*
X0003800Y0030046D01*
X0003800Y0030845D02*
X0008900Y0030845D01*
X0008900Y0031643D02*
X0003800Y0031643D01*
X0003800Y0032442D02*
X0008900Y0032442D01*
X0008900Y0033240D02*
X0003800Y0033240D01*
X0003800Y0034039D02*
X0008900Y0034039D01*
X0008900Y0034837D02*
X0003800Y0034837D01*
X0003800Y0035636D02*
X0008900Y0035636D01*
X0008900Y0036434D02*
X0003800Y0036434D01*
X0003800Y0037233D02*
X0008900Y0037233D01*
X0008900Y0038032D02*
X0003800Y0038032D01*
X0003800Y0038830D02*
X0008900Y0038830D01*
X0008900Y0039629D02*
X0003800Y0039629D01*
X0003800Y0040427D02*
X0008900Y0040427D01*
X0008900Y0041226D02*
X0003800Y0041226D01*
X0003800Y0042024D02*
X0008900Y0042024D01*
X0008900Y0042823D02*
X0003800Y0042823D01*
X0003800Y0043621D02*
X0008900Y0043621D01*
X0008900Y0044420D02*
X0003800Y0044420D01*
X0003800Y0045218D02*
X0008900Y0045218D01*
X0008900Y0046017D02*
X0003800Y0046017D01*
X0003800Y0046815D02*
X0008900Y0046815D01*
X0008900Y0047614D02*
X0003800Y0047614D01*
X0003800Y0048412D02*
X0009175Y0048412D01*
X0009973Y0049211D02*
X0003800Y0049211D01*
X0003800Y0050009D02*
X0010772Y0050009D01*
X0011570Y0050808D02*
X0003800Y0050808D01*
X0003800Y0051606D02*
X0012369Y0051606D01*
X0012482Y0052405D02*
X0003800Y0052405D01*
X0003800Y0053203D02*
X0012482Y0053203D01*
X0012482Y0054002D02*
X0003800Y0054002D01*
X0003800Y0054800D02*
X0012482Y0054800D01*
X0013179Y0055599D02*
X0003800Y0055599D01*
X0003800Y0056397D02*
X0013978Y0056397D01*
X0014776Y0057196D02*
X0003800Y0057196D01*
X0003800Y0057994D02*
X0047500Y0057994D01*
X0047500Y0057196D02*
X0036746Y0057196D01*
X0037544Y0056397D02*
X0047500Y0056397D01*
X0047500Y0055599D02*
X0038343Y0055599D01*
X0038940Y0054800D02*
X0047500Y0054800D01*
X0047500Y0054002D02*
X0038940Y0054002D01*
X0038940Y0053203D02*
X0047500Y0053203D01*
X0047500Y0052405D02*
X0038940Y0052405D01*
X0039153Y0051606D02*
X0047500Y0051606D01*
X0047500Y0050808D02*
X0039952Y0050808D01*
X0040750Y0050009D02*
X0047500Y0050009D01*
X0047500Y0049211D02*
X0041300Y0049211D01*
X0041300Y0048412D02*
X0047500Y0048412D01*
X0047500Y0047614D02*
X0041300Y0047614D01*
X0041300Y0046815D02*
X0047500Y0046815D01*
X0047500Y0046017D02*
X0041300Y0046017D01*
X0041300Y0045218D02*
X0047500Y0045218D01*
X0047500Y0044420D02*
X0041300Y0044420D01*
X0041300Y0043621D02*
X0047500Y0043621D01*
X0047500Y0042823D02*
X0041300Y0042823D01*
X0041300Y0042024D02*
X0047500Y0042024D01*
X0047500Y0041226D02*
X0041300Y0041226D01*
X0041300Y0040427D02*
X0047500Y0040427D01*
X0047500Y0039629D02*
X0041300Y0039629D01*
X0041300Y0038830D02*
X0047500Y0038830D01*
X0047500Y0038032D02*
X0041300Y0038032D01*
X0041300Y0037233D02*
X0047500Y0037233D01*
X0047500Y0036434D02*
X0041300Y0036434D01*
X0041300Y0035636D02*
X0047500Y0035636D01*
X0047500Y0034837D02*
X0041300Y0034837D01*
X0041300Y0034039D02*
X0047500Y0034039D01*
X0047500Y0033240D02*
X0041300Y0033240D01*
X0041300Y0032442D02*
X0047500Y0032442D01*
X0047500Y0031643D02*
X0041300Y0031643D01*
X0041300Y0030845D02*
X0047500Y0030845D01*
X0047500Y0030046D02*
X0041300Y0030046D01*
X0041300Y0029248D02*
X0047500Y0029248D01*
X0047500Y0028449D02*
X0041300Y0028449D01*
X0041300Y0027651D02*
X0047500Y0027651D01*
X0047500Y0026852D02*
X0041300Y0026852D01*
X0041300Y0026054D02*
X0047500Y0026054D01*
X0047500Y0025255D02*
X0041300Y0025255D01*
X0041300Y0024457D02*
X0047500Y0024457D01*
X0047500Y0023658D02*
X0040828Y0023658D01*
X0040030Y0022860D02*
X0047500Y0022860D01*
X0047500Y0022061D02*
X0039231Y0022061D01*
X0038433Y0021263D02*
X0047500Y0021263D01*
X0047500Y0020464D02*
X0037634Y0020464D01*
X0036836Y0019666D02*
X0047500Y0019666D01*
X0047500Y0018867D02*
X0036037Y0018867D01*
X0035239Y0018069D02*
X0047500Y0018069D01*
X0047500Y0017270D02*
X0034440Y0017270D01*
X0033642Y0016472D02*
X0047500Y0016472D01*
X0047500Y0015673D02*
X0032843Y0015673D01*
X0032045Y0014875D02*
X0047500Y0014875D01*
X0047500Y0014076D02*
X0031246Y0014076D01*
X0030448Y0013278D02*
X0047500Y0013278D01*
X0047500Y0012479D02*
X0025700Y0012479D01*
X0025700Y0011681D02*
X0047500Y0011681D01*
X0047500Y0010882D02*
X0027536Y0010882D01*
X0028468Y0010084D02*
X0047500Y0010084D01*
X0047500Y0009285D02*
X0029103Y0009285D01*
X0029434Y0008487D02*
X0047500Y0008487D01*
X0047500Y0007688D02*
X0029650Y0007688D01*
X0029650Y0006890D02*
X0047469Y0006890D01*
X0047254Y0006091D02*
X0029590Y0006091D01*
X0029260Y0005293D02*
X0046924Y0005293D01*
X0046145Y0004494D02*
X0028846Y0004494D01*
X0028500Y0017270D02*
X0013100Y0017270D01*
X0013100Y0018069D02*
X0029299Y0018069D01*
X0030097Y0018867D02*
X0028340Y0018867D01*
X0030533Y0019666D02*
X0030896Y0019666D01*
X0022960Y0018867D02*
X0013100Y0018867D01*
X0013100Y0019666D02*
X0020766Y0019666D01*
X0019038Y0020464D02*
X0013100Y0020464D01*
X0013100Y0021263D02*
X0018086Y0021263D01*
X0017135Y0022061D02*
X0013100Y0022061D01*
X0013100Y0022860D02*
X0016183Y0022860D01*
X0015662Y0023658D02*
X0013100Y0023658D01*
X0013100Y0024457D02*
X0015201Y0024457D01*
X0014740Y0025255D02*
X0013100Y0025255D01*
X0013100Y0026054D02*
X0014279Y0026054D01*
X0013870Y0026852D02*
X0013100Y0026852D01*
X0013100Y0027651D02*
X0013730Y0027651D01*
X0013589Y0028449D02*
X0013100Y0028449D01*
X0013100Y0029248D02*
X0013448Y0029248D01*
X0013307Y0030046D02*
X0013100Y0030046D01*
X0013100Y0030845D02*
X0013166Y0030845D01*
X0013100Y0031643D02*
X0013252Y0031643D01*
X0013393Y0032442D02*
X0013100Y0032442D01*
X0013100Y0033240D02*
X0013534Y0033240D01*
X0013675Y0034039D02*
X0013100Y0034039D01*
X0013100Y0034837D02*
X0013816Y0034837D01*
X0014100Y0035636D02*
X0013100Y0035636D01*
X0013100Y0036434D02*
X0014561Y0036434D01*
X0015022Y0037233D02*
X0013100Y0037233D01*
X0013100Y0038032D02*
X0015483Y0038032D01*
X0015944Y0038830D02*
X0013100Y0038830D01*
X0013100Y0039629D02*
X0016765Y0039629D01*
X0017717Y0040427D02*
X0013100Y0040427D01*
X0013100Y0041226D02*
X0018668Y0041226D01*
X0019914Y0042024D02*
X0013100Y0042024D01*
X0013100Y0042823D02*
X0022108Y0042823D01*
X0019095Y0049211D02*
X0032427Y0049211D01*
X0031629Y0050009D02*
X0019893Y0050009D01*
X0020692Y0050808D02*
X0030830Y0050808D01*
X0030240Y0051606D02*
X0021182Y0051606D01*
X0021182Y0052405D02*
X0030240Y0052405D01*
X0030240Y0053203D02*
X0021182Y0053203D01*
X0021182Y0054002D02*
X0030240Y0054002D01*
X0030240Y0054800D02*
X0021182Y0054800D01*
X0020485Y0055599D02*
X0030837Y0055599D01*
X0031635Y0056397D02*
X0019687Y0056397D01*
X0018888Y0057196D02*
X0032434Y0057196D01*
X0036408Y0048412D02*
X0015114Y0048412D01*
X0014316Y0047614D02*
X0037100Y0047614D01*
X0037100Y0046815D02*
X0013517Y0046815D01*
X0013100Y0046017D02*
X0037100Y0046017D01*
X0037100Y0045218D02*
X0013100Y0045218D01*
X0013100Y0044420D02*
X0037100Y0044420D01*
X0037100Y0043621D02*
X0013100Y0043621D01*
X0003800Y0058793D02*
X0047500Y0058793D01*
X0047500Y0059591D02*
X0003800Y0059591D01*
X0003819Y0060390D02*
X0047481Y0060390D01*
X0047304Y0061188D02*
X0003996Y0061188D01*
X0004326Y0061987D02*
X0046973Y0061987D01*
X0046266Y0062785D02*
X0005034Y0062785D01*
X0006504Y0063584D02*
X0044796Y0063584D01*
X0037100Y0042823D02*
X0029192Y0042823D01*
X0031386Y0042024D02*
X0037100Y0042024D01*
X0037100Y0041226D02*
X0032632Y0041226D01*
X0033583Y0040427D02*
X0037100Y0040427D01*
X0037100Y0039629D02*
X0034535Y0039629D01*
X0035356Y0038830D02*
X0037100Y0038830D01*
X0037100Y0038032D02*
X0035817Y0038032D01*
X0036278Y0037233D02*
X0037100Y0037233D01*
X0037100Y0036434D02*
X0036739Y0036434D01*
X0010950Y0006091D02*
X0004046Y0006091D01*
X0004376Y0005293D02*
X0010950Y0005293D01*
X0010950Y0004494D02*
X0005155Y0004494D01*
M02*
