G75*
%MOIN*%
%OFA0B0*%
%FSLAX25Y25*%
%IPPOS*%
%LPD*%
%AMOC8*
5,1,8,0,0,1.08239X$1,22.5*
%
%ADD10C,0.00000*%
%ADD11R,0.05315X0.05315*%
%ADD12C,0.05315*%
%ADD13R,0.06500X0.06500*%
%ADD14C,0.06500*%
%ADD15R,0.02500X0.05000*%
%ADD16R,0.05000X0.02500*%
%ADD17C,0.00800*%
%ADD18C,0.02400*%
%ADD19C,0.03000*%
%ADD20C,0.01200*%
%ADD21C,0.02000*%
D10*
X0007306Y0001900D02*
X0139117Y0001900D01*
X0139269Y0001902D01*
X0139421Y0001908D01*
X0139573Y0001918D01*
X0139724Y0001931D01*
X0139875Y0001949D01*
X0140026Y0001970D01*
X0140176Y0001996D01*
X0140325Y0002025D01*
X0140474Y0002058D01*
X0140621Y0002095D01*
X0140768Y0002135D01*
X0140913Y0002180D01*
X0141057Y0002228D01*
X0141200Y0002280D01*
X0141342Y0002335D01*
X0141482Y0002394D01*
X0141621Y0002457D01*
X0141758Y0002523D01*
X0141893Y0002593D01*
X0142026Y0002666D01*
X0142157Y0002743D01*
X0142287Y0002823D01*
X0142414Y0002906D01*
X0142539Y0002992D01*
X0142662Y0003082D01*
X0142782Y0003175D01*
X0142900Y0003271D01*
X0143016Y0003370D01*
X0143129Y0003472D01*
X0143239Y0003576D01*
X0143347Y0003684D01*
X0143451Y0003794D01*
X0143553Y0003907D01*
X0143652Y0004023D01*
X0143748Y0004141D01*
X0143841Y0004261D01*
X0143931Y0004384D01*
X0144017Y0004509D01*
X0144100Y0004636D01*
X0144180Y0004766D01*
X0144257Y0004897D01*
X0144330Y0005030D01*
X0144400Y0005165D01*
X0144466Y0005302D01*
X0144529Y0005441D01*
X0144588Y0005581D01*
X0144643Y0005723D01*
X0144695Y0005866D01*
X0144743Y0006010D01*
X0144788Y0006155D01*
X0144828Y0006302D01*
X0144865Y0006449D01*
X0144898Y0006598D01*
X0144927Y0006747D01*
X0144953Y0006897D01*
X0144974Y0007048D01*
X0144992Y0007199D01*
X0145005Y0007350D01*
X0145015Y0007502D01*
X0145021Y0007654D01*
X0145023Y0007806D01*
X0145022Y0007806D02*
X0145022Y0179617D01*
X0145023Y0179617D02*
X0145021Y0179769D01*
X0145015Y0179921D01*
X0145005Y0180073D01*
X0144992Y0180224D01*
X0144974Y0180375D01*
X0144953Y0180526D01*
X0144927Y0180676D01*
X0144898Y0180825D01*
X0144865Y0180974D01*
X0144828Y0181121D01*
X0144788Y0181268D01*
X0144743Y0181413D01*
X0144695Y0181557D01*
X0144643Y0181700D01*
X0144588Y0181842D01*
X0144529Y0181982D01*
X0144466Y0182121D01*
X0144400Y0182258D01*
X0144330Y0182393D01*
X0144257Y0182526D01*
X0144180Y0182657D01*
X0144100Y0182787D01*
X0144017Y0182914D01*
X0143931Y0183039D01*
X0143841Y0183162D01*
X0143748Y0183282D01*
X0143652Y0183400D01*
X0143553Y0183516D01*
X0143451Y0183629D01*
X0143347Y0183739D01*
X0143239Y0183847D01*
X0143129Y0183951D01*
X0143016Y0184053D01*
X0142900Y0184152D01*
X0142782Y0184248D01*
X0142662Y0184341D01*
X0142539Y0184431D01*
X0142414Y0184517D01*
X0142287Y0184600D01*
X0142157Y0184680D01*
X0142026Y0184757D01*
X0141893Y0184830D01*
X0141758Y0184900D01*
X0141621Y0184966D01*
X0141482Y0185029D01*
X0141342Y0185088D01*
X0141200Y0185143D01*
X0141057Y0185195D01*
X0140913Y0185243D01*
X0140768Y0185288D01*
X0140621Y0185328D01*
X0140474Y0185365D01*
X0140325Y0185398D01*
X0140176Y0185427D01*
X0140026Y0185453D01*
X0139875Y0185474D01*
X0139724Y0185492D01*
X0139573Y0185505D01*
X0139421Y0185515D01*
X0139269Y0185521D01*
X0139117Y0185523D01*
X0139117Y0185522D02*
X0007306Y0185522D01*
X0007306Y0185523D02*
X0007154Y0185521D01*
X0007002Y0185515D01*
X0006850Y0185505D01*
X0006699Y0185492D01*
X0006548Y0185474D01*
X0006397Y0185453D01*
X0006247Y0185427D01*
X0006098Y0185398D01*
X0005949Y0185365D01*
X0005802Y0185328D01*
X0005655Y0185288D01*
X0005510Y0185243D01*
X0005366Y0185195D01*
X0005223Y0185143D01*
X0005081Y0185088D01*
X0004941Y0185029D01*
X0004802Y0184966D01*
X0004665Y0184900D01*
X0004530Y0184830D01*
X0004397Y0184757D01*
X0004266Y0184680D01*
X0004136Y0184600D01*
X0004009Y0184517D01*
X0003884Y0184431D01*
X0003761Y0184341D01*
X0003641Y0184248D01*
X0003523Y0184152D01*
X0003407Y0184053D01*
X0003294Y0183951D01*
X0003184Y0183847D01*
X0003076Y0183739D01*
X0002972Y0183629D01*
X0002870Y0183516D01*
X0002771Y0183400D01*
X0002675Y0183282D01*
X0002582Y0183162D01*
X0002492Y0183039D01*
X0002406Y0182914D01*
X0002323Y0182787D01*
X0002243Y0182657D01*
X0002166Y0182526D01*
X0002093Y0182393D01*
X0002023Y0182258D01*
X0001957Y0182121D01*
X0001894Y0181982D01*
X0001835Y0181842D01*
X0001780Y0181700D01*
X0001728Y0181557D01*
X0001680Y0181413D01*
X0001635Y0181268D01*
X0001595Y0181121D01*
X0001558Y0180974D01*
X0001525Y0180825D01*
X0001496Y0180676D01*
X0001470Y0180526D01*
X0001449Y0180375D01*
X0001431Y0180224D01*
X0001418Y0180073D01*
X0001408Y0179921D01*
X0001402Y0179769D01*
X0001400Y0179617D01*
X0001400Y0007806D01*
X0001402Y0007654D01*
X0001408Y0007502D01*
X0001418Y0007350D01*
X0001431Y0007199D01*
X0001449Y0007048D01*
X0001470Y0006897D01*
X0001496Y0006747D01*
X0001525Y0006598D01*
X0001558Y0006449D01*
X0001595Y0006302D01*
X0001635Y0006155D01*
X0001680Y0006010D01*
X0001728Y0005866D01*
X0001780Y0005723D01*
X0001835Y0005581D01*
X0001894Y0005441D01*
X0001957Y0005302D01*
X0002023Y0005165D01*
X0002093Y0005030D01*
X0002166Y0004897D01*
X0002243Y0004766D01*
X0002323Y0004636D01*
X0002406Y0004509D01*
X0002492Y0004384D01*
X0002582Y0004261D01*
X0002675Y0004141D01*
X0002771Y0004023D01*
X0002870Y0003907D01*
X0002972Y0003794D01*
X0003076Y0003684D01*
X0003184Y0003576D01*
X0003294Y0003472D01*
X0003407Y0003370D01*
X0003523Y0003271D01*
X0003641Y0003175D01*
X0003761Y0003082D01*
X0003884Y0002992D01*
X0004009Y0002906D01*
X0004136Y0002823D01*
X0004266Y0002743D01*
X0004397Y0002666D01*
X0004530Y0002593D01*
X0004665Y0002523D01*
X0004802Y0002457D01*
X0004941Y0002394D01*
X0005081Y0002335D01*
X0005223Y0002280D01*
X0005366Y0002228D01*
X0005510Y0002180D01*
X0005655Y0002135D01*
X0005802Y0002095D01*
X0005949Y0002058D01*
X0006098Y0002025D01*
X0006247Y0001996D01*
X0006397Y0001970D01*
X0006548Y0001949D01*
X0006699Y0001931D01*
X0006850Y0001918D01*
X0007002Y0001908D01*
X0007154Y0001902D01*
X0007306Y0001900D01*
X0007305Y0013711D02*
X0007307Y0013864D01*
X0007313Y0014018D01*
X0007323Y0014171D01*
X0007337Y0014323D01*
X0007355Y0014476D01*
X0007377Y0014627D01*
X0007402Y0014778D01*
X0007432Y0014929D01*
X0007466Y0015079D01*
X0007503Y0015227D01*
X0007544Y0015375D01*
X0007589Y0015521D01*
X0007638Y0015667D01*
X0007691Y0015811D01*
X0007747Y0015953D01*
X0007807Y0016094D01*
X0007871Y0016234D01*
X0007938Y0016372D01*
X0008009Y0016508D01*
X0008084Y0016642D01*
X0008161Y0016774D01*
X0008243Y0016904D01*
X0008327Y0017032D01*
X0008415Y0017158D01*
X0008506Y0017281D01*
X0008600Y0017402D01*
X0008698Y0017520D01*
X0008798Y0017636D01*
X0008902Y0017749D01*
X0009008Y0017860D01*
X0009117Y0017968D01*
X0009229Y0018073D01*
X0009343Y0018174D01*
X0009461Y0018273D01*
X0009580Y0018369D01*
X0009702Y0018462D01*
X0009827Y0018551D01*
X0009954Y0018638D01*
X0010083Y0018720D01*
X0010214Y0018800D01*
X0010347Y0018876D01*
X0010482Y0018949D01*
X0010619Y0019018D01*
X0010758Y0019083D01*
X0010898Y0019145D01*
X0011040Y0019203D01*
X0011183Y0019258D01*
X0011328Y0019309D01*
X0011474Y0019356D01*
X0011621Y0019399D01*
X0011769Y0019438D01*
X0011918Y0019474D01*
X0012068Y0019505D01*
X0012219Y0019533D01*
X0012370Y0019557D01*
X0012523Y0019577D01*
X0012675Y0019593D01*
X0012828Y0019605D01*
X0012981Y0019613D01*
X0013134Y0019617D01*
X0013288Y0019617D01*
X0013441Y0019613D01*
X0013594Y0019605D01*
X0013747Y0019593D01*
X0013899Y0019577D01*
X0014052Y0019557D01*
X0014203Y0019533D01*
X0014354Y0019505D01*
X0014504Y0019474D01*
X0014653Y0019438D01*
X0014801Y0019399D01*
X0014948Y0019356D01*
X0015094Y0019309D01*
X0015239Y0019258D01*
X0015382Y0019203D01*
X0015524Y0019145D01*
X0015664Y0019083D01*
X0015803Y0019018D01*
X0015940Y0018949D01*
X0016075Y0018876D01*
X0016208Y0018800D01*
X0016339Y0018720D01*
X0016468Y0018638D01*
X0016595Y0018551D01*
X0016720Y0018462D01*
X0016842Y0018369D01*
X0016961Y0018273D01*
X0017079Y0018174D01*
X0017193Y0018073D01*
X0017305Y0017968D01*
X0017414Y0017860D01*
X0017520Y0017749D01*
X0017624Y0017636D01*
X0017724Y0017520D01*
X0017822Y0017402D01*
X0017916Y0017281D01*
X0018007Y0017158D01*
X0018095Y0017032D01*
X0018179Y0016904D01*
X0018261Y0016774D01*
X0018338Y0016642D01*
X0018413Y0016508D01*
X0018484Y0016372D01*
X0018551Y0016234D01*
X0018615Y0016094D01*
X0018675Y0015953D01*
X0018731Y0015811D01*
X0018784Y0015667D01*
X0018833Y0015521D01*
X0018878Y0015375D01*
X0018919Y0015227D01*
X0018956Y0015079D01*
X0018990Y0014929D01*
X0019020Y0014778D01*
X0019045Y0014627D01*
X0019067Y0014476D01*
X0019085Y0014323D01*
X0019099Y0014171D01*
X0019109Y0014018D01*
X0019115Y0013864D01*
X0019117Y0013711D01*
X0019115Y0013558D01*
X0019109Y0013404D01*
X0019099Y0013251D01*
X0019085Y0013099D01*
X0019067Y0012946D01*
X0019045Y0012795D01*
X0019020Y0012644D01*
X0018990Y0012493D01*
X0018956Y0012343D01*
X0018919Y0012195D01*
X0018878Y0012047D01*
X0018833Y0011901D01*
X0018784Y0011755D01*
X0018731Y0011611D01*
X0018675Y0011469D01*
X0018615Y0011328D01*
X0018551Y0011188D01*
X0018484Y0011050D01*
X0018413Y0010914D01*
X0018338Y0010780D01*
X0018261Y0010648D01*
X0018179Y0010518D01*
X0018095Y0010390D01*
X0018007Y0010264D01*
X0017916Y0010141D01*
X0017822Y0010020D01*
X0017724Y0009902D01*
X0017624Y0009786D01*
X0017520Y0009673D01*
X0017414Y0009562D01*
X0017305Y0009454D01*
X0017193Y0009349D01*
X0017079Y0009248D01*
X0016961Y0009149D01*
X0016842Y0009053D01*
X0016720Y0008960D01*
X0016595Y0008871D01*
X0016468Y0008784D01*
X0016339Y0008702D01*
X0016208Y0008622D01*
X0016075Y0008546D01*
X0015940Y0008473D01*
X0015803Y0008404D01*
X0015664Y0008339D01*
X0015524Y0008277D01*
X0015382Y0008219D01*
X0015239Y0008164D01*
X0015094Y0008113D01*
X0014948Y0008066D01*
X0014801Y0008023D01*
X0014653Y0007984D01*
X0014504Y0007948D01*
X0014354Y0007917D01*
X0014203Y0007889D01*
X0014052Y0007865D01*
X0013899Y0007845D01*
X0013747Y0007829D01*
X0013594Y0007817D01*
X0013441Y0007809D01*
X0013288Y0007805D01*
X0013134Y0007805D01*
X0012981Y0007809D01*
X0012828Y0007817D01*
X0012675Y0007829D01*
X0012523Y0007845D01*
X0012370Y0007865D01*
X0012219Y0007889D01*
X0012068Y0007917D01*
X0011918Y0007948D01*
X0011769Y0007984D01*
X0011621Y0008023D01*
X0011474Y0008066D01*
X0011328Y0008113D01*
X0011183Y0008164D01*
X0011040Y0008219D01*
X0010898Y0008277D01*
X0010758Y0008339D01*
X0010619Y0008404D01*
X0010482Y0008473D01*
X0010347Y0008546D01*
X0010214Y0008622D01*
X0010083Y0008702D01*
X0009954Y0008784D01*
X0009827Y0008871D01*
X0009702Y0008960D01*
X0009580Y0009053D01*
X0009461Y0009149D01*
X0009343Y0009248D01*
X0009229Y0009349D01*
X0009117Y0009454D01*
X0009008Y0009562D01*
X0008902Y0009673D01*
X0008798Y0009786D01*
X0008698Y0009902D01*
X0008600Y0010020D01*
X0008506Y0010141D01*
X0008415Y0010264D01*
X0008327Y0010390D01*
X0008243Y0010518D01*
X0008161Y0010648D01*
X0008084Y0010780D01*
X0008009Y0010914D01*
X0007938Y0011050D01*
X0007871Y0011188D01*
X0007807Y0011328D01*
X0007747Y0011469D01*
X0007691Y0011611D01*
X0007638Y0011755D01*
X0007589Y0011901D01*
X0007544Y0012047D01*
X0007503Y0012195D01*
X0007466Y0012343D01*
X0007432Y0012493D01*
X0007402Y0012644D01*
X0007377Y0012795D01*
X0007355Y0012946D01*
X0007337Y0013099D01*
X0007323Y0013251D01*
X0007313Y0013404D01*
X0007307Y0013558D01*
X0007305Y0013711D01*
X0108327Y0088194D02*
X0108329Y0088275D01*
X0108335Y0088357D01*
X0108345Y0088438D01*
X0108359Y0088518D01*
X0108376Y0088597D01*
X0108398Y0088676D01*
X0108423Y0088753D01*
X0108452Y0088830D01*
X0108485Y0088904D01*
X0108522Y0088977D01*
X0108561Y0089048D01*
X0108605Y0089117D01*
X0108651Y0089184D01*
X0108701Y0089248D01*
X0108754Y0089310D01*
X0108810Y0089370D01*
X0108868Y0089426D01*
X0108930Y0089480D01*
X0108994Y0089531D01*
X0109060Y0089578D01*
X0109128Y0089622D01*
X0109199Y0089663D01*
X0109271Y0089700D01*
X0109346Y0089734D01*
X0109421Y0089764D01*
X0109499Y0089790D01*
X0109577Y0089813D01*
X0109656Y0089831D01*
X0109736Y0089846D01*
X0109817Y0089857D01*
X0109898Y0089864D01*
X0109980Y0089867D01*
X0110061Y0089866D01*
X0110142Y0089861D01*
X0110223Y0089852D01*
X0110304Y0089839D01*
X0110384Y0089822D01*
X0110462Y0089802D01*
X0110540Y0089777D01*
X0110617Y0089749D01*
X0110692Y0089717D01*
X0110765Y0089682D01*
X0110836Y0089643D01*
X0110906Y0089600D01*
X0110973Y0089555D01*
X0111039Y0089506D01*
X0111101Y0089454D01*
X0111161Y0089398D01*
X0111218Y0089340D01*
X0111273Y0089280D01*
X0111324Y0089216D01*
X0111372Y0089151D01*
X0111417Y0089083D01*
X0111459Y0089013D01*
X0111497Y0088941D01*
X0111532Y0088867D01*
X0111563Y0088792D01*
X0111590Y0088715D01*
X0111613Y0088637D01*
X0111633Y0088558D01*
X0111649Y0088478D01*
X0111661Y0088397D01*
X0111669Y0088316D01*
X0111673Y0088235D01*
X0111673Y0088153D01*
X0111669Y0088072D01*
X0111661Y0087991D01*
X0111649Y0087910D01*
X0111633Y0087830D01*
X0111613Y0087751D01*
X0111590Y0087673D01*
X0111563Y0087596D01*
X0111532Y0087521D01*
X0111497Y0087447D01*
X0111459Y0087375D01*
X0111417Y0087305D01*
X0111372Y0087237D01*
X0111324Y0087172D01*
X0111273Y0087108D01*
X0111218Y0087048D01*
X0111161Y0086990D01*
X0111101Y0086934D01*
X0111039Y0086882D01*
X0110973Y0086833D01*
X0110906Y0086788D01*
X0110837Y0086745D01*
X0110765Y0086706D01*
X0110692Y0086671D01*
X0110617Y0086639D01*
X0110540Y0086611D01*
X0110462Y0086586D01*
X0110384Y0086566D01*
X0110304Y0086549D01*
X0110223Y0086536D01*
X0110142Y0086527D01*
X0110061Y0086522D01*
X0109980Y0086521D01*
X0109898Y0086524D01*
X0109817Y0086531D01*
X0109736Y0086542D01*
X0109656Y0086557D01*
X0109577Y0086575D01*
X0109499Y0086598D01*
X0109421Y0086624D01*
X0109346Y0086654D01*
X0109271Y0086688D01*
X0109199Y0086725D01*
X0109128Y0086766D01*
X0109060Y0086810D01*
X0108994Y0086857D01*
X0108930Y0086908D01*
X0108868Y0086962D01*
X0108810Y0087018D01*
X0108754Y0087078D01*
X0108701Y0087140D01*
X0108651Y0087204D01*
X0108605Y0087271D01*
X0108561Y0087340D01*
X0108522Y0087411D01*
X0108485Y0087484D01*
X0108452Y0087558D01*
X0108423Y0087635D01*
X0108398Y0087712D01*
X0108376Y0087791D01*
X0108359Y0087870D01*
X0108345Y0087950D01*
X0108335Y0088031D01*
X0108329Y0088113D01*
X0108327Y0088194D01*
X0108327Y0100006D02*
X0108329Y0100087D01*
X0108335Y0100169D01*
X0108345Y0100250D01*
X0108359Y0100330D01*
X0108376Y0100409D01*
X0108398Y0100488D01*
X0108423Y0100565D01*
X0108452Y0100642D01*
X0108485Y0100716D01*
X0108522Y0100789D01*
X0108561Y0100860D01*
X0108605Y0100929D01*
X0108651Y0100996D01*
X0108701Y0101060D01*
X0108754Y0101122D01*
X0108810Y0101182D01*
X0108868Y0101238D01*
X0108930Y0101292D01*
X0108994Y0101343D01*
X0109060Y0101390D01*
X0109128Y0101434D01*
X0109199Y0101475D01*
X0109271Y0101512D01*
X0109346Y0101546D01*
X0109421Y0101576D01*
X0109499Y0101602D01*
X0109577Y0101625D01*
X0109656Y0101643D01*
X0109736Y0101658D01*
X0109817Y0101669D01*
X0109898Y0101676D01*
X0109980Y0101679D01*
X0110061Y0101678D01*
X0110142Y0101673D01*
X0110223Y0101664D01*
X0110304Y0101651D01*
X0110384Y0101634D01*
X0110462Y0101614D01*
X0110540Y0101589D01*
X0110617Y0101561D01*
X0110692Y0101529D01*
X0110765Y0101494D01*
X0110836Y0101455D01*
X0110906Y0101412D01*
X0110973Y0101367D01*
X0111039Y0101318D01*
X0111101Y0101266D01*
X0111161Y0101210D01*
X0111218Y0101152D01*
X0111273Y0101092D01*
X0111324Y0101028D01*
X0111372Y0100963D01*
X0111417Y0100895D01*
X0111459Y0100825D01*
X0111497Y0100753D01*
X0111532Y0100679D01*
X0111563Y0100604D01*
X0111590Y0100527D01*
X0111613Y0100449D01*
X0111633Y0100370D01*
X0111649Y0100290D01*
X0111661Y0100209D01*
X0111669Y0100128D01*
X0111673Y0100047D01*
X0111673Y0099965D01*
X0111669Y0099884D01*
X0111661Y0099803D01*
X0111649Y0099722D01*
X0111633Y0099642D01*
X0111613Y0099563D01*
X0111590Y0099485D01*
X0111563Y0099408D01*
X0111532Y0099333D01*
X0111497Y0099259D01*
X0111459Y0099187D01*
X0111417Y0099117D01*
X0111372Y0099049D01*
X0111324Y0098984D01*
X0111273Y0098920D01*
X0111218Y0098860D01*
X0111161Y0098802D01*
X0111101Y0098746D01*
X0111039Y0098694D01*
X0110973Y0098645D01*
X0110906Y0098600D01*
X0110837Y0098557D01*
X0110765Y0098518D01*
X0110692Y0098483D01*
X0110617Y0098451D01*
X0110540Y0098423D01*
X0110462Y0098398D01*
X0110384Y0098378D01*
X0110304Y0098361D01*
X0110223Y0098348D01*
X0110142Y0098339D01*
X0110061Y0098334D01*
X0109980Y0098333D01*
X0109898Y0098336D01*
X0109817Y0098343D01*
X0109736Y0098354D01*
X0109656Y0098369D01*
X0109577Y0098387D01*
X0109499Y0098410D01*
X0109421Y0098436D01*
X0109346Y0098466D01*
X0109271Y0098500D01*
X0109199Y0098537D01*
X0109128Y0098578D01*
X0109060Y0098622D01*
X0108994Y0098669D01*
X0108930Y0098720D01*
X0108868Y0098774D01*
X0108810Y0098830D01*
X0108754Y0098890D01*
X0108701Y0098952D01*
X0108651Y0099016D01*
X0108605Y0099083D01*
X0108561Y0099152D01*
X0108522Y0099223D01*
X0108485Y0099296D01*
X0108452Y0099370D01*
X0108423Y0099447D01*
X0108398Y0099524D01*
X0108376Y0099603D01*
X0108359Y0099682D01*
X0108345Y0099762D01*
X0108335Y0099843D01*
X0108329Y0099925D01*
X0108327Y0100006D01*
X0127305Y0173711D02*
X0127307Y0173864D01*
X0127313Y0174018D01*
X0127323Y0174171D01*
X0127337Y0174323D01*
X0127355Y0174476D01*
X0127377Y0174627D01*
X0127402Y0174778D01*
X0127432Y0174929D01*
X0127466Y0175079D01*
X0127503Y0175227D01*
X0127544Y0175375D01*
X0127589Y0175521D01*
X0127638Y0175667D01*
X0127691Y0175811D01*
X0127747Y0175953D01*
X0127807Y0176094D01*
X0127871Y0176234D01*
X0127938Y0176372D01*
X0128009Y0176508D01*
X0128084Y0176642D01*
X0128161Y0176774D01*
X0128243Y0176904D01*
X0128327Y0177032D01*
X0128415Y0177158D01*
X0128506Y0177281D01*
X0128600Y0177402D01*
X0128698Y0177520D01*
X0128798Y0177636D01*
X0128902Y0177749D01*
X0129008Y0177860D01*
X0129117Y0177968D01*
X0129229Y0178073D01*
X0129343Y0178174D01*
X0129461Y0178273D01*
X0129580Y0178369D01*
X0129702Y0178462D01*
X0129827Y0178551D01*
X0129954Y0178638D01*
X0130083Y0178720D01*
X0130214Y0178800D01*
X0130347Y0178876D01*
X0130482Y0178949D01*
X0130619Y0179018D01*
X0130758Y0179083D01*
X0130898Y0179145D01*
X0131040Y0179203D01*
X0131183Y0179258D01*
X0131328Y0179309D01*
X0131474Y0179356D01*
X0131621Y0179399D01*
X0131769Y0179438D01*
X0131918Y0179474D01*
X0132068Y0179505D01*
X0132219Y0179533D01*
X0132370Y0179557D01*
X0132523Y0179577D01*
X0132675Y0179593D01*
X0132828Y0179605D01*
X0132981Y0179613D01*
X0133134Y0179617D01*
X0133288Y0179617D01*
X0133441Y0179613D01*
X0133594Y0179605D01*
X0133747Y0179593D01*
X0133899Y0179577D01*
X0134052Y0179557D01*
X0134203Y0179533D01*
X0134354Y0179505D01*
X0134504Y0179474D01*
X0134653Y0179438D01*
X0134801Y0179399D01*
X0134948Y0179356D01*
X0135094Y0179309D01*
X0135239Y0179258D01*
X0135382Y0179203D01*
X0135524Y0179145D01*
X0135664Y0179083D01*
X0135803Y0179018D01*
X0135940Y0178949D01*
X0136075Y0178876D01*
X0136208Y0178800D01*
X0136339Y0178720D01*
X0136468Y0178638D01*
X0136595Y0178551D01*
X0136720Y0178462D01*
X0136842Y0178369D01*
X0136961Y0178273D01*
X0137079Y0178174D01*
X0137193Y0178073D01*
X0137305Y0177968D01*
X0137414Y0177860D01*
X0137520Y0177749D01*
X0137624Y0177636D01*
X0137724Y0177520D01*
X0137822Y0177402D01*
X0137916Y0177281D01*
X0138007Y0177158D01*
X0138095Y0177032D01*
X0138179Y0176904D01*
X0138261Y0176774D01*
X0138338Y0176642D01*
X0138413Y0176508D01*
X0138484Y0176372D01*
X0138551Y0176234D01*
X0138615Y0176094D01*
X0138675Y0175953D01*
X0138731Y0175811D01*
X0138784Y0175667D01*
X0138833Y0175521D01*
X0138878Y0175375D01*
X0138919Y0175227D01*
X0138956Y0175079D01*
X0138990Y0174929D01*
X0139020Y0174778D01*
X0139045Y0174627D01*
X0139067Y0174476D01*
X0139085Y0174323D01*
X0139099Y0174171D01*
X0139109Y0174018D01*
X0139115Y0173864D01*
X0139117Y0173711D01*
X0139115Y0173558D01*
X0139109Y0173404D01*
X0139099Y0173251D01*
X0139085Y0173099D01*
X0139067Y0172946D01*
X0139045Y0172795D01*
X0139020Y0172644D01*
X0138990Y0172493D01*
X0138956Y0172343D01*
X0138919Y0172195D01*
X0138878Y0172047D01*
X0138833Y0171901D01*
X0138784Y0171755D01*
X0138731Y0171611D01*
X0138675Y0171469D01*
X0138615Y0171328D01*
X0138551Y0171188D01*
X0138484Y0171050D01*
X0138413Y0170914D01*
X0138338Y0170780D01*
X0138261Y0170648D01*
X0138179Y0170518D01*
X0138095Y0170390D01*
X0138007Y0170264D01*
X0137916Y0170141D01*
X0137822Y0170020D01*
X0137724Y0169902D01*
X0137624Y0169786D01*
X0137520Y0169673D01*
X0137414Y0169562D01*
X0137305Y0169454D01*
X0137193Y0169349D01*
X0137079Y0169248D01*
X0136961Y0169149D01*
X0136842Y0169053D01*
X0136720Y0168960D01*
X0136595Y0168871D01*
X0136468Y0168784D01*
X0136339Y0168702D01*
X0136208Y0168622D01*
X0136075Y0168546D01*
X0135940Y0168473D01*
X0135803Y0168404D01*
X0135664Y0168339D01*
X0135524Y0168277D01*
X0135382Y0168219D01*
X0135239Y0168164D01*
X0135094Y0168113D01*
X0134948Y0168066D01*
X0134801Y0168023D01*
X0134653Y0167984D01*
X0134504Y0167948D01*
X0134354Y0167917D01*
X0134203Y0167889D01*
X0134052Y0167865D01*
X0133899Y0167845D01*
X0133747Y0167829D01*
X0133594Y0167817D01*
X0133441Y0167809D01*
X0133288Y0167805D01*
X0133134Y0167805D01*
X0132981Y0167809D01*
X0132828Y0167817D01*
X0132675Y0167829D01*
X0132523Y0167845D01*
X0132370Y0167865D01*
X0132219Y0167889D01*
X0132068Y0167917D01*
X0131918Y0167948D01*
X0131769Y0167984D01*
X0131621Y0168023D01*
X0131474Y0168066D01*
X0131328Y0168113D01*
X0131183Y0168164D01*
X0131040Y0168219D01*
X0130898Y0168277D01*
X0130758Y0168339D01*
X0130619Y0168404D01*
X0130482Y0168473D01*
X0130347Y0168546D01*
X0130214Y0168622D01*
X0130083Y0168702D01*
X0129954Y0168784D01*
X0129827Y0168871D01*
X0129702Y0168960D01*
X0129580Y0169053D01*
X0129461Y0169149D01*
X0129343Y0169248D01*
X0129229Y0169349D01*
X0129117Y0169454D01*
X0129008Y0169562D01*
X0128902Y0169673D01*
X0128798Y0169786D01*
X0128698Y0169902D01*
X0128600Y0170020D01*
X0128506Y0170141D01*
X0128415Y0170264D01*
X0128327Y0170390D01*
X0128243Y0170518D01*
X0128161Y0170648D01*
X0128084Y0170780D01*
X0128009Y0170914D01*
X0127938Y0171050D01*
X0127871Y0171188D01*
X0127807Y0171328D01*
X0127747Y0171469D01*
X0127691Y0171611D01*
X0127638Y0171755D01*
X0127589Y0171901D01*
X0127544Y0172047D01*
X0127503Y0172195D01*
X0127466Y0172343D01*
X0127432Y0172493D01*
X0127402Y0172644D01*
X0127377Y0172795D01*
X0127355Y0172946D01*
X0127337Y0173099D01*
X0127323Y0173251D01*
X0127313Y0173404D01*
X0127307Y0173558D01*
X0127305Y0173711D01*
X0007305Y0173711D02*
X0007307Y0173864D01*
X0007313Y0174018D01*
X0007323Y0174171D01*
X0007337Y0174323D01*
X0007355Y0174476D01*
X0007377Y0174627D01*
X0007402Y0174778D01*
X0007432Y0174929D01*
X0007466Y0175079D01*
X0007503Y0175227D01*
X0007544Y0175375D01*
X0007589Y0175521D01*
X0007638Y0175667D01*
X0007691Y0175811D01*
X0007747Y0175953D01*
X0007807Y0176094D01*
X0007871Y0176234D01*
X0007938Y0176372D01*
X0008009Y0176508D01*
X0008084Y0176642D01*
X0008161Y0176774D01*
X0008243Y0176904D01*
X0008327Y0177032D01*
X0008415Y0177158D01*
X0008506Y0177281D01*
X0008600Y0177402D01*
X0008698Y0177520D01*
X0008798Y0177636D01*
X0008902Y0177749D01*
X0009008Y0177860D01*
X0009117Y0177968D01*
X0009229Y0178073D01*
X0009343Y0178174D01*
X0009461Y0178273D01*
X0009580Y0178369D01*
X0009702Y0178462D01*
X0009827Y0178551D01*
X0009954Y0178638D01*
X0010083Y0178720D01*
X0010214Y0178800D01*
X0010347Y0178876D01*
X0010482Y0178949D01*
X0010619Y0179018D01*
X0010758Y0179083D01*
X0010898Y0179145D01*
X0011040Y0179203D01*
X0011183Y0179258D01*
X0011328Y0179309D01*
X0011474Y0179356D01*
X0011621Y0179399D01*
X0011769Y0179438D01*
X0011918Y0179474D01*
X0012068Y0179505D01*
X0012219Y0179533D01*
X0012370Y0179557D01*
X0012523Y0179577D01*
X0012675Y0179593D01*
X0012828Y0179605D01*
X0012981Y0179613D01*
X0013134Y0179617D01*
X0013288Y0179617D01*
X0013441Y0179613D01*
X0013594Y0179605D01*
X0013747Y0179593D01*
X0013899Y0179577D01*
X0014052Y0179557D01*
X0014203Y0179533D01*
X0014354Y0179505D01*
X0014504Y0179474D01*
X0014653Y0179438D01*
X0014801Y0179399D01*
X0014948Y0179356D01*
X0015094Y0179309D01*
X0015239Y0179258D01*
X0015382Y0179203D01*
X0015524Y0179145D01*
X0015664Y0179083D01*
X0015803Y0179018D01*
X0015940Y0178949D01*
X0016075Y0178876D01*
X0016208Y0178800D01*
X0016339Y0178720D01*
X0016468Y0178638D01*
X0016595Y0178551D01*
X0016720Y0178462D01*
X0016842Y0178369D01*
X0016961Y0178273D01*
X0017079Y0178174D01*
X0017193Y0178073D01*
X0017305Y0177968D01*
X0017414Y0177860D01*
X0017520Y0177749D01*
X0017624Y0177636D01*
X0017724Y0177520D01*
X0017822Y0177402D01*
X0017916Y0177281D01*
X0018007Y0177158D01*
X0018095Y0177032D01*
X0018179Y0176904D01*
X0018261Y0176774D01*
X0018338Y0176642D01*
X0018413Y0176508D01*
X0018484Y0176372D01*
X0018551Y0176234D01*
X0018615Y0176094D01*
X0018675Y0175953D01*
X0018731Y0175811D01*
X0018784Y0175667D01*
X0018833Y0175521D01*
X0018878Y0175375D01*
X0018919Y0175227D01*
X0018956Y0175079D01*
X0018990Y0174929D01*
X0019020Y0174778D01*
X0019045Y0174627D01*
X0019067Y0174476D01*
X0019085Y0174323D01*
X0019099Y0174171D01*
X0019109Y0174018D01*
X0019115Y0173864D01*
X0019117Y0173711D01*
X0019115Y0173558D01*
X0019109Y0173404D01*
X0019099Y0173251D01*
X0019085Y0173099D01*
X0019067Y0172946D01*
X0019045Y0172795D01*
X0019020Y0172644D01*
X0018990Y0172493D01*
X0018956Y0172343D01*
X0018919Y0172195D01*
X0018878Y0172047D01*
X0018833Y0171901D01*
X0018784Y0171755D01*
X0018731Y0171611D01*
X0018675Y0171469D01*
X0018615Y0171328D01*
X0018551Y0171188D01*
X0018484Y0171050D01*
X0018413Y0170914D01*
X0018338Y0170780D01*
X0018261Y0170648D01*
X0018179Y0170518D01*
X0018095Y0170390D01*
X0018007Y0170264D01*
X0017916Y0170141D01*
X0017822Y0170020D01*
X0017724Y0169902D01*
X0017624Y0169786D01*
X0017520Y0169673D01*
X0017414Y0169562D01*
X0017305Y0169454D01*
X0017193Y0169349D01*
X0017079Y0169248D01*
X0016961Y0169149D01*
X0016842Y0169053D01*
X0016720Y0168960D01*
X0016595Y0168871D01*
X0016468Y0168784D01*
X0016339Y0168702D01*
X0016208Y0168622D01*
X0016075Y0168546D01*
X0015940Y0168473D01*
X0015803Y0168404D01*
X0015664Y0168339D01*
X0015524Y0168277D01*
X0015382Y0168219D01*
X0015239Y0168164D01*
X0015094Y0168113D01*
X0014948Y0168066D01*
X0014801Y0168023D01*
X0014653Y0167984D01*
X0014504Y0167948D01*
X0014354Y0167917D01*
X0014203Y0167889D01*
X0014052Y0167865D01*
X0013899Y0167845D01*
X0013747Y0167829D01*
X0013594Y0167817D01*
X0013441Y0167809D01*
X0013288Y0167805D01*
X0013134Y0167805D01*
X0012981Y0167809D01*
X0012828Y0167817D01*
X0012675Y0167829D01*
X0012523Y0167845D01*
X0012370Y0167865D01*
X0012219Y0167889D01*
X0012068Y0167917D01*
X0011918Y0167948D01*
X0011769Y0167984D01*
X0011621Y0168023D01*
X0011474Y0168066D01*
X0011328Y0168113D01*
X0011183Y0168164D01*
X0011040Y0168219D01*
X0010898Y0168277D01*
X0010758Y0168339D01*
X0010619Y0168404D01*
X0010482Y0168473D01*
X0010347Y0168546D01*
X0010214Y0168622D01*
X0010083Y0168702D01*
X0009954Y0168784D01*
X0009827Y0168871D01*
X0009702Y0168960D01*
X0009580Y0169053D01*
X0009461Y0169149D01*
X0009343Y0169248D01*
X0009229Y0169349D01*
X0009117Y0169454D01*
X0009008Y0169562D01*
X0008902Y0169673D01*
X0008798Y0169786D01*
X0008698Y0169902D01*
X0008600Y0170020D01*
X0008506Y0170141D01*
X0008415Y0170264D01*
X0008327Y0170390D01*
X0008243Y0170518D01*
X0008161Y0170648D01*
X0008084Y0170780D01*
X0008009Y0170914D01*
X0007938Y0171050D01*
X0007871Y0171188D01*
X0007807Y0171328D01*
X0007747Y0171469D01*
X0007691Y0171611D01*
X0007638Y0171755D01*
X0007589Y0171901D01*
X0007544Y0172047D01*
X0007503Y0172195D01*
X0007466Y0172343D01*
X0007432Y0172493D01*
X0007402Y0172644D01*
X0007377Y0172795D01*
X0007355Y0172946D01*
X0007337Y0173099D01*
X0007323Y0173251D01*
X0007313Y0173404D01*
X0007307Y0173558D01*
X0007305Y0173711D01*
X0127305Y0013711D02*
X0127307Y0013864D01*
X0127313Y0014018D01*
X0127323Y0014171D01*
X0127337Y0014323D01*
X0127355Y0014476D01*
X0127377Y0014627D01*
X0127402Y0014778D01*
X0127432Y0014929D01*
X0127466Y0015079D01*
X0127503Y0015227D01*
X0127544Y0015375D01*
X0127589Y0015521D01*
X0127638Y0015667D01*
X0127691Y0015811D01*
X0127747Y0015953D01*
X0127807Y0016094D01*
X0127871Y0016234D01*
X0127938Y0016372D01*
X0128009Y0016508D01*
X0128084Y0016642D01*
X0128161Y0016774D01*
X0128243Y0016904D01*
X0128327Y0017032D01*
X0128415Y0017158D01*
X0128506Y0017281D01*
X0128600Y0017402D01*
X0128698Y0017520D01*
X0128798Y0017636D01*
X0128902Y0017749D01*
X0129008Y0017860D01*
X0129117Y0017968D01*
X0129229Y0018073D01*
X0129343Y0018174D01*
X0129461Y0018273D01*
X0129580Y0018369D01*
X0129702Y0018462D01*
X0129827Y0018551D01*
X0129954Y0018638D01*
X0130083Y0018720D01*
X0130214Y0018800D01*
X0130347Y0018876D01*
X0130482Y0018949D01*
X0130619Y0019018D01*
X0130758Y0019083D01*
X0130898Y0019145D01*
X0131040Y0019203D01*
X0131183Y0019258D01*
X0131328Y0019309D01*
X0131474Y0019356D01*
X0131621Y0019399D01*
X0131769Y0019438D01*
X0131918Y0019474D01*
X0132068Y0019505D01*
X0132219Y0019533D01*
X0132370Y0019557D01*
X0132523Y0019577D01*
X0132675Y0019593D01*
X0132828Y0019605D01*
X0132981Y0019613D01*
X0133134Y0019617D01*
X0133288Y0019617D01*
X0133441Y0019613D01*
X0133594Y0019605D01*
X0133747Y0019593D01*
X0133899Y0019577D01*
X0134052Y0019557D01*
X0134203Y0019533D01*
X0134354Y0019505D01*
X0134504Y0019474D01*
X0134653Y0019438D01*
X0134801Y0019399D01*
X0134948Y0019356D01*
X0135094Y0019309D01*
X0135239Y0019258D01*
X0135382Y0019203D01*
X0135524Y0019145D01*
X0135664Y0019083D01*
X0135803Y0019018D01*
X0135940Y0018949D01*
X0136075Y0018876D01*
X0136208Y0018800D01*
X0136339Y0018720D01*
X0136468Y0018638D01*
X0136595Y0018551D01*
X0136720Y0018462D01*
X0136842Y0018369D01*
X0136961Y0018273D01*
X0137079Y0018174D01*
X0137193Y0018073D01*
X0137305Y0017968D01*
X0137414Y0017860D01*
X0137520Y0017749D01*
X0137624Y0017636D01*
X0137724Y0017520D01*
X0137822Y0017402D01*
X0137916Y0017281D01*
X0138007Y0017158D01*
X0138095Y0017032D01*
X0138179Y0016904D01*
X0138261Y0016774D01*
X0138338Y0016642D01*
X0138413Y0016508D01*
X0138484Y0016372D01*
X0138551Y0016234D01*
X0138615Y0016094D01*
X0138675Y0015953D01*
X0138731Y0015811D01*
X0138784Y0015667D01*
X0138833Y0015521D01*
X0138878Y0015375D01*
X0138919Y0015227D01*
X0138956Y0015079D01*
X0138990Y0014929D01*
X0139020Y0014778D01*
X0139045Y0014627D01*
X0139067Y0014476D01*
X0139085Y0014323D01*
X0139099Y0014171D01*
X0139109Y0014018D01*
X0139115Y0013864D01*
X0139117Y0013711D01*
X0139115Y0013558D01*
X0139109Y0013404D01*
X0139099Y0013251D01*
X0139085Y0013099D01*
X0139067Y0012946D01*
X0139045Y0012795D01*
X0139020Y0012644D01*
X0138990Y0012493D01*
X0138956Y0012343D01*
X0138919Y0012195D01*
X0138878Y0012047D01*
X0138833Y0011901D01*
X0138784Y0011755D01*
X0138731Y0011611D01*
X0138675Y0011469D01*
X0138615Y0011328D01*
X0138551Y0011188D01*
X0138484Y0011050D01*
X0138413Y0010914D01*
X0138338Y0010780D01*
X0138261Y0010648D01*
X0138179Y0010518D01*
X0138095Y0010390D01*
X0138007Y0010264D01*
X0137916Y0010141D01*
X0137822Y0010020D01*
X0137724Y0009902D01*
X0137624Y0009786D01*
X0137520Y0009673D01*
X0137414Y0009562D01*
X0137305Y0009454D01*
X0137193Y0009349D01*
X0137079Y0009248D01*
X0136961Y0009149D01*
X0136842Y0009053D01*
X0136720Y0008960D01*
X0136595Y0008871D01*
X0136468Y0008784D01*
X0136339Y0008702D01*
X0136208Y0008622D01*
X0136075Y0008546D01*
X0135940Y0008473D01*
X0135803Y0008404D01*
X0135664Y0008339D01*
X0135524Y0008277D01*
X0135382Y0008219D01*
X0135239Y0008164D01*
X0135094Y0008113D01*
X0134948Y0008066D01*
X0134801Y0008023D01*
X0134653Y0007984D01*
X0134504Y0007948D01*
X0134354Y0007917D01*
X0134203Y0007889D01*
X0134052Y0007865D01*
X0133899Y0007845D01*
X0133747Y0007829D01*
X0133594Y0007817D01*
X0133441Y0007809D01*
X0133288Y0007805D01*
X0133134Y0007805D01*
X0132981Y0007809D01*
X0132828Y0007817D01*
X0132675Y0007829D01*
X0132523Y0007845D01*
X0132370Y0007865D01*
X0132219Y0007889D01*
X0132068Y0007917D01*
X0131918Y0007948D01*
X0131769Y0007984D01*
X0131621Y0008023D01*
X0131474Y0008066D01*
X0131328Y0008113D01*
X0131183Y0008164D01*
X0131040Y0008219D01*
X0130898Y0008277D01*
X0130758Y0008339D01*
X0130619Y0008404D01*
X0130482Y0008473D01*
X0130347Y0008546D01*
X0130214Y0008622D01*
X0130083Y0008702D01*
X0129954Y0008784D01*
X0129827Y0008871D01*
X0129702Y0008960D01*
X0129580Y0009053D01*
X0129461Y0009149D01*
X0129343Y0009248D01*
X0129229Y0009349D01*
X0129117Y0009454D01*
X0129008Y0009562D01*
X0128902Y0009673D01*
X0128798Y0009786D01*
X0128698Y0009902D01*
X0128600Y0010020D01*
X0128506Y0010141D01*
X0128415Y0010264D01*
X0128327Y0010390D01*
X0128243Y0010518D01*
X0128161Y0010648D01*
X0128084Y0010780D01*
X0128009Y0010914D01*
X0127938Y0011050D01*
X0127871Y0011188D01*
X0127807Y0011328D01*
X0127747Y0011469D01*
X0127691Y0011611D01*
X0127638Y0011755D01*
X0127589Y0011901D01*
X0127544Y0012047D01*
X0127503Y0012195D01*
X0127466Y0012343D01*
X0127432Y0012493D01*
X0127402Y0012644D01*
X0127377Y0012795D01*
X0127355Y0012946D01*
X0127337Y0013099D01*
X0127323Y0013251D01*
X0127313Y0013404D01*
X0127307Y0013558D01*
X0127305Y0013711D01*
D11*
X0124437Y0134110D03*
X0096837Y0134110D03*
X0069237Y0134110D03*
X0041837Y0134110D03*
D12*
X0049237Y0134110D03*
X0059237Y0124268D03*
X0076837Y0134110D03*
X0086837Y0124268D03*
X0104437Y0134110D03*
X0114437Y0124268D03*
X0031837Y0124268D03*
X0021837Y0134110D03*
D13*
X0008700Y0105600D03*
X0128400Y0153100D03*
X0137722Y0035600D03*
D14*
X0137722Y0045600D03*
X0137722Y0055600D03*
X0137722Y0065600D03*
X0137722Y0075600D03*
X0137722Y0085600D03*
X0137722Y0095600D03*
X0137722Y0105600D03*
X0118400Y0153100D03*
X0108400Y0153100D03*
X0098400Y0153100D03*
X0088400Y0153100D03*
X0078400Y0153100D03*
X0068400Y0153100D03*
X0058400Y0153100D03*
X0048400Y0153100D03*
X0038400Y0153100D03*
X0028400Y0153100D03*
X0018400Y0153100D03*
X0008700Y0095600D03*
X0008700Y0085600D03*
X0008700Y0075600D03*
X0008700Y0065600D03*
X0008700Y0055600D03*
X0008700Y0045600D03*
X0008700Y0035600D03*
D15*
X0091000Y0069837D03*
X0094200Y0069837D03*
X0097400Y0069837D03*
D16*
X0047263Y0064800D03*
X0047263Y0061600D03*
X0047300Y0055163D03*
X0047300Y0051963D03*
D17*
X0047563Y0051900D01*
X0066800Y0051900D01*
X0068400Y0050247D02*
X0068400Y0017700D01*
X0067083Y0017700D01*
X0066127Y0017304D01*
X0065396Y0016573D01*
X0065000Y0015617D01*
X0065000Y0014583D01*
X0065396Y0013627D01*
X0066127Y0012896D01*
X0067083Y0012500D01*
X0075017Y0012500D01*
X0075973Y0012896D01*
X0076704Y0013627D01*
X0077100Y0014583D01*
X0077100Y0015617D01*
X0076704Y0016573D01*
X0075973Y0017304D01*
X0075017Y0017700D01*
X0073600Y0017700D01*
X0073600Y0050147D01*
X0074147Y0049600D01*
X0076053Y0049600D01*
X0077400Y0050947D01*
X0077400Y0052079D01*
X0080221Y0054900D01*
X0089847Y0054900D01*
X0090647Y0054100D01*
X0092553Y0054100D01*
X0093900Y0055447D01*
X0093900Y0057353D01*
X0092553Y0058700D01*
X0090647Y0058700D01*
X0089847Y0057900D01*
X0078979Y0057900D01*
X0078100Y0057021D01*
X0075279Y0054200D01*
X0074147Y0054200D01*
X0073600Y0053653D01*
X0073600Y0062923D01*
X0085577Y0074900D01*
X0091296Y0074900D01*
X0092500Y0073696D01*
X0092500Y0073437D01*
X0091600Y0073437D01*
X0091600Y0073553D01*
X0090253Y0074900D01*
X0088347Y0074900D01*
X0087000Y0073553D01*
X0087000Y0071647D01*
X0088347Y0070300D01*
X0088650Y0070300D01*
X0088650Y0066881D01*
X0089294Y0066237D01*
X0099106Y0066237D01*
X0099750Y0066881D01*
X0099750Y0070400D01*
X0100053Y0070400D01*
X0101400Y0071747D01*
X0101400Y0073653D01*
X0100053Y0075000D01*
X0098147Y0075000D01*
X0096800Y0073653D01*
X0096800Y0073437D01*
X0095900Y0073437D01*
X0095900Y0075104D01*
X0094904Y0076100D01*
X0092704Y0078300D01*
X0085577Y0078300D01*
X0085073Y0078804D01*
X0084117Y0079200D01*
X0083083Y0079200D01*
X0082127Y0078804D01*
X0068796Y0065473D01*
X0068400Y0064517D01*
X0068400Y0057204D01*
X0068059Y0056863D01*
X0050900Y0056863D01*
X0050900Y0056869D01*
X0050256Y0057513D01*
X0044344Y0057513D01*
X0044318Y0057486D01*
X0044100Y0057704D01*
X0044100Y0059457D01*
X0044307Y0059250D01*
X0050219Y0059250D01*
X0050863Y0059894D01*
X0050863Y0059900D01*
X0052247Y0059900D01*
X0053047Y0059100D01*
X0054953Y0059100D01*
X0056300Y0060447D01*
X0056300Y0062353D01*
X0054953Y0063700D01*
X0053047Y0063700D01*
X0052247Y0062900D01*
X0050863Y0062900D01*
X0050863Y0066506D01*
X0050219Y0067150D01*
X0046703Y0067150D01*
X0047900Y0068347D01*
X0047900Y0070253D01*
X0047353Y0070800D01*
X0053379Y0070800D01*
X0059200Y0064979D01*
X0059200Y0063847D01*
X0060547Y0062500D01*
X0062453Y0062500D01*
X0063800Y0063847D01*
X0063800Y0065753D01*
X0062453Y0067100D01*
X0061321Y0067100D01*
X0055500Y0072921D01*
X0054621Y0073800D01*
X0045821Y0073800D01*
X0036827Y0082794D01*
X0046947Y0082794D01*
X0047747Y0081994D01*
X0048542Y0081994D01*
X0047800Y0081253D01*
X0047800Y0079347D01*
X0049147Y0078000D01*
X0051053Y0078000D01*
X0051253Y0078200D01*
X0051370Y0078200D01*
X0058970Y0085800D01*
X0060200Y0087030D01*
X0060200Y0091230D01*
X0061070Y0092100D01*
X0070547Y0092100D01*
X0070747Y0091900D01*
X0072653Y0091900D01*
X0073900Y0093147D01*
X0073900Y0090853D01*
X0073100Y0090053D01*
X0073100Y0088147D01*
X0074447Y0086800D01*
X0076353Y0086800D01*
X0077700Y0088147D01*
X0077700Y0090053D01*
X0076900Y0090853D01*
X0076900Y0092779D01*
X0084216Y0085463D01*
X0084000Y0085247D01*
X0084000Y0083342D01*
X0085347Y0081994D01*
X0087253Y0081994D01*
X0088600Y0083342D01*
X0088600Y0085247D01*
X0087800Y0086047D01*
X0087800Y0086121D01*
X0079200Y0094721D01*
X0079200Y0094743D01*
X0078321Y0095621D01*
X0074343Y0099600D01*
X0055743Y0099600D01*
X0043100Y0112243D01*
X0043100Y0112547D01*
X0043900Y0113347D01*
X0043900Y0115253D01*
X0042553Y0116600D01*
X0040647Y0116600D01*
X0039300Y0115253D01*
X0039300Y0113921D01*
X0039000Y0114221D01*
X0039000Y0115353D01*
X0037653Y0116700D01*
X0035747Y0116700D01*
X0034400Y0115353D01*
X0034400Y0113447D01*
X0035747Y0112100D01*
X0036879Y0112100D01*
X0052679Y0096300D01*
X0050070Y0096300D01*
X0048100Y0098270D01*
X0048100Y0098553D01*
X0046753Y0099900D01*
X0044847Y0099900D01*
X0043500Y0098553D01*
X0043500Y0096647D01*
X0044847Y0095300D01*
X0045130Y0095300D01*
X0048330Y0092100D01*
X0055230Y0092100D01*
X0056000Y0091330D01*
X0056000Y0088770D01*
X0051000Y0083770D01*
X0051000Y0085247D01*
X0049653Y0086594D01*
X0047747Y0086594D01*
X0046947Y0085794D01*
X0035948Y0085794D01*
X0033500Y0088243D01*
X0033500Y0112147D01*
X0034300Y0112947D01*
X0034300Y0114853D01*
X0032953Y0116200D01*
X0031047Y0116200D01*
X0029700Y0114853D01*
X0029700Y0112947D01*
X0030500Y0112147D01*
X0030500Y0089121D01*
X0013400Y0106221D01*
X0013050Y0106571D01*
X0013050Y0109306D01*
X0012406Y0109950D01*
X0004994Y0109950D01*
X0004350Y0109306D01*
X0004350Y0101894D01*
X0004994Y0101250D01*
X0012406Y0101250D01*
X0013050Y0101894D01*
X0013050Y0102329D01*
X0018279Y0097100D01*
X0012787Y0097100D01*
X0012388Y0098064D01*
X0011164Y0099288D01*
X0009565Y0099950D01*
X0007835Y0099950D01*
X0006236Y0099288D01*
X0005012Y0098064D01*
X0004350Y0096465D01*
X0004350Y0094735D01*
X0005012Y0093136D01*
X0006236Y0091912D01*
X0007835Y0091250D01*
X0009565Y0091250D01*
X0011164Y0091912D01*
X0012388Y0093136D01*
X0012787Y0094100D01*
X0018679Y0094100D01*
X0043300Y0069479D01*
X0043300Y0068347D01*
X0044497Y0067150D01*
X0044307Y0067150D01*
X0043663Y0066506D01*
X0043663Y0066500D01*
X0043496Y0066500D01*
X0042746Y0065750D01*
X0041897Y0065750D01*
X0040550Y0064403D01*
X0040550Y0062497D01*
X0040700Y0062347D01*
X0040700Y0056296D01*
X0042600Y0054396D01*
X0043596Y0053400D01*
X0043700Y0053400D01*
X0043700Y0050257D01*
X0044344Y0049613D01*
X0050256Y0049613D01*
X0050900Y0050257D01*
X0050900Y0050400D01*
X0065047Y0050400D01*
X0065847Y0049600D01*
X0067753Y0049600D01*
X0068400Y0050247D01*
X0068400Y0049711D02*
X0067863Y0049711D01*
X0068400Y0048912D02*
X0011540Y0048912D01*
X0011164Y0049288D02*
X0009565Y0049950D01*
X0007835Y0049950D01*
X0006236Y0049288D01*
X0005012Y0048064D01*
X0004350Y0046465D01*
X0004350Y0044735D01*
X0005012Y0043136D01*
X0006236Y0041912D01*
X0007835Y0041250D01*
X0009565Y0041250D01*
X0011164Y0041912D01*
X0012388Y0043136D01*
X0013050Y0044735D01*
X0013050Y0046465D01*
X0012388Y0048064D01*
X0011164Y0049288D01*
X0010143Y0049711D02*
X0044247Y0049711D01*
X0043700Y0050509D02*
X0003800Y0050509D01*
X0003800Y0049711D02*
X0007257Y0049711D01*
X0005860Y0048912D02*
X0003800Y0048912D01*
X0003800Y0048114D02*
X0005062Y0048114D01*
X0004702Y0047315D02*
X0003800Y0047315D01*
X0003800Y0046517D02*
X0004371Y0046517D01*
X0004350Y0045718D02*
X0003800Y0045718D01*
X0003800Y0044920D02*
X0004350Y0044920D01*
X0004604Y0044121D02*
X0003800Y0044121D01*
X0003800Y0043323D02*
X0004935Y0043323D01*
X0005624Y0042524D02*
X0003800Y0042524D01*
X0003800Y0041726D02*
X0006687Y0041726D01*
X0003800Y0040927D02*
X0068400Y0040927D01*
X0068400Y0040129D02*
X0003800Y0040129D01*
X0003800Y0039330D02*
X0068400Y0039330D01*
X0068400Y0038532D02*
X0003800Y0038532D01*
X0003800Y0037733D02*
X0068400Y0037733D01*
X0068400Y0036934D02*
X0003800Y0036934D01*
X0003800Y0036136D02*
X0068400Y0036136D01*
X0068400Y0035337D02*
X0003800Y0035337D01*
X0003800Y0034539D02*
X0068400Y0034539D01*
X0068400Y0033740D02*
X0003800Y0033740D01*
X0003800Y0032942D02*
X0068400Y0032942D01*
X0068400Y0032143D02*
X0003800Y0032143D01*
X0003800Y0031345D02*
X0068400Y0031345D01*
X0068400Y0030546D02*
X0003800Y0030546D01*
X0003800Y0029748D02*
X0068400Y0029748D01*
X0068400Y0028949D02*
X0003800Y0028949D01*
X0003800Y0028151D02*
X0068400Y0028151D01*
X0068400Y0027352D02*
X0003800Y0027352D01*
X0003800Y0026554D02*
X0068400Y0026554D01*
X0068400Y0025755D02*
X0016144Y0025755D01*
X0015384Y0026032D02*
X0011038Y0026032D01*
X0006956Y0024546D01*
X0006956Y0024546D01*
X0003800Y0021898D01*
X0003800Y0165524D01*
X0006955Y0162876D01*
X0006956Y0162876D02*
X0011038Y0161390D01*
X0015384Y0161390D01*
X0019467Y0162876D01*
X0022795Y0165669D01*
X0022795Y0165669D01*
X0024968Y0169432D01*
X0025722Y0173711D01*
X0024968Y0177990D01*
X0022795Y0181753D01*
X0021163Y0183122D01*
X0125259Y0183122D01*
X0123627Y0181753D01*
X0123627Y0181753D01*
X0121455Y0177990D01*
X0120700Y0173711D01*
X0121455Y0169432D01*
X0123627Y0165669D01*
X0126955Y0162876D01*
X0126956Y0162876D02*
X0131038Y0161390D01*
X0135384Y0161390D01*
X0139467Y0162876D01*
X0142622Y0165524D01*
X0142622Y0021898D01*
X0139467Y0024546D01*
X0139467Y0024546D01*
X0135384Y0026032D01*
X0131038Y0026032D01*
X0126956Y0024546D01*
X0126956Y0024546D01*
X0123627Y0021753D01*
X0123627Y0021753D01*
X0121455Y0017990D01*
X0120700Y0013711D01*
X0121455Y0009432D01*
X0123627Y0005669D01*
X0125259Y0004300D01*
X0021163Y0004300D01*
X0022795Y0005669D01*
X0022795Y0005669D01*
X0024968Y0009432D01*
X0025722Y0013711D01*
X0024968Y0017990D01*
X0022795Y0021753D01*
X0019467Y0024546D01*
X0019467Y0024546D01*
X0015384Y0026032D01*
X0018337Y0024957D02*
X0068400Y0024957D01*
X0068400Y0024158D02*
X0019928Y0024158D01*
X0020880Y0023360D02*
X0068400Y0023360D01*
X0068400Y0022561D02*
X0021832Y0022561D01*
X0022783Y0021763D02*
X0068400Y0021763D01*
X0068400Y0020964D02*
X0023250Y0020964D01*
X0022795Y0021753D02*
X0022795Y0021753D01*
X0022795Y0021753D01*
X0023711Y0020166D02*
X0068400Y0020166D01*
X0068400Y0019367D02*
X0024172Y0019367D01*
X0024633Y0018569D02*
X0068400Y0018569D01*
X0068400Y0017770D02*
X0025006Y0017770D01*
X0024968Y0017990D02*
X0024968Y0017990D01*
X0025147Y0016972D02*
X0065795Y0016972D01*
X0065230Y0016173D02*
X0025288Y0016173D01*
X0025429Y0015375D02*
X0065000Y0015375D01*
X0065003Y0014576D02*
X0025569Y0014576D01*
X0025710Y0013778D02*
X0065334Y0013778D01*
X0066044Y0012979D02*
X0025593Y0012979D01*
X0025452Y0012181D02*
X0120970Y0012181D01*
X0120829Y0012979D02*
X0076056Y0012979D01*
X0076766Y0013778D02*
X0120712Y0013778D01*
X0120700Y0013711D02*
X0120700Y0013711D01*
X0120853Y0014576D02*
X0077097Y0014576D01*
X0077100Y0015375D02*
X0120993Y0015375D01*
X0121134Y0016173D02*
X0076870Y0016173D01*
X0076305Y0016972D02*
X0121275Y0016972D01*
X0121416Y0017770D02*
X0073600Y0017770D01*
X0073600Y0018569D02*
X0121789Y0018569D01*
X0121455Y0017990D02*
X0121455Y0017990D01*
X0122250Y0019367D02*
X0073600Y0019367D01*
X0073600Y0020166D02*
X0122711Y0020166D01*
X0123172Y0020964D02*
X0073600Y0020964D01*
X0073600Y0021763D02*
X0123639Y0021763D01*
X0124590Y0022561D02*
X0073600Y0022561D01*
X0073600Y0023360D02*
X0125542Y0023360D01*
X0126494Y0024158D02*
X0073600Y0024158D01*
X0073600Y0024957D02*
X0128085Y0024957D01*
X0130278Y0025755D02*
X0079908Y0025755D01*
X0079353Y0025200D02*
X0080700Y0026547D01*
X0080700Y0027400D01*
X0082247Y0027400D01*
X0083047Y0026600D01*
X0084953Y0026600D01*
X0086300Y0027947D01*
X0086300Y0029853D01*
X0084953Y0031200D01*
X0083047Y0031200D01*
X0082247Y0030400D01*
X0079179Y0030400D01*
X0078579Y0029800D01*
X0077447Y0029800D01*
X0076100Y0028453D01*
X0076100Y0026547D01*
X0077447Y0025200D01*
X0079353Y0025200D01*
X0080700Y0026554D02*
X0142622Y0026554D01*
X0142622Y0027352D02*
X0085705Y0027352D01*
X0086300Y0028151D02*
X0142622Y0028151D01*
X0142622Y0028949D02*
X0086300Y0028949D01*
X0086300Y0029748D02*
X0142622Y0029748D01*
X0142622Y0030546D02*
X0085606Y0030546D01*
X0084000Y0028900D02*
X0079800Y0028900D01*
X0078400Y0027500D01*
X0076892Y0025755D02*
X0073600Y0025755D01*
X0073600Y0026554D02*
X0076100Y0026554D01*
X0076100Y0027352D02*
X0073600Y0027352D01*
X0073600Y0028151D02*
X0076100Y0028151D01*
X0076597Y0028949D02*
X0073600Y0028949D01*
X0073600Y0029748D02*
X0077395Y0029748D01*
X0073600Y0030546D02*
X0082394Y0030546D01*
X0082295Y0027352D02*
X0080700Y0027352D01*
X0073600Y0031345D02*
X0133921Y0031345D01*
X0134016Y0031250D02*
X0141428Y0031250D01*
X0142072Y0031894D01*
X0142072Y0039306D01*
X0141428Y0039950D01*
X0134016Y0039950D01*
X0133372Y0039306D01*
X0133372Y0031894D01*
X0134016Y0031250D01*
X0133372Y0032143D02*
X0073600Y0032143D01*
X0073600Y0032942D02*
X0133372Y0032942D01*
X0133372Y0033740D02*
X0073600Y0033740D01*
X0073600Y0034539D02*
X0133372Y0034539D01*
X0133372Y0035337D02*
X0073600Y0035337D01*
X0073600Y0036136D02*
X0133372Y0036136D01*
X0133372Y0036934D02*
X0073600Y0036934D01*
X0073600Y0037733D02*
X0133372Y0037733D01*
X0133372Y0038532D02*
X0073600Y0038532D01*
X0073600Y0039330D02*
X0133396Y0039330D01*
X0135258Y0041912D02*
X0136857Y0041250D01*
X0138587Y0041250D01*
X0140186Y0041912D01*
X0141410Y0043136D01*
X0142072Y0044735D01*
X0142072Y0046465D01*
X0141410Y0048064D01*
X0140186Y0049288D01*
X0138587Y0049950D01*
X0136857Y0049950D01*
X0135258Y0049288D01*
X0134034Y0048064D01*
X0133372Y0046465D01*
X0133372Y0044735D01*
X0134034Y0043136D01*
X0135258Y0041912D01*
X0135709Y0041726D02*
X0073600Y0041726D01*
X0073600Y0042524D02*
X0134646Y0042524D01*
X0133957Y0043323D02*
X0073600Y0043323D01*
X0073600Y0044121D02*
X0133626Y0044121D01*
X0133372Y0044920D02*
X0073600Y0044920D01*
X0073600Y0045718D02*
X0133372Y0045718D01*
X0133393Y0046517D02*
X0073600Y0046517D01*
X0073600Y0047315D02*
X0133724Y0047315D01*
X0134084Y0048114D02*
X0073600Y0048114D01*
X0073600Y0048912D02*
X0134882Y0048912D01*
X0136279Y0049711D02*
X0076163Y0049711D01*
X0076962Y0050509D02*
X0142622Y0050509D01*
X0142622Y0049711D02*
X0139165Y0049711D01*
X0140562Y0048912D02*
X0142622Y0048912D01*
X0142622Y0048114D02*
X0141360Y0048114D01*
X0141720Y0047315D02*
X0142622Y0047315D01*
X0142622Y0046517D02*
X0142051Y0046517D01*
X0142072Y0045718D02*
X0142622Y0045718D01*
X0142622Y0044920D02*
X0142072Y0044920D01*
X0141818Y0044121D02*
X0142622Y0044121D01*
X0142622Y0043323D02*
X0141487Y0043323D01*
X0140798Y0042524D02*
X0142622Y0042524D01*
X0142622Y0041726D02*
X0139735Y0041726D01*
X0142048Y0039330D02*
X0142622Y0039330D01*
X0142622Y0038532D02*
X0142072Y0038532D01*
X0142072Y0037733D02*
X0142622Y0037733D01*
X0142622Y0036934D02*
X0142072Y0036934D01*
X0142072Y0036136D02*
X0142622Y0036136D01*
X0142622Y0035337D02*
X0142072Y0035337D01*
X0142072Y0034539D02*
X0142622Y0034539D01*
X0142622Y0033740D02*
X0142072Y0033740D01*
X0142072Y0032942D02*
X0142622Y0032942D01*
X0142622Y0032143D02*
X0142072Y0032143D01*
X0141523Y0031345D02*
X0142622Y0031345D01*
X0142622Y0025755D02*
X0136144Y0025755D01*
X0138337Y0024957D02*
X0142622Y0024957D01*
X0142622Y0024158D02*
X0139928Y0024158D01*
X0140880Y0023360D02*
X0142622Y0023360D01*
X0142622Y0022561D02*
X0141832Y0022561D01*
X0142622Y0040129D02*
X0073600Y0040129D01*
X0073600Y0040927D02*
X0142622Y0040927D01*
X0142622Y0051308D02*
X0138727Y0051308D01*
X0138587Y0051250D02*
X0140186Y0051912D01*
X0141410Y0053136D01*
X0142072Y0054735D01*
X0142072Y0056465D01*
X0141410Y0058064D01*
X0140186Y0059288D01*
X0138587Y0059950D01*
X0136857Y0059950D01*
X0135258Y0059288D01*
X0134034Y0058064D01*
X0133372Y0056465D01*
X0133372Y0054735D01*
X0134034Y0053136D01*
X0135258Y0051912D01*
X0136857Y0051250D01*
X0138587Y0051250D01*
X0136717Y0051308D02*
X0077400Y0051308D01*
X0077428Y0052106D02*
X0135064Y0052106D01*
X0134265Y0052905D02*
X0078226Y0052905D01*
X0079025Y0053703D02*
X0133799Y0053703D01*
X0133469Y0054502D02*
X0092954Y0054502D01*
X0093753Y0055300D02*
X0133372Y0055300D01*
X0133372Y0056099D02*
X0093900Y0056099D01*
X0093900Y0056897D02*
X0133551Y0056897D01*
X0133882Y0057696D02*
X0093557Y0057696D01*
X0092758Y0058494D02*
X0134465Y0058494D01*
X0135270Y0059293D02*
X0073600Y0059293D01*
X0073600Y0060091D02*
X0142622Y0060091D01*
X0142622Y0059293D02*
X0140174Y0059293D01*
X0140980Y0058494D02*
X0142622Y0058494D01*
X0142622Y0057696D02*
X0141562Y0057696D01*
X0141893Y0056897D02*
X0142622Y0056897D01*
X0142622Y0056099D02*
X0142072Y0056099D01*
X0142072Y0055300D02*
X0142622Y0055300D01*
X0142622Y0054502D02*
X0141976Y0054502D01*
X0141645Y0053703D02*
X0142622Y0053703D01*
X0142622Y0052905D02*
X0141179Y0052905D01*
X0140380Y0052106D02*
X0142622Y0052106D01*
X0142622Y0060890D02*
X0073600Y0060890D01*
X0073600Y0061688D02*
X0135798Y0061688D01*
X0135258Y0061912D02*
X0134034Y0063136D01*
X0133372Y0064735D01*
X0133372Y0066465D01*
X0134034Y0068064D01*
X0135258Y0069288D01*
X0136857Y0069950D01*
X0138587Y0069950D01*
X0140186Y0069288D01*
X0141410Y0068064D01*
X0142072Y0066465D01*
X0142072Y0064735D01*
X0141410Y0063136D01*
X0140186Y0061912D01*
X0138587Y0061250D01*
X0136857Y0061250D01*
X0135258Y0061912D01*
X0134683Y0062487D02*
X0073600Y0062487D01*
X0073962Y0063285D02*
X0133972Y0063285D01*
X0133642Y0064084D02*
X0074761Y0064084D01*
X0075559Y0064882D02*
X0133372Y0064882D01*
X0133372Y0065681D02*
X0076358Y0065681D01*
X0077156Y0066479D02*
X0089052Y0066479D01*
X0088650Y0067278D02*
X0077955Y0067278D01*
X0078753Y0068076D02*
X0088650Y0068076D01*
X0088650Y0068875D02*
X0079552Y0068875D01*
X0080350Y0069673D02*
X0088650Y0069673D01*
X0088175Y0070472D02*
X0081149Y0070472D01*
X0081947Y0071270D02*
X0087377Y0071270D01*
X0087000Y0072069D02*
X0082746Y0072069D01*
X0083544Y0072868D02*
X0087000Y0072868D01*
X0087113Y0073666D02*
X0084343Y0073666D01*
X0085141Y0074465D02*
X0087912Y0074465D01*
X0089300Y0072600D02*
X0091000Y0070900D01*
X0091000Y0069837D01*
X0091487Y0073666D02*
X0092500Y0073666D01*
X0091731Y0074465D02*
X0090688Y0074465D01*
X0093346Y0077659D02*
X0133866Y0077659D01*
X0134034Y0078064D02*
X0133372Y0076465D01*
X0133372Y0074735D01*
X0134034Y0073136D01*
X0135258Y0071912D01*
X0136857Y0071250D01*
X0138587Y0071250D01*
X0140186Y0071912D01*
X0141410Y0073136D01*
X0142072Y0074735D01*
X0142072Y0076465D01*
X0141410Y0078064D01*
X0140186Y0079288D01*
X0138587Y0079950D01*
X0136857Y0079950D01*
X0135258Y0079288D01*
X0134034Y0078064D01*
X0134427Y0078457D02*
X0085420Y0078457D01*
X0081780Y0078457D02*
X0051627Y0078457D01*
X0052425Y0079256D02*
X0135226Y0079256D01*
X0135888Y0081651D02*
X0054821Y0081651D01*
X0054022Y0080853D02*
X0142622Y0080853D01*
X0142622Y0081651D02*
X0139556Y0081651D01*
X0140186Y0081912D02*
X0141410Y0083136D01*
X0142072Y0084735D01*
X0142072Y0086465D01*
X0141410Y0088064D01*
X0140186Y0089288D01*
X0138587Y0089950D01*
X0136857Y0089950D01*
X0135258Y0089288D01*
X0134034Y0088064D01*
X0133372Y0086465D01*
X0133372Y0084735D01*
X0134034Y0083136D01*
X0135258Y0081912D01*
X0136857Y0081250D01*
X0138587Y0081250D01*
X0140186Y0081912D01*
X0140724Y0082450D02*
X0142622Y0082450D01*
X0142622Y0083248D02*
X0141456Y0083248D01*
X0141787Y0084047D02*
X0142622Y0084047D01*
X0142622Y0084845D02*
X0142072Y0084845D01*
X0142072Y0085644D02*
X0142622Y0085644D01*
X0142622Y0086442D02*
X0142072Y0086442D01*
X0141751Y0087241D02*
X0142622Y0087241D01*
X0142622Y0088039D02*
X0141420Y0088039D01*
X0140636Y0088838D02*
X0142622Y0088838D01*
X0142622Y0089636D02*
X0139345Y0089636D01*
X0138587Y0091250D02*
X0140186Y0091912D01*
X0141410Y0093136D01*
X0142072Y0094735D01*
X0142072Y0096465D01*
X0141410Y0098064D01*
X0140186Y0099288D01*
X0138587Y0099950D01*
X0136857Y0099950D01*
X0135258Y0099288D01*
X0134034Y0098064D01*
X0133372Y0096465D01*
X0133372Y0094735D01*
X0134034Y0093136D01*
X0135258Y0091912D01*
X0136857Y0091250D01*
X0138587Y0091250D01*
X0140306Y0092032D02*
X0142622Y0092032D01*
X0142622Y0092830D02*
X0141104Y0092830D01*
X0141614Y0093629D02*
X0142622Y0093629D01*
X0142622Y0094427D02*
X0141945Y0094427D01*
X0142072Y0095226D02*
X0142622Y0095226D01*
X0142622Y0096024D02*
X0142072Y0096024D01*
X0141924Y0096823D02*
X0142622Y0096823D01*
X0142622Y0097621D02*
X0141593Y0097621D01*
X0141054Y0098420D02*
X0142622Y0098420D01*
X0142622Y0099218D02*
X0140255Y0099218D01*
X0139466Y0101614D02*
X0142622Y0101614D01*
X0142622Y0102412D02*
X0140686Y0102412D01*
X0140186Y0101912D02*
X0141410Y0103136D01*
X0142072Y0104735D01*
X0142072Y0106465D01*
X0141410Y0108064D01*
X0140186Y0109288D01*
X0138587Y0109950D01*
X0136857Y0109950D01*
X0135258Y0109288D01*
X0134034Y0108064D01*
X0133372Y0106465D01*
X0133372Y0104735D01*
X0134034Y0103136D01*
X0135258Y0101912D01*
X0136857Y0101250D01*
X0138587Y0101250D01*
X0140186Y0101912D01*
X0141441Y0103211D02*
X0142622Y0103211D01*
X0142622Y0104009D02*
X0141772Y0104009D01*
X0142072Y0104808D02*
X0142622Y0104808D01*
X0142622Y0105606D02*
X0142072Y0105606D01*
X0142072Y0106405D02*
X0142622Y0106405D01*
X0142622Y0107203D02*
X0141766Y0107203D01*
X0141436Y0108002D02*
X0142622Y0108002D01*
X0142622Y0108801D02*
X0140673Y0108801D01*
X0139435Y0109599D02*
X0142622Y0109599D01*
X0142622Y0110398D02*
X0044945Y0110398D01*
X0044147Y0111196D02*
X0142622Y0111196D01*
X0142622Y0111995D02*
X0043348Y0111995D01*
X0043346Y0112793D02*
X0142622Y0112793D01*
X0142622Y0113592D02*
X0043900Y0113592D01*
X0043900Y0114390D02*
X0142622Y0114390D01*
X0142622Y0115189D02*
X0043900Y0115189D01*
X0043166Y0115987D02*
X0142622Y0115987D01*
X0142622Y0116786D02*
X0003800Y0116786D01*
X0003800Y0117584D02*
X0142622Y0117584D01*
X0142622Y0118383D02*
X0003800Y0118383D01*
X0003800Y0119181D02*
X0142622Y0119181D01*
X0142622Y0119980D02*
X0003800Y0119980D01*
X0003800Y0120778D02*
X0030443Y0120778D01*
X0031090Y0120510D02*
X0029709Y0121082D01*
X0028652Y0122139D01*
X0028080Y0123520D01*
X0028080Y0125015D01*
X0028652Y0126396D01*
X0029709Y0127453D01*
X0031090Y0128025D01*
X0032584Y0128025D01*
X0033965Y0127453D01*
X0035022Y0126396D01*
X0035594Y0125015D01*
X0035594Y0123520D01*
X0035022Y0122139D01*
X0033965Y0121082D01*
X0032584Y0120510D01*
X0031090Y0120510D01*
X0033231Y0120778D02*
X0057843Y0120778D01*
X0058490Y0120510D02*
X0059984Y0120510D01*
X0061365Y0121082D01*
X0062422Y0122139D01*
X0062994Y0123520D01*
X0062994Y0125015D01*
X0062422Y0126396D01*
X0061365Y0127453D01*
X0059984Y0128025D01*
X0058490Y0128025D01*
X0057109Y0127453D01*
X0056052Y0126396D01*
X0055480Y0125015D01*
X0055480Y0123520D01*
X0056052Y0122139D01*
X0057109Y0121082D01*
X0058490Y0120510D01*
X0056614Y0121577D02*
X0034460Y0121577D01*
X0035120Y0122375D02*
X0055954Y0122375D01*
X0055623Y0123174D02*
X0035451Y0123174D01*
X0035594Y0123972D02*
X0055480Y0123972D01*
X0055480Y0124771D02*
X0035594Y0124771D01*
X0035365Y0125569D02*
X0055709Y0125569D01*
X0056040Y0126368D02*
X0035034Y0126368D01*
X0034252Y0127166D02*
X0056822Y0127166D01*
X0058344Y0127965D02*
X0032730Y0127965D01*
X0030944Y0127965D02*
X0003800Y0127965D01*
X0003800Y0128763D02*
X0142622Y0128763D01*
X0142622Y0127965D02*
X0115330Y0127965D01*
X0115184Y0128025D02*
X0113690Y0128025D01*
X0112309Y0127453D01*
X0111252Y0126396D01*
X0110680Y0125015D01*
X0110680Y0123520D01*
X0111252Y0122139D01*
X0112309Y0121082D01*
X0113690Y0120510D01*
X0115184Y0120510D01*
X0116565Y0121082D01*
X0117622Y0122139D01*
X0118194Y0123520D01*
X0118194Y0125015D01*
X0117622Y0126396D01*
X0116565Y0127453D01*
X0115184Y0128025D01*
X0113544Y0127965D02*
X0087730Y0127965D01*
X0087584Y0128025D02*
X0086090Y0128025D01*
X0084709Y0127453D01*
X0083652Y0126396D01*
X0083080Y0125015D01*
X0083080Y0123520D01*
X0083652Y0122139D01*
X0084709Y0121082D01*
X0086090Y0120510D01*
X0087584Y0120510D01*
X0088965Y0121082D01*
X0090022Y0122139D01*
X0090594Y0123520D01*
X0090594Y0125015D01*
X0090022Y0126396D01*
X0088965Y0127453D01*
X0087584Y0128025D01*
X0085944Y0127965D02*
X0060130Y0127965D01*
X0061652Y0127166D02*
X0084422Y0127166D01*
X0083640Y0126368D02*
X0062434Y0126368D01*
X0062765Y0125569D02*
X0083309Y0125569D01*
X0083080Y0124771D02*
X0062994Y0124771D01*
X0062994Y0123972D02*
X0083080Y0123972D01*
X0083223Y0123174D02*
X0062851Y0123174D01*
X0062520Y0122375D02*
X0083554Y0122375D01*
X0084214Y0121577D02*
X0061860Y0121577D01*
X0060631Y0120778D02*
X0085443Y0120778D01*
X0088231Y0120778D02*
X0113043Y0120778D01*
X0111814Y0121577D02*
X0089460Y0121577D01*
X0090120Y0122375D02*
X0111154Y0122375D01*
X0110823Y0123174D02*
X0090451Y0123174D01*
X0090594Y0123972D02*
X0110680Y0123972D01*
X0110680Y0124771D02*
X0090594Y0124771D01*
X0090365Y0125569D02*
X0110909Y0125569D01*
X0111240Y0126368D02*
X0090034Y0126368D01*
X0089252Y0127166D02*
X0112022Y0127166D01*
X0116852Y0127166D02*
X0142622Y0127166D01*
X0142622Y0126368D02*
X0117634Y0126368D01*
X0117965Y0125569D02*
X0142622Y0125569D01*
X0142622Y0124771D02*
X0118194Y0124771D01*
X0118194Y0123972D02*
X0142622Y0123972D01*
X0142622Y0123174D02*
X0118051Y0123174D01*
X0117720Y0122375D02*
X0142622Y0122375D01*
X0142622Y0121577D02*
X0117060Y0121577D01*
X0115831Y0120778D02*
X0142622Y0120778D01*
X0142622Y0129562D02*
X0003800Y0129562D01*
X0003800Y0130360D02*
X0021071Y0130360D01*
X0021090Y0130353D02*
X0022584Y0130353D01*
X0023965Y0130925D01*
X0025022Y0131982D01*
X0025594Y0133363D01*
X0025594Y0134858D01*
X0025417Y0135286D01*
X0031331Y0141200D01*
X0047096Y0141200D01*
X0047537Y0140759D01*
X0047537Y0137473D01*
X0047109Y0137296D01*
X0046052Y0136239D01*
X0045480Y0134858D01*
X0045480Y0133363D01*
X0046052Y0131982D01*
X0047109Y0130925D01*
X0048490Y0130353D01*
X0049984Y0130353D01*
X0051365Y0130925D01*
X0052422Y0131982D01*
X0052994Y0133363D01*
X0052994Y0134858D01*
X0052422Y0136239D01*
X0051365Y0137296D01*
X0050937Y0137473D01*
X0050937Y0140933D01*
X0051204Y0141200D01*
X0074596Y0141200D01*
X0074996Y0140800D01*
X0075200Y0140596D01*
X0075200Y0137499D01*
X0074709Y0137296D01*
X0073652Y0136239D01*
X0073080Y0134858D01*
X0073080Y0133363D01*
X0073652Y0131982D01*
X0074709Y0130925D01*
X0076090Y0130353D01*
X0077584Y0130353D01*
X0078965Y0130925D01*
X0080022Y0131982D01*
X0080594Y0133363D01*
X0080594Y0134858D01*
X0080022Y0136239D01*
X0078965Y0137296D01*
X0078600Y0137447D01*
X0078600Y0140596D01*
X0079204Y0141200D01*
X0102596Y0141200D01*
X0102737Y0141059D01*
X0102737Y0137473D01*
X0102309Y0137296D01*
X0101252Y0136239D01*
X0100680Y0134858D01*
X0100680Y0133363D01*
X0101252Y0131982D01*
X0102309Y0130925D01*
X0103690Y0130353D01*
X0105184Y0130353D01*
X0106565Y0130925D01*
X0107622Y0131982D01*
X0108194Y0133363D01*
X0108194Y0134858D01*
X0107622Y0136239D01*
X0106565Y0137296D01*
X0106137Y0137473D01*
X0106137Y0141033D01*
X0106304Y0141200D01*
X0125604Y0141200D01*
X0129104Y0144700D01*
X0130100Y0145696D01*
X0130100Y0148750D01*
X0132106Y0148750D01*
X0132750Y0149394D01*
X0132750Y0156806D01*
X0132106Y0157450D01*
X0124694Y0157450D01*
X0124050Y0156806D01*
X0124050Y0149394D01*
X0124694Y0148750D01*
X0126700Y0148750D01*
X0126700Y0147104D01*
X0124196Y0144600D01*
X0100204Y0144600D01*
X0100100Y0144704D01*
X0100100Y0149096D01*
X0100864Y0149412D01*
X0102088Y0150636D01*
X0102750Y0152235D01*
X0102750Y0153965D01*
X0102088Y0155564D01*
X0100864Y0156788D01*
X0099265Y0157450D01*
X0097535Y0157450D01*
X0095936Y0156788D01*
X0094712Y0155564D01*
X0094050Y0153965D01*
X0094050Y0152235D01*
X0094712Y0150636D01*
X0095936Y0149412D01*
X0096700Y0149096D01*
X0096700Y0144804D01*
X0096496Y0144600D01*
X0070904Y0144600D01*
X0070100Y0145404D01*
X0070100Y0149096D01*
X0070864Y0149412D01*
X0072088Y0150636D01*
X0072750Y0152235D01*
X0072750Y0153965D01*
X0072088Y0155564D01*
X0070864Y0156788D01*
X0069265Y0157450D01*
X0067535Y0157450D01*
X0065936Y0156788D01*
X0064712Y0155564D01*
X0064050Y0153965D01*
X0064050Y0152235D01*
X0064712Y0150636D01*
X0065936Y0149412D01*
X0066700Y0149096D01*
X0066700Y0145104D01*
X0066196Y0144600D01*
X0040504Y0144600D01*
X0040200Y0144904D01*
X0040200Y0149137D01*
X0040864Y0149412D01*
X0042088Y0150636D01*
X0042750Y0152235D01*
X0042750Y0153965D01*
X0042088Y0155564D01*
X0040864Y0156788D01*
X0039265Y0157450D01*
X0037535Y0157450D01*
X0035936Y0156788D01*
X0034712Y0155564D01*
X0034050Y0153965D01*
X0034050Y0152235D01*
X0034712Y0150636D01*
X0035936Y0149412D01*
X0036800Y0149054D01*
X0036800Y0144904D01*
X0036496Y0144600D01*
X0029923Y0144600D01*
X0028927Y0143604D01*
X0023013Y0137690D01*
X0022584Y0137868D01*
X0021090Y0137868D01*
X0019709Y0137296D01*
X0018652Y0136239D01*
X0018080Y0134858D01*
X0018080Y0133363D01*
X0018652Y0131982D01*
X0019709Y0130925D01*
X0021090Y0130353D01*
X0022603Y0130360D02*
X0048471Y0130360D01*
X0050003Y0130360D02*
X0076071Y0130360D01*
X0077603Y0130360D02*
X0103671Y0130360D01*
X0105203Y0130360D02*
X0142622Y0130360D01*
X0142622Y0131159D02*
X0106799Y0131159D01*
X0107598Y0131957D02*
X0142622Y0131957D01*
X0142622Y0132756D02*
X0107943Y0132756D01*
X0108194Y0133554D02*
X0142622Y0133554D01*
X0142622Y0134353D02*
X0108194Y0134353D01*
X0108073Y0135151D02*
X0142622Y0135151D01*
X0142622Y0135950D02*
X0107742Y0135950D01*
X0107113Y0136748D02*
X0142622Y0136748D01*
X0142622Y0137547D02*
X0106137Y0137547D01*
X0106137Y0138345D02*
X0142622Y0138345D01*
X0142622Y0139144D02*
X0106137Y0139144D01*
X0106137Y0139942D02*
X0142622Y0139942D01*
X0142622Y0140741D02*
X0106137Y0140741D01*
X0102737Y0140741D02*
X0078745Y0140741D01*
X0078600Y0139942D02*
X0102737Y0139942D01*
X0102737Y0139144D02*
X0078600Y0139144D01*
X0078600Y0138345D02*
X0102737Y0138345D01*
X0102737Y0137547D02*
X0078600Y0137547D01*
X0079513Y0136748D02*
X0101761Y0136748D01*
X0101132Y0135950D02*
X0080142Y0135950D01*
X0080473Y0135151D02*
X0100801Y0135151D01*
X0100680Y0134353D02*
X0080594Y0134353D01*
X0080594Y0133554D02*
X0100680Y0133554D01*
X0100931Y0132756D02*
X0080343Y0132756D01*
X0079998Y0131957D02*
X0101276Y0131957D01*
X0102075Y0131159D02*
X0079199Y0131159D01*
X0075200Y0137547D02*
X0050937Y0137547D01*
X0050937Y0138345D02*
X0075200Y0138345D01*
X0075200Y0139144D02*
X0050937Y0139144D01*
X0050937Y0139942D02*
X0075200Y0139942D01*
X0075055Y0140741D02*
X0050937Y0140741D01*
X0047537Y0140741D02*
X0030872Y0140741D01*
X0030073Y0139942D02*
X0047537Y0139942D01*
X0047537Y0139144D02*
X0029275Y0139144D01*
X0028476Y0138345D02*
X0047537Y0138345D01*
X0047537Y0137547D02*
X0027678Y0137547D01*
X0026879Y0136748D02*
X0046561Y0136748D01*
X0045932Y0135950D02*
X0026081Y0135950D01*
X0025473Y0135151D02*
X0045601Y0135151D01*
X0045480Y0134353D02*
X0025594Y0134353D01*
X0025594Y0133554D02*
X0045480Y0133554D01*
X0045731Y0132756D02*
X0025343Y0132756D01*
X0024998Y0131957D02*
X0046076Y0131957D01*
X0046875Y0131159D02*
X0024199Y0131159D01*
X0019475Y0131159D02*
X0003800Y0131159D01*
X0003800Y0131957D02*
X0018676Y0131957D01*
X0018331Y0132756D02*
X0003800Y0132756D01*
X0003800Y0133554D02*
X0018080Y0133554D01*
X0018080Y0134353D02*
X0003800Y0134353D01*
X0003800Y0135151D02*
X0018201Y0135151D01*
X0018532Y0135950D02*
X0003800Y0135950D01*
X0003800Y0136748D02*
X0019161Y0136748D01*
X0020315Y0137547D02*
X0003800Y0137547D01*
X0003800Y0138345D02*
X0023668Y0138345D01*
X0024467Y0139144D02*
X0003800Y0139144D01*
X0003800Y0139942D02*
X0025265Y0139942D01*
X0026064Y0140741D02*
X0003800Y0140741D01*
X0003800Y0141539D02*
X0026862Y0141539D01*
X0027661Y0142338D02*
X0003800Y0142338D01*
X0003800Y0143137D02*
X0028459Y0143137D01*
X0029258Y0143935D02*
X0003800Y0143935D01*
X0003800Y0144734D02*
X0036629Y0144734D01*
X0036800Y0145532D02*
X0003800Y0145532D01*
X0003800Y0146331D02*
X0036800Y0146331D01*
X0036800Y0147129D02*
X0003800Y0147129D01*
X0003800Y0147928D02*
X0036800Y0147928D01*
X0036800Y0148726D02*
X0003800Y0148726D01*
X0003800Y0149525D02*
X0025824Y0149525D01*
X0025936Y0149412D02*
X0027535Y0148750D01*
X0029265Y0148750D01*
X0030864Y0149412D01*
X0032088Y0150636D01*
X0032750Y0152235D01*
X0032750Y0153965D01*
X0032088Y0155564D01*
X0030864Y0156788D01*
X0029265Y0157450D01*
X0027535Y0157450D01*
X0025936Y0156788D01*
X0024712Y0155564D01*
X0024050Y0153965D01*
X0024050Y0152235D01*
X0024712Y0150636D01*
X0025936Y0149412D01*
X0025025Y0150323D02*
X0003800Y0150323D01*
X0003800Y0151122D02*
X0024511Y0151122D01*
X0024180Y0151920D02*
X0003800Y0151920D01*
X0003800Y0152719D02*
X0024050Y0152719D01*
X0024050Y0153517D02*
X0003800Y0153517D01*
X0003800Y0154316D02*
X0024195Y0154316D01*
X0024526Y0155114D02*
X0003800Y0155114D01*
X0003800Y0155913D02*
X0025061Y0155913D01*
X0025859Y0156711D02*
X0003800Y0156711D01*
X0003800Y0157510D02*
X0142622Y0157510D01*
X0142622Y0158308D02*
X0003800Y0158308D01*
X0003800Y0159107D02*
X0142622Y0159107D01*
X0142622Y0159905D02*
X0003800Y0159905D01*
X0003800Y0160704D02*
X0142622Y0160704D01*
X0142622Y0161502D02*
X0135692Y0161502D01*
X0137886Y0162301D02*
X0142622Y0162301D01*
X0142622Y0163099D02*
X0139732Y0163099D01*
X0139467Y0162876D02*
X0139467Y0162876D01*
X0140684Y0163898D02*
X0142622Y0163898D01*
X0142622Y0164696D02*
X0141636Y0164696D01*
X0142587Y0165495D02*
X0142622Y0165495D01*
X0142622Y0156711D02*
X0132750Y0156711D01*
X0132750Y0155913D02*
X0142622Y0155913D01*
X0142622Y0155114D02*
X0132750Y0155114D01*
X0132750Y0154316D02*
X0142622Y0154316D01*
X0142622Y0153517D02*
X0132750Y0153517D01*
X0132750Y0152719D02*
X0142622Y0152719D01*
X0142622Y0151920D02*
X0132750Y0151920D01*
X0132750Y0151122D02*
X0142622Y0151122D01*
X0142622Y0150323D02*
X0132750Y0150323D01*
X0132750Y0149525D02*
X0142622Y0149525D01*
X0142622Y0148726D02*
X0130100Y0148726D01*
X0130100Y0147928D02*
X0142622Y0147928D01*
X0142622Y0147129D02*
X0130100Y0147129D01*
X0130100Y0146331D02*
X0142622Y0146331D01*
X0142622Y0145532D02*
X0129936Y0145532D01*
X0129138Y0144734D02*
X0142622Y0144734D01*
X0142622Y0143935D02*
X0128339Y0143935D01*
X0127541Y0143137D02*
X0142622Y0143137D01*
X0142622Y0142338D02*
X0126742Y0142338D01*
X0125944Y0141539D02*
X0142622Y0141539D01*
X0126700Y0147129D02*
X0100100Y0147129D01*
X0100100Y0146331D02*
X0125926Y0146331D01*
X0125128Y0145532D02*
X0100100Y0145532D01*
X0100100Y0144734D02*
X0124329Y0144734D01*
X0126700Y0147928D02*
X0100100Y0147928D01*
X0100100Y0148726D02*
X0126700Y0148726D01*
X0124050Y0149525D02*
X0120976Y0149525D01*
X0120864Y0149412D02*
X0122088Y0150636D01*
X0122750Y0152235D01*
X0122750Y0153965D01*
X0122088Y0155564D01*
X0120864Y0156788D01*
X0119265Y0157450D01*
X0117535Y0157450D01*
X0115936Y0156788D01*
X0114712Y0155564D01*
X0114050Y0153965D01*
X0114050Y0152235D01*
X0114712Y0150636D01*
X0115936Y0149412D01*
X0117535Y0148750D01*
X0119265Y0148750D01*
X0120864Y0149412D01*
X0121775Y0150323D02*
X0124050Y0150323D01*
X0124050Y0151122D02*
X0122289Y0151122D01*
X0122620Y0151920D02*
X0124050Y0151920D01*
X0124050Y0152719D02*
X0122750Y0152719D01*
X0122750Y0153517D02*
X0124050Y0153517D01*
X0124050Y0154316D02*
X0122605Y0154316D01*
X0122274Y0155114D02*
X0124050Y0155114D01*
X0124050Y0155913D02*
X0121739Y0155913D01*
X0120941Y0156711D02*
X0124050Y0156711D01*
X0128536Y0162301D02*
X0017886Y0162301D01*
X0019467Y0162876D02*
X0019467Y0162876D01*
X0019732Y0163099D02*
X0126690Y0163099D01*
X0126955Y0162876D02*
X0126956Y0162876D01*
X0125738Y0163898D02*
X0020684Y0163898D01*
X0021636Y0164696D02*
X0124786Y0164696D01*
X0123835Y0165495D02*
X0022587Y0165495D01*
X0023155Y0166293D02*
X0123267Y0166293D01*
X0123627Y0165669D02*
X0123627Y0165669D01*
X0123627Y0165669D01*
X0122806Y0167092D02*
X0023616Y0167092D01*
X0024077Y0167890D02*
X0122345Y0167890D01*
X0121884Y0168689D02*
X0024538Y0168689D01*
X0024968Y0169432D02*
X0024968Y0169432D01*
X0024977Y0169487D02*
X0121445Y0169487D01*
X0121455Y0169432D02*
X0121455Y0169432D01*
X0121304Y0170286D02*
X0025118Y0170286D01*
X0025259Y0171084D02*
X0121163Y0171084D01*
X0121022Y0171883D02*
X0025400Y0171883D01*
X0025540Y0172681D02*
X0120882Y0172681D01*
X0120741Y0173480D02*
X0025681Y0173480D01*
X0025622Y0174278D02*
X0120800Y0174278D01*
X0120700Y0173711D02*
X0120700Y0173711D01*
X0120941Y0175077D02*
X0025481Y0175077D01*
X0025340Y0175875D02*
X0121082Y0175875D01*
X0121222Y0176674D02*
X0025200Y0176674D01*
X0025059Y0177472D02*
X0121363Y0177472D01*
X0121455Y0177990D02*
X0121455Y0177990D01*
X0121617Y0178271D02*
X0024805Y0178271D01*
X0024968Y0177990D02*
X0024968Y0177990D01*
X0024344Y0179070D02*
X0122078Y0179070D01*
X0122539Y0179868D02*
X0023883Y0179868D01*
X0023422Y0180667D02*
X0123000Y0180667D01*
X0123461Y0181465D02*
X0022961Y0181465D01*
X0022795Y0181753D02*
X0022795Y0181753D01*
X0022795Y0181753D01*
X0022186Y0182264D02*
X0124236Y0182264D01*
X0125187Y0183062D02*
X0021235Y0183062D01*
X0006690Y0163099D02*
X0003800Y0163099D01*
X0003800Y0162301D02*
X0008536Y0162301D01*
X0006956Y0162876D02*
X0006955Y0162876D01*
X0005738Y0163898D02*
X0003800Y0163898D01*
X0003800Y0164696D02*
X0004786Y0164696D01*
X0003835Y0165495D02*
X0003800Y0165495D01*
X0003800Y0161502D02*
X0010730Y0161502D01*
X0015692Y0161502D02*
X0130730Y0161502D01*
X0115859Y0156711D02*
X0100941Y0156711D01*
X0101739Y0155913D02*
X0115061Y0155913D01*
X0114526Y0155114D02*
X0102274Y0155114D01*
X0102605Y0154316D02*
X0114195Y0154316D01*
X0114050Y0153517D02*
X0102750Y0153517D01*
X0102750Y0152719D02*
X0114050Y0152719D01*
X0114180Y0151920D02*
X0102620Y0151920D01*
X0102289Y0151122D02*
X0114511Y0151122D01*
X0115025Y0150323D02*
X0101775Y0150323D01*
X0100976Y0149525D02*
X0115824Y0149525D01*
X0096700Y0148726D02*
X0070100Y0148726D01*
X0070100Y0147928D02*
X0096700Y0147928D01*
X0096700Y0147129D02*
X0070100Y0147129D01*
X0070100Y0146331D02*
X0096700Y0146331D01*
X0096700Y0145532D02*
X0070100Y0145532D01*
X0070771Y0144734D02*
X0096629Y0144734D01*
X0095824Y0149525D02*
X0090976Y0149525D01*
X0090864Y0149412D02*
X0092088Y0150636D01*
X0092750Y0152235D01*
X0092750Y0153965D01*
X0092088Y0155564D01*
X0090864Y0156788D01*
X0089265Y0157450D01*
X0087535Y0157450D01*
X0085936Y0156788D01*
X0084712Y0155564D01*
X0084050Y0153965D01*
X0084050Y0152235D01*
X0084712Y0150636D01*
X0085936Y0149412D01*
X0087535Y0148750D01*
X0089265Y0148750D01*
X0090864Y0149412D01*
X0091775Y0150323D02*
X0095025Y0150323D01*
X0094511Y0151122D02*
X0092289Y0151122D01*
X0092620Y0151920D02*
X0094180Y0151920D01*
X0094050Y0152719D02*
X0092750Y0152719D01*
X0092750Y0153517D02*
X0094050Y0153517D01*
X0094195Y0154316D02*
X0092605Y0154316D01*
X0092274Y0155114D02*
X0094526Y0155114D01*
X0095061Y0155913D02*
X0091739Y0155913D01*
X0090941Y0156711D02*
X0095859Y0156711D01*
X0085859Y0156711D02*
X0070941Y0156711D01*
X0071739Y0155913D02*
X0085061Y0155913D01*
X0084526Y0155114D02*
X0072274Y0155114D01*
X0072605Y0154316D02*
X0084195Y0154316D01*
X0084050Y0153517D02*
X0072750Y0153517D01*
X0072750Y0152719D02*
X0084050Y0152719D01*
X0084180Y0151920D02*
X0072620Y0151920D01*
X0072289Y0151122D02*
X0084511Y0151122D01*
X0085025Y0150323D02*
X0071775Y0150323D01*
X0070976Y0149525D02*
X0085824Y0149525D01*
X0074161Y0136748D02*
X0051913Y0136748D01*
X0052542Y0135950D02*
X0073532Y0135950D01*
X0073201Y0135151D02*
X0052873Y0135151D01*
X0052994Y0134353D02*
X0073080Y0134353D01*
X0073080Y0133554D02*
X0052994Y0133554D01*
X0052743Y0132756D02*
X0073331Y0132756D01*
X0073676Y0131957D02*
X0052398Y0131957D01*
X0051599Y0131159D02*
X0074475Y0131159D01*
X0066329Y0144734D02*
X0040371Y0144734D01*
X0040200Y0145532D02*
X0066700Y0145532D01*
X0066700Y0146331D02*
X0040200Y0146331D01*
X0040200Y0147129D02*
X0066700Y0147129D01*
X0066700Y0147928D02*
X0040200Y0147928D01*
X0040200Y0148726D02*
X0066700Y0148726D01*
X0065824Y0149525D02*
X0060976Y0149525D01*
X0060864Y0149412D02*
X0062088Y0150636D01*
X0062750Y0152235D01*
X0062750Y0153965D01*
X0062088Y0155564D01*
X0060864Y0156788D01*
X0059265Y0157450D01*
X0057535Y0157450D01*
X0055936Y0156788D01*
X0054712Y0155564D01*
X0054050Y0153965D01*
X0054050Y0152235D01*
X0054712Y0150636D01*
X0055936Y0149412D01*
X0057535Y0148750D01*
X0059265Y0148750D01*
X0060864Y0149412D01*
X0061775Y0150323D02*
X0065025Y0150323D01*
X0064511Y0151122D02*
X0062289Y0151122D01*
X0062620Y0151920D02*
X0064180Y0151920D01*
X0064050Y0152719D02*
X0062750Y0152719D01*
X0062750Y0153517D02*
X0064050Y0153517D01*
X0064195Y0154316D02*
X0062605Y0154316D01*
X0062274Y0155114D02*
X0064526Y0155114D01*
X0065061Y0155913D02*
X0061739Y0155913D01*
X0060941Y0156711D02*
X0065859Y0156711D01*
X0055859Y0156711D02*
X0040941Y0156711D01*
X0041739Y0155913D02*
X0055061Y0155913D01*
X0054526Y0155114D02*
X0042274Y0155114D01*
X0042605Y0154316D02*
X0054195Y0154316D01*
X0054050Y0153517D02*
X0042750Y0153517D01*
X0042750Y0152719D02*
X0054050Y0152719D01*
X0054180Y0151920D02*
X0042620Y0151920D01*
X0042289Y0151122D02*
X0054511Y0151122D01*
X0055025Y0150323D02*
X0041775Y0150323D01*
X0040976Y0149525D02*
X0055824Y0149525D01*
X0035824Y0149525D02*
X0030976Y0149525D01*
X0031775Y0150323D02*
X0035025Y0150323D01*
X0034511Y0151122D02*
X0032289Y0151122D01*
X0032620Y0151920D02*
X0034180Y0151920D01*
X0034050Y0152719D02*
X0032750Y0152719D01*
X0032750Y0153517D02*
X0034050Y0153517D01*
X0034195Y0154316D02*
X0032605Y0154316D01*
X0032274Y0155114D02*
X0034526Y0155114D01*
X0035061Y0155913D02*
X0031739Y0155913D01*
X0030941Y0156711D02*
X0035859Y0156711D01*
X0029422Y0127166D02*
X0003800Y0127166D01*
X0003800Y0126368D02*
X0028640Y0126368D01*
X0028309Y0125569D02*
X0003800Y0125569D01*
X0003800Y0124771D02*
X0028080Y0124771D01*
X0028080Y0123972D02*
X0003800Y0123972D01*
X0003800Y0123174D02*
X0028223Y0123174D01*
X0028554Y0122375D02*
X0003800Y0122375D01*
X0003800Y0121577D02*
X0029214Y0121577D01*
X0030834Y0115987D02*
X0003800Y0115987D01*
X0003800Y0115189D02*
X0030036Y0115189D01*
X0029700Y0114390D02*
X0003800Y0114390D01*
X0003800Y0113592D02*
X0029700Y0113592D01*
X0029854Y0112793D02*
X0003800Y0112793D01*
X0003800Y0111995D02*
X0030500Y0111995D01*
X0030500Y0111196D02*
X0003800Y0111196D01*
X0003800Y0110398D02*
X0030500Y0110398D01*
X0030500Y0109599D02*
X0012757Y0109599D01*
X0013050Y0108801D02*
X0030500Y0108801D01*
X0030500Y0108002D02*
X0013050Y0108002D01*
X0013050Y0107203D02*
X0030500Y0107203D01*
X0030500Y0106405D02*
X0013216Y0106405D01*
X0014015Y0105606D02*
X0030500Y0105606D01*
X0030500Y0104808D02*
X0014813Y0104808D01*
X0015612Y0104009D02*
X0030500Y0104009D01*
X0030500Y0103211D02*
X0016410Y0103211D01*
X0017209Y0102412D02*
X0030500Y0102412D01*
X0030500Y0101614D02*
X0018007Y0101614D01*
X0018806Y0100815D02*
X0030500Y0100815D01*
X0030500Y0100017D02*
X0019604Y0100017D01*
X0020403Y0099218D02*
X0030500Y0099218D01*
X0030500Y0098420D02*
X0021201Y0098420D01*
X0022000Y0097621D02*
X0030500Y0097621D01*
X0030500Y0096823D02*
X0022798Y0096823D01*
X0023597Y0096024D02*
X0030500Y0096024D01*
X0030500Y0095226D02*
X0024395Y0095226D01*
X0025194Y0094427D02*
X0030500Y0094427D01*
X0030500Y0093629D02*
X0025993Y0093629D01*
X0026791Y0092830D02*
X0030500Y0092830D01*
X0030500Y0092032D02*
X0027590Y0092032D01*
X0028388Y0091233D02*
X0030500Y0091233D01*
X0030500Y0090435D02*
X0029187Y0090435D01*
X0029985Y0089636D02*
X0030500Y0089636D01*
X0032000Y0087621D02*
X0035327Y0084294D01*
X0048700Y0084294D01*
X0051000Y0084047D02*
X0051277Y0084047D01*
X0051000Y0084845D02*
X0052075Y0084845D01*
X0052874Y0085644D02*
X0050603Y0085644D01*
X0049805Y0086442D02*
X0053672Y0086442D01*
X0054471Y0087241D02*
X0034502Y0087241D01*
X0033703Y0088039D02*
X0055269Y0088039D01*
X0056000Y0088838D02*
X0033500Y0088838D01*
X0033500Y0089636D02*
X0056000Y0089636D01*
X0056000Y0090435D02*
X0033500Y0090435D01*
X0033500Y0091233D02*
X0056000Y0091233D01*
X0055298Y0092032D02*
X0033500Y0092032D01*
X0033500Y0092830D02*
X0047600Y0092830D01*
X0046801Y0093629D02*
X0033500Y0093629D01*
X0033500Y0094427D02*
X0046003Y0094427D01*
X0045204Y0095226D02*
X0033500Y0095226D01*
X0033500Y0096024D02*
X0044123Y0096024D01*
X0043500Y0096823D02*
X0033500Y0096823D01*
X0033500Y0097621D02*
X0043500Y0097621D01*
X0043500Y0098420D02*
X0033500Y0098420D01*
X0033500Y0099218D02*
X0044166Y0099218D01*
X0046566Y0102412D02*
X0033500Y0102412D01*
X0033500Y0101614D02*
X0047365Y0101614D01*
X0048163Y0100815D02*
X0033500Y0100815D01*
X0033500Y0100017D02*
X0048962Y0100017D01*
X0049760Y0099218D02*
X0047434Y0099218D01*
X0048100Y0098420D02*
X0050559Y0098420D01*
X0051357Y0097621D02*
X0048748Y0097621D01*
X0049547Y0096823D02*
X0052156Y0096823D01*
X0054500Y0096600D02*
X0073100Y0096600D01*
X0075400Y0094300D01*
X0075400Y0089100D01*
X0076793Y0087241D02*
X0082438Y0087241D01*
X0081639Y0088039D02*
X0077592Y0088039D01*
X0077700Y0088838D02*
X0080841Y0088838D01*
X0080042Y0089636D02*
X0077700Y0089636D01*
X0077318Y0090435D02*
X0079244Y0090435D01*
X0078445Y0091233D02*
X0076900Y0091233D01*
X0076900Y0092032D02*
X0077647Y0092032D01*
X0077700Y0094100D02*
X0086300Y0085500D01*
X0086300Y0084294D01*
X0084000Y0084047D02*
X0057217Y0084047D01*
X0058015Y0084845D02*
X0084000Y0084845D01*
X0084035Y0085644D02*
X0058814Y0085644D01*
X0059612Y0086442D02*
X0083236Y0086442D01*
X0084285Y0089636D02*
X0106188Y0089636D01*
X0105927Y0089005D02*
X0105927Y0087384D01*
X0106547Y0085887D01*
X0107693Y0084741D01*
X0109190Y0084121D01*
X0110810Y0084121D01*
X0112307Y0084741D01*
X0113453Y0085887D01*
X0114073Y0087384D01*
X0114073Y0089005D01*
X0113453Y0090502D01*
X0112307Y0091648D01*
X0110810Y0092268D01*
X0109190Y0092268D01*
X0107693Y0091648D01*
X0106547Y0090502D01*
X0105927Y0089005D01*
X0105927Y0088838D02*
X0085084Y0088838D01*
X0085882Y0088039D02*
X0105927Y0088039D01*
X0105986Y0087241D02*
X0086681Y0087241D01*
X0087479Y0086442D02*
X0106317Y0086442D01*
X0106790Y0085644D02*
X0088203Y0085644D01*
X0088600Y0084845D02*
X0107589Y0084845D01*
X0112411Y0084845D02*
X0133372Y0084845D01*
X0133372Y0085644D02*
X0113210Y0085644D01*
X0113683Y0086442D02*
X0133372Y0086442D01*
X0133693Y0087241D02*
X0114014Y0087241D01*
X0114073Y0088039D02*
X0134024Y0088039D01*
X0134808Y0088838D02*
X0114073Y0088838D01*
X0113812Y0089636D02*
X0136099Y0089636D01*
X0135138Y0092032D02*
X0111380Y0092032D01*
X0112722Y0091233D02*
X0142622Y0091233D01*
X0142622Y0090435D02*
X0113481Y0090435D01*
X0108620Y0092032D02*
X0081890Y0092032D01*
X0082688Y0091233D02*
X0107278Y0091233D01*
X0106519Y0090435D02*
X0083487Y0090435D01*
X0081091Y0092830D02*
X0134340Y0092830D01*
X0133830Y0093629D02*
X0080293Y0093629D01*
X0079494Y0094427D02*
X0133499Y0094427D01*
X0133372Y0095226D02*
X0078717Y0095226D01*
X0077918Y0096024D02*
X0108968Y0096024D01*
X0109190Y0095932D02*
X0110810Y0095932D01*
X0112307Y0096552D01*
X0113453Y0097698D01*
X0114073Y0099195D01*
X0114073Y0100816D01*
X0113453Y0102313D01*
X0112307Y0103459D01*
X0110810Y0104079D01*
X0109190Y0104079D01*
X0107693Y0103459D01*
X0106547Y0102313D01*
X0105927Y0100816D01*
X0105927Y0099195D01*
X0106547Y0097698D01*
X0107693Y0096552D01*
X0109190Y0095932D01*
X0111032Y0096024D02*
X0133372Y0096024D01*
X0133520Y0096823D02*
X0112578Y0096823D01*
X0113376Y0097621D02*
X0133851Y0097621D01*
X0134390Y0098420D02*
X0113752Y0098420D01*
X0114073Y0099218D02*
X0135189Y0099218D01*
X0135978Y0101614D02*
X0113743Y0101614D01*
X0114073Y0100815D02*
X0142622Y0100815D01*
X0142622Y0100017D02*
X0114073Y0100017D01*
X0113353Y0102412D02*
X0134758Y0102412D01*
X0134003Y0103211D02*
X0112555Y0103211D01*
X0110977Y0104009D02*
X0133672Y0104009D01*
X0133372Y0104808D02*
X0050535Y0104808D01*
X0051333Y0104009D02*
X0109023Y0104009D01*
X0107445Y0103211D02*
X0052132Y0103211D01*
X0052930Y0102412D02*
X0106647Y0102412D01*
X0106257Y0101614D02*
X0053729Y0101614D01*
X0054527Y0100815D02*
X0105927Y0100815D01*
X0105927Y0100017D02*
X0055326Y0100017D01*
X0055121Y0098100D02*
X0041600Y0111621D01*
X0041600Y0114300D01*
X0040034Y0115987D02*
X0038366Y0115987D01*
X0039000Y0115189D02*
X0039300Y0115189D01*
X0039300Y0114390D02*
X0039000Y0114390D01*
X0036700Y0114400D02*
X0054500Y0096600D01*
X0055121Y0098100D02*
X0073721Y0098100D01*
X0077700Y0094121D01*
X0077700Y0094100D01*
X0077120Y0096823D02*
X0107422Y0096823D01*
X0106624Y0097621D02*
X0076321Y0097621D01*
X0075523Y0098420D02*
X0106248Y0098420D01*
X0105927Y0099218D02*
X0074724Y0099218D01*
X0073900Y0092830D02*
X0073583Y0092830D01*
X0073900Y0092032D02*
X0072784Y0092032D01*
X0073900Y0091233D02*
X0060203Y0091233D01*
X0060200Y0090435D02*
X0073482Y0090435D01*
X0073100Y0089636D02*
X0060200Y0089636D01*
X0060200Y0088838D02*
X0073100Y0088838D01*
X0073208Y0088039D02*
X0060200Y0088039D01*
X0060200Y0087241D02*
X0074007Y0087241D01*
X0070616Y0092032D02*
X0061002Y0092032D01*
X0056418Y0083248D02*
X0084094Y0083248D01*
X0084892Y0082450D02*
X0055619Y0082450D01*
X0053224Y0080054D02*
X0142622Y0080054D01*
X0142622Y0079256D02*
X0140218Y0079256D01*
X0141017Y0078457D02*
X0142622Y0078457D01*
X0142622Y0077659D02*
X0141578Y0077659D01*
X0141909Y0076860D02*
X0142622Y0076860D01*
X0142622Y0076062D02*
X0142072Y0076062D01*
X0142072Y0075263D02*
X0142622Y0075263D01*
X0142622Y0074465D02*
X0141960Y0074465D01*
X0141629Y0073666D02*
X0142622Y0073666D01*
X0142622Y0072868D02*
X0141141Y0072868D01*
X0140343Y0072069D02*
X0142622Y0072069D01*
X0142622Y0071270D02*
X0138637Y0071270D01*
X0139255Y0069673D02*
X0142622Y0069673D01*
X0142622Y0068875D02*
X0140599Y0068875D01*
X0141397Y0068076D02*
X0142622Y0068076D01*
X0142622Y0067278D02*
X0141735Y0067278D01*
X0142066Y0066479D02*
X0142622Y0066479D01*
X0142622Y0065681D02*
X0142072Y0065681D01*
X0142072Y0064882D02*
X0142622Y0064882D01*
X0142622Y0064084D02*
X0141802Y0064084D01*
X0141472Y0063285D02*
X0142622Y0063285D01*
X0142622Y0062487D02*
X0140761Y0062487D01*
X0139646Y0061688D02*
X0142622Y0061688D01*
X0142622Y0070472D02*
X0100125Y0070472D01*
X0099750Y0069673D02*
X0136189Y0069673D01*
X0134845Y0068875D02*
X0099750Y0068875D01*
X0099750Y0068076D02*
X0134047Y0068076D01*
X0133709Y0067278D02*
X0099750Y0067278D01*
X0099348Y0066479D02*
X0133378Y0066479D01*
X0135101Y0072069D02*
X0101400Y0072069D01*
X0101400Y0072868D02*
X0134303Y0072868D01*
X0133815Y0073666D02*
X0101387Y0073666D01*
X0100588Y0074465D02*
X0133484Y0074465D01*
X0133372Y0075263D02*
X0095741Y0075263D01*
X0095900Y0074465D02*
X0097612Y0074465D01*
X0096813Y0073666D02*
X0095900Y0073666D01*
X0094943Y0076062D02*
X0133372Y0076062D01*
X0133536Y0076860D02*
X0094144Y0076860D01*
X0094904Y0076100D02*
X0094904Y0076100D01*
X0099100Y0072700D02*
X0099100Y0072600D01*
X0097400Y0070900D01*
X0097400Y0069837D01*
X0100923Y0071270D02*
X0136807Y0071270D01*
X0134721Y0082450D02*
X0087708Y0082450D01*
X0088506Y0083248D02*
X0133988Y0083248D01*
X0133657Y0084047D02*
X0088600Y0084047D01*
X0080982Y0077659D02*
X0041963Y0077659D01*
X0041164Y0078457D02*
X0048690Y0078457D01*
X0047892Y0079256D02*
X0040366Y0079256D01*
X0039567Y0080054D02*
X0047800Y0080054D01*
X0047800Y0080853D02*
X0038769Y0080853D01*
X0037970Y0081651D02*
X0048198Y0081651D01*
X0047292Y0082450D02*
X0037172Y0082450D01*
X0035300Y0086442D02*
X0047595Y0086442D01*
X0042761Y0076860D02*
X0080183Y0076860D01*
X0079385Y0076062D02*
X0043560Y0076062D01*
X0044358Y0075263D02*
X0078586Y0075263D01*
X0077788Y0074465D02*
X0045157Y0074465D01*
X0045200Y0072300D02*
X0011900Y0105600D01*
X0008700Y0105600D01*
X0004643Y0109599D02*
X0003800Y0109599D01*
X0003800Y0108801D02*
X0004350Y0108801D01*
X0004350Y0108002D02*
X0003800Y0108002D01*
X0003800Y0107203D02*
X0004350Y0107203D01*
X0004350Y0106405D02*
X0003800Y0106405D01*
X0003800Y0105606D02*
X0004350Y0105606D01*
X0004350Y0104808D02*
X0003800Y0104808D01*
X0003800Y0104009D02*
X0004350Y0104009D01*
X0004350Y0103211D02*
X0003800Y0103211D01*
X0003800Y0102412D02*
X0004350Y0102412D01*
X0004630Y0101614D02*
X0003800Y0101614D01*
X0003800Y0100815D02*
X0014563Y0100815D01*
X0015362Y0100017D02*
X0003800Y0100017D01*
X0003800Y0099218D02*
X0006167Y0099218D01*
X0005368Y0098420D02*
X0003800Y0098420D01*
X0003800Y0097621D02*
X0004829Y0097621D01*
X0004498Y0096823D02*
X0003800Y0096823D01*
X0003800Y0096024D02*
X0004350Y0096024D01*
X0004350Y0095226D02*
X0003800Y0095226D01*
X0003800Y0094427D02*
X0004477Y0094427D01*
X0004808Y0093629D02*
X0003800Y0093629D01*
X0003800Y0092830D02*
X0005318Y0092830D01*
X0006116Y0092032D02*
X0003800Y0092032D01*
X0003800Y0091233D02*
X0021545Y0091233D01*
X0020747Y0092032D02*
X0011284Y0092032D01*
X0012082Y0092830D02*
X0019948Y0092830D01*
X0019150Y0093629D02*
X0012592Y0093629D01*
X0012571Y0097621D02*
X0017757Y0097621D01*
X0016959Y0098420D02*
X0012032Y0098420D01*
X0011233Y0099218D02*
X0016160Y0099218D01*
X0013765Y0101614D02*
X0012770Y0101614D01*
X0008700Y0095600D02*
X0019300Y0095600D01*
X0045600Y0069300D01*
X0047900Y0069673D02*
X0054505Y0069673D01*
X0055304Y0068875D02*
X0047900Y0068875D01*
X0047629Y0068076D02*
X0056102Y0068076D01*
X0056901Y0067278D02*
X0046831Y0067278D01*
X0044369Y0067278D02*
X0012713Y0067278D01*
X0012388Y0068064D02*
X0013050Y0066465D01*
X0013050Y0064735D01*
X0012388Y0063136D01*
X0011164Y0061912D01*
X0009565Y0061250D01*
X0007835Y0061250D01*
X0006236Y0061912D01*
X0005012Y0063136D01*
X0004350Y0064735D01*
X0004350Y0066465D01*
X0005012Y0068064D01*
X0006236Y0069288D01*
X0007835Y0069950D01*
X0009565Y0069950D01*
X0011164Y0069288D01*
X0012388Y0068064D01*
X0012375Y0068076D02*
X0043571Y0068076D01*
X0043300Y0068875D02*
X0011577Y0068875D01*
X0010233Y0069673D02*
X0043105Y0069673D01*
X0042307Y0070472D02*
X0003800Y0070472D01*
X0003800Y0071270D02*
X0007785Y0071270D01*
X0007835Y0071250D02*
X0009565Y0071250D01*
X0011164Y0071912D01*
X0012388Y0073136D01*
X0013050Y0074735D01*
X0013050Y0076465D01*
X0012388Y0078064D01*
X0011164Y0079288D01*
X0009565Y0079950D01*
X0007835Y0079950D01*
X0006236Y0079288D01*
X0005012Y0078064D01*
X0004350Y0076465D01*
X0004350Y0074735D01*
X0005012Y0073136D01*
X0006236Y0071912D01*
X0007835Y0071250D01*
X0007167Y0069673D02*
X0003800Y0069673D01*
X0003800Y0068875D02*
X0005823Y0068875D01*
X0005025Y0068076D02*
X0003800Y0068076D01*
X0003800Y0067278D02*
X0004687Y0067278D01*
X0004356Y0066479D02*
X0003800Y0066479D01*
X0003800Y0065681D02*
X0004350Y0065681D01*
X0004350Y0064882D02*
X0003800Y0064882D01*
X0003800Y0064084D02*
X0004620Y0064084D01*
X0004950Y0063285D02*
X0003800Y0063285D01*
X0003800Y0062487D02*
X0005661Y0062487D01*
X0006776Y0061688D02*
X0003800Y0061688D01*
X0003800Y0060890D02*
X0040700Y0060890D01*
X0040700Y0061688D02*
X0010624Y0061688D01*
X0011739Y0062487D02*
X0040560Y0062487D01*
X0040550Y0063285D02*
X0012450Y0063285D01*
X0012780Y0064084D02*
X0040550Y0064084D01*
X0041030Y0064882D02*
X0013050Y0064882D01*
X0013050Y0065681D02*
X0041828Y0065681D01*
X0043475Y0066479D02*
X0013044Y0066479D01*
X0011321Y0072069D02*
X0040710Y0072069D01*
X0041508Y0071270D02*
X0009615Y0071270D01*
X0012119Y0072868D02*
X0039911Y0072868D01*
X0039113Y0073666D02*
X0012607Y0073666D01*
X0012938Y0074465D02*
X0038314Y0074465D01*
X0037516Y0075263D02*
X0013050Y0075263D01*
X0013050Y0076062D02*
X0036717Y0076062D01*
X0035919Y0076860D02*
X0012886Y0076860D01*
X0012556Y0077659D02*
X0035120Y0077659D01*
X0034322Y0078457D02*
X0011995Y0078457D01*
X0011196Y0079256D02*
X0033523Y0079256D01*
X0032725Y0080054D02*
X0003800Y0080054D01*
X0003800Y0079256D02*
X0006204Y0079256D01*
X0005405Y0078457D02*
X0003800Y0078457D01*
X0003800Y0077659D02*
X0004844Y0077659D01*
X0004514Y0076860D02*
X0003800Y0076860D01*
X0003800Y0076062D02*
X0004350Y0076062D01*
X0004350Y0075263D02*
X0003800Y0075263D01*
X0003800Y0074465D02*
X0004462Y0074465D01*
X0004793Y0073666D02*
X0003800Y0073666D01*
X0003800Y0072868D02*
X0005281Y0072868D01*
X0006079Y0072069D02*
X0003800Y0072069D01*
X0003800Y0080853D02*
X0031926Y0080853D01*
X0031128Y0081651D02*
X0010534Y0081651D01*
X0011164Y0081912D02*
X0012388Y0083136D01*
X0013050Y0084735D01*
X0013050Y0086465D01*
X0012388Y0088064D01*
X0011164Y0089288D01*
X0009565Y0089950D01*
X0007835Y0089950D01*
X0006236Y0089288D01*
X0005012Y0088064D01*
X0004350Y0086465D01*
X0004350Y0084735D01*
X0005012Y0083136D01*
X0006236Y0081912D01*
X0007835Y0081250D01*
X0009565Y0081250D01*
X0011164Y0081912D01*
X0011701Y0082450D02*
X0030329Y0082450D01*
X0029531Y0083248D02*
X0012434Y0083248D01*
X0012765Y0084047D02*
X0028732Y0084047D01*
X0027933Y0084845D02*
X0013050Y0084845D01*
X0013050Y0085644D02*
X0027135Y0085644D01*
X0026336Y0086442D02*
X0013050Y0086442D01*
X0012729Y0087241D02*
X0025538Y0087241D01*
X0024739Y0088039D02*
X0012398Y0088039D01*
X0011614Y0088838D02*
X0023941Y0088838D01*
X0023142Y0089636D02*
X0010323Y0089636D01*
X0007077Y0089636D02*
X0003800Y0089636D01*
X0003800Y0088838D02*
X0005786Y0088838D01*
X0005002Y0088039D02*
X0003800Y0088039D01*
X0003800Y0087241D02*
X0004671Y0087241D01*
X0004350Y0086442D02*
X0003800Y0086442D01*
X0003800Y0085644D02*
X0004350Y0085644D01*
X0004350Y0084845D02*
X0003800Y0084845D01*
X0003800Y0084047D02*
X0004635Y0084047D01*
X0004966Y0083248D02*
X0003800Y0083248D01*
X0003800Y0082450D02*
X0005699Y0082450D01*
X0006866Y0081651D02*
X0003800Y0081651D01*
X0003800Y0090435D02*
X0022344Y0090435D01*
X0032000Y0087621D02*
X0032000Y0113900D01*
X0033166Y0115987D02*
X0035034Y0115987D01*
X0034400Y0115189D02*
X0033964Y0115189D01*
X0034300Y0114390D02*
X0034400Y0114390D01*
X0034400Y0113592D02*
X0034300Y0113592D01*
X0034146Y0112793D02*
X0035054Y0112793D01*
X0033500Y0111995D02*
X0036984Y0111995D01*
X0037783Y0111196D02*
X0033500Y0111196D01*
X0033500Y0110398D02*
X0038581Y0110398D01*
X0039380Y0109599D02*
X0033500Y0109599D01*
X0033500Y0108801D02*
X0040178Y0108801D01*
X0040977Y0108002D02*
X0033500Y0108002D01*
X0033500Y0107203D02*
X0041775Y0107203D01*
X0042574Y0106405D02*
X0033500Y0106405D01*
X0033500Y0105606D02*
X0043372Y0105606D01*
X0044171Y0104808D02*
X0033500Y0104808D01*
X0033500Y0104009D02*
X0044969Y0104009D01*
X0045768Y0103211D02*
X0033500Y0103211D01*
X0045744Y0109599D02*
X0136009Y0109599D01*
X0134771Y0108801D02*
X0046542Y0108801D01*
X0047341Y0108002D02*
X0134009Y0108002D01*
X0133678Y0107203D02*
X0048139Y0107203D01*
X0048938Y0106405D02*
X0133372Y0106405D01*
X0133372Y0105606D02*
X0049736Y0105606D01*
X0054755Y0073666D02*
X0076989Y0073666D01*
X0076191Y0072868D02*
X0055554Y0072868D01*
X0056352Y0072069D02*
X0075392Y0072069D01*
X0074594Y0071270D02*
X0057151Y0071270D01*
X0057949Y0070472D02*
X0073795Y0070472D01*
X0072997Y0069673D02*
X0058748Y0069673D01*
X0059546Y0068875D02*
X0072198Y0068875D01*
X0071399Y0068076D02*
X0060345Y0068076D01*
X0061143Y0067278D02*
X0070601Y0067278D01*
X0069802Y0066479D02*
X0063073Y0066479D01*
X0063800Y0065681D02*
X0069004Y0065681D01*
X0068551Y0064882D02*
X0063800Y0064882D01*
X0063800Y0064084D02*
X0068400Y0064084D01*
X0068400Y0063285D02*
X0063238Y0063285D01*
X0061500Y0064800D02*
X0054000Y0072300D01*
X0045200Y0072300D01*
X0047681Y0070472D02*
X0053707Y0070472D01*
X0050863Y0066479D02*
X0057699Y0066479D01*
X0058498Y0065681D02*
X0050863Y0065681D01*
X0050863Y0064882D02*
X0059200Y0064882D01*
X0059200Y0064084D02*
X0050863Y0064084D01*
X0050863Y0063285D02*
X0052633Y0063285D01*
X0054000Y0061400D02*
X0047463Y0061400D01*
X0047263Y0061600D01*
X0050261Y0059293D02*
X0052854Y0059293D01*
X0055145Y0059293D02*
X0068400Y0059293D01*
X0068400Y0060091D02*
X0055944Y0060091D01*
X0056300Y0060890D02*
X0068400Y0060890D01*
X0068400Y0061688D02*
X0056300Y0061688D01*
X0056166Y0062487D02*
X0068400Y0062487D01*
X0068400Y0058494D02*
X0044100Y0058494D01*
X0044108Y0057696D02*
X0068400Y0057696D01*
X0068093Y0056897D02*
X0050871Y0056897D01*
X0055367Y0063285D02*
X0059762Y0063285D01*
X0065737Y0049711D02*
X0050353Y0049711D01*
X0043700Y0051308D02*
X0009705Y0051308D01*
X0009565Y0051250D02*
X0011164Y0051912D01*
X0012388Y0053136D01*
X0013050Y0054735D01*
X0013050Y0056465D01*
X0012388Y0058064D01*
X0011164Y0059288D01*
X0009565Y0059950D01*
X0007835Y0059950D01*
X0006236Y0059288D01*
X0005012Y0058064D01*
X0004350Y0056465D01*
X0004350Y0054735D01*
X0005012Y0053136D01*
X0006236Y0051912D01*
X0007835Y0051250D01*
X0009565Y0051250D01*
X0007695Y0051308D02*
X0003800Y0051308D01*
X0003800Y0052106D02*
X0006042Y0052106D01*
X0005243Y0052905D02*
X0003800Y0052905D01*
X0003800Y0053703D02*
X0004777Y0053703D01*
X0004446Y0054502D02*
X0003800Y0054502D01*
X0003800Y0055300D02*
X0004350Y0055300D01*
X0004350Y0056099D02*
X0003800Y0056099D01*
X0003800Y0056897D02*
X0004529Y0056897D01*
X0004860Y0057696D02*
X0003800Y0057696D01*
X0003800Y0058494D02*
X0005442Y0058494D01*
X0006248Y0059293D02*
X0003800Y0059293D01*
X0003800Y0060091D02*
X0040700Y0060091D01*
X0040700Y0059293D02*
X0011152Y0059293D01*
X0011958Y0058494D02*
X0040700Y0058494D01*
X0040700Y0057696D02*
X0012540Y0057696D01*
X0012871Y0056897D02*
X0040700Y0056897D01*
X0040897Y0056099D02*
X0013050Y0056099D01*
X0013050Y0055300D02*
X0041696Y0055300D01*
X0042494Y0054502D02*
X0012953Y0054502D01*
X0012623Y0053703D02*
X0043293Y0053703D01*
X0043700Y0052905D02*
X0012157Y0052905D01*
X0011358Y0052106D02*
X0043700Y0052106D01*
X0044100Y0059293D02*
X0044265Y0059293D01*
X0068400Y0048114D02*
X0012338Y0048114D01*
X0012698Y0047315D02*
X0068400Y0047315D01*
X0068400Y0046517D02*
X0013029Y0046517D01*
X0013050Y0045718D02*
X0068400Y0045718D01*
X0068400Y0044920D02*
X0013050Y0044920D01*
X0012796Y0044121D02*
X0068400Y0044121D01*
X0068400Y0043323D02*
X0012465Y0043323D01*
X0011776Y0042524D02*
X0068400Y0042524D01*
X0068400Y0041726D02*
X0010713Y0041726D01*
X0010278Y0025755D02*
X0003800Y0025755D01*
X0003800Y0024957D02*
X0008085Y0024957D01*
X0006494Y0024158D02*
X0003800Y0024158D01*
X0003800Y0023360D02*
X0005542Y0023360D01*
X0004590Y0022561D02*
X0003800Y0022561D01*
X0023327Y0006591D02*
X0123095Y0006591D01*
X0123556Y0005793D02*
X0022866Y0005793D01*
X0021991Y0004994D02*
X0124432Y0004994D01*
X0123627Y0005669D02*
X0123627Y0005669D01*
X0123627Y0005669D01*
X0122634Y0007390D02*
X0023788Y0007390D01*
X0024249Y0008188D02*
X0122173Y0008188D01*
X0121712Y0008987D02*
X0024710Y0008987D01*
X0024968Y0009432D02*
X0024968Y0009432D01*
X0025030Y0009785D02*
X0121392Y0009785D01*
X0121455Y0009432D02*
X0121455Y0009432D01*
X0121251Y0010584D02*
X0025171Y0010584D01*
X0025311Y0011382D02*
X0121111Y0011382D01*
X0090246Y0054502D02*
X0079823Y0054502D01*
X0079600Y0056400D02*
X0091600Y0056400D01*
X0090442Y0058494D02*
X0073600Y0058494D01*
X0073600Y0057696D02*
X0078774Y0057696D01*
X0077976Y0056897D02*
X0073600Y0056897D01*
X0073600Y0056099D02*
X0077177Y0056099D01*
X0076379Y0055300D02*
X0073600Y0055300D01*
X0073600Y0054502D02*
X0075580Y0054502D01*
X0073651Y0053703D02*
X0073600Y0053703D01*
X0075100Y0051900D02*
X0079600Y0056400D01*
X0074037Y0049711D02*
X0073600Y0049711D01*
D18*
X0075100Y0051900D03*
X0075400Y0059500D03*
X0071000Y0064000D03*
X0065500Y0059500D03*
X0061500Y0064800D03*
X0058200Y0071800D03*
X0050100Y0080300D03*
X0048700Y0084294D03*
X0045700Y0092300D03*
X0045800Y0097600D03*
X0041600Y0114300D03*
X0036700Y0114400D03*
X0032000Y0113900D03*
X0014200Y0099300D03*
X0015800Y0090400D03*
X0015900Y0080800D03*
X0013600Y0070200D03*
X0017000Y0051800D03*
X0012300Y0027800D03*
X0042850Y0063450D03*
X0045600Y0069300D03*
X0054000Y0061400D03*
X0066800Y0051900D03*
X0064800Y0034100D03*
X0075100Y0034000D03*
X0078400Y0027500D03*
X0077700Y0021900D03*
X0074500Y0015100D03*
X0071000Y0015100D03*
X0067600Y0015100D03*
X0071800Y0006800D03*
X0085300Y0006700D03*
X0096800Y0006800D03*
X0084000Y0028900D03*
X0091600Y0056400D03*
X0088000Y0063600D03*
X0089300Y0072600D03*
X0083600Y0076600D03*
X0086300Y0084294D03*
X0075400Y0089100D03*
X0071700Y0094200D03*
X0064000Y0089900D03*
X0072100Y0071700D03*
X0099100Y0072700D03*
X0109600Y0082800D03*
X0120100Y0078600D03*
X0127500Y0070500D03*
X0127600Y0060600D03*
X0127500Y0050700D03*
X0127500Y0040500D03*
X0129400Y0032100D03*
X0134600Y0028100D03*
X0127100Y0100600D03*
X0117100Y0112100D03*
X0114000Y0103900D03*
X0138200Y0113600D03*
X0057100Y0007000D03*
X0046700Y0006800D03*
D19*
X0067600Y0015100D02*
X0071000Y0015100D01*
X0074500Y0015100D01*
X0071000Y0015100D02*
X0071000Y0052100D01*
X0071000Y0054900D01*
X0071000Y0057400D01*
X0071000Y0064000D01*
X0083600Y0076600D01*
D20*
X0092000Y0076600D01*
X0094200Y0074400D01*
X0094200Y0069837D01*
X0071000Y0057400D02*
X0068763Y0055163D01*
X0068700Y0055163D01*
X0071000Y0052863D01*
X0071000Y0052100D01*
X0071000Y0054900D02*
X0070737Y0055163D01*
X0068763Y0055163D01*
X0068700Y0055163D02*
X0047300Y0055163D01*
X0047437Y0055100D01*
X0044300Y0055100D01*
X0042400Y0057000D01*
X0042400Y0063000D01*
X0042850Y0063450D01*
X0044200Y0064800D01*
X0047263Y0064800D01*
X0049237Y0134110D02*
X0049237Y0141463D01*
X0049237Y0141637D01*
X0050500Y0142900D01*
X0066900Y0142900D01*
X0068400Y0144400D01*
X0068400Y0144700D01*
X0070200Y0142900D01*
X0075700Y0142900D01*
X0075700Y0142500D01*
X0076900Y0141300D01*
X0078500Y0142900D01*
X0097200Y0142900D01*
X0098400Y0144100D01*
X0098400Y0144000D01*
X0099500Y0142900D01*
X0103300Y0142900D01*
X0104437Y0141763D01*
X0104437Y0141737D01*
X0105600Y0142900D01*
X0124900Y0142900D01*
X0128400Y0146400D01*
X0128400Y0153100D01*
X0105600Y0142900D02*
X0104100Y0142900D01*
X0104437Y0142563D01*
X0104437Y0141763D01*
X0104437Y0141737D02*
X0104437Y0134110D01*
X0104100Y0142900D02*
X0103300Y0142900D01*
X0099500Y0142900D02*
X0098400Y0142900D01*
X0098400Y0144000D01*
X0098400Y0144100D02*
X0098400Y0153100D01*
X0098400Y0142900D02*
X0097200Y0142900D01*
X0078500Y0142900D02*
X0076900Y0142900D01*
X0076900Y0141300D01*
X0076900Y0134173D01*
X0076837Y0134110D01*
X0076900Y0142900D02*
X0075700Y0142900D01*
X0070200Y0142900D02*
X0068500Y0142900D01*
X0068400Y0143000D01*
X0068400Y0144400D01*
X0068400Y0144700D02*
X0068400Y0153100D01*
X0068500Y0142900D02*
X0066900Y0142900D01*
X0050500Y0142900D02*
X0049400Y0142900D01*
X0049237Y0142737D01*
X0049237Y0141637D01*
X0049237Y0141463D02*
X0047800Y0142900D01*
X0039800Y0142900D01*
X0038500Y0144200D01*
X0037200Y0142900D01*
X0030627Y0142900D01*
X0021837Y0134110D01*
X0037200Y0142900D02*
X0038500Y0142900D01*
X0038500Y0144200D01*
X0038500Y0143700D02*
X0039300Y0142900D01*
X0039800Y0142900D01*
X0039300Y0142900D02*
X0038500Y0142900D01*
X0038500Y0143700D02*
X0038500Y0153000D01*
X0038400Y0153100D01*
X0047800Y0142900D02*
X0049400Y0142900D01*
D21*
X0045800Y0097600D02*
X0049200Y0094200D01*
X0056100Y0094200D01*
X0058100Y0092200D01*
X0058100Y0092100D01*
X0060200Y0094200D01*
X0071700Y0094200D01*
X0060200Y0094200D02*
X0058200Y0094200D01*
X0058100Y0094100D01*
X0058100Y0092200D01*
X0058100Y0092100D02*
X0058100Y0087900D01*
X0050500Y0080300D01*
X0050100Y0080300D01*
X0056100Y0094200D02*
X0058200Y0094200D01*
M02*
