G75*
%MOIN*%
%OFA0B0*%
%FSLAX25Y25*%
%IPPOS*%
%LPD*%
%AMOC8*
5,1,8,0,0,1.08239X$1,22.5*
%
%ADD10C,0.00000*%
%ADD11C,0.01250*%
%ADD12C,0.00875*%
%ADD13R,0.02559X0.01969*%
%ADD14R,0.04528X0.01575*%
%ADD15R,0.08000X0.02600*%
%ADD16R,0.05315X0.05315*%
%ADD17C,0.05315*%
%ADD18C,0.00625*%
%ADD19R,0.02362X0.05315*%
%ADD20R,0.04724X0.07874*%
%ADD21R,0.06500X0.06500*%
%ADD22C,0.06500*%
%ADD23R,0.04528X0.03937*%
%ADD24C,0.00800*%
%ADD25C,0.01200*%
%ADD26C,0.02400*%
%ADD27C,0.03000*%
%ADD28C,0.02000*%
D10*
X0007306Y0001900D02*
X0139117Y0001900D01*
X0139269Y0001902D01*
X0139421Y0001908D01*
X0139573Y0001918D01*
X0139724Y0001931D01*
X0139875Y0001949D01*
X0140026Y0001970D01*
X0140176Y0001996D01*
X0140325Y0002025D01*
X0140474Y0002058D01*
X0140621Y0002095D01*
X0140768Y0002135D01*
X0140913Y0002180D01*
X0141057Y0002228D01*
X0141200Y0002280D01*
X0141342Y0002335D01*
X0141482Y0002394D01*
X0141621Y0002457D01*
X0141758Y0002523D01*
X0141893Y0002593D01*
X0142026Y0002666D01*
X0142157Y0002743D01*
X0142287Y0002823D01*
X0142414Y0002906D01*
X0142539Y0002992D01*
X0142662Y0003082D01*
X0142782Y0003175D01*
X0142900Y0003271D01*
X0143016Y0003370D01*
X0143129Y0003472D01*
X0143239Y0003576D01*
X0143347Y0003684D01*
X0143451Y0003794D01*
X0143553Y0003907D01*
X0143652Y0004023D01*
X0143748Y0004141D01*
X0143841Y0004261D01*
X0143931Y0004384D01*
X0144017Y0004509D01*
X0144100Y0004636D01*
X0144180Y0004766D01*
X0144257Y0004897D01*
X0144330Y0005030D01*
X0144400Y0005165D01*
X0144466Y0005302D01*
X0144529Y0005441D01*
X0144588Y0005581D01*
X0144643Y0005723D01*
X0144695Y0005866D01*
X0144743Y0006010D01*
X0144788Y0006155D01*
X0144828Y0006302D01*
X0144865Y0006449D01*
X0144898Y0006598D01*
X0144927Y0006747D01*
X0144953Y0006897D01*
X0144974Y0007048D01*
X0144992Y0007199D01*
X0145005Y0007350D01*
X0145015Y0007502D01*
X0145021Y0007654D01*
X0145023Y0007806D01*
X0145022Y0007806D02*
X0145022Y0179617D01*
X0145023Y0179617D02*
X0145021Y0179769D01*
X0145015Y0179921D01*
X0145005Y0180073D01*
X0144992Y0180224D01*
X0144974Y0180375D01*
X0144953Y0180526D01*
X0144927Y0180676D01*
X0144898Y0180825D01*
X0144865Y0180974D01*
X0144828Y0181121D01*
X0144788Y0181268D01*
X0144743Y0181413D01*
X0144695Y0181557D01*
X0144643Y0181700D01*
X0144588Y0181842D01*
X0144529Y0181982D01*
X0144466Y0182121D01*
X0144400Y0182258D01*
X0144330Y0182393D01*
X0144257Y0182526D01*
X0144180Y0182657D01*
X0144100Y0182787D01*
X0144017Y0182914D01*
X0143931Y0183039D01*
X0143841Y0183162D01*
X0143748Y0183282D01*
X0143652Y0183400D01*
X0143553Y0183516D01*
X0143451Y0183629D01*
X0143347Y0183739D01*
X0143239Y0183847D01*
X0143129Y0183951D01*
X0143016Y0184053D01*
X0142900Y0184152D01*
X0142782Y0184248D01*
X0142662Y0184341D01*
X0142539Y0184431D01*
X0142414Y0184517D01*
X0142287Y0184600D01*
X0142157Y0184680D01*
X0142026Y0184757D01*
X0141893Y0184830D01*
X0141758Y0184900D01*
X0141621Y0184966D01*
X0141482Y0185029D01*
X0141342Y0185088D01*
X0141200Y0185143D01*
X0141057Y0185195D01*
X0140913Y0185243D01*
X0140768Y0185288D01*
X0140621Y0185328D01*
X0140474Y0185365D01*
X0140325Y0185398D01*
X0140176Y0185427D01*
X0140026Y0185453D01*
X0139875Y0185474D01*
X0139724Y0185492D01*
X0139573Y0185505D01*
X0139421Y0185515D01*
X0139269Y0185521D01*
X0139117Y0185523D01*
X0139117Y0185522D02*
X0007306Y0185522D01*
X0007306Y0185523D02*
X0007154Y0185521D01*
X0007002Y0185515D01*
X0006850Y0185505D01*
X0006699Y0185492D01*
X0006548Y0185474D01*
X0006397Y0185453D01*
X0006247Y0185427D01*
X0006098Y0185398D01*
X0005949Y0185365D01*
X0005802Y0185328D01*
X0005655Y0185288D01*
X0005510Y0185243D01*
X0005366Y0185195D01*
X0005223Y0185143D01*
X0005081Y0185088D01*
X0004941Y0185029D01*
X0004802Y0184966D01*
X0004665Y0184900D01*
X0004530Y0184830D01*
X0004397Y0184757D01*
X0004266Y0184680D01*
X0004136Y0184600D01*
X0004009Y0184517D01*
X0003884Y0184431D01*
X0003761Y0184341D01*
X0003641Y0184248D01*
X0003523Y0184152D01*
X0003407Y0184053D01*
X0003294Y0183951D01*
X0003184Y0183847D01*
X0003076Y0183739D01*
X0002972Y0183629D01*
X0002870Y0183516D01*
X0002771Y0183400D01*
X0002675Y0183282D01*
X0002582Y0183162D01*
X0002492Y0183039D01*
X0002406Y0182914D01*
X0002323Y0182787D01*
X0002243Y0182657D01*
X0002166Y0182526D01*
X0002093Y0182393D01*
X0002023Y0182258D01*
X0001957Y0182121D01*
X0001894Y0181982D01*
X0001835Y0181842D01*
X0001780Y0181700D01*
X0001728Y0181557D01*
X0001680Y0181413D01*
X0001635Y0181268D01*
X0001595Y0181121D01*
X0001558Y0180974D01*
X0001525Y0180825D01*
X0001496Y0180676D01*
X0001470Y0180526D01*
X0001449Y0180375D01*
X0001431Y0180224D01*
X0001418Y0180073D01*
X0001408Y0179921D01*
X0001402Y0179769D01*
X0001400Y0179617D01*
X0001400Y0007806D01*
X0001402Y0007654D01*
X0001408Y0007502D01*
X0001418Y0007350D01*
X0001431Y0007199D01*
X0001449Y0007048D01*
X0001470Y0006897D01*
X0001496Y0006747D01*
X0001525Y0006598D01*
X0001558Y0006449D01*
X0001595Y0006302D01*
X0001635Y0006155D01*
X0001680Y0006010D01*
X0001728Y0005866D01*
X0001780Y0005723D01*
X0001835Y0005581D01*
X0001894Y0005441D01*
X0001957Y0005302D01*
X0002023Y0005165D01*
X0002093Y0005030D01*
X0002166Y0004897D01*
X0002243Y0004766D01*
X0002323Y0004636D01*
X0002406Y0004509D01*
X0002492Y0004384D01*
X0002582Y0004261D01*
X0002675Y0004141D01*
X0002771Y0004023D01*
X0002870Y0003907D01*
X0002972Y0003794D01*
X0003076Y0003684D01*
X0003184Y0003576D01*
X0003294Y0003472D01*
X0003407Y0003370D01*
X0003523Y0003271D01*
X0003641Y0003175D01*
X0003761Y0003082D01*
X0003884Y0002992D01*
X0004009Y0002906D01*
X0004136Y0002823D01*
X0004266Y0002743D01*
X0004397Y0002666D01*
X0004530Y0002593D01*
X0004665Y0002523D01*
X0004802Y0002457D01*
X0004941Y0002394D01*
X0005081Y0002335D01*
X0005223Y0002280D01*
X0005366Y0002228D01*
X0005510Y0002180D01*
X0005655Y0002135D01*
X0005802Y0002095D01*
X0005949Y0002058D01*
X0006098Y0002025D01*
X0006247Y0001996D01*
X0006397Y0001970D01*
X0006548Y0001949D01*
X0006699Y0001931D01*
X0006850Y0001918D01*
X0007002Y0001908D01*
X0007154Y0001902D01*
X0007306Y0001900D01*
X0007305Y0013711D02*
X0007307Y0013864D01*
X0007313Y0014018D01*
X0007323Y0014171D01*
X0007337Y0014323D01*
X0007355Y0014476D01*
X0007377Y0014627D01*
X0007402Y0014778D01*
X0007432Y0014929D01*
X0007466Y0015079D01*
X0007503Y0015227D01*
X0007544Y0015375D01*
X0007589Y0015521D01*
X0007638Y0015667D01*
X0007691Y0015811D01*
X0007747Y0015953D01*
X0007807Y0016094D01*
X0007871Y0016234D01*
X0007938Y0016372D01*
X0008009Y0016508D01*
X0008084Y0016642D01*
X0008161Y0016774D01*
X0008243Y0016904D01*
X0008327Y0017032D01*
X0008415Y0017158D01*
X0008506Y0017281D01*
X0008600Y0017402D01*
X0008698Y0017520D01*
X0008798Y0017636D01*
X0008902Y0017749D01*
X0009008Y0017860D01*
X0009117Y0017968D01*
X0009229Y0018073D01*
X0009343Y0018174D01*
X0009461Y0018273D01*
X0009580Y0018369D01*
X0009702Y0018462D01*
X0009827Y0018551D01*
X0009954Y0018638D01*
X0010083Y0018720D01*
X0010214Y0018800D01*
X0010347Y0018876D01*
X0010482Y0018949D01*
X0010619Y0019018D01*
X0010758Y0019083D01*
X0010898Y0019145D01*
X0011040Y0019203D01*
X0011183Y0019258D01*
X0011328Y0019309D01*
X0011474Y0019356D01*
X0011621Y0019399D01*
X0011769Y0019438D01*
X0011918Y0019474D01*
X0012068Y0019505D01*
X0012219Y0019533D01*
X0012370Y0019557D01*
X0012523Y0019577D01*
X0012675Y0019593D01*
X0012828Y0019605D01*
X0012981Y0019613D01*
X0013134Y0019617D01*
X0013288Y0019617D01*
X0013441Y0019613D01*
X0013594Y0019605D01*
X0013747Y0019593D01*
X0013899Y0019577D01*
X0014052Y0019557D01*
X0014203Y0019533D01*
X0014354Y0019505D01*
X0014504Y0019474D01*
X0014653Y0019438D01*
X0014801Y0019399D01*
X0014948Y0019356D01*
X0015094Y0019309D01*
X0015239Y0019258D01*
X0015382Y0019203D01*
X0015524Y0019145D01*
X0015664Y0019083D01*
X0015803Y0019018D01*
X0015940Y0018949D01*
X0016075Y0018876D01*
X0016208Y0018800D01*
X0016339Y0018720D01*
X0016468Y0018638D01*
X0016595Y0018551D01*
X0016720Y0018462D01*
X0016842Y0018369D01*
X0016961Y0018273D01*
X0017079Y0018174D01*
X0017193Y0018073D01*
X0017305Y0017968D01*
X0017414Y0017860D01*
X0017520Y0017749D01*
X0017624Y0017636D01*
X0017724Y0017520D01*
X0017822Y0017402D01*
X0017916Y0017281D01*
X0018007Y0017158D01*
X0018095Y0017032D01*
X0018179Y0016904D01*
X0018261Y0016774D01*
X0018338Y0016642D01*
X0018413Y0016508D01*
X0018484Y0016372D01*
X0018551Y0016234D01*
X0018615Y0016094D01*
X0018675Y0015953D01*
X0018731Y0015811D01*
X0018784Y0015667D01*
X0018833Y0015521D01*
X0018878Y0015375D01*
X0018919Y0015227D01*
X0018956Y0015079D01*
X0018990Y0014929D01*
X0019020Y0014778D01*
X0019045Y0014627D01*
X0019067Y0014476D01*
X0019085Y0014323D01*
X0019099Y0014171D01*
X0019109Y0014018D01*
X0019115Y0013864D01*
X0019117Y0013711D01*
X0019115Y0013558D01*
X0019109Y0013404D01*
X0019099Y0013251D01*
X0019085Y0013099D01*
X0019067Y0012946D01*
X0019045Y0012795D01*
X0019020Y0012644D01*
X0018990Y0012493D01*
X0018956Y0012343D01*
X0018919Y0012195D01*
X0018878Y0012047D01*
X0018833Y0011901D01*
X0018784Y0011755D01*
X0018731Y0011611D01*
X0018675Y0011469D01*
X0018615Y0011328D01*
X0018551Y0011188D01*
X0018484Y0011050D01*
X0018413Y0010914D01*
X0018338Y0010780D01*
X0018261Y0010648D01*
X0018179Y0010518D01*
X0018095Y0010390D01*
X0018007Y0010264D01*
X0017916Y0010141D01*
X0017822Y0010020D01*
X0017724Y0009902D01*
X0017624Y0009786D01*
X0017520Y0009673D01*
X0017414Y0009562D01*
X0017305Y0009454D01*
X0017193Y0009349D01*
X0017079Y0009248D01*
X0016961Y0009149D01*
X0016842Y0009053D01*
X0016720Y0008960D01*
X0016595Y0008871D01*
X0016468Y0008784D01*
X0016339Y0008702D01*
X0016208Y0008622D01*
X0016075Y0008546D01*
X0015940Y0008473D01*
X0015803Y0008404D01*
X0015664Y0008339D01*
X0015524Y0008277D01*
X0015382Y0008219D01*
X0015239Y0008164D01*
X0015094Y0008113D01*
X0014948Y0008066D01*
X0014801Y0008023D01*
X0014653Y0007984D01*
X0014504Y0007948D01*
X0014354Y0007917D01*
X0014203Y0007889D01*
X0014052Y0007865D01*
X0013899Y0007845D01*
X0013747Y0007829D01*
X0013594Y0007817D01*
X0013441Y0007809D01*
X0013288Y0007805D01*
X0013134Y0007805D01*
X0012981Y0007809D01*
X0012828Y0007817D01*
X0012675Y0007829D01*
X0012523Y0007845D01*
X0012370Y0007865D01*
X0012219Y0007889D01*
X0012068Y0007917D01*
X0011918Y0007948D01*
X0011769Y0007984D01*
X0011621Y0008023D01*
X0011474Y0008066D01*
X0011328Y0008113D01*
X0011183Y0008164D01*
X0011040Y0008219D01*
X0010898Y0008277D01*
X0010758Y0008339D01*
X0010619Y0008404D01*
X0010482Y0008473D01*
X0010347Y0008546D01*
X0010214Y0008622D01*
X0010083Y0008702D01*
X0009954Y0008784D01*
X0009827Y0008871D01*
X0009702Y0008960D01*
X0009580Y0009053D01*
X0009461Y0009149D01*
X0009343Y0009248D01*
X0009229Y0009349D01*
X0009117Y0009454D01*
X0009008Y0009562D01*
X0008902Y0009673D01*
X0008798Y0009786D01*
X0008698Y0009902D01*
X0008600Y0010020D01*
X0008506Y0010141D01*
X0008415Y0010264D01*
X0008327Y0010390D01*
X0008243Y0010518D01*
X0008161Y0010648D01*
X0008084Y0010780D01*
X0008009Y0010914D01*
X0007938Y0011050D01*
X0007871Y0011188D01*
X0007807Y0011328D01*
X0007747Y0011469D01*
X0007691Y0011611D01*
X0007638Y0011755D01*
X0007589Y0011901D01*
X0007544Y0012047D01*
X0007503Y0012195D01*
X0007466Y0012343D01*
X0007432Y0012493D01*
X0007402Y0012644D01*
X0007377Y0012795D01*
X0007355Y0012946D01*
X0007337Y0013099D01*
X0007323Y0013251D01*
X0007313Y0013404D01*
X0007307Y0013558D01*
X0007305Y0013711D01*
X0108327Y0088194D02*
X0108329Y0088275D01*
X0108335Y0088357D01*
X0108345Y0088438D01*
X0108359Y0088518D01*
X0108376Y0088597D01*
X0108398Y0088676D01*
X0108423Y0088753D01*
X0108452Y0088830D01*
X0108485Y0088904D01*
X0108522Y0088977D01*
X0108561Y0089048D01*
X0108605Y0089117D01*
X0108651Y0089184D01*
X0108701Y0089248D01*
X0108754Y0089310D01*
X0108810Y0089370D01*
X0108868Y0089426D01*
X0108930Y0089480D01*
X0108994Y0089531D01*
X0109060Y0089578D01*
X0109128Y0089622D01*
X0109199Y0089663D01*
X0109271Y0089700D01*
X0109346Y0089734D01*
X0109421Y0089764D01*
X0109499Y0089790D01*
X0109577Y0089813D01*
X0109656Y0089831D01*
X0109736Y0089846D01*
X0109817Y0089857D01*
X0109898Y0089864D01*
X0109980Y0089867D01*
X0110061Y0089866D01*
X0110142Y0089861D01*
X0110223Y0089852D01*
X0110304Y0089839D01*
X0110384Y0089822D01*
X0110462Y0089802D01*
X0110540Y0089777D01*
X0110617Y0089749D01*
X0110692Y0089717D01*
X0110765Y0089682D01*
X0110836Y0089643D01*
X0110906Y0089600D01*
X0110973Y0089555D01*
X0111039Y0089506D01*
X0111101Y0089454D01*
X0111161Y0089398D01*
X0111218Y0089340D01*
X0111273Y0089280D01*
X0111324Y0089216D01*
X0111372Y0089151D01*
X0111417Y0089083D01*
X0111459Y0089013D01*
X0111497Y0088941D01*
X0111532Y0088867D01*
X0111563Y0088792D01*
X0111590Y0088715D01*
X0111613Y0088637D01*
X0111633Y0088558D01*
X0111649Y0088478D01*
X0111661Y0088397D01*
X0111669Y0088316D01*
X0111673Y0088235D01*
X0111673Y0088153D01*
X0111669Y0088072D01*
X0111661Y0087991D01*
X0111649Y0087910D01*
X0111633Y0087830D01*
X0111613Y0087751D01*
X0111590Y0087673D01*
X0111563Y0087596D01*
X0111532Y0087521D01*
X0111497Y0087447D01*
X0111459Y0087375D01*
X0111417Y0087305D01*
X0111372Y0087237D01*
X0111324Y0087172D01*
X0111273Y0087108D01*
X0111218Y0087048D01*
X0111161Y0086990D01*
X0111101Y0086934D01*
X0111039Y0086882D01*
X0110973Y0086833D01*
X0110906Y0086788D01*
X0110837Y0086745D01*
X0110765Y0086706D01*
X0110692Y0086671D01*
X0110617Y0086639D01*
X0110540Y0086611D01*
X0110462Y0086586D01*
X0110384Y0086566D01*
X0110304Y0086549D01*
X0110223Y0086536D01*
X0110142Y0086527D01*
X0110061Y0086522D01*
X0109980Y0086521D01*
X0109898Y0086524D01*
X0109817Y0086531D01*
X0109736Y0086542D01*
X0109656Y0086557D01*
X0109577Y0086575D01*
X0109499Y0086598D01*
X0109421Y0086624D01*
X0109346Y0086654D01*
X0109271Y0086688D01*
X0109199Y0086725D01*
X0109128Y0086766D01*
X0109060Y0086810D01*
X0108994Y0086857D01*
X0108930Y0086908D01*
X0108868Y0086962D01*
X0108810Y0087018D01*
X0108754Y0087078D01*
X0108701Y0087140D01*
X0108651Y0087204D01*
X0108605Y0087271D01*
X0108561Y0087340D01*
X0108522Y0087411D01*
X0108485Y0087484D01*
X0108452Y0087558D01*
X0108423Y0087635D01*
X0108398Y0087712D01*
X0108376Y0087791D01*
X0108359Y0087870D01*
X0108345Y0087950D01*
X0108335Y0088031D01*
X0108329Y0088113D01*
X0108327Y0088194D01*
X0108327Y0100006D02*
X0108329Y0100087D01*
X0108335Y0100169D01*
X0108345Y0100250D01*
X0108359Y0100330D01*
X0108376Y0100409D01*
X0108398Y0100488D01*
X0108423Y0100565D01*
X0108452Y0100642D01*
X0108485Y0100716D01*
X0108522Y0100789D01*
X0108561Y0100860D01*
X0108605Y0100929D01*
X0108651Y0100996D01*
X0108701Y0101060D01*
X0108754Y0101122D01*
X0108810Y0101182D01*
X0108868Y0101238D01*
X0108930Y0101292D01*
X0108994Y0101343D01*
X0109060Y0101390D01*
X0109128Y0101434D01*
X0109199Y0101475D01*
X0109271Y0101512D01*
X0109346Y0101546D01*
X0109421Y0101576D01*
X0109499Y0101602D01*
X0109577Y0101625D01*
X0109656Y0101643D01*
X0109736Y0101658D01*
X0109817Y0101669D01*
X0109898Y0101676D01*
X0109980Y0101679D01*
X0110061Y0101678D01*
X0110142Y0101673D01*
X0110223Y0101664D01*
X0110304Y0101651D01*
X0110384Y0101634D01*
X0110462Y0101614D01*
X0110540Y0101589D01*
X0110617Y0101561D01*
X0110692Y0101529D01*
X0110765Y0101494D01*
X0110836Y0101455D01*
X0110906Y0101412D01*
X0110973Y0101367D01*
X0111039Y0101318D01*
X0111101Y0101266D01*
X0111161Y0101210D01*
X0111218Y0101152D01*
X0111273Y0101092D01*
X0111324Y0101028D01*
X0111372Y0100963D01*
X0111417Y0100895D01*
X0111459Y0100825D01*
X0111497Y0100753D01*
X0111532Y0100679D01*
X0111563Y0100604D01*
X0111590Y0100527D01*
X0111613Y0100449D01*
X0111633Y0100370D01*
X0111649Y0100290D01*
X0111661Y0100209D01*
X0111669Y0100128D01*
X0111673Y0100047D01*
X0111673Y0099965D01*
X0111669Y0099884D01*
X0111661Y0099803D01*
X0111649Y0099722D01*
X0111633Y0099642D01*
X0111613Y0099563D01*
X0111590Y0099485D01*
X0111563Y0099408D01*
X0111532Y0099333D01*
X0111497Y0099259D01*
X0111459Y0099187D01*
X0111417Y0099117D01*
X0111372Y0099049D01*
X0111324Y0098984D01*
X0111273Y0098920D01*
X0111218Y0098860D01*
X0111161Y0098802D01*
X0111101Y0098746D01*
X0111039Y0098694D01*
X0110973Y0098645D01*
X0110906Y0098600D01*
X0110837Y0098557D01*
X0110765Y0098518D01*
X0110692Y0098483D01*
X0110617Y0098451D01*
X0110540Y0098423D01*
X0110462Y0098398D01*
X0110384Y0098378D01*
X0110304Y0098361D01*
X0110223Y0098348D01*
X0110142Y0098339D01*
X0110061Y0098334D01*
X0109980Y0098333D01*
X0109898Y0098336D01*
X0109817Y0098343D01*
X0109736Y0098354D01*
X0109656Y0098369D01*
X0109577Y0098387D01*
X0109499Y0098410D01*
X0109421Y0098436D01*
X0109346Y0098466D01*
X0109271Y0098500D01*
X0109199Y0098537D01*
X0109128Y0098578D01*
X0109060Y0098622D01*
X0108994Y0098669D01*
X0108930Y0098720D01*
X0108868Y0098774D01*
X0108810Y0098830D01*
X0108754Y0098890D01*
X0108701Y0098952D01*
X0108651Y0099016D01*
X0108605Y0099083D01*
X0108561Y0099152D01*
X0108522Y0099223D01*
X0108485Y0099296D01*
X0108452Y0099370D01*
X0108423Y0099447D01*
X0108398Y0099524D01*
X0108376Y0099603D01*
X0108359Y0099682D01*
X0108345Y0099762D01*
X0108335Y0099843D01*
X0108329Y0099925D01*
X0108327Y0100006D01*
X0127305Y0173711D02*
X0127307Y0173864D01*
X0127313Y0174018D01*
X0127323Y0174171D01*
X0127337Y0174323D01*
X0127355Y0174476D01*
X0127377Y0174627D01*
X0127402Y0174778D01*
X0127432Y0174929D01*
X0127466Y0175079D01*
X0127503Y0175227D01*
X0127544Y0175375D01*
X0127589Y0175521D01*
X0127638Y0175667D01*
X0127691Y0175811D01*
X0127747Y0175953D01*
X0127807Y0176094D01*
X0127871Y0176234D01*
X0127938Y0176372D01*
X0128009Y0176508D01*
X0128084Y0176642D01*
X0128161Y0176774D01*
X0128243Y0176904D01*
X0128327Y0177032D01*
X0128415Y0177158D01*
X0128506Y0177281D01*
X0128600Y0177402D01*
X0128698Y0177520D01*
X0128798Y0177636D01*
X0128902Y0177749D01*
X0129008Y0177860D01*
X0129117Y0177968D01*
X0129229Y0178073D01*
X0129343Y0178174D01*
X0129461Y0178273D01*
X0129580Y0178369D01*
X0129702Y0178462D01*
X0129827Y0178551D01*
X0129954Y0178638D01*
X0130083Y0178720D01*
X0130214Y0178800D01*
X0130347Y0178876D01*
X0130482Y0178949D01*
X0130619Y0179018D01*
X0130758Y0179083D01*
X0130898Y0179145D01*
X0131040Y0179203D01*
X0131183Y0179258D01*
X0131328Y0179309D01*
X0131474Y0179356D01*
X0131621Y0179399D01*
X0131769Y0179438D01*
X0131918Y0179474D01*
X0132068Y0179505D01*
X0132219Y0179533D01*
X0132370Y0179557D01*
X0132523Y0179577D01*
X0132675Y0179593D01*
X0132828Y0179605D01*
X0132981Y0179613D01*
X0133134Y0179617D01*
X0133288Y0179617D01*
X0133441Y0179613D01*
X0133594Y0179605D01*
X0133747Y0179593D01*
X0133899Y0179577D01*
X0134052Y0179557D01*
X0134203Y0179533D01*
X0134354Y0179505D01*
X0134504Y0179474D01*
X0134653Y0179438D01*
X0134801Y0179399D01*
X0134948Y0179356D01*
X0135094Y0179309D01*
X0135239Y0179258D01*
X0135382Y0179203D01*
X0135524Y0179145D01*
X0135664Y0179083D01*
X0135803Y0179018D01*
X0135940Y0178949D01*
X0136075Y0178876D01*
X0136208Y0178800D01*
X0136339Y0178720D01*
X0136468Y0178638D01*
X0136595Y0178551D01*
X0136720Y0178462D01*
X0136842Y0178369D01*
X0136961Y0178273D01*
X0137079Y0178174D01*
X0137193Y0178073D01*
X0137305Y0177968D01*
X0137414Y0177860D01*
X0137520Y0177749D01*
X0137624Y0177636D01*
X0137724Y0177520D01*
X0137822Y0177402D01*
X0137916Y0177281D01*
X0138007Y0177158D01*
X0138095Y0177032D01*
X0138179Y0176904D01*
X0138261Y0176774D01*
X0138338Y0176642D01*
X0138413Y0176508D01*
X0138484Y0176372D01*
X0138551Y0176234D01*
X0138615Y0176094D01*
X0138675Y0175953D01*
X0138731Y0175811D01*
X0138784Y0175667D01*
X0138833Y0175521D01*
X0138878Y0175375D01*
X0138919Y0175227D01*
X0138956Y0175079D01*
X0138990Y0174929D01*
X0139020Y0174778D01*
X0139045Y0174627D01*
X0139067Y0174476D01*
X0139085Y0174323D01*
X0139099Y0174171D01*
X0139109Y0174018D01*
X0139115Y0173864D01*
X0139117Y0173711D01*
X0139115Y0173558D01*
X0139109Y0173404D01*
X0139099Y0173251D01*
X0139085Y0173099D01*
X0139067Y0172946D01*
X0139045Y0172795D01*
X0139020Y0172644D01*
X0138990Y0172493D01*
X0138956Y0172343D01*
X0138919Y0172195D01*
X0138878Y0172047D01*
X0138833Y0171901D01*
X0138784Y0171755D01*
X0138731Y0171611D01*
X0138675Y0171469D01*
X0138615Y0171328D01*
X0138551Y0171188D01*
X0138484Y0171050D01*
X0138413Y0170914D01*
X0138338Y0170780D01*
X0138261Y0170648D01*
X0138179Y0170518D01*
X0138095Y0170390D01*
X0138007Y0170264D01*
X0137916Y0170141D01*
X0137822Y0170020D01*
X0137724Y0169902D01*
X0137624Y0169786D01*
X0137520Y0169673D01*
X0137414Y0169562D01*
X0137305Y0169454D01*
X0137193Y0169349D01*
X0137079Y0169248D01*
X0136961Y0169149D01*
X0136842Y0169053D01*
X0136720Y0168960D01*
X0136595Y0168871D01*
X0136468Y0168784D01*
X0136339Y0168702D01*
X0136208Y0168622D01*
X0136075Y0168546D01*
X0135940Y0168473D01*
X0135803Y0168404D01*
X0135664Y0168339D01*
X0135524Y0168277D01*
X0135382Y0168219D01*
X0135239Y0168164D01*
X0135094Y0168113D01*
X0134948Y0168066D01*
X0134801Y0168023D01*
X0134653Y0167984D01*
X0134504Y0167948D01*
X0134354Y0167917D01*
X0134203Y0167889D01*
X0134052Y0167865D01*
X0133899Y0167845D01*
X0133747Y0167829D01*
X0133594Y0167817D01*
X0133441Y0167809D01*
X0133288Y0167805D01*
X0133134Y0167805D01*
X0132981Y0167809D01*
X0132828Y0167817D01*
X0132675Y0167829D01*
X0132523Y0167845D01*
X0132370Y0167865D01*
X0132219Y0167889D01*
X0132068Y0167917D01*
X0131918Y0167948D01*
X0131769Y0167984D01*
X0131621Y0168023D01*
X0131474Y0168066D01*
X0131328Y0168113D01*
X0131183Y0168164D01*
X0131040Y0168219D01*
X0130898Y0168277D01*
X0130758Y0168339D01*
X0130619Y0168404D01*
X0130482Y0168473D01*
X0130347Y0168546D01*
X0130214Y0168622D01*
X0130083Y0168702D01*
X0129954Y0168784D01*
X0129827Y0168871D01*
X0129702Y0168960D01*
X0129580Y0169053D01*
X0129461Y0169149D01*
X0129343Y0169248D01*
X0129229Y0169349D01*
X0129117Y0169454D01*
X0129008Y0169562D01*
X0128902Y0169673D01*
X0128798Y0169786D01*
X0128698Y0169902D01*
X0128600Y0170020D01*
X0128506Y0170141D01*
X0128415Y0170264D01*
X0128327Y0170390D01*
X0128243Y0170518D01*
X0128161Y0170648D01*
X0128084Y0170780D01*
X0128009Y0170914D01*
X0127938Y0171050D01*
X0127871Y0171188D01*
X0127807Y0171328D01*
X0127747Y0171469D01*
X0127691Y0171611D01*
X0127638Y0171755D01*
X0127589Y0171901D01*
X0127544Y0172047D01*
X0127503Y0172195D01*
X0127466Y0172343D01*
X0127432Y0172493D01*
X0127402Y0172644D01*
X0127377Y0172795D01*
X0127355Y0172946D01*
X0127337Y0173099D01*
X0127323Y0173251D01*
X0127313Y0173404D01*
X0127307Y0173558D01*
X0127305Y0173711D01*
X0007305Y0173711D02*
X0007307Y0173864D01*
X0007313Y0174018D01*
X0007323Y0174171D01*
X0007337Y0174323D01*
X0007355Y0174476D01*
X0007377Y0174627D01*
X0007402Y0174778D01*
X0007432Y0174929D01*
X0007466Y0175079D01*
X0007503Y0175227D01*
X0007544Y0175375D01*
X0007589Y0175521D01*
X0007638Y0175667D01*
X0007691Y0175811D01*
X0007747Y0175953D01*
X0007807Y0176094D01*
X0007871Y0176234D01*
X0007938Y0176372D01*
X0008009Y0176508D01*
X0008084Y0176642D01*
X0008161Y0176774D01*
X0008243Y0176904D01*
X0008327Y0177032D01*
X0008415Y0177158D01*
X0008506Y0177281D01*
X0008600Y0177402D01*
X0008698Y0177520D01*
X0008798Y0177636D01*
X0008902Y0177749D01*
X0009008Y0177860D01*
X0009117Y0177968D01*
X0009229Y0178073D01*
X0009343Y0178174D01*
X0009461Y0178273D01*
X0009580Y0178369D01*
X0009702Y0178462D01*
X0009827Y0178551D01*
X0009954Y0178638D01*
X0010083Y0178720D01*
X0010214Y0178800D01*
X0010347Y0178876D01*
X0010482Y0178949D01*
X0010619Y0179018D01*
X0010758Y0179083D01*
X0010898Y0179145D01*
X0011040Y0179203D01*
X0011183Y0179258D01*
X0011328Y0179309D01*
X0011474Y0179356D01*
X0011621Y0179399D01*
X0011769Y0179438D01*
X0011918Y0179474D01*
X0012068Y0179505D01*
X0012219Y0179533D01*
X0012370Y0179557D01*
X0012523Y0179577D01*
X0012675Y0179593D01*
X0012828Y0179605D01*
X0012981Y0179613D01*
X0013134Y0179617D01*
X0013288Y0179617D01*
X0013441Y0179613D01*
X0013594Y0179605D01*
X0013747Y0179593D01*
X0013899Y0179577D01*
X0014052Y0179557D01*
X0014203Y0179533D01*
X0014354Y0179505D01*
X0014504Y0179474D01*
X0014653Y0179438D01*
X0014801Y0179399D01*
X0014948Y0179356D01*
X0015094Y0179309D01*
X0015239Y0179258D01*
X0015382Y0179203D01*
X0015524Y0179145D01*
X0015664Y0179083D01*
X0015803Y0179018D01*
X0015940Y0178949D01*
X0016075Y0178876D01*
X0016208Y0178800D01*
X0016339Y0178720D01*
X0016468Y0178638D01*
X0016595Y0178551D01*
X0016720Y0178462D01*
X0016842Y0178369D01*
X0016961Y0178273D01*
X0017079Y0178174D01*
X0017193Y0178073D01*
X0017305Y0177968D01*
X0017414Y0177860D01*
X0017520Y0177749D01*
X0017624Y0177636D01*
X0017724Y0177520D01*
X0017822Y0177402D01*
X0017916Y0177281D01*
X0018007Y0177158D01*
X0018095Y0177032D01*
X0018179Y0176904D01*
X0018261Y0176774D01*
X0018338Y0176642D01*
X0018413Y0176508D01*
X0018484Y0176372D01*
X0018551Y0176234D01*
X0018615Y0176094D01*
X0018675Y0175953D01*
X0018731Y0175811D01*
X0018784Y0175667D01*
X0018833Y0175521D01*
X0018878Y0175375D01*
X0018919Y0175227D01*
X0018956Y0175079D01*
X0018990Y0174929D01*
X0019020Y0174778D01*
X0019045Y0174627D01*
X0019067Y0174476D01*
X0019085Y0174323D01*
X0019099Y0174171D01*
X0019109Y0174018D01*
X0019115Y0173864D01*
X0019117Y0173711D01*
X0019115Y0173558D01*
X0019109Y0173404D01*
X0019099Y0173251D01*
X0019085Y0173099D01*
X0019067Y0172946D01*
X0019045Y0172795D01*
X0019020Y0172644D01*
X0018990Y0172493D01*
X0018956Y0172343D01*
X0018919Y0172195D01*
X0018878Y0172047D01*
X0018833Y0171901D01*
X0018784Y0171755D01*
X0018731Y0171611D01*
X0018675Y0171469D01*
X0018615Y0171328D01*
X0018551Y0171188D01*
X0018484Y0171050D01*
X0018413Y0170914D01*
X0018338Y0170780D01*
X0018261Y0170648D01*
X0018179Y0170518D01*
X0018095Y0170390D01*
X0018007Y0170264D01*
X0017916Y0170141D01*
X0017822Y0170020D01*
X0017724Y0169902D01*
X0017624Y0169786D01*
X0017520Y0169673D01*
X0017414Y0169562D01*
X0017305Y0169454D01*
X0017193Y0169349D01*
X0017079Y0169248D01*
X0016961Y0169149D01*
X0016842Y0169053D01*
X0016720Y0168960D01*
X0016595Y0168871D01*
X0016468Y0168784D01*
X0016339Y0168702D01*
X0016208Y0168622D01*
X0016075Y0168546D01*
X0015940Y0168473D01*
X0015803Y0168404D01*
X0015664Y0168339D01*
X0015524Y0168277D01*
X0015382Y0168219D01*
X0015239Y0168164D01*
X0015094Y0168113D01*
X0014948Y0168066D01*
X0014801Y0168023D01*
X0014653Y0167984D01*
X0014504Y0167948D01*
X0014354Y0167917D01*
X0014203Y0167889D01*
X0014052Y0167865D01*
X0013899Y0167845D01*
X0013747Y0167829D01*
X0013594Y0167817D01*
X0013441Y0167809D01*
X0013288Y0167805D01*
X0013134Y0167805D01*
X0012981Y0167809D01*
X0012828Y0167817D01*
X0012675Y0167829D01*
X0012523Y0167845D01*
X0012370Y0167865D01*
X0012219Y0167889D01*
X0012068Y0167917D01*
X0011918Y0167948D01*
X0011769Y0167984D01*
X0011621Y0168023D01*
X0011474Y0168066D01*
X0011328Y0168113D01*
X0011183Y0168164D01*
X0011040Y0168219D01*
X0010898Y0168277D01*
X0010758Y0168339D01*
X0010619Y0168404D01*
X0010482Y0168473D01*
X0010347Y0168546D01*
X0010214Y0168622D01*
X0010083Y0168702D01*
X0009954Y0168784D01*
X0009827Y0168871D01*
X0009702Y0168960D01*
X0009580Y0169053D01*
X0009461Y0169149D01*
X0009343Y0169248D01*
X0009229Y0169349D01*
X0009117Y0169454D01*
X0009008Y0169562D01*
X0008902Y0169673D01*
X0008798Y0169786D01*
X0008698Y0169902D01*
X0008600Y0170020D01*
X0008506Y0170141D01*
X0008415Y0170264D01*
X0008327Y0170390D01*
X0008243Y0170518D01*
X0008161Y0170648D01*
X0008084Y0170780D01*
X0008009Y0170914D01*
X0007938Y0171050D01*
X0007871Y0171188D01*
X0007807Y0171328D01*
X0007747Y0171469D01*
X0007691Y0171611D01*
X0007638Y0171755D01*
X0007589Y0171901D01*
X0007544Y0172047D01*
X0007503Y0172195D01*
X0007466Y0172343D01*
X0007432Y0172493D01*
X0007402Y0172644D01*
X0007377Y0172795D01*
X0007355Y0172946D01*
X0007337Y0173099D01*
X0007323Y0173251D01*
X0007313Y0173404D01*
X0007307Y0173558D01*
X0007305Y0173711D01*
X0127305Y0013711D02*
X0127307Y0013864D01*
X0127313Y0014018D01*
X0127323Y0014171D01*
X0127337Y0014323D01*
X0127355Y0014476D01*
X0127377Y0014627D01*
X0127402Y0014778D01*
X0127432Y0014929D01*
X0127466Y0015079D01*
X0127503Y0015227D01*
X0127544Y0015375D01*
X0127589Y0015521D01*
X0127638Y0015667D01*
X0127691Y0015811D01*
X0127747Y0015953D01*
X0127807Y0016094D01*
X0127871Y0016234D01*
X0127938Y0016372D01*
X0128009Y0016508D01*
X0128084Y0016642D01*
X0128161Y0016774D01*
X0128243Y0016904D01*
X0128327Y0017032D01*
X0128415Y0017158D01*
X0128506Y0017281D01*
X0128600Y0017402D01*
X0128698Y0017520D01*
X0128798Y0017636D01*
X0128902Y0017749D01*
X0129008Y0017860D01*
X0129117Y0017968D01*
X0129229Y0018073D01*
X0129343Y0018174D01*
X0129461Y0018273D01*
X0129580Y0018369D01*
X0129702Y0018462D01*
X0129827Y0018551D01*
X0129954Y0018638D01*
X0130083Y0018720D01*
X0130214Y0018800D01*
X0130347Y0018876D01*
X0130482Y0018949D01*
X0130619Y0019018D01*
X0130758Y0019083D01*
X0130898Y0019145D01*
X0131040Y0019203D01*
X0131183Y0019258D01*
X0131328Y0019309D01*
X0131474Y0019356D01*
X0131621Y0019399D01*
X0131769Y0019438D01*
X0131918Y0019474D01*
X0132068Y0019505D01*
X0132219Y0019533D01*
X0132370Y0019557D01*
X0132523Y0019577D01*
X0132675Y0019593D01*
X0132828Y0019605D01*
X0132981Y0019613D01*
X0133134Y0019617D01*
X0133288Y0019617D01*
X0133441Y0019613D01*
X0133594Y0019605D01*
X0133747Y0019593D01*
X0133899Y0019577D01*
X0134052Y0019557D01*
X0134203Y0019533D01*
X0134354Y0019505D01*
X0134504Y0019474D01*
X0134653Y0019438D01*
X0134801Y0019399D01*
X0134948Y0019356D01*
X0135094Y0019309D01*
X0135239Y0019258D01*
X0135382Y0019203D01*
X0135524Y0019145D01*
X0135664Y0019083D01*
X0135803Y0019018D01*
X0135940Y0018949D01*
X0136075Y0018876D01*
X0136208Y0018800D01*
X0136339Y0018720D01*
X0136468Y0018638D01*
X0136595Y0018551D01*
X0136720Y0018462D01*
X0136842Y0018369D01*
X0136961Y0018273D01*
X0137079Y0018174D01*
X0137193Y0018073D01*
X0137305Y0017968D01*
X0137414Y0017860D01*
X0137520Y0017749D01*
X0137624Y0017636D01*
X0137724Y0017520D01*
X0137822Y0017402D01*
X0137916Y0017281D01*
X0138007Y0017158D01*
X0138095Y0017032D01*
X0138179Y0016904D01*
X0138261Y0016774D01*
X0138338Y0016642D01*
X0138413Y0016508D01*
X0138484Y0016372D01*
X0138551Y0016234D01*
X0138615Y0016094D01*
X0138675Y0015953D01*
X0138731Y0015811D01*
X0138784Y0015667D01*
X0138833Y0015521D01*
X0138878Y0015375D01*
X0138919Y0015227D01*
X0138956Y0015079D01*
X0138990Y0014929D01*
X0139020Y0014778D01*
X0139045Y0014627D01*
X0139067Y0014476D01*
X0139085Y0014323D01*
X0139099Y0014171D01*
X0139109Y0014018D01*
X0139115Y0013864D01*
X0139117Y0013711D01*
X0139115Y0013558D01*
X0139109Y0013404D01*
X0139099Y0013251D01*
X0139085Y0013099D01*
X0139067Y0012946D01*
X0139045Y0012795D01*
X0139020Y0012644D01*
X0138990Y0012493D01*
X0138956Y0012343D01*
X0138919Y0012195D01*
X0138878Y0012047D01*
X0138833Y0011901D01*
X0138784Y0011755D01*
X0138731Y0011611D01*
X0138675Y0011469D01*
X0138615Y0011328D01*
X0138551Y0011188D01*
X0138484Y0011050D01*
X0138413Y0010914D01*
X0138338Y0010780D01*
X0138261Y0010648D01*
X0138179Y0010518D01*
X0138095Y0010390D01*
X0138007Y0010264D01*
X0137916Y0010141D01*
X0137822Y0010020D01*
X0137724Y0009902D01*
X0137624Y0009786D01*
X0137520Y0009673D01*
X0137414Y0009562D01*
X0137305Y0009454D01*
X0137193Y0009349D01*
X0137079Y0009248D01*
X0136961Y0009149D01*
X0136842Y0009053D01*
X0136720Y0008960D01*
X0136595Y0008871D01*
X0136468Y0008784D01*
X0136339Y0008702D01*
X0136208Y0008622D01*
X0136075Y0008546D01*
X0135940Y0008473D01*
X0135803Y0008404D01*
X0135664Y0008339D01*
X0135524Y0008277D01*
X0135382Y0008219D01*
X0135239Y0008164D01*
X0135094Y0008113D01*
X0134948Y0008066D01*
X0134801Y0008023D01*
X0134653Y0007984D01*
X0134504Y0007948D01*
X0134354Y0007917D01*
X0134203Y0007889D01*
X0134052Y0007865D01*
X0133899Y0007845D01*
X0133747Y0007829D01*
X0133594Y0007817D01*
X0133441Y0007809D01*
X0133288Y0007805D01*
X0133134Y0007805D01*
X0132981Y0007809D01*
X0132828Y0007817D01*
X0132675Y0007829D01*
X0132523Y0007845D01*
X0132370Y0007865D01*
X0132219Y0007889D01*
X0132068Y0007917D01*
X0131918Y0007948D01*
X0131769Y0007984D01*
X0131621Y0008023D01*
X0131474Y0008066D01*
X0131328Y0008113D01*
X0131183Y0008164D01*
X0131040Y0008219D01*
X0130898Y0008277D01*
X0130758Y0008339D01*
X0130619Y0008404D01*
X0130482Y0008473D01*
X0130347Y0008546D01*
X0130214Y0008622D01*
X0130083Y0008702D01*
X0129954Y0008784D01*
X0129827Y0008871D01*
X0129702Y0008960D01*
X0129580Y0009053D01*
X0129461Y0009149D01*
X0129343Y0009248D01*
X0129229Y0009349D01*
X0129117Y0009454D01*
X0129008Y0009562D01*
X0128902Y0009673D01*
X0128798Y0009786D01*
X0128698Y0009902D01*
X0128600Y0010020D01*
X0128506Y0010141D01*
X0128415Y0010264D01*
X0128327Y0010390D01*
X0128243Y0010518D01*
X0128161Y0010648D01*
X0128084Y0010780D01*
X0128009Y0010914D01*
X0127938Y0011050D01*
X0127871Y0011188D01*
X0127807Y0011328D01*
X0127747Y0011469D01*
X0127691Y0011611D01*
X0127638Y0011755D01*
X0127589Y0011901D01*
X0127544Y0012047D01*
X0127503Y0012195D01*
X0127466Y0012343D01*
X0127432Y0012493D01*
X0127402Y0012644D01*
X0127377Y0012795D01*
X0127355Y0012946D01*
X0127337Y0013099D01*
X0127323Y0013251D01*
X0127313Y0013404D01*
X0127307Y0013558D01*
X0127305Y0013711D01*
D11*
X0094225Y0055788D02*
X0094225Y0057038D01*
X0094225Y0055788D02*
X0092975Y0055788D01*
X0092975Y0057038D01*
X0094225Y0057038D01*
X0094225Y0057037D02*
X0092975Y0057037D01*
X0094225Y0059288D02*
X0094225Y0060538D01*
X0094225Y0059288D02*
X0092975Y0059288D01*
X0092975Y0060538D01*
X0094225Y0060538D01*
X0094225Y0060537D02*
X0092975Y0060537D01*
X0092025Y0066388D02*
X0092025Y0067638D01*
X0092025Y0066388D02*
X0090775Y0066388D01*
X0090775Y0067638D01*
X0092025Y0067638D01*
X0092025Y0067637D02*
X0090775Y0067637D01*
X0092025Y0069888D02*
X0092025Y0071138D01*
X0092025Y0069888D02*
X0090775Y0069888D01*
X0090775Y0071138D01*
X0092025Y0071138D01*
X0092025Y0071137D02*
X0090775Y0071137D01*
X0097625Y0071138D02*
X0097625Y0069888D01*
X0096375Y0069888D01*
X0096375Y0071138D01*
X0097625Y0071138D01*
X0097625Y0071137D02*
X0096375Y0071137D01*
X0097625Y0067638D02*
X0097625Y0066388D01*
X0096375Y0066388D01*
X0096375Y0067638D01*
X0097625Y0067638D01*
X0097625Y0067637D02*
X0096375Y0067637D01*
X0093725Y0080119D02*
X0093725Y0081369D01*
X0093725Y0080119D02*
X0092475Y0080119D01*
X0092475Y0081369D01*
X0093725Y0081369D01*
X0093725Y0081368D02*
X0092475Y0081368D01*
X0093725Y0083619D02*
X0093725Y0084869D01*
X0093725Y0083619D02*
X0092475Y0083619D01*
X0092475Y0084869D01*
X0093725Y0084869D01*
X0093725Y0084868D02*
X0092475Y0084868D01*
X0089825Y0084869D02*
X0089825Y0083619D01*
X0088575Y0083619D01*
X0088575Y0084869D01*
X0089825Y0084869D01*
X0089825Y0084868D02*
X0088575Y0084868D01*
X0089825Y0081369D02*
X0089825Y0080119D01*
X0088575Y0080119D01*
X0088575Y0081369D01*
X0089825Y0081369D01*
X0089825Y0081368D02*
X0088575Y0081368D01*
X0057475Y0068838D02*
X0057475Y0067588D01*
X0057475Y0068838D02*
X0058725Y0068838D01*
X0058725Y0067588D01*
X0057475Y0067588D01*
X0057475Y0068837D02*
X0058725Y0068837D01*
X0057475Y0065338D02*
X0057475Y0064088D01*
X0057475Y0065338D02*
X0058725Y0065338D01*
X0058725Y0064088D01*
X0057475Y0064088D01*
X0057475Y0065337D02*
X0058725Y0065337D01*
X0054625Y0065338D02*
X0054625Y0064088D01*
X0053375Y0064088D01*
X0053375Y0065338D01*
X0054625Y0065338D01*
X0054625Y0065337D02*
X0053375Y0065337D01*
X0054625Y0067588D02*
X0054625Y0068838D01*
X0054625Y0067588D02*
X0053375Y0067588D01*
X0053375Y0068838D01*
X0054625Y0068838D01*
X0054625Y0068837D02*
X0053375Y0068837D01*
X0049375Y0068938D02*
X0049375Y0067688D01*
X0049375Y0068938D02*
X0050625Y0068938D01*
X0050625Y0067688D01*
X0049375Y0067688D01*
X0049375Y0068937D02*
X0050625Y0068937D01*
X0049375Y0065438D02*
X0049375Y0064188D01*
X0049375Y0065438D02*
X0050625Y0065438D01*
X0050625Y0064188D01*
X0049375Y0064188D01*
X0049375Y0065437D02*
X0050625Y0065437D01*
X0046625Y0078819D02*
X0046625Y0080069D01*
X0046625Y0078819D02*
X0045375Y0078819D01*
X0045375Y0080069D01*
X0046625Y0080069D01*
X0046625Y0080068D02*
X0045375Y0080068D01*
X0046625Y0082319D02*
X0046625Y0083569D01*
X0046625Y0082319D02*
X0045375Y0082319D01*
X0045375Y0083569D01*
X0046625Y0083569D01*
X0046625Y0083568D02*
X0045375Y0083568D01*
X0042525Y0083469D02*
X0042525Y0082219D01*
X0041275Y0082219D01*
X0041275Y0083469D01*
X0042525Y0083469D01*
X0042525Y0083468D02*
X0041275Y0083468D01*
X0042525Y0079969D02*
X0042525Y0078719D01*
X0041275Y0078719D01*
X0041275Y0079969D01*
X0042525Y0079969D01*
X0042525Y0079968D02*
X0041275Y0079968D01*
X0042225Y0107019D02*
X0042225Y0108269D01*
X0042225Y0107019D02*
X0040975Y0107019D01*
X0040975Y0108269D01*
X0042225Y0108269D01*
X0042225Y0108268D02*
X0040975Y0108268D01*
X0042225Y0110519D02*
X0042225Y0111769D01*
X0042225Y0110519D02*
X0040975Y0110519D01*
X0040975Y0111769D01*
X0042225Y0111769D01*
X0042225Y0111768D02*
X0040975Y0111768D01*
X0037425Y0111769D02*
X0037425Y0110519D01*
X0036175Y0110519D01*
X0036175Y0111769D01*
X0037425Y0111769D01*
X0037425Y0111768D02*
X0036175Y0111768D01*
X0037425Y0108269D02*
X0037425Y0107019D01*
X0036175Y0107019D01*
X0036175Y0108269D01*
X0037425Y0108269D01*
X0037425Y0108268D02*
X0036175Y0108268D01*
X0032625Y0108269D02*
X0032625Y0107019D01*
X0031375Y0107019D01*
X0031375Y0108269D01*
X0032625Y0108269D01*
X0032625Y0108268D02*
X0031375Y0108268D01*
X0032625Y0110519D02*
X0032625Y0111769D01*
X0032625Y0110519D02*
X0031375Y0110519D01*
X0031375Y0111769D01*
X0032625Y0111769D01*
X0032625Y0111768D02*
X0031375Y0111768D01*
X0027825Y0111769D02*
X0027825Y0110519D01*
X0026575Y0110519D01*
X0026575Y0111769D01*
X0027825Y0111769D01*
X0027825Y0111768D02*
X0026575Y0111768D01*
X0027825Y0108269D02*
X0027825Y0107019D01*
X0026575Y0107019D01*
X0026575Y0108269D01*
X0027825Y0108269D01*
X0027825Y0108268D02*
X0026575Y0108268D01*
D12*
X0075787Y0073176D02*
X0078413Y0073176D01*
X0078413Y0070550D01*
X0075787Y0070550D01*
X0075787Y0073176D01*
X0075787Y0071424D02*
X0078413Y0071424D01*
X0078413Y0072298D02*
X0075787Y0072298D01*
X0075787Y0073172D02*
X0078413Y0073172D01*
X0081787Y0073176D02*
X0084413Y0073176D01*
X0084413Y0070550D01*
X0081787Y0070550D01*
X0081787Y0073176D01*
X0081787Y0071424D02*
X0084413Y0071424D01*
X0084413Y0072298D02*
X0081787Y0072298D01*
X0081787Y0073172D02*
X0084413Y0073172D01*
X0084413Y0067576D02*
X0081787Y0067576D01*
X0084413Y0067576D02*
X0084413Y0064950D01*
X0081787Y0064950D01*
X0081787Y0067576D01*
X0081787Y0065824D02*
X0084413Y0065824D01*
X0084413Y0066698D02*
X0081787Y0066698D01*
X0081787Y0067572D02*
X0084413Y0067572D01*
X0078413Y0067576D02*
X0075787Y0067576D01*
X0078413Y0067576D02*
X0078413Y0064950D01*
X0075787Y0064950D01*
X0075787Y0067576D01*
X0075787Y0065824D02*
X0078413Y0065824D01*
X0078413Y0066698D02*
X0075787Y0066698D01*
X0075787Y0067572D02*
X0078413Y0067572D01*
X0090919Y0093087D02*
X0090919Y0095713D01*
X0090919Y0093087D02*
X0088293Y0093087D01*
X0088293Y0095713D01*
X0090919Y0095713D01*
X0090919Y0093961D02*
X0088293Y0093961D01*
X0088293Y0094835D02*
X0090919Y0094835D01*
X0090919Y0095709D02*
X0088293Y0095709D01*
X0090919Y0099087D02*
X0090919Y0101713D01*
X0090919Y0099087D02*
X0088293Y0099087D01*
X0088293Y0101713D01*
X0090919Y0101713D01*
X0090919Y0099961D02*
X0088293Y0099961D01*
X0088293Y0100835D02*
X0090919Y0100835D01*
X0090919Y0101709D02*
X0088293Y0101709D01*
D13*
X0050961Y0053987D03*
X0050961Y0050838D03*
X0050961Y0047688D03*
X0050961Y0044539D03*
X0051061Y0040587D03*
X0051061Y0037438D03*
X0051061Y0034288D03*
X0051061Y0031139D03*
X0045139Y0031139D03*
X0045139Y0034288D03*
X0045139Y0037438D03*
X0045139Y0040587D03*
X0045039Y0044539D03*
X0045039Y0047688D03*
X0045039Y0050838D03*
X0045039Y0053987D03*
X0090539Y0052287D03*
X0090539Y0049138D03*
X0090539Y0045988D03*
X0090539Y0042839D03*
X0090639Y0038987D03*
X0090639Y0035838D03*
X0090639Y0032688D03*
X0090639Y0029539D03*
X0096561Y0029539D03*
X0096561Y0032688D03*
X0096561Y0035838D03*
X0096561Y0038987D03*
X0096461Y0042839D03*
X0096461Y0045988D03*
X0096461Y0049138D03*
X0096461Y0052287D03*
D14*
X0083305Y0053461D03*
X0083305Y0056020D03*
X0083305Y0058579D03*
X0083305Y0061138D03*
X0083305Y0050902D03*
X0083305Y0048343D03*
X0083305Y0045783D03*
X0083305Y0043224D03*
X0083305Y0040665D03*
X0083305Y0038106D03*
X0083305Y0035547D03*
X0083305Y0032988D03*
X0058895Y0032988D03*
X0058895Y0035547D03*
X0058895Y0038106D03*
X0058895Y0040665D03*
X0058895Y0043224D03*
X0058895Y0045783D03*
X0058895Y0048343D03*
X0058895Y0050902D03*
X0058895Y0053461D03*
X0058895Y0056020D03*
X0058895Y0058579D03*
X0058895Y0061138D03*
D15*
X0054550Y0084294D03*
X0054550Y0089294D03*
X0054550Y0094294D03*
X0054550Y0099294D03*
X0054550Y0104294D03*
X0054550Y0109294D03*
X0054550Y0114294D03*
X0080650Y0114294D03*
X0080650Y0109294D03*
X0080650Y0104294D03*
X0080650Y0099294D03*
X0080650Y0094294D03*
X0080650Y0089294D03*
X0080650Y0084294D03*
D16*
X0069237Y0134110D03*
X0041837Y0134110D03*
X0096837Y0134110D03*
X0124437Y0134110D03*
D17*
X0114437Y0124268D03*
X0104437Y0134110D03*
X0086837Y0124268D03*
X0076837Y0134110D03*
X0059237Y0124268D03*
X0049237Y0134110D03*
X0031837Y0124268D03*
X0021837Y0134110D03*
D18*
X0028463Y0104082D02*
X0028463Y0102206D01*
X0025937Y0102206D01*
X0025937Y0104082D01*
X0028463Y0104082D01*
X0028463Y0102830D02*
X0025937Y0102830D01*
X0025937Y0103454D02*
X0028463Y0103454D01*
X0028463Y0104078D02*
X0025937Y0104078D01*
X0028463Y0098582D02*
X0028463Y0096706D01*
X0025937Y0096706D01*
X0025937Y0098582D01*
X0028463Y0098582D01*
X0028463Y0097330D02*
X0025937Y0097330D01*
X0025937Y0097954D02*
X0028463Y0097954D01*
X0028463Y0098578D02*
X0025937Y0098578D01*
X0033263Y0098582D02*
X0033263Y0096706D01*
X0030737Y0096706D01*
X0030737Y0098582D01*
X0033263Y0098582D01*
X0033263Y0097330D02*
X0030737Y0097330D01*
X0030737Y0097954D02*
X0033263Y0097954D01*
X0033263Y0098578D02*
X0030737Y0098578D01*
X0033263Y0102206D02*
X0033263Y0104082D01*
X0033263Y0102206D02*
X0030737Y0102206D01*
X0030737Y0104082D01*
X0033263Y0104082D01*
X0033263Y0102830D02*
X0030737Y0102830D01*
X0030737Y0103454D02*
X0033263Y0103454D01*
X0033263Y0104078D02*
X0030737Y0104078D01*
X0038063Y0104082D02*
X0038063Y0102206D01*
X0035537Y0102206D01*
X0035537Y0104082D01*
X0038063Y0104082D01*
X0038063Y0102830D02*
X0035537Y0102830D01*
X0035537Y0103454D02*
X0038063Y0103454D01*
X0038063Y0104078D02*
X0035537Y0104078D01*
X0038063Y0098582D02*
X0038063Y0096706D01*
X0035537Y0096706D01*
X0035537Y0098582D01*
X0038063Y0098582D01*
X0038063Y0097330D02*
X0035537Y0097330D01*
X0035537Y0097954D02*
X0038063Y0097954D01*
X0038063Y0098578D02*
X0035537Y0098578D01*
X0042863Y0098582D02*
X0042863Y0096706D01*
X0040337Y0096706D01*
X0040337Y0098582D01*
X0042863Y0098582D01*
X0042863Y0097330D02*
X0040337Y0097330D01*
X0040337Y0097954D02*
X0042863Y0097954D01*
X0042863Y0098578D02*
X0040337Y0098578D01*
X0042863Y0102206D02*
X0042863Y0104082D01*
X0042863Y0102206D02*
X0040337Y0102206D01*
X0040337Y0104082D01*
X0042863Y0104082D01*
X0042863Y0102830D02*
X0040337Y0102830D01*
X0040337Y0103454D02*
X0042863Y0103454D01*
X0042863Y0104078D02*
X0040337Y0104078D01*
D19*
X0046394Y0021800D03*
X0050331Y0021800D03*
X0054269Y0021800D03*
X0058206Y0021800D03*
X0085394Y0021800D03*
X0089331Y0021800D03*
X0093269Y0021800D03*
X0097206Y0021800D03*
D20*
X0102324Y0007331D03*
X0080276Y0007331D03*
X0063324Y0007331D03*
X0041276Y0007331D03*
D21*
X0008700Y0105600D03*
X0128400Y0153100D03*
X0137722Y0035600D03*
D22*
X0137722Y0045600D03*
X0137722Y0055600D03*
X0137722Y0065600D03*
X0137722Y0075600D03*
X0137722Y0085600D03*
X0137722Y0095600D03*
X0137722Y0105600D03*
X0118400Y0153100D03*
X0108400Y0153100D03*
X0098400Y0153100D03*
X0088400Y0153100D03*
X0078400Y0153100D03*
X0068400Y0153100D03*
X0058400Y0153100D03*
X0048400Y0153100D03*
X0038400Y0153100D03*
X0028400Y0153100D03*
X0018400Y0153100D03*
X0008700Y0095600D03*
X0008700Y0085600D03*
X0008700Y0075600D03*
X0008700Y0065600D03*
X0008700Y0055600D03*
X0008700Y0045600D03*
X0008700Y0035600D03*
D23*
X0098878Y0084257D03*
X0098878Y0094100D03*
X0098878Y0103943D03*
X0121122Y0103943D03*
X0121122Y0094100D03*
X0121122Y0084257D03*
D24*
X0124486Y0084047D02*
X0128640Y0084047D01*
X0128640Y0084845D02*
X0124486Y0084845D01*
X0124486Y0085644D02*
X0128640Y0085644D01*
X0128640Y0086442D02*
X0124486Y0086442D01*
X0124486Y0086682D02*
X0123841Y0087326D01*
X0118403Y0087326D01*
X0118200Y0087123D01*
X0118200Y0091234D01*
X0118403Y0091031D01*
X0123841Y0091031D01*
X0124486Y0091676D01*
X0124486Y0096524D01*
X0123841Y0097168D01*
X0118403Y0097168D01*
X0117934Y0096700D01*
X0112455Y0096700D01*
X0113453Y0097698D01*
X0114073Y0099195D01*
X0114073Y0100816D01*
X0113453Y0102313D01*
X0112307Y0103459D01*
X0110810Y0104079D01*
X0109190Y0104079D01*
X0107693Y0103459D01*
X0106547Y0102313D01*
X0105927Y0100816D01*
X0105927Y0099195D01*
X0106547Y0097698D01*
X0107545Y0096700D01*
X0102066Y0096700D01*
X0101597Y0097168D01*
X0096159Y0097168D01*
X0095514Y0096524D01*
X0095514Y0091676D01*
X0096159Y0091031D01*
X0101597Y0091031D01*
X0102066Y0091500D01*
X0107545Y0091500D01*
X0106547Y0090502D01*
X0105927Y0089005D01*
X0105927Y0087384D01*
X0106547Y0085887D01*
X0107693Y0084741D01*
X0109190Y0084121D01*
X0110810Y0084121D01*
X0112307Y0084741D01*
X0113000Y0085434D01*
X0113000Y0082377D01*
X0109823Y0079200D01*
X0095245Y0079200D01*
X0095450Y0079405D01*
X0095450Y0080784D01*
X0096007Y0081341D01*
X0096159Y0081189D01*
X0101597Y0081189D01*
X0102242Y0081833D01*
X0102242Y0086682D01*
X0101597Y0087326D01*
X0096950Y0087326D01*
X0096950Y0089571D01*
X0092455Y0094066D01*
X0092455Y0094280D01*
X0099049Y0100874D01*
X0101597Y0100874D01*
X0102242Y0101518D01*
X0102242Y0104336D01*
X0103505Y0105600D01*
X0116430Y0105600D01*
X0117758Y0104272D01*
X0117758Y0101518D01*
X0118403Y0100874D01*
X0123841Y0100874D01*
X0124486Y0101518D01*
X0124486Y0106367D01*
X0123841Y0107011D01*
X0123300Y0107011D01*
X0123300Y0127570D01*
X0115890Y0134980D01*
X0114660Y0136210D01*
X0107634Y0136210D01*
X0107622Y0136239D01*
X0106565Y0137296D01*
X0105184Y0137868D01*
X0103690Y0137868D01*
X0102309Y0137296D01*
X0101252Y0136239D01*
X0100680Y0134858D01*
X0100680Y0133363D01*
X0101252Y0131982D01*
X0102309Y0130925D01*
X0103576Y0130400D01*
X0090404Y0130400D01*
X0092504Y0132500D01*
X0093500Y0133496D01*
X0093500Y0138696D01*
X0095604Y0140800D01*
X0108504Y0140800D01*
X0109500Y0141796D01*
X0116771Y0149066D01*
X0117535Y0148750D01*
X0119265Y0148750D01*
X0120864Y0149412D01*
X0122088Y0150636D01*
X0122750Y0152235D01*
X0122750Y0153965D01*
X0122088Y0155564D01*
X0120864Y0156788D01*
X0119265Y0157450D01*
X0117535Y0157450D01*
X0115936Y0156788D01*
X0114712Y0155564D01*
X0114050Y0153965D01*
X0114050Y0152235D01*
X0114366Y0151471D01*
X0107096Y0144200D01*
X0094196Y0144200D01*
X0093200Y0143204D01*
X0091096Y0141100D01*
X0091096Y0141100D01*
X0090100Y0140104D01*
X0090100Y0134904D01*
X0090100Y0149096D01*
X0090864Y0149412D01*
X0092088Y0150636D01*
X0092750Y0152235D01*
X0092750Y0153965D01*
X0092088Y0155564D01*
X0090864Y0156788D01*
X0089265Y0157450D01*
X0087535Y0157450D01*
X0085936Y0156788D01*
X0084712Y0155564D01*
X0084050Y0153965D01*
X0084050Y0152235D01*
X0084712Y0150636D01*
X0085936Y0149412D01*
X0086700Y0149096D01*
X0086700Y0134704D01*
X0086196Y0134200D01*
X0082822Y0134200D01*
X0075159Y0126537D01*
X0074163Y0125541D01*
X0074163Y0121367D01*
X0071996Y0119200D01*
X0071000Y0118204D01*
X0071000Y0101496D01*
X0071996Y0100500D01*
X0074901Y0097594D01*
X0075550Y0097594D01*
X0075550Y0097539D01*
X0076194Y0096894D01*
X0085106Y0096894D01*
X0085750Y0097539D01*
X0085750Y0101050D01*
X0085106Y0101694D01*
X0076194Y0101694D01*
X0075902Y0101402D01*
X0074400Y0102904D01*
X0074400Y0108796D01*
X0075550Y0107646D01*
X0075550Y0107539D01*
X0076194Y0106894D01*
X0085100Y0106894D01*
X0085100Y0106694D01*
X0076194Y0106694D01*
X0075550Y0106050D01*
X0075550Y0102539D01*
X0076194Y0101894D01*
X0085106Y0101894D01*
X0085750Y0102539D01*
X0085750Y0102594D01*
X0085899Y0102594D01*
X0087504Y0104200D01*
X0088500Y0105196D01*
X0088500Y0120889D01*
X0088965Y0121082D01*
X0090022Y0122139D01*
X0090594Y0123520D01*
X0090594Y0125015D01*
X0090022Y0126396D01*
X0089419Y0127000D01*
X0109301Y0127000D01*
X0110857Y0125444D01*
X0110680Y0125015D01*
X0110680Y0123520D01*
X0111252Y0122139D01*
X0112309Y0121082D01*
X0113690Y0120510D01*
X0115184Y0120510D01*
X0116565Y0121082D01*
X0117622Y0122139D01*
X0118194Y0123520D01*
X0118194Y0125015D01*
X0117622Y0126396D01*
X0116565Y0127453D01*
X0115184Y0128025D01*
X0113690Y0128025D01*
X0113261Y0127848D01*
X0111705Y0129404D01*
X0110709Y0130400D01*
X0105298Y0130400D01*
X0106565Y0130925D01*
X0107622Y0131982D01*
X0107634Y0132010D01*
X0112920Y0132010D01*
X0119100Y0125830D01*
X0119100Y0108870D01*
X0118170Y0109800D01*
X0101766Y0109800D01*
X0098977Y0107011D01*
X0096159Y0107011D01*
X0095514Y0106367D01*
X0095514Y0103279D01*
X0089486Y0097250D01*
X0087656Y0097250D01*
X0086801Y0096394D01*
X0085406Y0096394D01*
X0085106Y0096694D01*
X0076194Y0096694D01*
X0075894Y0096394D01*
X0072758Y0096394D01*
X0072653Y0096500D01*
X0070747Y0096500D01*
X0069400Y0095153D01*
X0069400Y0093247D01*
X0070747Y0091900D01*
X0072653Y0091900D01*
X0072947Y0092194D01*
X0075894Y0092194D01*
X0076194Y0091894D01*
X0085106Y0091894D01*
X0085406Y0092194D01*
X0087012Y0092194D01*
X0087656Y0091550D01*
X0090729Y0091550D01*
X0093950Y0088329D01*
X0093950Y0087771D01*
X0093721Y0088000D01*
X0090927Y0090794D01*
X0085750Y0090794D01*
X0085750Y0091050D01*
X0085106Y0091694D01*
X0076194Y0091694D01*
X0075900Y0091400D01*
X0074447Y0091400D01*
X0073100Y0090053D01*
X0073100Y0088921D01*
X0064829Y0080650D01*
X0056050Y0080650D01*
X0056050Y0081894D01*
X0059006Y0081894D01*
X0059650Y0082539D01*
X0059650Y0086050D01*
X0059006Y0086694D01*
X0050094Y0086694D01*
X0049824Y0086424D01*
X0049653Y0086594D01*
X0047747Y0086594D01*
X0046947Y0085794D01*
X0046729Y0085794D01*
X0046229Y0085294D01*
X0044660Y0085294D01*
X0043900Y0084534D01*
X0043600Y0084834D01*
X0043600Y0085479D01*
X0045916Y0087794D01*
X0049450Y0087794D01*
X0049450Y0087539D01*
X0050094Y0086894D01*
X0059006Y0086894D01*
X0059650Y0087539D01*
X0059650Y0091050D01*
X0059006Y0091694D01*
X0050094Y0091694D01*
X0049450Y0091050D01*
X0049450Y0090794D01*
X0044673Y0090794D01*
X0041479Y0087600D01*
X0040600Y0086721D01*
X0040600Y0085194D01*
X0040560Y0085194D01*
X0039666Y0084300D01*
X0033121Y0084300D01*
X0025400Y0092021D01*
X0025400Y0095294D01*
X0029048Y0095294D01*
X0029298Y0095544D01*
X0029902Y0095544D01*
X0030152Y0095294D01*
X0033848Y0095294D01*
X0034098Y0095544D01*
X0034702Y0095544D01*
X0034952Y0095294D01*
X0038648Y0095294D01*
X0038898Y0095544D01*
X0039502Y0095544D01*
X0039752Y0095294D01*
X0043448Y0095294D01*
X0043653Y0095500D01*
X0044647Y0095500D01*
X0044847Y0095300D01*
X0046753Y0095300D01*
X0048100Y0096647D01*
X0048100Y0098553D01*
X0046753Y0099900D01*
X0044847Y0099900D01*
X0044647Y0099700D01*
X0043742Y0099700D01*
X0043448Y0099994D01*
X0039752Y0099994D01*
X0039502Y0099744D01*
X0038898Y0099744D01*
X0038648Y0099994D01*
X0034952Y0099994D01*
X0034702Y0099744D01*
X0034098Y0099744D01*
X0033848Y0099994D01*
X0030152Y0099994D01*
X0029902Y0099744D01*
X0029298Y0099744D01*
X0029048Y0099994D01*
X0025400Y0099994D01*
X0025400Y0100794D01*
X0029048Y0100794D01*
X0029600Y0101347D01*
X0030152Y0100794D01*
X0033848Y0100794D01*
X0034400Y0101347D01*
X0034952Y0100794D01*
X0038648Y0100794D01*
X0039200Y0101347D01*
X0039752Y0100794D01*
X0043448Y0100794D01*
X0044275Y0101622D01*
X0044275Y0102521D01*
X0044896Y0101900D01*
X0049201Y0097594D01*
X0049450Y0097594D01*
X0049450Y0097539D01*
X0050094Y0096894D01*
X0059006Y0096894D01*
X0059650Y0097539D01*
X0059650Y0101050D01*
X0059006Y0101694D01*
X0050094Y0101694D01*
X0050002Y0101602D01*
X0049104Y0102500D01*
X0049489Y0102500D01*
X0050094Y0101894D01*
X0059006Y0101894D01*
X0059650Y0102539D01*
X0059650Y0106050D01*
X0059006Y0106694D01*
X0050094Y0106694D01*
X0049852Y0106452D01*
X0049200Y0107104D01*
X0049200Y0119504D01*
X0048204Y0120500D01*
X0030100Y0138604D01*
X0030100Y0149096D01*
X0030864Y0149412D01*
X0032088Y0150636D01*
X0032750Y0152235D01*
X0032750Y0153965D01*
X0032088Y0155564D01*
X0030864Y0156788D01*
X0029265Y0157450D01*
X0027535Y0157450D01*
X0025936Y0156788D01*
X0024712Y0155564D01*
X0024050Y0153965D01*
X0024050Y0152235D01*
X0024712Y0150636D01*
X0025936Y0149412D01*
X0026700Y0149096D01*
X0026700Y0137196D01*
X0037928Y0125968D01*
X0035200Y0125968D01*
X0035022Y0126396D01*
X0033965Y0127453D01*
X0032584Y0128025D01*
X0031090Y0128025D01*
X0029709Y0127453D01*
X0028652Y0126396D01*
X0028080Y0125015D01*
X0028080Y0123520D01*
X0028652Y0122139D01*
X0029709Y0121082D01*
X0031090Y0120510D01*
X0032584Y0120510D01*
X0033965Y0121082D01*
X0035022Y0122139D01*
X0035200Y0122568D01*
X0038641Y0122568D01*
X0043900Y0117309D01*
X0043900Y0112534D01*
X0043493Y0112941D01*
X0043900Y0113347D01*
X0043900Y0115253D01*
X0042553Y0116600D01*
X0040647Y0116600D01*
X0039300Y0115253D01*
X0039300Y0113347D01*
X0039707Y0112941D01*
X0039250Y0112484D01*
X0039250Y0109805D01*
X0039660Y0109394D01*
X0039250Y0108984D01*
X0039250Y0106305D01*
X0040060Y0105494D01*
X0039752Y0105494D01*
X0039200Y0104942D01*
X0038648Y0105494D01*
X0038339Y0105494D01*
X0039150Y0106305D01*
X0039150Y0108984D01*
X0038740Y0109394D01*
X0039150Y0109805D01*
X0039150Y0112484D01*
X0038593Y0113041D01*
X0039000Y0113447D01*
X0039000Y0115353D01*
X0037653Y0116700D01*
X0035747Y0116700D01*
X0034400Y0115353D01*
X0034400Y0113447D01*
X0034907Y0112941D01*
X0034450Y0112484D01*
X0034450Y0109805D01*
X0034860Y0109394D01*
X0034450Y0108984D01*
X0034450Y0106305D01*
X0035260Y0105494D01*
X0034952Y0105494D01*
X0034400Y0104942D01*
X0033848Y0105494D01*
X0033539Y0105494D01*
X0034350Y0106305D01*
X0034350Y0108984D01*
X0033940Y0109394D01*
X0034350Y0109805D01*
X0034350Y0112484D01*
X0034093Y0112741D01*
X0034300Y0112947D01*
X0034300Y0114853D01*
X0032953Y0116200D01*
X0031047Y0116200D01*
X0029700Y0114853D01*
X0029700Y0112947D01*
X0029907Y0112741D01*
X0029650Y0112484D01*
X0029650Y0109805D01*
X0030060Y0109394D01*
X0029650Y0108984D01*
X0029650Y0106305D01*
X0030460Y0105494D01*
X0030152Y0105494D01*
X0029600Y0104942D01*
X0029048Y0105494D01*
X0028739Y0105494D01*
X0029550Y0106305D01*
X0029550Y0108984D01*
X0029140Y0109394D01*
X0029550Y0109805D01*
X0029550Y0112484D01*
X0028540Y0113494D01*
X0025860Y0113494D01*
X0024850Y0112484D01*
X0024850Y0111571D01*
X0023279Y0110000D01*
X0022400Y0109121D01*
X0022400Y0090779D01*
X0031000Y0082179D01*
X0031879Y0081300D01*
X0032379Y0081300D01*
X0032500Y0081179D01*
X0032500Y0052457D01*
X0033379Y0051579D01*
X0041919Y0043039D01*
X0042720Y0043039D01*
X0043246Y0042513D01*
X0042820Y0042087D01*
X0038577Y0042087D01*
X0023000Y0057664D01*
X0023000Y0083021D01*
X0022121Y0083900D01*
X0019800Y0086221D01*
X0018921Y0087100D01*
X0012787Y0087100D01*
X0012388Y0088064D01*
X0011164Y0089288D01*
X0009565Y0089950D01*
X0007835Y0089950D01*
X0006236Y0089288D01*
X0005012Y0088064D01*
X0004350Y0086465D01*
X0004350Y0084735D01*
X0005012Y0083136D01*
X0006236Y0081912D01*
X0007835Y0081250D01*
X0009565Y0081250D01*
X0011164Y0081912D01*
X0012388Y0083136D01*
X0012787Y0084100D01*
X0017679Y0084100D01*
X0020000Y0081779D01*
X0020000Y0058543D01*
X0018900Y0059643D01*
X0018900Y0072121D01*
X0018021Y0073000D01*
X0014800Y0076221D01*
X0013921Y0077100D01*
X0012787Y0077100D01*
X0012388Y0078064D01*
X0011164Y0079288D01*
X0009565Y0079950D01*
X0007835Y0079950D01*
X0006236Y0079288D01*
X0005012Y0078064D01*
X0004350Y0076465D01*
X0004350Y0074735D01*
X0005012Y0073136D01*
X0006236Y0071912D01*
X0007835Y0071250D01*
X0009565Y0071250D01*
X0011164Y0071912D01*
X0012388Y0073136D01*
X0012755Y0074023D01*
X0015900Y0070879D01*
X0015900Y0060521D01*
X0012651Y0063771D01*
X0013050Y0064735D01*
X0013050Y0066465D01*
X0012388Y0068064D01*
X0011164Y0069288D01*
X0009565Y0069950D01*
X0007835Y0069950D01*
X0006236Y0069288D01*
X0005012Y0068064D01*
X0004350Y0066465D01*
X0004350Y0064735D01*
X0005012Y0063136D01*
X0006236Y0061912D01*
X0007835Y0061250D01*
X0009565Y0061250D01*
X0010529Y0061649D01*
X0039390Y0032788D01*
X0042820Y0032788D01*
X0042895Y0032713D01*
X0042820Y0032639D01*
X0033783Y0032639D01*
X0012651Y0053771D01*
X0013050Y0054735D01*
X0013050Y0056465D01*
X0012388Y0058064D01*
X0011164Y0059288D01*
X0009565Y0059950D01*
X0007835Y0059950D01*
X0006236Y0059288D01*
X0005012Y0058064D01*
X0004350Y0056465D01*
X0004350Y0054735D01*
X0005012Y0053136D01*
X0006236Y0051912D01*
X0007835Y0051250D01*
X0009565Y0051250D01*
X0010529Y0051649D01*
X0032540Y0029639D01*
X0042820Y0029639D01*
X0043404Y0029054D01*
X0046875Y0029054D01*
X0047519Y0029699D01*
X0047519Y0032578D01*
X0047384Y0032713D01*
X0047519Y0032848D01*
X0047519Y0035728D01*
X0047384Y0035863D01*
X0047519Y0035998D01*
X0047519Y0038878D01*
X0047384Y0039013D01*
X0047519Y0039148D01*
X0047519Y0042027D01*
X0046933Y0042613D01*
X0047419Y0043099D01*
X0047419Y0045978D01*
X0047284Y0046113D01*
X0047419Y0046248D01*
X0047419Y0049128D01*
X0047284Y0049263D01*
X0047419Y0049398D01*
X0047419Y0052278D01*
X0047284Y0052413D01*
X0047419Y0052548D01*
X0047419Y0055427D01*
X0046775Y0056072D01*
X0043304Y0056072D01*
X0042733Y0055500D01*
X0040643Y0055500D01*
X0040000Y0056143D01*
X0040000Y0063896D01*
X0040550Y0063346D01*
X0040550Y0062497D01*
X0041897Y0061150D01*
X0043803Y0061150D01*
X0045150Y0062497D01*
X0045150Y0064403D01*
X0043803Y0065750D01*
X0042954Y0065750D01*
X0042073Y0066631D01*
X0042073Y0069222D01*
X0043351Y0070500D01*
X0043547Y0070500D01*
X0043300Y0070253D01*
X0043300Y0068347D01*
X0044647Y0067000D01*
X0045502Y0067000D01*
X0047650Y0064852D01*
X0047650Y0063473D01*
X0048500Y0062623D01*
X0048500Y0059179D01*
X0049379Y0058300D01*
X0051607Y0056072D01*
X0049225Y0056072D01*
X0048581Y0055427D01*
X0048581Y0052548D01*
X0048716Y0052413D01*
X0048581Y0052278D01*
X0048581Y0049398D01*
X0048716Y0049263D01*
X0048581Y0049128D01*
X0048581Y0046248D01*
X0048716Y0046113D01*
X0048581Y0045978D01*
X0048581Y0043099D01*
X0049167Y0042513D01*
X0048681Y0042027D01*
X0048681Y0039148D01*
X0048816Y0039013D01*
X0048681Y0038878D01*
X0048681Y0035998D01*
X0048816Y0035863D01*
X0048681Y0035728D01*
X0048681Y0032848D01*
X0048816Y0032713D01*
X0048681Y0032578D01*
X0048681Y0029699D01*
X0049325Y0029054D01*
X0052796Y0029054D01*
X0053440Y0029699D01*
X0053440Y0030019D01*
X0057081Y0033660D01*
X0061615Y0033660D01*
X0062259Y0034304D01*
X0062259Y0036790D01*
X0062223Y0036827D01*
X0062259Y0036863D01*
X0062259Y0039349D01*
X0062223Y0039386D01*
X0062259Y0039422D01*
X0062259Y0041908D01*
X0062223Y0041945D01*
X0062259Y0041981D01*
X0062259Y0044467D01*
X0062223Y0044504D01*
X0062259Y0044540D01*
X0062259Y0047027D01*
X0062223Y0047063D01*
X0062259Y0047099D01*
X0062259Y0049586D01*
X0062223Y0049622D01*
X0062259Y0049659D01*
X0062259Y0052145D01*
X0062223Y0052181D01*
X0062259Y0052218D01*
X0062259Y0054704D01*
X0062223Y0054740D01*
X0062259Y0054777D01*
X0062259Y0057263D01*
X0062223Y0057299D01*
X0062259Y0057336D01*
X0062259Y0059822D01*
X0062223Y0059858D01*
X0062259Y0059895D01*
X0062259Y0062381D01*
X0062140Y0062500D01*
X0062453Y0062500D01*
X0063800Y0063847D01*
X0063800Y0065753D01*
X0063153Y0066400D01*
X0066196Y0066400D01*
X0068700Y0063896D01*
X0068700Y0063047D01*
X0070047Y0061700D01*
X0071953Y0061700D01*
X0073300Y0063047D01*
X0073300Y0064953D01*
X0071953Y0066300D01*
X0071104Y0066300D01*
X0068600Y0068804D01*
X0067604Y0069800D01*
X0060203Y0069800D01*
X0059440Y0070563D01*
X0056760Y0070563D01*
X0055750Y0069553D01*
X0055750Y0066873D01*
X0056160Y0066463D01*
X0056050Y0066352D01*
X0055340Y0067063D01*
X0052660Y0067063D01*
X0052050Y0066452D01*
X0051940Y0066563D01*
X0052350Y0066973D01*
X0052350Y0069653D01*
X0051700Y0070303D01*
X0051700Y0071204D01*
X0050504Y0072400D01*
X0053664Y0072400D01*
X0057414Y0076150D01*
X0067971Y0076150D01*
X0074721Y0082900D01*
X0075550Y0082900D01*
X0075550Y0082539D01*
X0076194Y0081894D01*
X0085106Y0081894D01*
X0085276Y0082065D01*
X0085347Y0081994D01*
X0086850Y0081994D01*
X0086850Y0079405D01*
X0087055Y0079200D01*
X0083083Y0079200D01*
X0082127Y0078804D01*
X0081396Y0078073D01*
X0081000Y0077117D01*
X0081000Y0074921D01*
X0080779Y0074700D01*
X0079900Y0073821D01*
X0079900Y0060379D01*
X0079941Y0060338D01*
X0079941Y0059895D01*
X0079977Y0059858D01*
X0079941Y0059822D01*
X0079941Y0059684D01*
X0076700Y0056443D01*
X0076700Y0053553D01*
X0076053Y0054200D01*
X0074147Y0054200D01*
X0073347Y0053400D01*
X0068553Y0053400D01*
X0067753Y0054200D01*
X0065847Y0054200D01*
X0064500Y0052853D01*
X0064500Y0050947D01*
X0065847Y0049600D01*
X0067753Y0049600D01*
X0068553Y0050400D01*
X0073347Y0050400D01*
X0074147Y0049600D01*
X0076053Y0049600D01*
X0076700Y0050247D01*
X0076700Y0031900D01*
X0076161Y0031361D01*
X0072400Y0027600D01*
X0056379Y0027600D01*
X0055500Y0026721D01*
X0054336Y0025557D01*
X0052632Y0025557D01*
X0052300Y0025226D01*
X0051968Y0025557D01*
X0048695Y0025557D01*
X0048050Y0024913D01*
X0048050Y0023087D01*
X0047731Y0022317D01*
X0047731Y0018677D01*
X0046755Y0017700D01*
X0040477Y0017700D01*
X0013050Y0045127D01*
X0013050Y0046465D01*
X0012388Y0048064D01*
X0011164Y0049288D01*
X0009565Y0049950D01*
X0007835Y0049950D01*
X0006236Y0049288D01*
X0005012Y0048064D01*
X0004350Y0046465D01*
X0004350Y0044735D01*
X0005012Y0043136D01*
X0006236Y0041912D01*
X0007835Y0041250D01*
X0009565Y0041250D01*
X0009571Y0041252D01*
X0037196Y0013627D01*
X0037927Y0012896D01*
X0038883Y0012500D01*
X0087817Y0012500D01*
X0088773Y0012896D01*
X0090773Y0014896D01*
X0091504Y0015627D01*
X0091900Y0016583D01*
X0091900Y0018043D01*
X0094905Y0018043D01*
X0095237Y0018374D01*
X0095569Y0018043D01*
X0098842Y0018043D01*
X0099487Y0018687D01*
X0099487Y0024913D01*
X0098842Y0025557D01*
X0097764Y0025557D01*
X0095867Y0027454D01*
X0098296Y0027454D01*
X0098880Y0028039D01*
X0132282Y0028039D01*
X0135493Y0031250D01*
X0141428Y0031250D01*
X0142072Y0031894D01*
X0142072Y0039306D01*
X0141428Y0039950D01*
X0134193Y0039950D01*
X0135893Y0041649D01*
X0136857Y0041250D01*
X0138587Y0041250D01*
X0140186Y0041912D01*
X0141410Y0043136D01*
X0142072Y0044735D01*
X0142072Y0046465D01*
X0141410Y0048064D01*
X0140186Y0049288D01*
X0138587Y0049950D01*
X0136857Y0049950D01*
X0135258Y0049288D01*
X0134034Y0048064D01*
X0133372Y0046465D01*
X0133372Y0044735D01*
X0133771Y0043771D01*
X0124189Y0034188D01*
X0098880Y0034188D01*
X0098805Y0034263D01*
X0098880Y0034338D01*
X0118581Y0034338D01*
X0135893Y0051649D01*
X0136857Y0051250D01*
X0138587Y0051250D01*
X0140186Y0051912D01*
X0141410Y0053136D01*
X0142072Y0054735D01*
X0142072Y0056465D01*
X0141410Y0058064D01*
X0140186Y0059288D01*
X0138587Y0059950D01*
X0136857Y0059950D01*
X0135258Y0059288D01*
X0134034Y0058064D01*
X0133372Y0056465D01*
X0133372Y0054735D01*
X0133771Y0053771D01*
X0117339Y0037338D01*
X0098880Y0037338D01*
X0098805Y0037413D01*
X0098880Y0037487D01*
X0111731Y0037487D01*
X0112609Y0038366D01*
X0135893Y0061649D01*
X0136857Y0061250D01*
X0138587Y0061250D01*
X0140186Y0061912D01*
X0141410Y0063136D01*
X0142072Y0064735D01*
X0142072Y0066465D01*
X0141410Y0068064D01*
X0140186Y0069288D01*
X0138587Y0069950D01*
X0136857Y0069950D01*
X0135258Y0069288D01*
X0134034Y0068064D01*
X0133372Y0066465D01*
X0133372Y0064735D01*
X0133771Y0063771D01*
X0110488Y0040487D01*
X0098880Y0040487D01*
X0098404Y0040963D01*
X0098780Y0041339D01*
X0105582Y0041339D01*
X0135893Y0071649D01*
X0136857Y0071250D01*
X0138587Y0071250D01*
X0140186Y0071912D01*
X0141410Y0073136D01*
X0142072Y0074735D01*
X0142072Y0076465D01*
X0141410Y0078064D01*
X0140186Y0079288D01*
X0138587Y0079950D01*
X0136857Y0079950D01*
X0135258Y0079288D01*
X0134034Y0078064D01*
X0133372Y0076465D01*
X0133372Y0074735D01*
X0133771Y0073771D01*
X0104339Y0044339D01*
X0098780Y0044339D01*
X0098705Y0044413D01*
X0098840Y0044548D01*
X0098840Y0044597D01*
X0135893Y0081649D01*
X0136857Y0081250D01*
X0138587Y0081250D01*
X0140186Y0081912D01*
X0141410Y0083136D01*
X0142072Y0084735D01*
X0142072Y0086465D01*
X0141410Y0088064D01*
X0140186Y0089288D01*
X0138587Y0089950D01*
X0136857Y0089950D01*
X0135258Y0089288D01*
X0134034Y0088064D01*
X0133550Y0086896D01*
X0133550Y0089307D01*
X0135893Y0091649D01*
X0136857Y0091250D01*
X0138587Y0091250D01*
X0140186Y0091912D01*
X0141410Y0093136D01*
X0142072Y0094735D01*
X0142072Y0096465D01*
X0141410Y0098064D01*
X0140186Y0099288D01*
X0138587Y0099950D01*
X0136857Y0099950D01*
X0135258Y0099288D01*
X0134034Y0098064D01*
X0133372Y0096465D01*
X0133372Y0094735D01*
X0133771Y0093771D01*
X0131640Y0091639D01*
X0131640Y0097396D01*
X0135893Y0101649D01*
X0136857Y0101250D01*
X0138587Y0101250D01*
X0140186Y0101912D01*
X0141410Y0103136D01*
X0142072Y0104735D01*
X0142072Y0106465D01*
X0141410Y0108064D01*
X0140186Y0109288D01*
X0138587Y0109950D01*
X0136857Y0109950D01*
X0135258Y0109288D01*
X0134034Y0108064D01*
X0133372Y0106465D01*
X0133372Y0104735D01*
X0133771Y0103771D01*
X0128640Y0098639D01*
X0128640Y0082882D01*
X0099545Y0053787D01*
X0098780Y0053787D01*
X0098196Y0054372D01*
X0095248Y0054372D01*
X0095950Y0055073D01*
X0095950Y0057753D01*
X0094940Y0058763D01*
X0092260Y0058763D01*
X0092197Y0058700D01*
X0091089Y0058700D01*
X0091089Y0058981D01*
X0096771Y0064663D01*
X0098340Y0064663D01*
X0099350Y0065673D01*
X0099350Y0068353D01*
X0098940Y0068763D01*
X0099350Y0069173D01*
X0099350Y0070400D01*
X0100053Y0070400D01*
X0101400Y0071747D01*
X0101400Y0073653D01*
X0101053Y0074000D01*
X0111417Y0074000D01*
X0112373Y0074396D01*
X0117073Y0079096D01*
X0117804Y0079827D01*
X0118200Y0080783D01*
X0118200Y0081392D01*
X0118403Y0081189D01*
X0123841Y0081189D01*
X0124486Y0081833D01*
X0124486Y0086682D01*
X0123927Y0087241D02*
X0128640Y0087241D01*
X0128640Y0088039D02*
X0118200Y0088039D01*
X0118200Y0087241D02*
X0118317Y0087241D01*
X0118200Y0088838D02*
X0128640Y0088838D01*
X0128640Y0089636D02*
X0118200Y0089636D01*
X0118200Y0090435D02*
X0128640Y0090435D01*
X0128640Y0091233D02*
X0124043Y0091233D01*
X0124486Y0092032D02*
X0128640Y0092032D01*
X0128640Y0092830D02*
X0124486Y0092830D01*
X0124486Y0093629D02*
X0128640Y0093629D01*
X0128640Y0094427D02*
X0124486Y0094427D01*
X0124486Y0095226D02*
X0128640Y0095226D01*
X0128640Y0096024D02*
X0124486Y0096024D01*
X0124187Y0096823D02*
X0128640Y0096823D01*
X0128640Y0097621D02*
X0113376Y0097621D01*
X0113752Y0098420D02*
X0128640Y0098420D01*
X0129219Y0099218D02*
X0114073Y0099218D01*
X0114073Y0100017D02*
X0130018Y0100017D01*
X0130816Y0100815D02*
X0114073Y0100815D01*
X0113743Y0101614D02*
X0117758Y0101614D01*
X0117758Y0102412D02*
X0113353Y0102412D01*
X0112555Y0103211D02*
X0117758Y0103211D01*
X0117758Y0104009D02*
X0110977Y0104009D01*
X0109023Y0104009D02*
X0102242Y0104009D01*
X0102242Y0103211D02*
X0107445Y0103211D01*
X0106647Y0102412D02*
X0102242Y0102412D01*
X0102242Y0101614D02*
X0106257Y0101614D01*
X0105927Y0100815D02*
X0098991Y0100815D01*
X0098192Y0100017D02*
X0105927Y0100017D01*
X0105927Y0099218D02*
X0097394Y0099218D01*
X0096595Y0098420D02*
X0106248Y0098420D01*
X0106624Y0097621D02*
X0095797Y0097621D01*
X0095813Y0096823D02*
X0094998Y0096823D01*
X0095514Y0096024D02*
X0094200Y0096024D01*
X0093401Y0095226D02*
X0095514Y0095226D01*
X0095514Y0094427D02*
X0092603Y0094427D01*
X0092893Y0093629D02*
X0095514Y0093629D01*
X0095514Y0092830D02*
X0093691Y0092830D01*
X0094490Y0092032D02*
X0095514Y0092032D01*
X0095288Y0091233D02*
X0095957Y0091233D01*
X0096087Y0090435D02*
X0106519Y0090435D01*
X0106188Y0089636D02*
X0096885Y0089636D01*
X0096950Y0088838D02*
X0105927Y0088838D01*
X0105927Y0088039D02*
X0096950Y0088039D01*
X0095450Y0088950D02*
X0090000Y0094400D01*
X0089857Y0097621D02*
X0085750Y0097621D01*
X0085750Y0098420D02*
X0090656Y0098420D01*
X0091454Y0099218D02*
X0085750Y0099218D01*
X0085750Y0100017D02*
X0092253Y0100017D01*
X0093051Y0100815D02*
X0085750Y0100815D01*
X0085186Y0101614D02*
X0093850Y0101614D01*
X0094648Y0102412D02*
X0085624Y0102412D01*
X0086515Y0103211D02*
X0095447Y0103211D01*
X0095514Y0104009D02*
X0087314Y0104009D01*
X0088112Y0104808D02*
X0095514Y0104808D01*
X0095514Y0105606D02*
X0088500Y0105606D01*
X0088500Y0106405D02*
X0095552Y0106405D01*
X0099169Y0107203D02*
X0088500Y0107203D01*
X0088500Y0108002D02*
X0099968Y0108002D01*
X0100766Y0108801D02*
X0088500Y0108801D01*
X0088500Y0109599D02*
X0101565Y0109599D01*
X0102713Y0104808D02*
X0117222Y0104808D01*
X0118371Y0109599D02*
X0119100Y0109599D01*
X0119100Y0110398D02*
X0088500Y0110398D01*
X0088500Y0111196D02*
X0119100Y0111196D01*
X0119100Y0111995D02*
X0088500Y0111995D01*
X0088500Y0112793D02*
X0119100Y0112793D01*
X0119100Y0113592D02*
X0088500Y0113592D01*
X0088500Y0114390D02*
X0119100Y0114390D01*
X0119100Y0115189D02*
X0088500Y0115189D01*
X0088500Y0115987D02*
X0119100Y0115987D01*
X0119100Y0116786D02*
X0088500Y0116786D01*
X0088500Y0117584D02*
X0119100Y0117584D01*
X0119100Y0118383D02*
X0088500Y0118383D01*
X0088500Y0119181D02*
X0119100Y0119181D01*
X0119100Y0119980D02*
X0088500Y0119980D01*
X0088500Y0120778D02*
X0113043Y0120778D01*
X0111814Y0121577D02*
X0089460Y0121577D01*
X0090120Y0122375D02*
X0111154Y0122375D01*
X0110823Y0123174D02*
X0090451Y0123174D01*
X0090594Y0123972D02*
X0110680Y0123972D01*
X0110680Y0124771D02*
X0090594Y0124771D01*
X0090365Y0125569D02*
X0110731Y0125569D01*
X0109933Y0126368D02*
X0090034Y0126368D01*
X0091163Y0131159D02*
X0102075Y0131159D01*
X0101276Y0131957D02*
X0091961Y0131957D01*
X0092760Y0132756D02*
X0100931Y0132756D01*
X0100680Y0133554D02*
X0093500Y0133554D01*
X0093500Y0134353D02*
X0100680Y0134353D01*
X0100801Y0135151D02*
X0093500Y0135151D01*
X0093500Y0135950D02*
X0101132Y0135950D01*
X0101761Y0136748D02*
X0093500Y0136748D01*
X0093500Y0137547D02*
X0102915Y0137547D01*
X0105959Y0137547D02*
X0142622Y0137547D01*
X0142622Y0138345D02*
X0093500Y0138345D01*
X0093948Y0139144D02*
X0142622Y0139144D01*
X0142622Y0139942D02*
X0094747Y0139942D01*
X0095545Y0140741D02*
X0142622Y0140741D01*
X0142622Y0141539D02*
X0109244Y0141539D01*
X0109500Y0141796D02*
X0109500Y0141796D01*
X0110042Y0142338D02*
X0142622Y0142338D01*
X0142622Y0143137D02*
X0110841Y0143137D01*
X0111639Y0143935D02*
X0142622Y0143935D01*
X0142622Y0144734D02*
X0112438Y0144734D01*
X0113236Y0145532D02*
X0142622Y0145532D01*
X0142622Y0146331D02*
X0114035Y0146331D01*
X0114833Y0147129D02*
X0142622Y0147129D01*
X0142622Y0147928D02*
X0115632Y0147928D01*
X0116430Y0148726D02*
X0142622Y0148726D01*
X0142622Y0149525D02*
X0132750Y0149525D01*
X0132750Y0149394D02*
X0132750Y0156806D01*
X0132106Y0157450D01*
X0124694Y0157450D01*
X0124050Y0156806D01*
X0124050Y0149394D01*
X0124694Y0148750D01*
X0132106Y0148750D01*
X0132750Y0149394D01*
X0132750Y0150323D02*
X0142622Y0150323D01*
X0142622Y0151122D02*
X0132750Y0151122D01*
X0132750Y0151920D02*
X0142622Y0151920D01*
X0142622Y0152719D02*
X0132750Y0152719D01*
X0132750Y0153517D02*
X0142622Y0153517D01*
X0142622Y0154316D02*
X0132750Y0154316D01*
X0132750Y0155114D02*
X0142622Y0155114D01*
X0142622Y0155913D02*
X0132750Y0155913D01*
X0132750Y0156711D02*
X0142622Y0156711D01*
X0142622Y0157510D02*
X0003800Y0157510D01*
X0003800Y0158308D02*
X0142622Y0158308D01*
X0142622Y0159107D02*
X0003800Y0159107D01*
X0003800Y0159905D02*
X0142622Y0159905D01*
X0142622Y0160704D02*
X0003800Y0160704D01*
X0003800Y0161502D02*
X0010730Y0161502D01*
X0011038Y0161390D02*
X0015384Y0161390D01*
X0019467Y0162876D01*
X0022795Y0165669D01*
X0022795Y0165669D01*
X0024968Y0169432D01*
X0025722Y0173711D01*
X0024968Y0177990D01*
X0022795Y0181753D01*
X0021163Y0183122D01*
X0125259Y0183122D01*
X0123627Y0181753D01*
X0123627Y0181753D01*
X0121455Y0177990D01*
X0120700Y0173711D01*
X0121455Y0169432D01*
X0123627Y0165669D01*
X0126955Y0162876D01*
X0126956Y0162876D02*
X0131038Y0161390D01*
X0135384Y0161390D01*
X0139467Y0162876D01*
X0142622Y0165524D01*
X0142622Y0021898D01*
X0139467Y0024546D01*
X0139467Y0024546D01*
X0135384Y0026032D01*
X0131038Y0026032D01*
X0126956Y0024546D01*
X0126956Y0024546D01*
X0123627Y0021753D01*
X0123627Y0021753D01*
X0121455Y0017990D01*
X0120700Y0013711D01*
X0121455Y0009432D01*
X0123627Y0005669D01*
X0125259Y0004300D01*
X0021163Y0004300D01*
X0022795Y0005669D01*
X0022795Y0005669D01*
X0024968Y0009432D01*
X0025722Y0013711D01*
X0024968Y0017990D01*
X0022795Y0021753D01*
X0019467Y0024546D01*
X0019467Y0024546D01*
X0015384Y0026032D01*
X0011038Y0026032D01*
X0006956Y0024546D01*
X0006956Y0024546D01*
X0003800Y0021898D01*
X0003800Y0165524D01*
X0006955Y0162876D01*
X0006956Y0162876D02*
X0011038Y0161390D01*
X0008536Y0162301D02*
X0003800Y0162301D01*
X0003800Y0163099D02*
X0006690Y0163099D01*
X0006955Y0162876D02*
X0006956Y0162876D01*
X0005738Y0163898D02*
X0003800Y0163898D01*
X0003800Y0164696D02*
X0004786Y0164696D01*
X0003835Y0165495D02*
X0003800Y0165495D01*
X0003800Y0156711D02*
X0025859Y0156711D01*
X0025061Y0155913D02*
X0003800Y0155913D01*
X0003800Y0155114D02*
X0024526Y0155114D01*
X0024195Y0154316D02*
X0003800Y0154316D01*
X0003800Y0153517D02*
X0024050Y0153517D01*
X0024050Y0152719D02*
X0003800Y0152719D01*
X0003800Y0151920D02*
X0024180Y0151920D01*
X0024511Y0151122D02*
X0003800Y0151122D01*
X0003800Y0150323D02*
X0025025Y0150323D01*
X0025824Y0149525D02*
X0003800Y0149525D01*
X0003800Y0148726D02*
X0026700Y0148726D01*
X0026700Y0147928D02*
X0003800Y0147928D01*
X0003800Y0147129D02*
X0026700Y0147129D01*
X0026700Y0146331D02*
X0003800Y0146331D01*
X0003800Y0145532D02*
X0026700Y0145532D01*
X0026700Y0144734D02*
X0003800Y0144734D01*
X0003800Y0143935D02*
X0026700Y0143935D01*
X0026700Y0143137D02*
X0003800Y0143137D01*
X0003800Y0142338D02*
X0026700Y0142338D01*
X0026700Y0141539D02*
X0003800Y0141539D01*
X0003800Y0140741D02*
X0026700Y0140741D01*
X0026700Y0139942D02*
X0003800Y0139942D01*
X0003800Y0139144D02*
X0026700Y0139144D01*
X0026700Y0138345D02*
X0003800Y0138345D01*
X0003800Y0137547D02*
X0020315Y0137547D01*
X0019709Y0137296D02*
X0018652Y0136239D01*
X0018080Y0134858D01*
X0018080Y0133363D01*
X0018652Y0131982D01*
X0019709Y0130925D01*
X0021090Y0130353D01*
X0022584Y0130353D01*
X0023965Y0130925D01*
X0025022Y0131982D01*
X0025594Y0133363D01*
X0025594Y0134858D01*
X0025022Y0136239D01*
X0023965Y0137296D01*
X0022584Y0137868D01*
X0021090Y0137868D01*
X0019709Y0137296D01*
X0019161Y0136748D02*
X0003800Y0136748D01*
X0003800Y0135950D02*
X0018532Y0135950D01*
X0018201Y0135151D02*
X0003800Y0135151D01*
X0003800Y0134353D02*
X0018080Y0134353D01*
X0018080Y0133554D02*
X0003800Y0133554D01*
X0003800Y0132756D02*
X0018331Y0132756D01*
X0018676Y0131957D02*
X0003800Y0131957D01*
X0003800Y0131159D02*
X0019475Y0131159D01*
X0021071Y0130360D02*
X0003800Y0130360D01*
X0003800Y0129562D02*
X0034334Y0129562D01*
X0033536Y0130360D02*
X0022603Y0130360D01*
X0024199Y0131159D02*
X0032737Y0131159D01*
X0031938Y0131957D02*
X0024998Y0131957D01*
X0025343Y0132756D02*
X0031140Y0132756D01*
X0030341Y0133554D02*
X0025594Y0133554D01*
X0025594Y0134353D02*
X0029543Y0134353D01*
X0028744Y0135151D02*
X0025473Y0135151D01*
X0025142Y0135950D02*
X0027946Y0135950D01*
X0027147Y0136748D02*
X0024513Y0136748D01*
X0023359Y0137547D02*
X0026700Y0137547D01*
X0030359Y0138345D02*
X0052850Y0138345D01*
X0052850Y0137547D02*
X0050759Y0137547D01*
X0051365Y0137296D02*
X0049984Y0137868D01*
X0048490Y0137868D01*
X0047109Y0137296D01*
X0046052Y0136239D01*
X0045480Y0134858D01*
X0045480Y0133363D01*
X0046052Y0131982D01*
X0047109Y0130925D01*
X0048490Y0130353D01*
X0049984Y0130353D01*
X0051365Y0130925D01*
X0052422Y0131982D01*
X0052850Y0133014D01*
X0052850Y0116694D01*
X0050094Y0116694D01*
X0049450Y0116050D01*
X0049450Y0112539D01*
X0050094Y0111894D01*
X0059006Y0111894D01*
X0059650Y0112539D01*
X0059650Y0116050D01*
X0059006Y0116694D01*
X0056250Y0116694D01*
X0056250Y0121941D01*
X0057109Y0121082D01*
X0058490Y0120510D01*
X0059800Y0120510D01*
X0059800Y0112004D01*
X0059248Y0111452D01*
X0059006Y0111694D01*
X0050094Y0111694D01*
X0049450Y0111050D01*
X0049450Y0107539D01*
X0050094Y0106894D01*
X0059006Y0106894D01*
X0059650Y0107539D01*
X0059650Y0107594D01*
X0060199Y0107594D01*
X0062204Y0109600D01*
X0063200Y0110596D01*
X0063200Y0122709D01*
X0062817Y0123092D01*
X0062994Y0123520D01*
X0062994Y0125015D01*
X0062422Y0126396D01*
X0061365Y0127453D01*
X0059984Y0128025D01*
X0058490Y0128025D01*
X0057109Y0127453D01*
X0056250Y0126595D01*
X0056250Y0148546D01*
X0056771Y0149066D01*
X0057535Y0148750D01*
X0059265Y0148750D01*
X0060864Y0149412D01*
X0062088Y0150636D01*
X0062750Y0152235D01*
X0062750Y0153965D01*
X0062088Y0155564D01*
X0060864Y0156788D01*
X0059265Y0157450D01*
X0057535Y0157450D01*
X0055936Y0156788D01*
X0054712Y0155564D01*
X0054050Y0153965D01*
X0054050Y0152235D01*
X0054366Y0151471D01*
X0052850Y0149954D01*
X0052850Y0135206D01*
X0052422Y0136239D01*
X0051365Y0137296D01*
X0051913Y0136748D02*
X0052850Y0136748D01*
X0052850Y0135950D02*
X0052542Y0135950D01*
X0052743Y0132756D02*
X0052850Y0132756D01*
X0052850Y0131957D02*
X0052398Y0131957D01*
X0052850Y0131159D02*
X0051599Y0131159D01*
X0052850Y0130360D02*
X0050003Y0130360D01*
X0048471Y0130360D02*
X0038344Y0130360D01*
X0039142Y0129562D02*
X0052850Y0129562D01*
X0052850Y0128763D02*
X0039941Y0128763D01*
X0040739Y0127965D02*
X0052850Y0127965D01*
X0052850Y0127166D02*
X0041538Y0127166D01*
X0042336Y0126368D02*
X0052850Y0126368D01*
X0052850Y0125569D02*
X0043135Y0125569D01*
X0043933Y0124771D02*
X0052850Y0124771D01*
X0052850Y0123972D02*
X0044732Y0123972D01*
X0045530Y0123174D02*
X0052850Y0123174D01*
X0052850Y0122375D02*
X0046329Y0122375D01*
X0047127Y0121577D02*
X0052850Y0121577D01*
X0052850Y0120778D02*
X0047926Y0120778D01*
X0048724Y0119980D02*
X0052850Y0119980D01*
X0052850Y0119181D02*
X0049200Y0119181D01*
X0049200Y0118383D02*
X0052850Y0118383D01*
X0052850Y0117584D02*
X0049200Y0117584D01*
X0049200Y0116786D02*
X0052850Y0116786D01*
X0056250Y0116786D02*
X0059800Y0116786D01*
X0059800Y0117584D02*
X0056250Y0117584D01*
X0056250Y0118383D02*
X0059800Y0118383D01*
X0059800Y0119181D02*
X0056250Y0119181D01*
X0056250Y0119980D02*
X0059800Y0119980D01*
X0057843Y0120778D02*
X0056250Y0120778D01*
X0056250Y0121577D02*
X0056614Y0121577D01*
X0056822Y0127166D02*
X0056250Y0127166D01*
X0056250Y0127965D02*
X0058344Y0127965D01*
X0056250Y0128763D02*
X0077385Y0128763D01*
X0076587Y0127965D02*
X0060130Y0127965D01*
X0061652Y0127166D02*
X0075788Y0127166D01*
X0074990Y0126368D02*
X0062434Y0126368D01*
X0062765Y0125569D02*
X0074191Y0125569D01*
X0074163Y0124771D02*
X0062994Y0124771D01*
X0062994Y0123972D02*
X0074163Y0123972D01*
X0074163Y0123174D02*
X0062851Y0123174D01*
X0063200Y0122375D02*
X0074163Y0122375D01*
X0074163Y0121577D02*
X0063200Y0121577D01*
X0063200Y0120778D02*
X0073574Y0120778D01*
X0072776Y0119980D02*
X0063200Y0119980D01*
X0063200Y0119181D02*
X0071977Y0119181D01*
X0071178Y0118383D02*
X0063200Y0118383D01*
X0063200Y0117584D02*
X0071000Y0117584D01*
X0071000Y0116786D02*
X0063200Y0116786D01*
X0063200Y0115987D02*
X0071000Y0115987D01*
X0071000Y0115189D02*
X0063200Y0115189D01*
X0063200Y0114390D02*
X0071000Y0114390D01*
X0071000Y0113592D02*
X0063200Y0113592D01*
X0063200Y0112793D02*
X0071000Y0112793D01*
X0071000Y0111995D02*
X0063200Y0111995D01*
X0063200Y0111196D02*
X0071000Y0111196D01*
X0071000Y0110398D02*
X0063002Y0110398D01*
X0062203Y0109599D02*
X0071000Y0109599D01*
X0071000Y0108801D02*
X0061405Y0108801D01*
X0060606Y0108002D02*
X0071000Y0108002D01*
X0071000Y0107203D02*
X0059315Y0107203D01*
X0059295Y0106405D02*
X0071000Y0106405D01*
X0071000Y0105606D02*
X0059650Y0105606D01*
X0059650Y0104808D02*
X0071000Y0104808D01*
X0071000Y0104009D02*
X0059650Y0104009D01*
X0059650Y0103211D02*
X0071000Y0103211D01*
X0071000Y0102412D02*
X0059524Y0102412D01*
X0059086Y0101614D02*
X0071000Y0101614D01*
X0071680Y0100815D02*
X0059650Y0100815D01*
X0059650Y0100017D02*
X0072479Y0100017D01*
X0073277Y0099218D02*
X0059650Y0099218D01*
X0059650Y0098420D02*
X0074076Y0098420D01*
X0074874Y0097621D02*
X0059650Y0097621D01*
X0059467Y0091233D02*
X0074281Y0091233D01*
X0073482Y0090435D02*
X0059650Y0090435D01*
X0059650Y0089636D02*
X0073100Y0089636D01*
X0073016Y0088838D02*
X0059650Y0088838D01*
X0059650Y0088039D02*
X0072218Y0088039D01*
X0071419Y0087241D02*
X0059352Y0087241D01*
X0059258Y0086442D02*
X0070621Y0086442D01*
X0069822Y0085644D02*
X0059650Y0085644D01*
X0059650Y0084845D02*
X0069024Y0084845D01*
X0068225Y0084047D02*
X0059650Y0084047D01*
X0059650Y0083248D02*
X0067427Y0083248D01*
X0066628Y0082450D02*
X0059561Y0082450D01*
X0056050Y0081651D02*
X0065830Y0081651D01*
X0065031Y0080853D02*
X0056050Y0080853D01*
X0056171Y0079150D02*
X0052421Y0075400D01*
X0041321Y0075400D01*
X0037000Y0071079D01*
X0037000Y0054900D01*
X0041100Y0050800D01*
X0045002Y0050800D01*
X0045039Y0050838D01*
X0045039Y0053987D02*
X0045027Y0054000D01*
X0040021Y0054000D01*
X0038500Y0055521D01*
X0038500Y0070457D01*
X0041943Y0073900D01*
X0053043Y0073900D01*
X0056793Y0077650D01*
X0067350Y0077650D01*
X0074100Y0084400D01*
X0080544Y0084400D01*
X0080650Y0084294D01*
X0086300Y0084294D01*
X0089150Y0084294D01*
X0089200Y0084244D01*
X0086850Y0081651D02*
X0073472Y0081651D01*
X0072674Y0080853D02*
X0086850Y0080853D01*
X0086850Y0080054D02*
X0071875Y0080054D01*
X0071077Y0079256D02*
X0086999Y0079256D01*
X0089200Y0080744D02*
X0093100Y0080744D01*
X0093900Y0080744D01*
X0093900Y0081355D01*
X0095450Y0082905D01*
X0095450Y0088950D01*
X0093950Y0088039D02*
X0093682Y0088039D01*
X0093441Y0088838D02*
X0092884Y0088838D01*
X0092642Y0089636D02*
X0092085Y0089636D01*
X0091844Y0090435D02*
X0091287Y0090435D01*
X0091045Y0091233D02*
X0085567Y0091233D01*
X0085243Y0092032D02*
X0087174Y0092032D01*
X0090306Y0089294D02*
X0093100Y0086500D01*
X0093100Y0084244D01*
X0095519Y0080853D02*
X0111476Y0080853D01*
X0112274Y0081651D02*
X0102060Y0081651D01*
X0102242Y0082450D02*
X0113000Y0082450D01*
X0113000Y0083248D02*
X0102242Y0083248D01*
X0102242Y0084047D02*
X0113000Y0084047D01*
X0113000Y0084845D02*
X0112411Y0084845D01*
X0107589Y0084845D02*
X0102242Y0084845D01*
X0102242Y0085644D02*
X0106790Y0085644D01*
X0106317Y0086442D02*
X0102242Y0086442D01*
X0101683Y0087241D02*
X0105986Y0087241D01*
X0107278Y0091233D02*
X0101799Y0091233D01*
X0101943Y0096823D02*
X0107422Y0096823D01*
X0112578Y0096823D02*
X0118057Y0096823D01*
X0118200Y0091233D02*
X0118201Y0091233D01*
X0124486Y0083248D02*
X0128640Y0083248D01*
X0128208Y0082450D02*
X0124486Y0082450D01*
X0124304Y0081651D02*
X0127409Y0081651D01*
X0126611Y0080853D02*
X0118200Y0080853D01*
X0117898Y0080054D02*
X0125812Y0080054D01*
X0125014Y0079256D02*
X0117233Y0079256D01*
X0116434Y0078457D02*
X0124215Y0078457D01*
X0123417Y0077659D02*
X0115636Y0077659D01*
X0114837Y0076860D02*
X0122618Y0076860D01*
X0121820Y0076062D02*
X0114038Y0076062D01*
X0113240Y0075263D02*
X0121021Y0075263D01*
X0120223Y0074465D02*
X0112441Y0074465D01*
X0115432Y0069673D02*
X0099350Y0069673D01*
X0099051Y0068875D02*
X0114633Y0068875D01*
X0113834Y0068076D02*
X0099350Y0068076D01*
X0099350Y0067278D02*
X0113036Y0067278D01*
X0112237Y0066479D02*
X0099350Y0066479D01*
X0099350Y0065681D02*
X0111439Y0065681D01*
X0110640Y0064882D02*
X0098559Y0064882D01*
X0097000Y0067013D02*
X0089589Y0059602D01*
X0089589Y0057711D01*
X0087898Y0056020D01*
X0083305Y0056020D01*
X0083285Y0056000D01*
X0080500Y0056000D01*
X0079700Y0055200D01*
X0079700Y0031900D01*
X0082700Y0028900D01*
X0084000Y0028900D01*
X0085600Y0027300D01*
X0093900Y0027300D01*
X0097206Y0023994D01*
X0097206Y0021800D01*
X0099487Y0021763D02*
X0123639Y0021763D01*
X0123172Y0020964D02*
X0099487Y0020964D01*
X0099487Y0020166D02*
X0122711Y0020166D01*
X0122250Y0019367D02*
X0099487Y0019367D01*
X0099368Y0018569D02*
X0121789Y0018569D01*
X0121455Y0017990D02*
X0121455Y0017990D01*
X0121416Y0017770D02*
X0091900Y0017770D01*
X0091900Y0016972D02*
X0121275Y0016972D01*
X0121134Y0016173D02*
X0091730Y0016173D01*
X0091252Y0015375D02*
X0120993Y0015375D01*
X0120853Y0014576D02*
X0090453Y0014576D01*
X0089655Y0013778D02*
X0120712Y0013778D01*
X0120700Y0013711D02*
X0120700Y0013711D01*
X0120829Y0012979D02*
X0088856Y0012979D01*
X0086223Y0017700D02*
X0053908Y0017700D01*
X0053566Y0018043D01*
X0055905Y0018043D01*
X0056237Y0018374D01*
X0056569Y0018043D01*
X0059842Y0018043D01*
X0060487Y0018687D01*
X0060487Y0023100D01*
X0076121Y0023100D01*
X0078221Y0025200D01*
X0079353Y0025200D01*
X0080700Y0026547D01*
X0080700Y0026657D01*
X0083057Y0024300D01*
X0087050Y0024300D01*
X0087050Y0023132D01*
X0086700Y0022286D01*
X0086700Y0018177D01*
X0086223Y0017700D01*
X0086293Y0017770D02*
X0053838Y0017770D01*
X0054269Y0021800D02*
X0054269Y0023369D01*
X0057000Y0026100D01*
X0073021Y0026100D01*
X0077661Y0030739D01*
X0077711Y0030789D01*
X0078689Y0030789D01*
X0078200Y0031279D01*
X0077661Y0030739D01*
X0078200Y0031279D02*
X0078200Y0055821D01*
X0080957Y0058579D01*
X0083305Y0058579D01*
X0086444Y0058579D01*
X0091400Y0063534D01*
X0091400Y0067013D01*
X0089460Y0068763D02*
X0089050Y0068353D01*
X0089050Y0065673D01*
X0089900Y0064823D01*
X0089900Y0064156D01*
X0086900Y0061156D01*
X0086900Y0074000D01*
X0087447Y0074000D01*
X0087000Y0073553D01*
X0087000Y0071647D01*
X0088347Y0070300D01*
X0089050Y0070300D01*
X0089050Y0069173D01*
X0089460Y0068763D01*
X0089349Y0068875D02*
X0086900Y0068875D01*
X0086900Y0069673D02*
X0089050Y0069673D01*
X0088175Y0070472D02*
X0086900Y0070472D01*
X0086900Y0071270D02*
X0087377Y0071270D01*
X0087000Y0072069D02*
X0086900Y0072069D01*
X0086900Y0072868D02*
X0087000Y0072868D01*
X0086900Y0073666D02*
X0087113Y0073666D01*
X0085400Y0073666D02*
X0081866Y0073666D01*
X0081400Y0073200D02*
X0082400Y0074200D01*
X0084900Y0074200D01*
X0085400Y0073700D01*
X0085400Y0060600D01*
X0081800Y0060600D01*
X0081400Y0061000D01*
X0081400Y0073200D01*
X0081400Y0072868D02*
X0085400Y0072868D01*
X0085400Y0072069D02*
X0081400Y0072069D01*
X0081400Y0071270D02*
X0085400Y0071270D01*
X0085400Y0070472D02*
X0081400Y0070472D01*
X0081400Y0069673D02*
X0085400Y0069673D01*
X0085400Y0068875D02*
X0081400Y0068875D01*
X0081400Y0068076D02*
X0085400Y0068076D01*
X0085400Y0067278D02*
X0081400Y0067278D01*
X0081400Y0066479D02*
X0085400Y0066479D01*
X0085400Y0065681D02*
X0081400Y0065681D01*
X0081400Y0064882D02*
X0085400Y0064882D01*
X0085400Y0064084D02*
X0081400Y0064084D01*
X0081400Y0063285D02*
X0085400Y0063285D01*
X0085400Y0062487D02*
X0081400Y0062487D01*
X0081400Y0061688D02*
X0085400Y0061688D01*
X0085400Y0060890D02*
X0081510Y0060890D01*
X0079900Y0060890D02*
X0062259Y0060890D01*
X0062259Y0061688D02*
X0079900Y0061688D01*
X0079900Y0062487D02*
X0072740Y0062487D01*
X0073300Y0063285D02*
X0079900Y0063285D01*
X0079900Y0064084D02*
X0073300Y0064084D01*
X0073300Y0064882D02*
X0079900Y0064882D01*
X0079900Y0065681D02*
X0072572Y0065681D01*
X0070925Y0066479D02*
X0079900Y0066479D01*
X0079900Y0067278D02*
X0070126Y0067278D01*
X0069328Y0068076D02*
X0079900Y0068076D01*
X0079900Y0068875D02*
X0068529Y0068875D01*
X0067731Y0069673D02*
X0079900Y0069673D01*
X0079900Y0070472D02*
X0059531Y0070472D01*
X0056669Y0070472D02*
X0051700Y0070472D01*
X0051634Y0071270D02*
X0079900Y0071270D01*
X0079900Y0072069D02*
X0050835Y0072069D01*
X0052329Y0069673D02*
X0055871Y0069673D01*
X0055750Y0068875D02*
X0052350Y0068875D01*
X0052350Y0068076D02*
X0055750Y0068076D01*
X0055750Y0067278D02*
X0052350Y0067278D01*
X0052077Y0066479D02*
X0052023Y0066479D01*
X0050000Y0064813D02*
X0048850Y0065963D01*
X0048660Y0065963D01*
X0045600Y0069023D01*
X0045600Y0069300D01*
X0043300Y0069673D02*
X0042524Y0069673D01*
X0042073Y0068875D02*
X0043300Y0068875D01*
X0043571Y0068076D02*
X0042073Y0068076D01*
X0042073Y0067278D02*
X0044369Y0067278D01*
X0043872Y0065681D02*
X0046821Y0065681D01*
X0046023Y0066479D02*
X0042225Y0066479D01*
X0044670Y0064882D02*
X0047620Y0064882D01*
X0047650Y0064084D02*
X0045150Y0064084D01*
X0045150Y0063285D02*
X0047838Y0063285D01*
X0048500Y0062487D02*
X0045140Y0062487D01*
X0044341Y0061688D02*
X0048500Y0061688D01*
X0048500Y0060890D02*
X0040000Y0060890D01*
X0040000Y0061688D02*
X0041359Y0061688D01*
X0040560Y0062487D02*
X0040000Y0062487D01*
X0040000Y0063285D02*
X0040550Y0063285D01*
X0040000Y0060091D02*
X0048500Y0060091D01*
X0048500Y0059293D02*
X0040000Y0059293D01*
X0040000Y0058494D02*
X0049184Y0058494D01*
X0049983Y0057696D02*
X0040000Y0057696D01*
X0040000Y0056897D02*
X0050781Y0056897D01*
X0051580Y0056099D02*
X0040044Y0056099D01*
X0035500Y0053700D02*
X0035500Y0071700D01*
X0040700Y0076900D01*
X0051800Y0076900D01*
X0054550Y0079650D01*
X0054550Y0084294D01*
X0048700Y0084294D01*
X0047350Y0084294D01*
X0046000Y0082944D01*
X0044211Y0084845D02*
X0043600Y0084845D01*
X0043765Y0085644D02*
X0046578Y0085644D01*
X0047595Y0086442D02*
X0044564Y0086442D01*
X0045362Y0087241D02*
X0049748Y0087241D01*
X0049805Y0086442D02*
X0049842Y0086442D01*
X0049633Y0091233D02*
X0026188Y0091233D01*
X0025400Y0092032D02*
X0070616Y0092032D01*
X0069817Y0092830D02*
X0025400Y0092830D01*
X0025400Y0093629D02*
X0069400Y0093629D01*
X0069400Y0094427D02*
X0025400Y0094427D01*
X0025400Y0095226D02*
X0069473Y0095226D01*
X0070272Y0096024D02*
X0047477Y0096024D01*
X0048100Y0096823D02*
X0087229Y0096823D01*
X0090306Y0089294D02*
X0080650Y0089294D01*
X0075594Y0089294D01*
X0075400Y0089100D01*
X0065450Y0079150D01*
X0056171Y0079150D01*
X0057326Y0076062D02*
X0081000Y0076062D01*
X0081000Y0076860D02*
X0068681Y0076860D01*
X0069480Y0077659D02*
X0081224Y0077659D01*
X0081780Y0078457D02*
X0070278Y0078457D01*
X0074271Y0082450D02*
X0075639Y0082450D01*
X0081000Y0075263D02*
X0056527Y0075263D01*
X0055729Y0074465D02*
X0080543Y0074465D01*
X0079900Y0073666D02*
X0054930Y0073666D01*
X0054131Y0072868D02*
X0079900Y0072868D01*
X0086900Y0068076D02*
X0089050Y0068076D01*
X0089050Y0067278D02*
X0086900Y0067278D01*
X0086900Y0066479D02*
X0089050Y0066479D01*
X0089050Y0065681D02*
X0086900Y0065681D01*
X0086900Y0064882D02*
X0089841Y0064882D01*
X0089828Y0064084D02*
X0086900Y0064084D01*
X0086900Y0063285D02*
X0089030Y0063285D01*
X0088231Y0062487D02*
X0086900Y0062487D01*
X0086900Y0061688D02*
X0087433Y0061688D01*
X0090400Y0056400D02*
X0091600Y0056400D01*
X0093587Y0056400D01*
X0093600Y0056413D01*
X0095208Y0058494D02*
X0104252Y0058494D01*
X0103454Y0057696D02*
X0095950Y0057696D01*
X0095950Y0056897D02*
X0102655Y0056897D01*
X0101857Y0056099D02*
X0095950Y0056099D01*
X0095950Y0055300D02*
X0101058Y0055300D01*
X0100260Y0054502D02*
X0095378Y0054502D01*
X0096461Y0052287D02*
X0100167Y0052287D01*
X0130140Y0082260D01*
X0130140Y0098018D01*
X0137722Y0105600D01*
X0142072Y0105606D02*
X0142622Y0105606D01*
X0142622Y0104808D02*
X0142072Y0104808D01*
X0141772Y0104009D02*
X0142622Y0104009D01*
X0142622Y0103211D02*
X0141441Y0103211D01*
X0140686Y0102412D02*
X0142622Y0102412D01*
X0142622Y0101614D02*
X0139466Y0101614D01*
X0140255Y0099218D02*
X0142622Y0099218D01*
X0142622Y0098420D02*
X0141054Y0098420D01*
X0141593Y0097621D02*
X0142622Y0097621D01*
X0142622Y0096823D02*
X0141924Y0096823D01*
X0142072Y0096024D02*
X0142622Y0096024D01*
X0142622Y0095226D02*
X0142072Y0095226D01*
X0141945Y0094427D02*
X0142622Y0094427D01*
X0142622Y0093629D02*
X0141614Y0093629D01*
X0141104Y0092830D02*
X0142622Y0092830D01*
X0142622Y0092032D02*
X0140306Y0092032D01*
X0142622Y0091233D02*
X0135477Y0091233D01*
X0134678Y0090435D02*
X0142622Y0090435D01*
X0142622Y0089636D02*
X0139345Y0089636D01*
X0140636Y0088838D02*
X0142622Y0088838D01*
X0142622Y0088039D02*
X0141420Y0088039D01*
X0141751Y0087241D02*
X0142622Y0087241D01*
X0142622Y0086442D02*
X0142072Y0086442D01*
X0142072Y0085644D02*
X0142622Y0085644D01*
X0142622Y0084845D02*
X0142072Y0084845D01*
X0141787Y0084047D02*
X0142622Y0084047D01*
X0142622Y0083248D02*
X0141456Y0083248D01*
X0140724Y0082450D02*
X0142622Y0082450D01*
X0142622Y0081651D02*
X0139556Y0081651D01*
X0140218Y0079256D02*
X0142622Y0079256D01*
X0142622Y0080054D02*
X0134297Y0080054D01*
X0133499Y0079256D02*
X0135226Y0079256D01*
X0134427Y0078457D02*
X0132700Y0078457D01*
X0131902Y0077659D02*
X0133866Y0077659D01*
X0133536Y0076860D02*
X0131103Y0076860D01*
X0130305Y0076062D02*
X0133372Y0076062D01*
X0133372Y0075263D02*
X0129506Y0075263D01*
X0128708Y0074465D02*
X0133484Y0074465D01*
X0133667Y0073666D02*
X0127909Y0073666D01*
X0127111Y0072868D02*
X0132868Y0072868D01*
X0132070Y0072069D02*
X0126312Y0072069D01*
X0125514Y0071270D02*
X0131271Y0071270D01*
X0130473Y0070472D02*
X0124715Y0070472D01*
X0123917Y0069673D02*
X0129674Y0069673D01*
X0128876Y0068875D02*
X0123118Y0068875D01*
X0122320Y0068076D02*
X0128077Y0068076D01*
X0127279Y0067278D02*
X0121521Y0067278D01*
X0120723Y0066479D02*
X0126480Y0066479D01*
X0125682Y0065681D02*
X0119924Y0065681D01*
X0119126Y0064882D02*
X0124883Y0064882D01*
X0124085Y0064084D02*
X0118327Y0064084D01*
X0117529Y0063285D02*
X0123286Y0063285D01*
X0122488Y0062487D02*
X0116730Y0062487D01*
X0115932Y0061688D02*
X0121689Y0061688D01*
X0120891Y0060890D02*
X0115133Y0060890D01*
X0114335Y0060091D02*
X0120092Y0060091D01*
X0119294Y0059293D02*
X0113536Y0059293D01*
X0112738Y0058494D02*
X0118495Y0058494D01*
X0117697Y0057696D02*
X0111939Y0057696D01*
X0111141Y0056897D02*
X0116898Y0056897D01*
X0116100Y0056099D02*
X0110342Y0056099D01*
X0109544Y0055300D02*
X0115301Y0055300D01*
X0114502Y0054502D02*
X0108745Y0054502D01*
X0107947Y0053703D02*
X0113704Y0053703D01*
X0112905Y0052905D02*
X0107148Y0052905D01*
X0106350Y0052106D02*
X0112107Y0052106D01*
X0111308Y0051308D02*
X0105551Y0051308D01*
X0104753Y0050509D02*
X0110510Y0050509D01*
X0109711Y0049711D02*
X0103954Y0049711D01*
X0103156Y0048912D02*
X0108913Y0048912D01*
X0108114Y0048114D02*
X0102357Y0048114D01*
X0101559Y0047315D02*
X0107316Y0047315D01*
X0106517Y0046517D02*
X0100760Y0046517D01*
X0099961Y0045718D02*
X0105719Y0045718D01*
X0104920Y0044920D02*
X0099163Y0044920D01*
X0098110Y0045988D02*
X0137722Y0085600D01*
X0136099Y0089636D02*
X0133880Y0089636D01*
X0133550Y0088838D02*
X0134808Y0088838D01*
X0134024Y0088039D02*
X0133550Y0088039D01*
X0133550Y0087241D02*
X0133693Y0087241D01*
X0132050Y0089928D02*
X0137722Y0095600D01*
X0135189Y0099218D02*
X0133462Y0099218D01*
X0132663Y0098420D02*
X0134390Y0098420D01*
X0133851Y0097621D02*
X0131865Y0097621D01*
X0131640Y0096823D02*
X0133520Y0096823D01*
X0133372Y0096024D02*
X0131640Y0096024D01*
X0131640Y0095226D02*
X0133372Y0095226D01*
X0133499Y0094427D02*
X0131640Y0094427D01*
X0131640Y0093629D02*
X0133630Y0093629D01*
X0132831Y0092830D02*
X0131640Y0092830D01*
X0131640Y0092032D02*
X0132033Y0092032D01*
X0132050Y0089928D02*
X0132050Y0082050D01*
X0099139Y0049138D01*
X0096461Y0049138D01*
X0096461Y0045988D02*
X0098110Y0045988D01*
X0096461Y0042839D02*
X0104961Y0042839D01*
X0137722Y0075600D01*
X0141629Y0073666D02*
X0142622Y0073666D01*
X0142622Y0072868D02*
X0141141Y0072868D01*
X0140343Y0072069D02*
X0142622Y0072069D01*
X0142622Y0071270D02*
X0138637Y0071270D01*
X0139255Y0069673D02*
X0142622Y0069673D01*
X0142622Y0068875D02*
X0140599Y0068875D01*
X0141397Y0068076D02*
X0142622Y0068076D01*
X0142622Y0067278D02*
X0141735Y0067278D01*
X0142066Y0066479D02*
X0142622Y0066479D01*
X0142622Y0065681D02*
X0142072Y0065681D01*
X0142072Y0064882D02*
X0142622Y0064882D01*
X0142622Y0064084D02*
X0141802Y0064084D01*
X0141472Y0063285D02*
X0142622Y0063285D01*
X0142622Y0062487D02*
X0140761Y0062487D01*
X0139646Y0061688D02*
X0142622Y0061688D01*
X0142622Y0060890D02*
X0135133Y0060890D01*
X0134335Y0060091D02*
X0142622Y0060091D01*
X0142622Y0059293D02*
X0140174Y0059293D01*
X0140980Y0058494D02*
X0142622Y0058494D01*
X0142622Y0057696D02*
X0141562Y0057696D01*
X0141893Y0056897D02*
X0142622Y0056897D01*
X0142622Y0056099D02*
X0142072Y0056099D01*
X0142072Y0055300D02*
X0142622Y0055300D01*
X0142622Y0054502D02*
X0141976Y0054502D01*
X0141645Y0053703D02*
X0142622Y0053703D01*
X0142622Y0052905D02*
X0141179Y0052905D01*
X0140380Y0052106D02*
X0142622Y0052106D01*
X0142622Y0051308D02*
X0138727Y0051308D01*
X0139165Y0049711D02*
X0142622Y0049711D01*
X0142622Y0050509D02*
X0134753Y0050509D01*
X0135551Y0051308D02*
X0136717Y0051308D01*
X0136279Y0049711D02*
X0133954Y0049711D01*
X0133156Y0048912D02*
X0134882Y0048912D01*
X0134084Y0048114D02*
X0132357Y0048114D01*
X0131559Y0047315D02*
X0133724Y0047315D01*
X0133393Y0046517D02*
X0130760Y0046517D01*
X0129961Y0045718D02*
X0133372Y0045718D01*
X0133372Y0044920D02*
X0129163Y0044920D01*
X0128364Y0044121D02*
X0133626Y0044121D01*
X0133323Y0043323D02*
X0127566Y0043323D01*
X0126767Y0042524D02*
X0132525Y0042524D01*
X0131726Y0041726D02*
X0125969Y0041726D01*
X0125170Y0040927D02*
X0130928Y0040927D01*
X0130129Y0040129D02*
X0124372Y0040129D01*
X0123573Y0039330D02*
X0129331Y0039330D01*
X0128532Y0038532D02*
X0122775Y0038532D01*
X0121976Y0037733D02*
X0127734Y0037733D01*
X0126935Y0036934D02*
X0121178Y0036934D01*
X0120379Y0036136D02*
X0126137Y0036136D01*
X0125338Y0035337D02*
X0119581Y0035337D01*
X0118782Y0034539D02*
X0124540Y0034539D01*
X0124810Y0032688D02*
X0137722Y0045600D01*
X0140798Y0042524D02*
X0142622Y0042524D01*
X0142622Y0041726D02*
X0139735Y0041726D01*
X0141487Y0043323D02*
X0142622Y0043323D01*
X0142622Y0044121D02*
X0141818Y0044121D01*
X0142072Y0044920D02*
X0142622Y0044920D01*
X0142622Y0045718D02*
X0142072Y0045718D01*
X0142051Y0046517D02*
X0142622Y0046517D01*
X0142622Y0047315D02*
X0141720Y0047315D01*
X0141360Y0048114D02*
X0142622Y0048114D01*
X0142622Y0048912D02*
X0140562Y0048912D01*
X0137722Y0055600D02*
X0117960Y0035838D01*
X0096561Y0035838D01*
X0096561Y0038987D02*
X0111109Y0038987D01*
X0137722Y0065600D01*
X0136189Y0069673D02*
X0133917Y0069673D01*
X0133118Y0068875D02*
X0134845Y0068875D01*
X0134047Y0068076D02*
X0132320Y0068076D01*
X0131521Y0067278D02*
X0133709Y0067278D01*
X0133378Y0066479D02*
X0130723Y0066479D01*
X0129924Y0065681D02*
X0133372Y0065681D01*
X0133372Y0064882D02*
X0129126Y0064882D01*
X0128327Y0064084D02*
X0133642Y0064084D01*
X0133286Y0063285D02*
X0127529Y0063285D01*
X0126730Y0062487D02*
X0132488Y0062487D01*
X0131689Y0061688D02*
X0125932Y0061688D01*
X0125133Y0060890D02*
X0130891Y0060890D01*
X0130092Y0060091D02*
X0124335Y0060091D01*
X0123536Y0059293D02*
X0129294Y0059293D01*
X0128495Y0058494D02*
X0122738Y0058494D01*
X0121939Y0057696D02*
X0127697Y0057696D01*
X0126898Y0056897D02*
X0121141Y0056897D01*
X0120342Y0056099D02*
X0126100Y0056099D01*
X0125301Y0055300D02*
X0119544Y0055300D01*
X0118745Y0054502D02*
X0124502Y0054502D01*
X0123704Y0053703D02*
X0117947Y0053703D01*
X0117148Y0052905D02*
X0122905Y0052905D01*
X0122107Y0052106D02*
X0116350Y0052106D01*
X0115551Y0051308D02*
X0121308Y0051308D01*
X0120510Y0050509D02*
X0114753Y0050509D01*
X0113954Y0049711D02*
X0119711Y0049711D01*
X0118913Y0048912D02*
X0113156Y0048912D01*
X0112357Y0048114D02*
X0118114Y0048114D01*
X0117316Y0047315D02*
X0111559Y0047315D01*
X0110760Y0046517D02*
X0116517Y0046517D01*
X0115719Y0045718D02*
X0109961Y0045718D01*
X0109163Y0044920D02*
X0114920Y0044920D01*
X0114122Y0044121D02*
X0108364Y0044121D01*
X0107566Y0043323D02*
X0113323Y0043323D01*
X0112525Y0042524D02*
X0106767Y0042524D01*
X0105969Y0041726D02*
X0111726Y0041726D01*
X0110928Y0040927D02*
X0098440Y0040927D01*
X0096561Y0032688D02*
X0124810Y0032688D01*
X0125588Y0031345D02*
X0131346Y0031345D01*
X0131039Y0031039D02*
X0098880Y0031039D01*
X0098805Y0031113D01*
X0098880Y0031188D01*
X0125432Y0031188D01*
X0133372Y0039129D01*
X0133372Y0033371D01*
X0131039Y0031039D01*
X0132144Y0032143D02*
X0126387Y0032143D01*
X0127185Y0032942D02*
X0132943Y0032942D01*
X0133372Y0033740D02*
X0127984Y0033740D01*
X0128782Y0034539D02*
X0133372Y0034539D01*
X0133372Y0035337D02*
X0129581Y0035337D01*
X0130379Y0036136D02*
X0133372Y0036136D01*
X0133372Y0036934D02*
X0131178Y0036934D01*
X0131976Y0037733D02*
X0133372Y0037733D01*
X0133372Y0038532D02*
X0132775Y0038532D01*
X0134372Y0040129D02*
X0142622Y0040129D01*
X0142622Y0040927D02*
X0135170Y0040927D01*
X0137722Y0035600D02*
X0131661Y0029539D01*
X0096561Y0029539D01*
X0095969Y0027352D02*
X0142622Y0027352D01*
X0142622Y0026554D02*
X0096767Y0026554D01*
X0097566Y0025755D02*
X0130278Y0025755D01*
X0128085Y0024957D02*
X0099443Y0024957D01*
X0099487Y0024158D02*
X0126494Y0024158D01*
X0125542Y0023360D02*
X0099487Y0023360D01*
X0099487Y0022561D02*
X0124590Y0022561D01*
X0132394Y0028151D02*
X0142622Y0028151D01*
X0142622Y0028949D02*
X0133193Y0028949D01*
X0133991Y0029748D02*
X0142622Y0029748D01*
X0142622Y0030546D02*
X0134790Y0030546D01*
X0136144Y0025755D02*
X0142622Y0025755D01*
X0142622Y0024957D02*
X0138337Y0024957D01*
X0139928Y0024158D02*
X0142622Y0024158D01*
X0142622Y0023360D02*
X0140880Y0023360D01*
X0141832Y0022561D02*
X0142622Y0022561D01*
X0142622Y0031345D02*
X0141523Y0031345D01*
X0142072Y0032143D02*
X0142622Y0032143D01*
X0142622Y0032942D02*
X0142072Y0032942D01*
X0142072Y0033740D02*
X0142622Y0033740D01*
X0142622Y0034539D02*
X0142072Y0034539D01*
X0142072Y0035337D02*
X0142622Y0035337D01*
X0142622Y0036136D02*
X0142072Y0036136D01*
X0142072Y0036934D02*
X0142622Y0036934D01*
X0142622Y0037733D02*
X0142072Y0037733D01*
X0142072Y0038532D02*
X0142622Y0038532D01*
X0142622Y0039330D02*
X0142048Y0039330D01*
X0132107Y0052106D02*
X0126350Y0052106D01*
X0127148Y0052905D02*
X0132905Y0052905D01*
X0133704Y0053703D02*
X0127947Y0053703D01*
X0128745Y0054502D02*
X0133469Y0054502D01*
X0133372Y0055300D02*
X0129544Y0055300D01*
X0130342Y0056099D02*
X0133372Y0056099D01*
X0133551Y0056897D02*
X0131141Y0056897D01*
X0131939Y0057696D02*
X0133882Y0057696D01*
X0134465Y0058494D02*
X0132738Y0058494D01*
X0133536Y0059293D02*
X0135270Y0059293D01*
X0131308Y0051308D02*
X0125551Y0051308D01*
X0124753Y0050509D02*
X0130510Y0050509D01*
X0129711Y0049711D02*
X0123954Y0049711D01*
X0123156Y0048912D02*
X0128913Y0048912D01*
X0128114Y0048114D02*
X0122357Y0048114D01*
X0121559Y0047315D02*
X0127316Y0047315D01*
X0126517Y0046517D02*
X0120760Y0046517D01*
X0119961Y0045718D02*
X0125719Y0045718D01*
X0124920Y0044920D02*
X0119163Y0044920D01*
X0118364Y0044121D02*
X0124122Y0044121D01*
X0123323Y0043323D02*
X0117566Y0043323D01*
X0116767Y0042524D02*
X0122525Y0042524D01*
X0121726Y0041726D02*
X0115969Y0041726D01*
X0115170Y0040927D02*
X0120928Y0040927D01*
X0120129Y0040129D02*
X0114372Y0040129D01*
X0113573Y0039330D02*
X0119331Y0039330D01*
X0118532Y0038532D02*
X0112775Y0038532D01*
X0112609Y0038366D02*
X0112609Y0038366D01*
X0111976Y0037733D02*
X0117734Y0037733D01*
X0105051Y0059293D02*
X0091401Y0059293D01*
X0092200Y0060091D02*
X0105849Y0060091D01*
X0106648Y0060890D02*
X0092998Y0060890D01*
X0093797Y0061688D02*
X0107446Y0061688D01*
X0108245Y0062487D02*
X0094595Y0062487D01*
X0095394Y0063285D02*
X0109043Y0063285D01*
X0109842Y0064084D02*
X0096192Y0064084D01*
X0097000Y0070513D02*
X0099100Y0072613D01*
X0099100Y0072700D01*
X0100923Y0071270D02*
X0117029Y0071270D01*
X0116230Y0070472D02*
X0100125Y0070472D01*
X0101400Y0072069D02*
X0117827Y0072069D01*
X0118626Y0072868D02*
X0101400Y0072868D01*
X0101387Y0073666D02*
X0119424Y0073666D01*
X0110677Y0080054D02*
X0095450Y0080054D01*
X0095301Y0079256D02*
X0109879Y0079256D01*
X0124486Y0101614D02*
X0131615Y0101614D01*
X0132413Y0102412D02*
X0124486Y0102412D01*
X0124486Y0103211D02*
X0133212Y0103211D01*
X0133672Y0104009D02*
X0124486Y0104009D01*
X0124486Y0104808D02*
X0133372Y0104808D01*
X0133372Y0105606D02*
X0124486Y0105606D01*
X0124447Y0106405D02*
X0133372Y0106405D01*
X0133678Y0107203D02*
X0123300Y0107203D01*
X0123300Y0108002D02*
X0134009Y0108002D01*
X0134771Y0108801D02*
X0123300Y0108801D01*
X0123300Y0109599D02*
X0136009Y0109599D01*
X0139435Y0109599D02*
X0142622Y0109599D01*
X0142622Y0108801D02*
X0140673Y0108801D01*
X0141436Y0108002D02*
X0142622Y0108002D01*
X0142622Y0107203D02*
X0141766Y0107203D01*
X0142072Y0106405D02*
X0142622Y0106405D01*
X0142622Y0110398D02*
X0123300Y0110398D01*
X0123300Y0111196D02*
X0142622Y0111196D01*
X0142622Y0111995D02*
X0123300Y0111995D01*
X0123300Y0112793D02*
X0142622Y0112793D01*
X0142622Y0113592D02*
X0123300Y0113592D01*
X0123300Y0114390D02*
X0142622Y0114390D01*
X0142622Y0115189D02*
X0123300Y0115189D01*
X0123300Y0115987D02*
X0142622Y0115987D01*
X0142622Y0116786D02*
X0123300Y0116786D01*
X0123300Y0117584D02*
X0142622Y0117584D01*
X0142622Y0118383D02*
X0123300Y0118383D01*
X0123300Y0119181D02*
X0142622Y0119181D01*
X0142622Y0119980D02*
X0123300Y0119980D01*
X0123300Y0120778D02*
X0142622Y0120778D01*
X0142622Y0121577D02*
X0123300Y0121577D01*
X0123300Y0122375D02*
X0142622Y0122375D01*
X0142622Y0123174D02*
X0123300Y0123174D01*
X0123300Y0123972D02*
X0142622Y0123972D01*
X0142622Y0124771D02*
X0123300Y0124771D01*
X0123300Y0125569D02*
X0142622Y0125569D01*
X0142622Y0126368D02*
X0123300Y0126368D01*
X0123300Y0127166D02*
X0142622Y0127166D01*
X0142622Y0127965D02*
X0122905Y0127965D01*
X0122107Y0128763D02*
X0142622Y0128763D01*
X0142622Y0129562D02*
X0121308Y0129562D01*
X0120510Y0130360D02*
X0142622Y0130360D01*
X0142622Y0131159D02*
X0119711Y0131159D01*
X0118912Y0131957D02*
X0142622Y0131957D01*
X0142622Y0132756D02*
X0118114Y0132756D01*
X0117315Y0133554D02*
X0142622Y0133554D01*
X0142622Y0134353D02*
X0116517Y0134353D01*
X0115718Y0135151D02*
X0142622Y0135151D01*
X0142622Y0135950D02*
X0114920Y0135950D01*
X0112973Y0131957D02*
X0107598Y0131957D01*
X0106799Y0131159D02*
X0113771Y0131159D01*
X0114570Y0130360D02*
X0110749Y0130360D01*
X0111547Y0129562D02*
X0115368Y0129562D01*
X0116167Y0128763D02*
X0112346Y0128763D01*
X0113144Y0127965D02*
X0113544Y0127965D01*
X0115330Y0127965D02*
X0116965Y0127965D01*
X0116852Y0127166D02*
X0117764Y0127166D01*
X0117634Y0126368D02*
X0118562Y0126368D01*
X0119100Y0125569D02*
X0117965Y0125569D01*
X0118194Y0124771D02*
X0119100Y0124771D01*
X0119100Y0123972D02*
X0118194Y0123972D01*
X0118051Y0123174D02*
X0119100Y0123174D01*
X0119100Y0122375D02*
X0117720Y0122375D01*
X0117060Y0121577D02*
X0119100Y0121577D01*
X0119100Y0120778D02*
X0115831Y0120778D01*
X0107113Y0136748D02*
X0142622Y0136748D01*
X0124050Y0149525D02*
X0120976Y0149525D01*
X0121775Y0150323D02*
X0124050Y0150323D01*
X0124050Y0151122D02*
X0122289Y0151122D01*
X0122620Y0151920D02*
X0124050Y0151920D01*
X0124050Y0152719D02*
X0122750Y0152719D01*
X0122750Y0153517D02*
X0124050Y0153517D01*
X0124050Y0154316D02*
X0122605Y0154316D01*
X0122274Y0155114D02*
X0124050Y0155114D01*
X0124050Y0155913D02*
X0121739Y0155913D01*
X0120941Y0156711D02*
X0124050Y0156711D01*
X0128536Y0162301D02*
X0017886Y0162301D01*
X0019467Y0162876D02*
X0019467Y0162876D01*
X0019732Y0163099D02*
X0126690Y0163099D01*
X0126955Y0162876D02*
X0126956Y0162876D01*
X0125738Y0163898D02*
X0020684Y0163898D01*
X0021636Y0164696D02*
X0124786Y0164696D01*
X0123835Y0165495D02*
X0022587Y0165495D01*
X0023155Y0166293D02*
X0123267Y0166293D01*
X0123627Y0165669D02*
X0123627Y0165669D01*
X0123627Y0165669D01*
X0122806Y0167092D02*
X0023616Y0167092D01*
X0024077Y0167890D02*
X0122345Y0167890D01*
X0121884Y0168689D02*
X0024538Y0168689D01*
X0024968Y0169432D02*
X0024968Y0169432D01*
X0024977Y0169487D02*
X0121445Y0169487D01*
X0121455Y0169432D02*
X0121455Y0169432D01*
X0121304Y0170286D02*
X0025118Y0170286D01*
X0025259Y0171084D02*
X0121163Y0171084D01*
X0121022Y0171883D02*
X0025400Y0171883D01*
X0025540Y0172681D02*
X0120882Y0172681D01*
X0120741Y0173480D02*
X0025681Y0173480D01*
X0025722Y0173711D02*
X0025722Y0173711D01*
X0025622Y0174278D02*
X0120800Y0174278D01*
X0120700Y0173711D02*
X0120700Y0173711D01*
X0120941Y0175077D02*
X0025481Y0175077D01*
X0025340Y0175875D02*
X0121082Y0175875D01*
X0121222Y0176674D02*
X0025200Y0176674D01*
X0025059Y0177472D02*
X0121363Y0177472D01*
X0121455Y0177990D02*
X0121455Y0177990D01*
X0121617Y0178271D02*
X0024805Y0178271D01*
X0024968Y0177990D02*
X0024968Y0177990D01*
X0024344Y0179070D02*
X0122078Y0179070D01*
X0122539Y0179868D02*
X0023883Y0179868D01*
X0023422Y0180667D02*
X0123000Y0180667D01*
X0123461Y0181465D02*
X0022961Y0181465D01*
X0022795Y0181753D02*
X0022795Y0181753D01*
X0022795Y0181753D01*
X0022186Y0182264D02*
X0124236Y0182264D01*
X0125187Y0183062D02*
X0021235Y0183062D01*
X0015692Y0161502D02*
X0130730Y0161502D01*
X0135692Y0161502D02*
X0142622Y0161502D01*
X0142622Y0162301D02*
X0137886Y0162301D01*
X0139467Y0162876D02*
X0139467Y0162876D01*
X0139732Y0163099D02*
X0142622Y0163099D01*
X0142622Y0163898D02*
X0140684Y0163898D01*
X0141636Y0164696D02*
X0142622Y0164696D01*
X0142587Y0165495D02*
X0142622Y0165495D01*
X0115859Y0156711D02*
X0100941Y0156711D01*
X0100864Y0156788D02*
X0099265Y0157450D01*
X0097535Y0157450D01*
X0095936Y0156788D01*
X0094712Y0155564D01*
X0094050Y0153965D01*
X0094050Y0152235D01*
X0094712Y0150636D01*
X0095936Y0149412D01*
X0097535Y0148750D01*
X0099265Y0148750D01*
X0100864Y0149412D01*
X0102088Y0150636D01*
X0102750Y0152235D01*
X0102750Y0153965D01*
X0102088Y0155564D01*
X0100864Y0156788D01*
X0101739Y0155913D02*
X0115061Y0155913D01*
X0114526Y0155114D02*
X0102274Y0155114D01*
X0102605Y0154316D02*
X0114195Y0154316D01*
X0114050Y0153517D02*
X0102750Y0153517D01*
X0102750Y0152719D02*
X0114050Y0152719D01*
X0114180Y0151920D02*
X0102620Y0151920D01*
X0102289Y0151122D02*
X0114017Y0151122D01*
X0113219Y0150323D02*
X0101775Y0150323D01*
X0100976Y0149525D02*
X0112420Y0149525D01*
X0111622Y0148726D02*
X0090100Y0148726D01*
X0090100Y0147928D02*
X0110823Y0147928D01*
X0110025Y0147129D02*
X0090100Y0147129D01*
X0090100Y0146331D02*
X0109226Y0146331D01*
X0108428Y0145532D02*
X0090100Y0145532D01*
X0090100Y0144734D02*
X0107629Y0144734D01*
X0095824Y0149525D02*
X0090976Y0149525D01*
X0091775Y0150323D02*
X0095025Y0150323D01*
X0094511Y0151122D02*
X0092289Y0151122D01*
X0092620Y0151920D02*
X0094180Y0151920D01*
X0094050Y0152719D02*
X0092750Y0152719D01*
X0092750Y0153517D02*
X0094050Y0153517D01*
X0094195Y0154316D02*
X0092605Y0154316D01*
X0092274Y0155114D02*
X0094526Y0155114D01*
X0095061Y0155913D02*
X0091739Y0155913D01*
X0090941Y0156711D02*
X0095859Y0156711D01*
X0086700Y0148726D02*
X0056430Y0148726D01*
X0056250Y0147928D02*
X0086700Y0147928D01*
X0086700Y0147129D02*
X0056250Y0147129D01*
X0056250Y0146331D02*
X0086700Y0146331D01*
X0086700Y0145532D02*
X0056250Y0145532D01*
X0056250Y0144734D02*
X0086700Y0144734D01*
X0086700Y0143935D02*
X0056250Y0143935D01*
X0056250Y0143137D02*
X0086700Y0143137D01*
X0086700Y0142338D02*
X0056250Y0142338D01*
X0056250Y0141539D02*
X0086700Y0141539D01*
X0086700Y0140741D02*
X0056250Y0140741D01*
X0056250Y0139942D02*
X0086700Y0139942D01*
X0086700Y0139144D02*
X0056250Y0139144D01*
X0056250Y0138345D02*
X0086700Y0138345D01*
X0086700Y0137547D02*
X0078359Y0137547D01*
X0078965Y0137296D02*
X0077584Y0137868D01*
X0076090Y0137868D01*
X0074709Y0137296D01*
X0073652Y0136239D01*
X0073080Y0134858D01*
X0073080Y0133363D01*
X0073652Y0131982D01*
X0074709Y0130925D01*
X0076090Y0130353D01*
X0077584Y0130353D01*
X0078965Y0130925D01*
X0080022Y0131982D01*
X0080594Y0133363D01*
X0080594Y0134858D01*
X0080022Y0136239D01*
X0078965Y0137296D01*
X0079513Y0136748D02*
X0086700Y0136748D01*
X0086700Y0135950D02*
X0080142Y0135950D01*
X0080473Y0135151D02*
X0086700Y0135151D01*
X0086349Y0134353D02*
X0080594Y0134353D01*
X0080594Y0133554D02*
X0082176Y0133554D01*
X0081378Y0132756D02*
X0080343Y0132756D01*
X0080579Y0131957D02*
X0079998Y0131957D01*
X0079781Y0131159D02*
X0079199Y0131159D01*
X0078982Y0130360D02*
X0077603Y0130360D01*
X0078184Y0129562D02*
X0056250Y0129562D01*
X0056250Y0130360D02*
X0076071Y0130360D01*
X0074475Y0131159D02*
X0056250Y0131159D01*
X0056250Y0131957D02*
X0073676Y0131957D01*
X0073331Y0132756D02*
X0056250Y0132756D01*
X0056250Y0133554D02*
X0073080Y0133554D01*
X0073080Y0134353D02*
X0056250Y0134353D01*
X0056250Y0135151D02*
X0073201Y0135151D01*
X0073532Y0135950D02*
X0056250Y0135950D01*
X0056250Y0136748D02*
X0074161Y0136748D01*
X0075315Y0137547D02*
X0056250Y0137547D01*
X0052850Y0139144D02*
X0030100Y0139144D01*
X0030100Y0139942D02*
X0052850Y0139942D01*
X0052850Y0140741D02*
X0030100Y0140741D01*
X0030100Y0141539D02*
X0052850Y0141539D01*
X0052850Y0142338D02*
X0030100Y0142338D01*
X0030100Y0143137D02*
X0052850Y0143137D01*
X0052850Y0143935D02*
X0030100Y0143935D01*
X0030100Y0144734D02*
X0052850Y0144734D01*
X0052850Y0145532D02*
X0030100Y0145532D01*
X0030100Y0146331D02*
X0052850Y0146331D01*
X0052850Y0147129D02*
X0030100Y0147129D01*
X0030100Y0147928D02*
X0052850Y0147928D01*
X0052850Y0148726D02*
X0030100Y0148726D01*
X0030976Y0149525D02*
X0035824Y0149525D01*
X0035936Y0149412D02*
X0037535Y0148750D01*
X0039265Y0148750D01*
X0040864Y0149412D01*
X0042088Y0150636D01*
X0042750Y0152235D01*
X0042750Y0153965D01*
X0042088Y0155564D01*
X0040864Y0156788D01*
X0039265Y0157450D01*
X0037535Y0157450D01*
X0035936Y0156788D01*
X0034712Y0155564D01*
X0034050Y0153965D01*
X0034050Y0152235D01*
X0034712Y0150636D01*
X0035936Y0149412D01*
X0035025Y0150323D02*
X0031775Y0150323D01*
X0032289Y0151122D02*
X0034511Y0151122D01*
X0034180Y0151920D02*
X0032620Y0151920D01*
X0032750Y0152719D02*
X0034050Y0152719D01*
X0034050Y0153517D02*
X0032750Y0153517D01*
X0032605Y0154316D02*
X0034195Y0154316D01*
X0034526Y0155114D02*
X0032274Y0155114D01*
X0031739Y0155913D02*
X0035061Y0155913D01*
X0035859Y0156711D02*
X0030941Y0156711D01*
X0040941Y0156711D02*
X0055859Y0156711D01*
X0055061Y0155913D02*
X0041739Y0155913D01*
X0042274Y0155114D02*
X0054526Y0155114D01*
X0054195Y0154316D02*
X0042605Y0154316D01*
X0042750Y0153517D02*
X0054050Y0153517D01*
X0054050Y0152719D02*
X0042750Y0152719D01*
X0042620Y0151920D02*
X0054180Y0151920D01*
X0054017Y0151122D02*
X0042289Y0151122D01*
X0041775Y0150323D02*
X0053219Y0150323D01*
X0052850Y0149525D02*
X0040976Y0149525D01*
X0047715Y0137547D02*
X0031157Y0137547D01*
X0031956Y0136748D02*
X0046561Y0136748D01*
X0045932Y0135950D02*
X0032754Y0135950D01*
X0033553Y0135151D02*
X0045601Y0135151D01*
X0045480Y0134353D02*
X0034351Y0134353D01*
X0035150Y0133554D02*
X0045480Y0133554D01*
X0045731Y0132756D02*
X0035948Y0132756D01*
X0036747Y0131957D02*
X0046076Y0131957D01*
X0046875Y0131159D02*
X0037545Y0131159D01*
X0035133Y0128763D02*
X0003800Y0128763D01*
X0003800Y0127965D02*
X0030944Y0127965D01*
X0029422Y0127166D02*
X0003800Y0127166D01*
X0003800Y0126368D02*
X0028640Y0126368D01*
X0028309Y0125569D02*
X0003800Y0125569D01*
X0003800Y0124771D02*
X0028080Y0124771D01*
X0028080Y0123972D02*
X0003800Y0123972D01*
X0003800Y0123174D02*
X0028223Y0123174D01*
X0028554Y0122375D02*
X0003800Y0122375D01*
X0003800Y0121577D02*
X0029214Y0121577D01*
X0030443Y0120778D02*
X0003800Y0120778D01*
X0003800Y0119980D02*
X0041229Y0119980D01*
X0040431Y0120778D02*
X0033231Y0120778D01*
X0034460Y0121577D02*
X0039632Y0121577D01*
X0038834Y0122375D02*
X0035120Y0122375D01*
X0035034Y0126368D02*
X0037528Y0126368D01*
X0036730Y0127166D02*
X0034252Y0127166D01*
X0032730Y0127965D02*
X0035931Y0127965D01*
X0042028Y0119181D02*
X0003800Y0119181D01*
X0003800Y0118383D02*
X0042826Y0118383D01*
X0043625Y0117584D02*
X0003800Y0117584D01*
X0003800Y0116786D02*
X0043900Y0116786D01*
X0043900Y0115987D02*
X0043166Y0115987D01*
X0043900Y0115189D02*
X0043900Y0115189D01*
X0043900Y0114390D02*
X0043900Y0114390D01*
X0043900Y0113592D02*
X0043900Y0113592D01*
X0043900Y0112793D02*
X0043641Y0112793D01*
X0041600Y0114300D02*
X0041600Y0111144D01*
X0039559Y0112793D02*
X0038841Y0112793D01*
X0039000Y0113592D02*
X0039300Y0113592D01*
X0039300Y0114390D02*
X0039000Y0114390D01*
X0039000Y0115189D02*
X0039300Y0115189D01*
X0040034Y0115987D02*
X0038366Y0115987D01*
X0036700Y0114400D02*
X0036700Y0111244D01*
X0036800Y0111144D01*
X0039150Y0111196D02*
X0039250Y0111196D01*
X0039250Y0110398D02*
X0039150Y0110398D01*
X0038944Y0109599D02*
X0039456Y0109599D01*
X0039250Y0108801D02*
X0039150Y0108801D01*
X0039150Y0108002D02*
X0039250Y0108002D01*
X0039250Y0107203D02*
X0039150Y0107203D01*
X0039150Y0106405D02*
X0039250Y0106405D01*
X0039948Y0105606D02*
X0038451Y0105606D01*
X0036800Y0107644D02*
X0036800Y0103144D01*
X0035148Y0105606D02*
X0033651Y0105606D01*
X0034350Y0106405D02*
X0034450Y0106405D01*
X0034450Y0107203D02*
X0034350Y0107203D01*
X0034350Y0108002D02*
X0034450Y0108002D01*
X0034450Y0108801D02*
X0034350Y0108801D01*
X0034144Y0109599D02*
X0034656Y0109599D01*
X0034450Y0110398D02*
X0034350Y0110398D01*
X0034350Y0111196D02*
X0034450Y0111196D01*
X0034450Y0111995D02*
X0034350Y0111995D01*
X0034146Y0112793D02*
X0034759Y0112793D01*
X0034400Y0113592D02*
X0034300Y0113592D01*
X0034300Y0114390D02*
X0034400Y0114390D01*
X0034400Y0115189D02*
X0033964Y0115189D01*
X0033166Y0115987D02*
X0035034Y0115987D01*
X0032000Y0113900D02*
X0032000Y0111144D01*
X0029650Y0111196D02*
X0029550Y0111196D01*
X0029550Y0110398D02*
X0029650Y0110398D01*
X0029856Y0109599D02*
X0029344Y0109599D01*
X0029550Y0108801D02*
X0029650Y0108801D01*
X0029650Y0108002D02*
X0029550Y0108002D01*
X0029550Y0107203D02*
X0029650Y0107203D01*
X0029650Y0106405D02*
X0029550Y0106405D01*
X0028851Y0105606D02*
X0030348Y0105606D01*
X0032000Y0107644D02*
X0032000Y0103144D01*
X0033868Y0100815D02*
X0034931Y0100815D01*
X0038668Y0100815D02*
X0039731Y0100815D01*
X0041600Y0103144D02*
X0041600Y0107644D01*
X0039250Y0111995D02*
X0039150Y0111995D01*
X0030834Y0115987D02*
X0003800Y0115987D01*
X0003800Y0115189D02*
X0030036Y0115189D01*
X0029700Y0114390D02*
X0003800Y0114390D01*
X0003800Y0113592D02*
X0029700Y0113592D01*
X0029854Y0112793D02*
X0029241Y0112793D01*
X0029550Y0111995D02*
X0029650Y0111995D01*
X0027200Y0111144D02*
X0026544Y0111144D01*
X0023900Y0108500D01*
X0023900Y0091400D01*
X0032500Y0082800D01*
X0033000Y0082800D01*
X0034000Y0081800D01*
X0034000Y0081700D01*
X0034000Y0081900D01*
X0034900Y0082800D01*
X0041400Y0082800D01*
X0041500Y0082900D01*
X0041844Y0082900D01*
X0041900Y0082844D01*
X0042100Y0083044D01*
X0042100Y0086100D01*
X0045294Y0089294D01*
X0054550Y0089294D01*
X0049174Y0097621D02*
X0048100Y0097621D01*
X0048100Y0098420D02*
X0048376Y0098420D01*
X0047577Y0099218D02*
X0047434Y0099218D01*
X0046779Y0100017D02*
X0025400Y0100017D01*
X0022400Y0100017D02*
X0003800Y0100017D01*
X0003800Y0100815D02*
X0022400Y0100815D01*
X0022400Y0101614D02*
X0012770Y0101614D01*
X0013050Y0101894D02*
X0012406Y0101250D01*
X0004994Y0101250D01*
X0004350Y0101894D01*
X0004350Y0109306D01*
X0004994Y0109950D01*
X0012406Y0109950D01*
X0013050Y0109306D01*
X0013050Y0101894D01*
X0013050Y0102412D02*
X0022400Y0102412D01*
X0022400Y0103211D02*
X0013050Y0103211D01*
X0013050Y0104009D02*
X0022400Y0104009D01*
X0022400Y0104808D02*
X0013050Y0104808D01*
X0013050Y0105606D02*
X0022400Y0105606D01*
X0022400Y0106405D02*
X0013050Y0106405D01*
X0013050Y0107203D02*
X0022400Y0107203D01*
X0022400Y0108002D02*
X0013050Y0108002D01*
X0013050Y0108801D02*
X0022400Y0108801D01*
X0022878Y0109599D02*
X0012757Y0109599D01*
X0004643Y0109599D02*
X0003800Y0109599D01*
X0003800Y0108801D02*
X0004350Y0108801D01*
X0004350Y0108002D02*
X0003800Y0108002D01*
X0003800Y0107203D02*
X0004350Y0107203D01*
X0004350Y0106405D02*
X0003800Y0106405D01*
X0003800Y0105606D02*
X0004350Y0105606D01*
X0004350Y0104808D02*
X0003800Y0104808D01*
X0003800Y0104009D02*
X0004350Y0104009D01*
X0004350Y0103211D02*
X0003800Y0103211D01*
X0003800Y0102412D02*
X0004350Y0102412D01*
X0004630Y0101614D02*
X0003800Y0101614D01*
X0003800Y0099218D02*
X0006167Y0099218D01*
X0006236Y0099288D02*
X0005012Y0098064D01*
X0004350Y0096465D01*
X0004350Y0094735D01*
X0005012Y0093136D01*
X0006236Y0091912D01*
X0007835Y0091250D01*
X0009565Y0091250D01*
X0011164Y0091912D01*
X0012388Y0093136D01*
X0013050Y0094735D01*
X0013050Y0096465D01*
X0012388Y0098064D01*
X0011164Y0099288D01*
X0009565Y0099950D01*
X0007835Y0099950D01*
X0006236Y0099288D01*
X0005368Y0098420D02*
X0003800Y0098420D01*
X0003800Y0097621D02*
X0004829Y0097621D01*
X0004498Y0096823D02*
X0003800Y0096823D01*
X0003800Y0096024D02*
X0004350Y0096024D01*
X0004350Y0095226D02*
X0003800Y0095226D01*
X0003800Y0094427D02*
X0004477Y0094427D01*
X0004808Y0093629D02*
X0003800Y0093629D01*
X0003800Y0092830D02*
X0005318Y0092830D01*
X0006116Y0092032D02*
X0003800Y0092032D01*
X0003800Y0091233D02*
X0022400Y0091233D01*
X0022400Y0092032D02*
X0011284Y0092032D01*
X0012082Y0092830D02*
X0022400Y0092830D01*
X0022400Y0093629D02*
X0012592Y0093629D01*
X0012923Y0094427D02*
X0022400Y0094427D01*
X0022400Y0095226D02*
X0013050Y0095226D01*
X0013050Y0096024D02*
X0022400Y0096024D01*
X0022400Y0096823D02*
X0012902Y0096823D01*
X0012571Y0097621D02*
X0022400Y0097621D01*
X0022400Y0098420D02*
X0012032Y0098420D01*
X0011233Y0099218D02*
X0022400Y0099218D01*
X0027200Y0103144D02*
X0027200Y0107644D01*
X0023676Y0110398D02*
X0003800Y0110398D01*
X0003800Y0111196D02*
X0024475Y0111196D01*
X0024850Y0111995D02*
X0003800Y0111995D01*
X0003800Y0112793D02*
X0025159Y0112793D01*
X0029068Y0100815D02*
X0030131Y0100815D01*
X0026987Y0090435D02*
X0044313Y0090435D01*
X0043515Y0089636D02*
X0027785Y0089636D01*
X0028584Y0088838D02*
X0042716Y0088838D01*
X0041918Y0088039D02*
X0029382Y0088039D01*
X0030181Y0087241D02*
X0041119Y0087241D01*
X0040600Y0086442D02*
X0030979Y0086442D01*
X0031778Y0085644D02*
X0040600Y0085644D01*
X0040211Y0084845D02*
X0032576Y0084845D01*
X0033000Y0082800D02*
X0034200Y0082800D01*
X0034000Y0082600D01*
X0034000Y0081700D01*
X0034000Y0053079D01*
X0042540Y0044539D01*
X0045039Y0044539D01*
X0043234Y0042524D02*
X0038140Y0042524D01*
X0037341Y0043323D02*
X0041635Y0043323D01*
X0040836Y0044121D02*
X0036543Y0044121D01*
X0035744Y0044920D02*
X0040038Y0044920D01*
X0039239Y0045718D02*
X0034946Y0045718D01*
X0034147Y0046517D02*
X0038441Y0046517D01*
X0037642Y0047315D02*
X0033349Y0047315D01*
X0032550Y0048114D02*
X0036844Y0048114D01*
X0036045Y0048912D02*
X0031752Y0048912D01*
X0030953Y0049711D02*
X0035247Y0049711D01*
X0034448Y0050509D02*
X0030155Y0050509D01*
X0029356Y0051308D02*
X0033650Y0051308D01*
X0033379Y0051579D02*
X0033379Y0051579D01*
X0032851Y0052106D02*
X0028558Y0052106D01*
X0027759Y0052905D02*
X0032500Y0052905D01*
X0032500Y0053703D02*
X0026961Y0053703D01*
X0026162Y0054502D02*
X0032500Y0054502D01*
X0032500Y0055300D02*
X0025364Y0055300D01*
X0024565Y0056099D02*
X0032500Y0056099D01*
X0032500Y0056897D02*
X0023767Y0056897D01*
X0023000Y0057696D02*
X0032500Y0057696D01*
X0032500Y0058494D02*
X0023000Y0058494D01*
X0023000Y0059293D02*
X0032500Y0059293D01*
X0032500Y0060091D02*
X0023000Y0060091D01*
X0023000Y0060890D02*
X0032500Y0060890D01*
X0032500Y0061688D02*
X0023000Y0061688D01*
X0023000Y0062487D02*
X0032500Y0062487D01*
X0032500Y0063285D02*
X0023000Y0063285D01*
X0023000Y0064084D02*
X0032500Y0064084D01*
X0032500Y0064882D02*
X0023000Y0064882D01*
X0023000Y0065681D02*
X0032500Y0065681D01*
X0032500Y0066479D02*
X0023000Y0066479D01*
X0023000Y0067278D02*
X0032500Y0067278D01*
X0032500Y0068076D02*
X0023000Y0068076D01*
X0023000Y0068875D02*
X0032500Y0068875D01*
X0032500Y0069673D02*
X0023000Y0069673D01*
X0023000Y0070472D02*
X0032500Y0070472D01*
X0032500Y0071270D02*
X0023000Y0071270D01*
X0023000Y0072069D02*
X0032500Y0072069D01*
X0032500Y0072868D02*
X0023000Y0072868D01*
X0023000Y0073666D02*
X0032500Y0073666D01*
X0032500Y0074465D02*
X0023000Y0074465D01*
X0023000Y0075263D02*
X0032500Y0075263D01*
X0032500Y0076062D02*
X0023000Y0076062D01*
X0023000Y0076860D02*
X0032500Y0076860D01*
X0032500Y0077659D02*
X0023000Y0077659D01*
X0023000Y0078457D02*
X0032500Y0078457D01*
X0032500Y0079256D02*
X0023000Y0079256D01*
X0023000Y0080054D02*
X0032500Y0080054D01*
X0032500Y0080853D02*
X0023000Y0080853D01*
X0023000Y0081651D02*
X0031528Y0081651D01*
X0030729Y0082450D02*
X0023000Y0082450D01*
X0022773Y0083248D02*
X0029931Y0083248D01*
X0029132Y0084047D02*
X0021975Y0084047D01*
X0021176Y0084845D02*
X0028333Y0084845D01*
X0027535Y0085644D02*
X0020378Y0085644D01*
X0019579Y0086442D02*
X0026736Y0086442D01*
X0025938Y0087241D02*
X0012729Y0087241D01*
X0012398Y0088039D02*
X0025139Y0088039D01*
X0024341Y0088838D02*
X0011614Y0088838D01*
X0010323Y0089636D02*
X0023542Y0089636D01*
X0022744Y0090435D02*
X0003800Y0090435D01*
X0003800Y0089636D02*
X0007077Y0089636D01*
X0005786Y0088838D02*
X0003800Y0088838D01*
X0003800Y0088039D02*
X0005002Y0088039D01*
X0004671Y0087241D02*
X0003800Y0087241D01*
X0003800Y0086442D02*
X0004350Y0086442D01*
X0004350Y0085644D02*
X0003800Y0085644D01*
X0003800Y0084845D02*
X0004350Y0084845D01*
X0004635Y0084047D02*
X0003800Y0084047D01*
X0003800Y0083248D02*
X0004966Y0083248D01*
X0005699Y0082450D02*
X0003800Y0082450D01*
X0003800Y0081651D02*
X0006866Y0081651D01*
X0006204Y0079256D02*
X0003800Y0079256D01*
X0003800Y0080054D02*
X0020000Y0080054D01*
X0020000Y0079256D02*
X0011196Y0079256D01*
X0011995Y0078457D02*
X0020000Y0078457D01*
X0020000Y0077659D02*
X0012556Y0077659D01*
X0014161Y0076860D02*
X0020000Y0076860D01*
X0020000Y0076062D02*
X0014960Y0076062D01*
X0015758Y0075263D02*
X0020000Y0075263D01*
X0020000Y0074465D02*
X0016557Y0074465D01*
X0017355Y0073666D02*
X0020000Y0073666D01*
X0020000Y0072868D02*
X0018154Y0072868D01*
X0018900Y0072069D02*
X0020000Y0072069D01*
X0020000Y0071270D02*
X0018900Y0071270D01*
X0018900Y0070472D02*
X0020000Y0070472D01*
X0020000Y0069673D02*
X0018900Y0069673D01*
X0018900Y0068875D02*
X0020000Y0068875D01*
X0020000Y0068076D02*
X0018900Y0068076D01*
X0018900Y0067278D02*
X0020000Y0067278D01*
X0020000Y0066479D02*
X0018900Y0066479D01*
X0018900Y0065681D02*
X0020000Y0065681D01*
X0020000Y0064882D02*
X0018900Y0064882D01*
X0018900Y0064084D02*
X0020000Y0064084D01*
X0020000Y0063285D02*
X0018900Y0063285D01*
X0018900Y0062487D02*
X0020000Y0062487D01*
X0020000Y0061688D02*
X0018900Y0061688D01*
X0018900Y0060890D02*
X0020000Y0060890D01*
X0020000Y0060091D02*
X0018900Y0060091D01*
X0019250Y0059293D02*
X0020000Y0059293D01*
X0021500Y0057043D02*
X0037955Y0040587D01*
X0045139Y0040587D01*
X0045139Y0037438D02*
X0038984Y0037438D01*
X0017400Y0059021D01*
X0017400Y0071500D01*
X0013300Y0075600D01*
X0008700Y0075600D01*
X0004793Y0073666D02*
X0003800Y0073666D01*
X0003800Y0072868D02*
X0005281Y0072868D01*
X0006079Y0072069D02*
X0003800Y0072069D01*
X0003800Y0071270D02*
X0007785Y0071270D01*
X0007167Y0069673D02*
X0003800Y0069673D01*
X0003800Y0068875D02*
X0005823Y0068875D01*
X0005025Y0068076D02*
X0003800Y0068076D01*
X0003800Y0067278D02*
X0004687Y0067278D01*
X0004356Y0066479D02*
X0003800Y0066479D01*
X0003800Y0065681D02*
X0004350Y0065681D01*
X0004350Y0064882D02*
X0003800Y0064882D01*
X0003800Y0064084D02*
X0004620Y0064084D01*
X0004950Y0063285D02*
X0003800Y0063285D01*
X0003800Y0062487D02*
X0005661Y0062487D01*
X0006776Y0061688D02*
X0003800Y0061688D01*
X0003800Y0060890D02*
X0011289Y0060890D01*
X0012087Y0060091D02*
X0003800Y0060091D01*
X0003800Y0059293D02*
X0006248Y0059293D01*
X0005442Y0058494D02*
X0003800Y0058494D01*
X0003800Y0057696D02*
X0004860Y0057696D01*
X0004529Y0056897D02*
X0003800Y0056897D01*
X0003800Y0056099D02*
X0004350Y0056099D01*
X0004350Y0055300D02*
X0003800Y0055300D01*
X0003800Y0054502D02*
X0004446Y0054502D01*
X0004777Y0053703D02*
X0003800Y0053703D01*
X0003800Y0052905D02*
X0005243Y0052905D01*
X0006042Y0052106D02*
X0003800Y0052106D01*
X0003800Y0051308D02*
X0007695Y0051308D01*
X0007257Y0049711D02*
X0003800Y0049711D01*
X0003800Y0050509D02*
X0011669Y0050509D01*
X0010871Y0051308D02*
X0009705Y0051308D01*
X0010143Y0049711D02*
X0012468Y0049711D01*
X0013266Y0048912D02*
X0011540Y0048912D01*
X0012338Y0048114D02*
X0014065Y0048114D01*
X0014864Y0047315D02*
X0012698Y0047315D01*
X0013029Y0046517D02*
X0015662Y0046517D01*
X0016461Y0045718D02*
X0013050Y0045718D01*
X0013257Y0044920D02*
X0017259Y0044920D01*
X0018058Y0044121D02*
X0014056Y0044121D01*
X0014854Y0043323D02*
X0018856Y0043323D01*
X0019655Y0042524D02*
X0015653Y0042524D01*
X0016451Y0041726D02*
X0020453Y0041726D01*
X0021252Y0040927D02*
X0017250Y0040927D01*
X0018048Y0040129D02*
X0022050Y0040129D01*
X0022849Y0039330D02*
X0018847Y0039330D01*
X0019645Y0038532D02*
X0023647Y0038532D01*
X0024446Y0037733D02*
X0020444Y0037733D01*
X0021242Y0036934D02*
X0025244Y0036934D01*
X0026043Y0036136D02*
X0022041Y0036136D01*
X0022839Y0035337D02*
X0026841Y0035337D01*
X0027640Y0034539D02*
X0023638Y0034539D01*
X0024436Y0033740D02*
X0028438Y0033740D01*
X0029237Y0032942D02*
X0025235Y0032942D01*
X0026034Y0032143D02*
X0030035Y0032143D01*
X0030834Y0031345D02*
X0026832Y0031345D01*
X0027631Y0030546D02*
X0031632Y0030546D01*
X0032431Y0029748D02*
X0028429Y0029748D01*
X0029228Y0028949D02*
X0073749Y0028949D01*
X0072951Y0028151D02*
X0030026Y0028151D01*
X0030825Y0027352D02*
X0056131Y0027352D01*
X0055333Y0026554D02*
X0031623Y0026554D01*
X0032422Y0025755D02*
X0054534Y0025755D01*
X0053440Y0029748D02*
X0074548Y0029748D01*
X0075346Y0030546D02*
X0053968Y0030546D01*
X0054767Y0031345D02*
X0076145Y0031345D01*
X0076700Y0032143D02*
X0055565Y0032143D01*
X0056364Y0032942D02*
X0076700Y0032942D01*
X0076700Y0033740D02*
X0061695Y0033740D01*
X0062259Y0034539D02*
X0076700Y0034539D01*
X0076700Y0035337D02*
X0062259Y0035337D01*
X0062259Y0036136D02*
X0076700Y0036136D01*
X0076700Y0036934D02*
X0062259Y0036934D01*
X0062259Y0037733D02*
X0076700Y0037733D01*
X0076700Y0038532D02*
X0062259Y0038532D01*
X0062259Y0039330D02*
X0076700Y0039330D01*
X0076700Y0040129D02*
X0062259Y0040129D01*
X0062259Y0040927D02*
X0076700Y0040927D01*
X0076700Y0041726D02*
X0062259Y0041726D01*
X0062259Y0042524D02*
X0076700Y0042524D01*
X0076700Y0043323D02*
X0062259Y0043323D01*
X0062259Y0044121D02*
X0076700Y0044121D01*
X0076700Y0044920D02*
X0062259Y0044920D01*
X0062259Y0045718D02*
X0076700Y0045718D01*
X0076700Y0046517D02*
X0062259Y0046517D01*
X0062259Y0047315D02*
X0076700Y0047315D01*
X0076700Y0048114D02*
X0062259Y0048114D01*
X0062259Y0048912D02*
X0076700Y0048912D01*
X0076700Y0049711D02*
X0076163Y0049711D01*
X0074037Y0049711D02*
X0067863Y0049711D01*
X0066800Y0051900D02*
X0075100Y0051900D01*
X0076549Y0053703D02*
X0076700Y0053703D01*
X0076700Y0054502D02*
X0062259Y0054502D01*
X0062259Y0055300D02*
X0076700Y0055300D01*
X0076700Y0056099D02*
X0062259Y0056099D01*
X0062259Y0056897D02*
X0077155Y0056897D01*
X0077953Y0057696D02*
X0062259Y0057696D01*
X0062259Y0058494D02*
X0078752Y0058494D01*
X0079550Y0059293D02*
X0062259Y0059293D01*
X0062259Y0060091D02*
X0079941Y0060091D01*
X0083305Y0053461D02*
X0087461Y0053461D01*
X0090400Y0056400D01*
X0090527Y0052300D02*
X0088500Y0052300D01*
X0087102Y0050902D01*
X0083305Y0050902D01*
X0083305Y0048343D02*
X0089744Y0048343D01*
X0090539Y0049138D01*
X0090539Y0052287D02*
X0090527Y0052300D01*
X0090539Y0045988D02*
X0090335Y0045783D01*
X0083305Y0045783D01*
X0083305Y0043224D02*
X0090154Y0043224D01*
X0090539Y0042839D01*
X0090627Y0039000D02*
X0088500Y0039000D01*
X0086835Y0040665D01*
X0083305Y0040665D01*
X0083305Y0038106D02*
X0086094Y0038106D01*
X0088300Y0035900D01*
X0090577Y0035900D01*
X0090639Y0035838D01*
X0090639Y0038987D02*
X0090627Y0039000D01*
X0085653Y0035547D02*
X0088600Y0032600D01*
X0090551Y0032600D01*
X0090639Y0032688D01*
X0090639Y0029539D02*
X0090601Y0029500D01*
X0088100Y0029500D01*
X0084612Y0032988D01*
X0083305Y0032988D01*
X0083305Y0035547D02*
X0085653Y0035547D01*
X0080803Y0026554D02*
X0080700Y0026554D01*
X0079908Y0025755D02*
X0081602Y0025755D01*
X0082401Y0024957D02*
X0077978Y0024957D01*
X0077180Y0024158D02*
X0087050Y0024158D01*
X0087050Y0023360D02*
X0076381Y0023360D01*
X0075500Y0024600D02*
X0078400Y0027500D01*
X0078689Y0030789D02*
X0083679Y0025800D01*
X0090726Y0025800D01*
X0093269Y0023257D01*
X0093269Y0021800D01*
X0086814Y0022561D02*
X0060487Y0022561D01*
X0060487Y0021763D02*
X0086700Y0021763D01*
X0086700Y0020964D02*
X0060487Y0020964D01*
X0060487Y0020166D02*
X0086700Y0020166D01*
X0086700Y0019367D02*
X0060487Y0019367D01*
X0060368Y0018569D02*
X0086700Y0018569D01*
X0075500Y0024600D02*
X0059800Y0024600D01*
X0058206Y0023006D01*
X0058206Y0021800D01*
X0052439Y0031139D02*
X0051061Y0031139D01*
X0052439Y0031139D02*
X0056848Y0035547D01*
X0058895Y0035547D01*
X0058895Y0038106D02*
X0056848Y0038106D01*
X0053029Y0034288D01*
X0051061Y0034288D01*
X0048681Y0034539D02*
X0047519Y0034539D01*
X0047519Y0035337D02*
X0048681Y0035337D01*
X0048681Y0036136D02*
X0047519Y0036136D01*
X0047519Y0036934D02*
X0048681Y0036934D01*
X0048681Y0037733D02*
X0047519Y0037733D01*
X0047519Y0038532D02*
X0048681Y0038532D01*
X0048681Y0039330D02*
X0047519Y0039330D01*
X0047519Y0040129D02*
X0048681Y0040129D01*
X0048681Y0040927D02*
X0047519Y0040927D01*
X0047519Y0041726D02*
X0048681Y0041726D01*
X0049156Y0042524D02*
X0047022Y0042524D01*
X0047419Y0043323D02*
X0048581Y0043323D01*
X0048581Y0044121D02*
X0047419Y0044121D01*
X0047419Y0044920D02*
X0048581Y0044920D01*
X0048581Y0045718D02*
X0047419Y0045718D01*
X0047419Y0046517D02*
X0048581Y0046517D01*
X0048581Y0047315D02*
X0047419Y0047315D01*
X0047419Y0048114D02*
X0048581Y0048114D01*
X0048581Y0048912D02*
X0047419Y0048912D01*
X0047419Y0049711D02*
X0048581Y0049711D01*
X0048581Y0050509D02*
X0047419Y0050509D01*
X0047419Y0051308D02*
X0048581Y0051308D01*
X0048581Y0052106D02*
X0047419Y0052106D01*
X0047419Y0052905D02*
X0048581Y0052905D01*
X0048581Y0053703D02*
X0047419Y0053703D01*
X0047419Y0054502D02*
X0048581Y0054502D01*
X0048581Y0055300D02*
X0047419Y0055300D01*
X0050961Y0053987D02*
X0054813Y0053987D01*
X0055400Y0053400D01*
X0058835Y0053400D01*
X0058895Y0053461D01*
X0058895Y0056020D02*
X0053780Y0056020D01*
X0050000Y0059800D01*
X0050000Y0064813D01*
X0054000Y0064713D02*
X0054000Y0061400D01*
X0054000Y0059800D01*
X0055221Y0058579D01*
X0058895Y0058579D01*
X0058895Y0061138D02*
X0058100Y0061933D01*
X0058100Y0064713D01*
X0058187Y0064800D01*
X0061500Y0064800D01*
X0062153Y0062487D02*
X0069260Y0062487D01*
X0068700Y0063285D02*
X0063238Y0063285D01*
X0063800Y0064084D02*
X0068512Y0064084D01*
X0067713Y0064882D02*
X0063800Y0064882D01*
X0063800Y0065681D02*
X0066915Y0065681D01*
X0056144Y0066479D02*
X0055923Y0066479D01*
X0062259Y0053703D02*
X0065351Y0053703D01*
X0064552Y0052905D02*
X0062259Y0052905D01*
X0062259Y0052106D02*
X0064500Y0052106D01*
X0064500Y0051308D02*
X0062259Y0051308D01*
X0062259Y0050509D02*
X0064938Y0050509D01*
X0065737Y0049711D02*
X0062259Y0049711D01*
X0058895Y0050902D02*
X0058831Y0050838D01*
X0050961Y0050838D01*
X0050961Y0047688D02*
X0054888Y0047688D01*
X0055500Y0048300D01*
X0058853Y0048300D01*
X0058895Y0048343D01*
X0058879Y0045800D02*
X0058895Y0045783D01*
X0058879Y0045800D02*
X0056100Y0045800D01*
X0054839Y0044539D01*
X0050961Y0044539D01*
X0051061Y0040587D02*
X0053287Y0040587D01*
X0055900Y0043200D01*
X0058871Y0043200D01*
X0058895Y0043224D01*
X0058861Y0040700D02*
X0056400Y0040700D01*
X0053138Y0037438D01*
X0051061Y0037438D01*
X0048681Y0033740D02*
X0047519Y0033740D01*
X0047519Y0032942D02*
X0048681Y0032942D01*
X0048681Y0032143D02*
X0047519Y0032143D01*
X0047519Y0031345D02*
X0048681Y0031345D01*
X0048681Y0030546D02*
X0047519Y0030546D01*
X0047519Y0029748D02*
X0048681Y0029748D01*
X0048094Y0024957D02*
X0033220Y0024957D01*
X0034019Y0024158D02*
X0048050Y0024158D01*
X0048050Y0023360D02*
X0034817Y0023360D01*
X0035616Y0022561D02*
X0047833Y0022561D01*
X0047731Y0021763D02*
X0036414Y0021763D01*
X0037213Y0020964D02*
X0047731Y0020964D01*
X0047731Y0020166D02*
X0038011Y0020166D01*
X0038810Y0019367D02*
X0047731Y0019367D01*
X0047623Y0018569D02*
X0039608Y0018569D01*
X0040407Y0017770D02*
X0046825Y0017770D01*
X0037844Y0012979D02*
X0025593Y0012979D01*
X0025710Y0013778D02*
X0037045Y0013778D01*
X0036247Y0014576D02*
X0025569Y0014576D01*
X0025429Y0015375D02*
X0035448Y0015375D01*
X0034650Y0016173D02*
X0025288Y0016173D01*
X0025147Y0016972D02*
X0033851Y0016972D01*
X0033053Y0017770D02*
X0025006Y0017770D01*
X0024968Y0017990D02*
X0024968Y0017990D01*
X0024633Y0018569D02*
X0032254Y0018569D01*
X0031456Y0019367D02*
X0024172Y0019367D01*
X0023711Y0020166D02*
X0030657Y0020166D01*
X0029859Y0020964D02*
X0023250Y0020964D01*
X0022795Y0021753D02*
X0022795Y0021753D01*
X0022795Y0021753D01*
X0022783Y0021763D02*
X0029060Y0021763D01*
X0028262Y0022561D02*
X0021832Y0022561D01*
X0020880Y0023360D02*
X0027463Y0023360D01*
X0026665Y0024158D02*
X0019928Y0024158D01*
X0018337Y0024957D02*
X0025866Y0024957D01*
X0025068Y0025755D02*
X0016144Y0025755D01*
X0020277Y0030546D02*
X0003800Y0030546D01*
X0003800Y0029748D02*
X0021075Y0029748D01*
X0021874Y0028949D02*
X0003800Y0028949D01*
X0003800Y0028151D02*
X0022672Y0028151D01*
X0023471Y0027352D02*
X0003800Y0027352D01*
X0003800Y0026554D02*
X0024269Y0026554D01*
X0019478Y0031345D02*
X0003800Y0031345D01*
X0003800Y0032143D02*
X0018680Y0032143D01*
X0017881Y0032942D02*
X0003800Y0032942D01*
X0003800Y0033740D02*
X0017083Y0033740D01*
X0016284Y0034539D02*
X0003800Y0034539D01*
X0003800Y0035337D02*
X0015486Y0035337D01*
X0014687Y0036136D02*
X0003800Y0036136D01*
X0003800Y0036934D02*
X0013889Y0036934D01*
X0013090Y0037733D02*
X0003800Y0037733D01*
X0003800Y0038532D02*
X0012292Y0038532D01*
X0011493Y0039330D02*
X0003800Y0039330D01*
X0003800Y0040129D02*
X0010695Y0040129D01*
X0009896Y0040927D02*
X0003800Y0040927D01*
X0003800Y0041726D02*
X0006687Y0041726D01*
X0005624Y0042524D02*
X0003800Y0042524D01*
X0003800Y0043323D02*
X0004935Y0043323D01*
X0004604Y0044121D02*
X0003800Y0044121D01*
X0003800Y0044920D02*
X0004350Y0044920D01*
X0004350Y0045718D02*
X0003800Y0045718D01*
X0003800Y0046517D02*
X0004371Y0046517D01*
X0004702Y0047315D02*
X0003800Y0047315D01*
X0003800Y0048114D02*
X0005062Y0048114D01*
X0005860Y0048912D02*
X0003800Y0048912D01*
X0008700Y0055600D02*
X0033161Y0031139D01*
X0045139Y0031139D01*
X0045139Y0034288D02*
X0040012Y0034288D01*
X0008700Y0065600D01*
X0010233Y0069673D02*
X0015900Y0069673D01*
X0015900Y0068875D02*
X0011577Y0068875D01*
X0012375Y0068076D02*
X0015900Y0068076D01*
X0015900Y0067278D02*
X0012713Y0067278D01*
X0013044Y0066479D02*
X0015900Y0066479D01*
X0015900Y0065681D02*
X0013050Y0065681D01*
X0013050Y0064882D02*
X0015900Y0064882D01*
X0015900Y0064084D02*
X0012780Y0064084D01*
X0013136Y0063285D02*
X0015900Y0063285D01*
X0015900Y0062487D02*
X0013934Y0062487D01*
X0014733Y0061688D02*
X0015900Y0061688D01*
X0015900Y0060890D02*
X0015531Y0060890D01*
X0013684Y0058494D02*
X0011958Y0058494D01*
X0012540Y0057696D02*
X0014483Y0057696D01*
X0015281Y0056897D02*
X0012871Y0056897D01*
X0013050Y0056099D02*
X0016080Y0056099D01*
X0016878Y0055300D02*
X0013050Y0055300D01*
X0012953Y0054502D02*
X0017677Y0054502D01*
X0018475Y0053703D02*
X0012718Y0053703D01*
X0013517Y0052905D02*
X0019274Y0052905D01*
X0020072Y0052106D02*
X0014315Y0052106D01*
X0015114Y0051308D02*
X0020871Y0051308D01*
X0021669Y0050509D02*
X0015912Y0050509D01*
X0016711Y0049711D02*
X0022468Y0049711D01*
X0023266Y0048912D02*
X0017509Y0048912D01*
X0018308Y0048114D02*
X0024065Y0048114D01*
X0024864Y0047315D02*
X0019106Y0047315D01*
X0019905Y0046517D02*
X0025662Y0046517D01*
X0026461Y0045718D02*
X0020703Y0045718D01*
X0021502Y0044920D02*
X0027259Y0044920D01*
X0028058Y0044121D02*
X0022300Y0044121D01*
X0023099Y0043323D02*
X0028856Y0043323D01*
X0029655Y0042524D02*
X0023897Y0042524D01*
X0024696Y0041726D02*
X0030453Y0041726D01*
X0031252Y0040927D02*
X0025494Y0040927D01*
X0026293Y0040129D02*
X0032050Y0040129D01*
X0032849Y0039330D02*
X0027091Y0039330D01*
X0027890Y0038532D02*
X0033647Y0038532D01*
X0034446Y0037733D02*
X0028688Y0037733D01*
X0029487Y0036934D02*
X0035244Y0036934D01*
X0036043Y0036136D02*
X0030285Y0036136D01*
X0031084Y0035337D02*
X0036841Y0035337D01*
X0037640Y0034539D02*
X0031882Y0034539D01*
X0032681Y0033740D02*
X0038438Y0033740D01*
X0039237Y0032942D02*
X0033479Y0032942D01*
X0041512Y0047688D02*
X0035500Y0053700D01*
X0041512Y0047688D02*
X0045039Y0047688D01*
X0058861Y0040700D02*
X0058895Y0040665D01*
X0068249Y0053703D02*
X0073651Y0053703D01*
X0091400Y0070513D02*
X0089313Y0072600D01*
X0089300Y0072600D01*
X0076057Y0092032D02*
X0072784Y0092032D01*
X0075690Y0101614D02*
X0076114Y0101614D01*
X0075676Y0102412D02*
X0074892Y0102412D01*
X0074400Y0103211D02*
X0075550Y0103211D01*
X0075550Y0104009D02*
X0074400Y0104009D01*
X0074400Y0104808D02*
X0075550Y0104808D01*
X0075550Y0105606D02*
X0074400Y0105606D01*
X0074400Y0106405D02*
X0075905Y0106405D01*
X0075885Y0107203D02*
X0074400Y0107203D01*
X0074400Y0108002D02*
X0075194Y0108002D01*
X0059790Y0111995D02*
X0059106Y0111995D01*
X0059650Y0112793D02*
X0059800Y0112793D01*
X0059800Y0113592D02*
X0059650Y0113592D01*
X0059650Y0114390D02*
X0059800Y0114390D01*
X0059800Y0115189D02*
X0059650Y0115189D01*
X0059650Y0115987D02*
X0059800Y0115987D01*
X0049994Y0111995D02*
X0049200Y0111995D01*
X0049200Y0112793D02*
X0049450Y0112793D01*
X0049450Y0113592D02*
X0049200Y0113592D01*
X0049200Y0114390D02*
X0049450Y0114390D01*
X0049450Y0115189D02*
X0049200Y0115189D01*
X0049200Y0115987D02*
X0049450Y0115987D01*
X0049596Y0111196D02*
X0049200Y0111196D01*
X0049200Y0110398D02*
X0049450Y0110398D01*
X0049450Y0109599D02*
X0049200Y0109599D01*
X0049200Y0108801D02*
X0049450Y0108801D01*
X0049450Y0108002D02*
X0049200Y0108002D01*
X0049200Y0107203D02*
X0049785Y0107203D01*
X0049576Y0102412D02*
X0049192Y0102412D01*
X0049990Y0101614D02*
X0050014Y0101614D01*
X0045980Y0100815D02*
X0043468Y0100815D01*
X0044267Y0101614D02*
X0045182Y0101614D01*
X0044383Y0102412D02*
X0044275Y0102412D01*
X0041500Y0082900D02*
X0040600Y0082900D01*
X0034900Y0082800D02*
X0034200Y0082800D01*
X0043323Y0070472D02*
X0043519Y0070472D01*
X0021500Y0082400D02*
X0021500Y0057043D01*
X0012886Y0059293D02*
X0011152Y0059293D01*
X0015900Y0070472D02*
X0003800Y0070472D01*
X0003800Y0074465D02*
X0004462Y0074465D01*
X0004350Y0075263D02*
X0003800Y0075263D01*
X0003800Y0076062D02*
X0004350Y0076062D01*
X0004514Y0076860D02*
X0003800Y0076860D01*
X0003800Y0077659D02*
X0004844Y0077659D01*
X0005405Y0078457D02*
X0003800Y0078457D01*
X0003800Y0080853D02*
X0020000Y0080853D01*
X0020000Y0081651D02*
X0010534Y0081651D01*
X0011701Y0082450D02*
X0019329Y0082450D01*
X0018531Y0083248D02*
X0012434Y0083248D01*
X0012765Y0084047D02*
X0017732Y0084047D01*
X0018300Y0085600D02*
X0008700Y0085600D01*
X0012607Y0073666D02*
X0013113Y0073666D01*
X0013911Y0072868D02*
X0012119Y0072868D01*
X0011321Y0072069D02*
X0014710Y0072069D01*
X0015508Y0071270D02*
X0009615Y0071270D01*
X0021500Y0082400D02*
X0018300Y0085600D01*
X0010278Y0025755D02*
X0003800Y0025755D01*
X0003800Y0024957D02*
X0008085Y0024957D01*
X0006494Y0024158D02*
X0003800Y0024158D01*
X0003800Y0023360D02*
X0005542Y0023360D01*
X0004590Y0022561D02*
X0003800Y0022561D01*
X0023327Y0006591D02*
X0123095Y0006591D01*
X0123556Y0005793D02*
X0022866Y0005793D01*
X0021991Y0004994D02*
X0124432Y0004994D01*
X0123627Y0005669D02*
X0123627Y0005669D01*
X0123627Y0005669D01*
X0122634Y0007390D02*
X0023788Y0007390D01*
X0024249Y0008188D02*
X0122173Y0008188D01*
X0121712Y0008987D02*
X0024710Y0008987D01*
X0024968Y0009432D02*
X0024968Y0009432D01*
X0025030Y0009785D02*
X0121392Y0009785D01*
X0121455Y0009432D02*
X0121455Y0009432D01*
X0121251Y0010584D02*
X0025171Y0010584D01*
X0025311Y0011382D02*
X0121111Y0011382D01*
X0120970Y0012181D02*
X0025452Y0012181D01*
X0090100Y0134904D02*
X0090100Y0134904D01*
X0090100Y0135151D02*
X0090100Y0135151D01*
X0090100Y0135950D02*
X0090100Y0135950D01*
X0090100Y0136748D02*
X0090100Y0136748D01*
X0090100Y0137547D02*
X0090100Y0137547D01*
X0090100Y0138345D02*
X0090100Y0138345D01*
X0090100Y0139144D02*
X0090100Y0139144D01*
X0090100Y0139942D02*
X0090100Y0139942D01*
X0090100Y0140741D02*
X0090737Y0140741D01*
X0090100Y0141539D02*
X0091535Y0141539D01*
X0092334Y0142338D02*
X0090100Y0142338D01*
X0090100Y0143137D02*
X0093132Y0143137D01*
X0093200Y0143204D02*
X0093200Y0143204D01*
X0093931Y0143935D02*
X0090100Y0143935D01*
X0085824Y0149525D02*
X0070976Y0149525D01*
X0070864Y0149412D02*
X0072088Y0150636D01*
X0072750Y0152235D01*
X0072750Y0153965D01*
X0072088Y0155564D01*
X0070864Y0156788D01*
X0069265Y0157450D01*
X0067535Y0157450D01*
X0065936Y0156788D01*
X0064712Y0155564D01*
X0064050Y0153965D01*
X0064050Y0152235D01*
X0064712Y0150636D01*
X0065936Y0149412D01*
X0067535Y0148750D01*
X0069265Y0148750D01*
X0070864Y0149412D01*
X0071775Y0150323D02*
X0085025Y0150323D01*
X0084511Y0151122D02*
X0072289Y0151122D01*
X0072620Y0151920D02*
X0084180Y0151920D01*
X0084050Y0152719D02*
X0072750Y0152719D01*
X0072750Y0153517D02*
X0084050Y0153517D01*
X0084195Y0154316D02*
X0072605Y0154316D01*
X0072274Y0155114D02*
X0084526Y0155114D01*
X0085061Y0155913D02*
X0071739Y0155913D01*
X0070941Y0156711D02*
X0085859Y0156711D01*
X0065859Y0156711D02*
X0060941Y0156711D01*
X0061739Y0155913D02*
X0065061Y0155913D01*
X0064526Y0155114D02*
X0062274Y0155114D01*
X0062605Y0154316D02*
X0064195Y0154316D01*
X0064050Y0153517D02*
X0062750Y0153517D01*
X0062750Y0152719D02*
X0064050Y0152719D01*
X0064180Y0151920D02*
X0062620Y0151920D01*
X0062289Y0151122D02*
X0064511Y0151122D01*
X0065025Y0150323D02*
X0061775Y0150323D01*
X0060976Y0149525D02*
X0065824Y0149525D01*
X0134260Y0100017D02*
X0142622Y0100017D01*
X0142622Y0100815D02*
X0135059Y0100815D01*
X0135857Y0101614D02*
X0135978Y0101614D01*
X0135096Y0080853D02*
X0142622Y0080853D01*
X0142622Y0078457D02*
X0141017Y0078457D01*
X0141578Y0077659D02*
X0142622Y0077659D01*
X0142622Y0076860D02*
X0141909Y0076860D01*
X0142072Y0076062D02*
X0142622Y0076062D01*
X0142622Y0075263D02*
X0142072Y0075263D01*
X0141960Y0074465D02*
X0142622Y0074465D01*
X0142622Y0070472D02*
X0134715Y0070472D01*
X0135514Y0071270D02*
X0136807Y0071270D01*
D25*
X0114437Y0124268D02*
X0110005Y0128700D01*
X0085100Y0128700D01*
X0080650Y0124250D01*
X0080650Y0114294D01*
X0080650Y0109294D02*
X0076306Y0109294D01*
X0074600Y0111000D01*
X0074600Y0116200D01*
X0078300Y0119900D01*
X0078300Y0124587D01*
X0084313Y0130600D01*
X0088200Y0130600D01*
X0091800Y0134200D01*
X0091800Y0139400D01*
X0094900Y0142500D01*
X0107800Y0142500D01*
X0118400Y0153100D01*
X0088400Y0153100D02*
X0088400Y0134000D01*
X0086900Y0132500D01*
X0083526Y0132500D01*
X0075863Y0124837D01*
X0075863Y0120663D01*
X0072700Y0117500D01*
X0072700Y0102200D01*
X0075606Y0099294D01*
X0080650Y0099294D01*
X0080650Y0104294D02*
X0085194Y0104294D01*
X0086800Y0105900D01*
X0086800Y0124231D01*
X0086837Y0124268D01*
X0089606Y0094400D02*
X0090000Y0094400D01*
X0093100Y0080744D02*
X0093244Y0080600D01*
X0071000Y0064000D02*
X0066900Y0068100D01*
X0058213Y0068100D01*
X0058100Y0068213D01*
X0050000Y0068313D02*
X0050000Y0070500D01*
X0048300Y0072200D01*
X0042647Y0072200D01*
X0040373Y0069927D01*
X0040373Y0065927D01*
X0042850Y0063450D01*
X0049906Y0099294D02*
X0045600Y0103600D01*
X0045600Y0118013D01*
X0039345Y0124268D01*
X0031837Y0124268D01*
X0028400Y0137900D02*
X0047500Y0118800D01*
X0047500Y0106400D01*
X0049700Y0104200D01*
X0054456Y0104200D01*
X0054550Y0104294D01*
X0054550Y0099294D02*
X0049906Y0099294D01*
X0054550Y0109294D02*
X0059494Y0109294D01*
X0061500Y0111300D01*
X0061500Y0122005D01*
X0059237Y0124268D01*
X0054550Y0114294D02*
X0054550Y0149250D01*
X0058400Y0153100D01*
X0028400Y0153100D02*
X0028400Y0137900D01*
X0046700Y0022106D02*
X0046394Y0021800D01*
D26*
X0046700Y0006800D03*
X0057100Y0007000D03*
X0067600Y0015100D03*
X0071000Y0015100D03*
X0074500Y0015100D03*
X0077700Y0021900D03*
X0078400Y0027500D03*
X0084000Y0028900D03*
X0075100Y0034000D03*
X0064800Y0034100D03*
X0066800Y0051900D03*
X0065500Y0059500D03*
X0061500Y0064800D03*
X0058200Y0071800D03*
X0050100Y0080300D03*
X0048700Y0084294D03*
X0045700Y0092300D03*
X0045800Y0097600D03*
X0041600Y0114300D03*
X0036700Y0114400D03*
X0032000Y0113900D03*
X0014200Y0099300D03*
X0015800Y0090400D03*
X0015900Y0080800D03*
X0013600Y0070200D03*
X0017000Y0051800D03*
X0012300Y0027800D03*
X0042850Y0063450D03*
X0045600Y0069300D03*
X0054000Y0061400D03*
X0071000Y0064000D03*
X0075400Y0059500D03*
X0075100Y0051900D03*
X0088000Y0063600D03*
X0091600Y0056400D03*
X0089300Y0072600D03*
X0083600Y0076600D03*
X0086300Y0084294D03*
X0075400Y0089100D03*
X0071700Y0094200D03*
X0064000Y0089900D03*
X0072100Y0071700D03*
X0099100Y0072700D03*
X0109600Y0082800D03*
X0120100Y0078600D03*
X0127500Y0070500D03*
X0127600Y0060600D03*
X0127500Y0050700D03*
X0127500Y0040500D03*
X0129400Y0032100D03*
X0134600Y0028100D03*
X0096800Y0006800D03*
X0085300Y0006700D03*
X0071800Y0006800D03*
X0127100Y0100600D03*
X0117100Y0112100D03*
X0114000Y0103900D03*
X0138200Y0113600D03*
D27*
X0121122Y0094100D02*
X0115400Y0094100D01*
X0115600Y0093900D01*
X0115600Y0081300D01*
X0110900Y0076600D01*
X0083600Y0076600D01*
X0083600Y0072363D01*
X0083100Y0071863D01*
X0083100Y0066263D01*
X0098878Y0094100D02*
X0115400Y0094100D01*
X0089331Y0021800D02*
X0089300Y0021769D01*
X0089300Y0017100D01*
X0087300Y0015100D01*
X0074500Y0015100D01*
X0067600Y0015100D01*
X0052831Y0015100D01*
X0050331Y0017600D01*
X0047831Y0015100D01*
X0039400Y0015100D01*
X0008900Y0045600D01*
X0008700Y0045600D01*
X0047831Y0015100D02*
X0051000Y0015100D01*
X0050331Y0015769D01*
X0050331Y0017600D01*
X0050331Y0021800D01*
X0051000Y0015100D02*
X0052831Y0015100D01*
D28*
X0083305Y0061138D02*
X0083100Y0061343D01*
X0083100Y0066263D01*
X0080650Y0094294D02*
X0071794Y0094294D01*
X0071700Y0094200D01*
X0080650Y0094294D02*
X0089500Y0094294D01*
X0089606Y0094400D01*
X0098878Y0103672D01*
X0098878Y0103943D01*
X0102635Y0107700D01*
X0117300Y0107700D01*
X0121057Y0103943D01*
X0121122Y0103943D01*
X0121200Y0104020D01*
X0121200Y0126700D01*
X0113790Y0134110D01*
X0104437Y0134110D01*
X0050100Y0080300D02*
X0049244Y0079444D01*
X0046000Y0079444D01*
X0042000Y0079444D01*
X0041900Y0079344D01*
X0041644Y0097600D02*
X0041600Y0097644D01*
X0036800Y0097644D01*
X0032000Y0097644D01*
X0027200Y0097644D01*
X0041644Y0097600D02*
X0045800Y0097600D01*
M02*
