%
M48
M72
T01C0.01200
T02C0.03150
T03C0.03346
T04C0.03500
T05C0.11811
%
T01
X12300Y27800
X17000Y51800
X13600Y70200
X15900Y80800
X15800Y90400
X14200Y99300
X32000Y113900
X36700Y114400
X41600Y114300
X45800Y97600
X45700Y92300
X48700Y84294
X50100Y80300
X58200Y71800
X61500Y64800
X65500Y59500
X71000Y64000
X75400Y59500
X75100Y51900
X66800Y51900
X54000Y61400
X45600Y69300
X42850Y63450
X64000Y89900
X71700Y94200
X75400Y89100
X86300Y84294
X83600Y76600
X89300Y72600
X88000Y63600
X91600Y56400
X99100Y72700
X109600Y82800
X120100Y78600
X127500Y70500
X127600Y60600
X127500Y50700
X127500Y40500
X129400Y32100
X134600Y28100
X96800Y6800
X85300Y6700
X74500Y15100
X71000Y15100
X67600Y15100
X71800Y6800
X77700Y21900
X78400Y27500
X84000Y28900
X75100Y34000
X64800Y34100
X57100Y7000
X46700Y6800
X72100Y71700
X114000Y103900
X117100Y112100
X127100Y100600
X138200Y113600
T02
X124437Y134110
X114437Y124268
X104437Y134110
X96837Y134110
X86837Y124268
X76837Y134110
X69237Y134110
X59237Y124268
X49237Y134110
X41837Y134110
X31837Y124268
X21837Y134110
T03
X110000Y100006
X110000Y88194
T04
X137722Y85600
X137722Y75600
X137722Y65600
X137722Y55600
X137722Y45600
X137722Y35600
X137722Y95600
X137722Y105600
X128400Y153100
X118400Y153100
X108400Y153100
X98400Y153100
X88400Y153100
X78400Y153100
X68400Y153100
X58400Y153100
X48400Y153100
X38400Y153100
X28400Y153100
X18400Y153100
X8700Y105600
X8700Y95600
X8700Y85600
X8700Y75600
X8700Y65600
X8700Y55600
X8700Y45600
X8700Y35600
T05
X13211Y13711
X133211Y13711
X133211Y173711
X13211Y173711
M30
