G75*
%MOIN*%
%OFA0B0*%
%FSLAX25Y25*%
%IPPOS*%
%LPD*%
%AMOC8*
5,1,8,0,0,1.08239X$1,22.5*
%
%ADD10C,0.00000*%
%ADD11C,0.01250*%
%ADD12C,0.00875*%
%ADD13R,0.02559X0.01969*%
%ADD14R,0.04528X0.01575*%
%ADD15R,0.08000X0.02600*%
%ADD16C,0.00625*%
%ADD17R,0.02362X0.05315*%
%ADD18R,0.04724X0.07874*%
%ADD19R,0.04528X0.03937*%
D10*
X0007306Y0001900D02*
X0139117Y0001900D01*
X0139269Y0001902D01*
X0139421Y0001908D01*
X0139573Y0001918D01*
X0139724Y0001931D01*
X0139875Y0001949D01*
X0140026Y0001970D01*
X0140176Y0001996D01*
X0140325Y0002025D01*
X0140474Y0002058D01*
X0140621Y0002095D01*
X0140768Y0002135D01*
X0140913Y0002180D01*
X0141057Y0002228D01*
X0141200Y0002280D01*
X0141342Y0002335D01*
X0141482Y0002394D01*
X0141621Y0002457D01*
X0141758Y0002523D01*
X0141893Y0002593D01*
X0142026Y0002666D01*
X0142157Y0002743D01*
X0142287Y0002823D01*
X0142414Y0002906D01*
X0142539Y0002992D01*
X0142662Y0003082D01*
X0142782Y0003175D01*
X0142900Y0003271D01*
X0143016Y0003370D01*
X0143129Y0003472D01*
X0143239Y0003576D01*
X0143347Y0003684D01*
X0143451Y0003794D01*
X0143553Y0003907D01*
X0143652Y0004023D01*
X0143748Y0004141D01*
X0143841Y0004261D01*
X0143931Y0004384D01*
X0144017Y0004509D01*
X0144100Y0004636D01*
X0144180Y0004766D01*
X0144257Y0004897D01*
X0144330Y0005030D01*
X0144400Y0005165D01*
X0144466Y0005302D01*
X0144529Y0005441D01*
X0144588Y0005581D01*
X0144643Y0005723D01*
X0144695Y0005866D01*
X0144743Y0006010D01*
X0144788Y0006155D01*
X0144828Y0006302D01*
X0144865Y0006449D01*
X0144898Y0006598D01*
X0144927Y0006747D01*
X0144953Y0006897D01*
X0144974Y0007048D01*
X0144992Y0007199D01*
X0145005Y0007350D01*
X0145015Y0007502D01*
X0145021Y0007654D01*
X0145023Y0007806D01*
X0145022Y0007806D02*
X0145022Y0179617D01*
X0145023Y0179617D02*
X0145021Y0179769D01*
X0145015Y0179921D01*
X0145005Y0180073D01*
X0144992Y0180224D01*
X0144974Y0180375D01*
X0144953Y0180526D01*
X0144927Y0180676D01*
X0144898Y0180825D01*
X0144865Y0180974D01*
X0144828Y0181121D01*
X0144788Y0181268D01*
X0144743Y0181413D01*
X0144695Y0181557D01*
X0144643Y0181700D01*
X0144588Y0181842D01*
X0144529Y0181982D01*
X0144466Y0182121D01*
X0144400Y0182258D01*
X0144330Y0182393D01*
X0144257Y0182526D01*
X0144180Y0182657D01*
X0144100Y0182787D01*
X0144017Y0182914D01*
X0143931Y0183039D01*
X0143841Y0183162D01*
X0143748Y0183282D01*
X0143652Y0183400D01*
X0143553Y0183516D01*
X0143451Y0183629D01*
X0143347Y0183739D01*
X0143239Y0183847D01*
X0143129Y0183951D01*
X0143016Y0184053D01*
X0142900Y0184152D01*
X0142782Y0184248D01*
X0142662Y0184341D01*
X0142539Y0184431D01*
X0142414Y0184517D01*
X0142287Y0184600D01*
X0142157Y0184680D01*
X0142026Y0184757D01*
X0141893Y0184830D01*
X0141758Y0184900D01*
X0141621Y0184966D01*
X0141482Y0185029D01*
X0141342Y0185088D01*
X0141200Y0185143D01*
X0141057Y0185195D01*
X0140913Y0185243D01*
X0140768Y0185288D01*
X0140621Y0185328D01*
X0140474Y0185365D01*
X0140325Y0185398D01*
X0140176Y0185427D01*
X0140026Y0185453D01*
X0139875Y0185474D01*
X0139724Y0185492D01*
X0139573Y0185505D01*
X0139421Y0185515D01*
X0139269Y0185521D01*
X0139117Y0185523D01*
X0139117Y0185522D02*
X0007306Y0185522D01*
X0007306Y0185523D02*
X0007154Y0185521D01*
X0007002Y0185515D01*
X0006850Y0185505D01*
X0006699Y0185492D01*
X0006548Y0185474D01*
X0006397Y0185453D01*
X0006247Y0185427D01*
X0006098Y0185398D01*
X0005949Y0185365D01*
X0005802Y0185328D01*
X0005655Y0185288D01*
X0005510Y0185243D01*
X0005366Y0185195D01*
X0005223Y0185143D01*
X0005081Y0185088D01*
X0004941Y0185029D01*
X0004802Y0184966D01*
X0004665Y0184900D01*
X0004530Y0184830D01*
X0004397Y0184757D01*
X0004266Y0184680D01*
X0004136Y0184600D01*
X0004009Y0184517D01*
X0003884Y0184431D01*
X0003761Y0184341D01*
X0003641Y0184248D01*
X0003523Y0184152D01*
X0003407Y0184053D01*
X0003294Y0183951D01*
X0003184Y0183847D01*
X0003076Y0183739D01*
X0002972Y0183629D01*
X0002870Y0183516D01*
X0002771Y0183400D01*
X0002675Y0183282D01*
X0002582Y0183162D01*
X0002492Y0183039D01*
X0002406Y0182914D01*
X0002323Y0182787D01*
X0002243Y0182657D01*
X0002166Y0182526D01*
X0002093Y0182393D01*
X0002023Y0182258D01*
X0001957Y0182121D01*
X0001894Y0181982D01*
X0001835Y0181842D01*
X0001780Y0181700D01*
X0001728Y0181557D01*
X0001680Y0181413D01*
X0001635Y0181268D01*
X0001595Y0181121D01*
X0001558Y0180974D01*
X0001525Y0180825D01*
X0001496Y0180676D01*
X0001470Y0180526D01*
X0001449Y0180375D01*
X0001431Y0180224D01*
X0001418Y0180073D01*
X0001408Y0179921D01*
X0001402Y0179769D01*
X0001400Y0179617D01*
X0001400Y0007806D01*
X0001402Y0007654D01*
X0001408Y0007502D01*
X0001418Y0007350D01*
X0001431Y0007199D01*
X0001449Y0007048D01*
X0001470Y0006897D01*
X0001496Y0006747D01*
X0001525Y0006598D01*
X0001558Y0006449D01*
X0001595Y0006302D01*
X0001635Y0006155D01*
X0001680Y0006010D01*
X0001728Y0005866D01*
X0001780Y0005723D01*
X0001835Y0005581D01*
X0001894Y0005441D01*
X0001957Y0005302D01*
X0002023Y0005165D01*
X0002093Y0005030D01*
X0002166Y0004897D01*
X0002243Y0004766D01*
X0002323Y0004636D01*
X0002406Y0004509D01*
X0002492Y0004384D01*
X0002582Y0004261D01*
X0002675Y0004141D01*
X0002771Y0004023D01*
X0002870Y0003907D01*
X0002972Y0003794D01*
X0003076Y0003684D01*
X0003184Y0003576D01*
X0003294Y0003472D01*
X0003407Y0003370D01*
X0003523Y0003271D01*
X0003641Y0003175D01*
X0003761Y0003082D01*
X0003884Y0002992D01*
X0004009Y0002906D01*
X0004136Y0002823D01*
X0004266Y0002743D01*
X0004397Y0002666D01*
X0004530Y0002593D01*
X0004665Y0002523D01*
X0004802Y0002457D01*
X0004941Y0002394D01*
X0005081Y0002335D01*
X0005223Y0002280D01*
X0005366Y0002228D01*
X0005510Y0002180D01*
X0005655Y0002135D01*
X0005802Y0002095D01*
X0005949Y0002058D01*
X0006098Y0002025D01*
X0006247Y0001996D01*
X0006397Y0001970D01*
X0006548Y0001949D01*
X0006699Y0001931D01*
X0006850Y0001918D01*
X0007002Y0001908D01*
X0007154Y0001902D01*
X0007306Y0001900D01*
X0007305Y0013711D02*
X0007307Y0013864D01*
X0007313Y0014018D01*
X0007323Y0014171D01*
X0007337Y0014323D01*
X0007355Y0014476D01*
X0007377Y0014627D01*
X0007402Y0014778D01*
X0007432Y0014929D01*
X0007466Y0015079D01*
X0007503Y0015227D01*
X0007544Y0015375D01*
X0007589Y0015521D01*
X0007638Y0015667D01*
X0007691Y0015811D01*
X0007747Y0015953D01*
X0007807Y0016094D01*
X0007871Y0016234D01*
X0007938Y0016372D01*
X0008009Y0016508D01*
X0008084Y0016642D01*
X0008161Y0016774D01*
X0008243Y0016904D01*
X0008327Y0017032D01*
X0008415Y0017158D01*
X0008506Y0017281D01*
X0008600Y0017402D01*
X0008698Y0017520D01*
X0008798Y0017636D01*
X0008902Y0017749D01*
X0009008Y0017860D01*
X0009117Y0017968D01*
X0009229Y0018073D01*
X0009343Y0018174D01*
X0009461Y0018273D01*
X0009580Y0018369D01*
X0009702Y0018462D01*
X0009827Y0018551D01*
X0009954Y0018638D01*
X0010083Y0018720D01*
X0010214Y0018800D01*
X0010347Y0018876D01*
X0010482Y0018949D01*
X0010619Y0019018D01*
X0010758Y0019083D01*
X0010898Y0019145D01*
X0011040Y0019203D01*
X0011183Y0019258D01*
X0011328Y0019309D01*
X0011474Y0019356D01*
X0011621Y0019399D01*
X0011769Y0019438D01*
X0011918Y0019474D01*
X0012068Y0019505D01*
X0012219Y0019533D01*
X0012370Y0019557D01*
X0012523Y0019577D01*
X0012675Y0019593D01*
X0012828Y0019605D01*
X0012981Y0019613D01*
X0013134Y0019617D01*
X0013288Y0019617D01*
X0013441Y0019613D01*
X0013594Y0019605D01*
X0013747Y0019593D01*
X0013899Y0019577D01*
X0014052Y0019557D01*
X0014203Y0019533D01*
X0014354Y0019505D01*
X0014504Y0019474D01*
X0014653Y0019438D01*
X0014801Y0019399D01*
X0014948Y0019356D01*
X0015094Y0019309D01*
X0015239Y0019258D01*
X0015382Y0019203D01*
X0015524Y0019145D01*
X0015664Y0019083D01*
X0015803Y0019018D01*
X0015940Y0018949D01*
X0016075Y0018876D01*
X0016208Y0018800D01*
X0016339Y0018720D01*
X0016468Y0018638D01*
X0016595Y0018551D01*
X0016720Y0018462D01*
X0016842Y0018369D01*
X0016961Y0018273D01*
X0017079Y0018174D01*
X0017193Y0018073D01*
X0017305Y0017968D01*
X0017414Y0017860D01*
X0017520Y0017749D01*
X0017624Y0017636D01*
X0017724Y0017520D01*
X0017822Y0017402D01*
X0017916Y0017281D01*
X0018007Y0017158D01*
X0018095Y0017032D01*
X0018179Y0016904D01*
X0018261Y0016774D01*
X0018338Y0016642D01*
X0018413Y0016508D01*
X0018484Y0016372D01*
X0018551Y0016234D01*
X0018615Y0016094D01*
X0018675Y0015953D01*
X0018731Y0015811D01*
X0018784Y0015667D01*
X0018833Y0015521D01*
X0018878Y0015375D01*
X0018919Y0015227D01*
X0018956Y0015079D01*
X0018990Y0014929D01*
X0019020Y0014778D01*
X0019045Y0014627D01*
X0019067Y0014476D01*
X0019085Y0014323D01*
X0019099Y0014171D01*
X0019109Y0014018D01*
X0019115Y0013864D01*
X0019117Y0013711D01*
X0019115Y0013558D01*
X0019109Y0013404D01*
X0019099Y0013251D01*
X0019085Y0013099D01*
X0019067Y0012946D01*
X0019045Y0012795D01*
X0019020Y0012644D01*
X0018990Y0012493D01*
X0018956Y0012343D01*
X0018919Y0012195D01*
X0018878Y0012047D01*
X0018833Y0011901D01*
X0018784Y0011755D01*
X0018731Y0011611D01*
X0018675Y0011469D01*
X0018615Y0011328D01*
X0018551Y0011188D01*
X0018484Y0011050D01*
X0018413Y0010914D01*
X0018338Y0010780D01*
X0018261Y0010648D01*
X0018179Y0010518D01*
X0018095Y0010390D01*
X0018007Y0010264D01*
X0017916Y0010141D01*
X0017822Y0010020D01*
X0017724Y0009902D01*
X0017624Y0009786D01*
X0017520Y0009673D01*
X0017414Y0009562D01*
X0017305Y0009454D01*
X0017193Y0009349D01*
X0017079Y0009248D01*
X0016961Y0009149D01*
X0016842Y0009053D01*
X0016720Y0008960D01*
X0016595Y0008871D01*
X0016468Y0008784D01*
X0016339Y0008702D01*
X0016208Y0008622D01*
X0016075Y0008546D01*
X0015940Y0008473D01*
X0015803Y0008404D01*
X0015664Y0008339D01*
X0015524Y0008277D01*
X0015382Y0008219D01*
X0015239Y0008164D01*
X0015094Y0008113D01*
X0014948Y0008066D01*
X0014801Y0008023D01*
X0014653Y0007984D01*
X0014504Y0007948D01*
X0014354Y0007917D01*
X0014203Y0007889D01*
X0014052Y0007865D01*
X0013899Y0007845D01*
X0013747Y0007829D01*
X0013594Y0007817D01*
X0013441Y0007809D01*
X0013288Y0007805D01*
X0013134Y0007805D01*
X0012981Y0007809D01*
X0012828Y0007817D01*
X0012675Y0007829D01*
X0012523Y0007845D01*
X0012370Y0007865D01*
X0012219Y0007889D01*
X0012068Y0007917D01*
X0011918Y0007948D01*
X0011769Y0007984D01*
X0011621Y0008023D01*
X0011474Y0008066D01*
X0011328Y0008113D01*
X0011183Y0008164D01*
X0011040Y0008219D01*
X0010898Y0008277D01*
X0010758Y0008339D01*
X0010619Y0008404D01*
X0010482Y0008473D01*
X0010347Y0008546D01*
X0010214Y0008622D01*
X0010083Y0008702D01*
X0009954Y0008784D01*
X0009827Y0008871D01*
X0009702Y0008960D01*
X0009580Y0009053D01*
X0009461Y0009149D01*
X0009343Y0009248D01*
X0009229Y0009349D01*
X0009117Y0009454D01*
X0009008Y0009562D01*
X0008902Y0009673D01*
X0008798Y0009786D01*
X0008698Y0009902D01*
X0008600Y0010020D01*
X0008506Y0010141D01*
X0008415Y0010264D01*
X0008327Y0010390D01*
X0008243Y0010518D01*
X0008161Y0010648D01*
X0008084Y0010780D01*
X0008009Y0010914D01*
X0007938Y0011050D01*
X0007871Y0011188D01*
X0007807Y0011328D01*
X0007747Y0011469D01*
X0007691Y0011611D01*
X0007638Y0011755D01*
X0007589Y0011901D01*
X0007544Y0012047D01*
X0007503Y0012195D01*
X0007466Y0012343D01*
X0007432Y0012493D01*
X0007402Y0012644D01*
X0007377Y0012795D01*
X0007355Y0012946D01*
X0007337Y0013099D01*
X0007323Y0013251D01*
X0007313Y0013404D01*
X0007307Y0013558D01*
X0007305Y0013711D01*
X0108327Y0088194D02*
X0108329Y0088275D01*
X0108335Y0088357D01*
X0108345Y0088438D01*
X0108359Y0088518D01*
X0108376Y0088597D01*
X0108398Y0088676D01*
X0108423Y0088753D01*
X0108452Y0088830D01*
X0108485Y0088904D01*
X0108522Y0088977D01*
X0108561Y0089048D01*
X0108605Y0089117D01*
X0108651Y0089184D01*
X0108701Y0089248D01*
X0108754Y0089310D01*
X0108810Y0089370D01*
X0108868Y0089426D01*
X0108930Y0089480D01*
X0108994Y0089531D01*
X0109060Y0089578D01*
X0109128Y0089622D01*
X0109199Y0089663D01*
X0109271Y0089700D01*
X0109346Y0089734D01*
X0109421Y0089764D01*
X0109499Y0089790D01*
X0109577Y0089813D01*
X0109656Y0089831D01*
X0109736Y0089846D01*
X0109817Y0089857D01*
X0109898Y0089864D01*
X0109980Y0089867D01*
X0110061Y0089866D01*
X0110142Y0089861D01*
X0110223Y0089852D01*
X0110304Y0089839D01*
X0110384Y0089822D01*
X0110462Y0089802D01*
X0110540Y0089777D01*
X0110617Y0089749D01*
X0110692Y0089717D01*
X0110765Y0089682D01*
X0110836Y0089643D01*
X0110906Y0089600D01*
X0110973Y0089555D01*
X0111039Y0089506D01*
X0111101Y0089454D01*
X0111161Y0089398D01*
X0111218Y0089340D01*
X0111273Y0089280D01*
X0111324Y0089216D01*
X0111372Y0089151D01*
X0111417Y0089083D01*
X0111459Y0089013D01*
X0111497Y0088941D01*
X0111532Y0088867D01*
X0111563Y0088792D01*
X0111590Y0088715D01*
X0111613Y0088637D01*
X0111633Y0088558D01*
X0111649Y0088478D01*
X0111661Y0088397D01*
X0111669Y0088316D01*
X0111673Y0088235D01*
X0111673Y0088153D01*
X0111669Y0088072D01*
X0111661Y0087991D01*
X0111649Y0087910D01*
X0111633Y0087830D01*
X0111613Y0087751D01*
X0111590Y0087673D01*
X0111563Y0087596D01*
X0111532Y0087521D01*
X0111497Y0087447D01*
X0111459Y0087375D01*
X0111417Y0087305D01*
X0111372Y0087237D01*
X0111324Y0087172D01*
X0111273Y0087108D01*
X0111218Y0087048D01*
X0111161Y0086990D01*
X0111101Y0086934D01*
X0111039Y0086882D01*
X0110973Y0086833D01*
X0110906Y0086788D01*
X0110837Y0086745D01*
X0110765Y0086706D01*
X0110692Y0086671D01*
X0110617Y0086639D01*
X0110540Y0086611D01*
X0110462Y0086586D01*
X0110384Y0086566D01*
X0110304Y0086549D01*
X0110223Y0086536D01*
X0110142Y0086527D01*
X0110061Y0086522D01*
X0109980Y0086521D01*
X0109898Y0086524D01*
X0109817Y0086531D01*
X0109736Y0086542D01*
X0109656Y0086557D01*
X0109577Y0086575D01*
X0109499Y0086598D01*
X0109421Y0086624D01*
X0109346Y0086654D01*
X0109271Y0086688D01*
X0109199Y0086725D01*
X0109128Y0086766D01*
X0109060Y0086810D01*
X0108994Y0086857D01*
X0108930Y0086908D01*
X0108868Y0086962D01*
X0108810Y0087018D01*
X0108754Y0087078D01*
X0108701Y0087140D01*
X0108651Y0087204D01*
X0108605Y0087271D01*
X0108561Y0087340D01*
X0108522Y0087411D01*
X0108485Y0087484D01*
X0108452Y0087558D01*
X0108423Y0087635D01*
X0108398Y0087712D01*
X0108376Y0087791D01*
X0108359Y0087870D01*
X0108345Y0087950D01*
X0108335Y0088031D01*
X0108329Y0088113D01*
X0108327Y0088194D01*
X0108327Y0100006D02*
X0108329Y0100087D01*
X0108335Y0100169D01*
X0108345Y0100250D01*
X0108359Y0100330D01*
X0108376Y0100409D01*
X0108398Y0100488D01*
X0108423Y0100565D01*
X0108452Y0100642D01*
X0108485Y0100716D01*
X0108522Y0100789D01*
X0108561Y0100860D01*
X0108605Y0100929D01*
X0108651Y0100996D01*
X0108701Y0101060D01*
X0108754Y0101122D01*
X0108810Y0101182D01*
X0108868Y0101238D01*
X0108930Y0101292D01*
X0108994Y0101343D01*
X0109060Y0101390D01*
X0109128Y0101434D01*
X0109199Y0101475D01*
X0109271Y0101512D01*
X0109346Y0101546D01*
X0109421Y0101576D01*
X0109499Y0101602D01*
X0109577Y0101625D01*
X0109656Y0101643D01*
X0109736Y0101658D01*
X0109817Y0101669D01*
X0109898Y0101676D01*
X0109980Y0101679D01*
X0110061Y0101678D01*
X0110142Y0101673D01*
X0110223Y0101664D01*
X0110304Y0101651D01*
X0110384Y0101634D01*
X0110462Y0101614D01*
X0110540Y0101589D01*
X0110617Y0101561D01*
X0110692Y0101529D01*
X0110765Y0101494D01*
X0110836Y0101455D01*
X0110906Y0101412D01*
X0110973Y0101367D01*
X0111039Y0101318D01*
X0111101Y0101266D01*
X0111161Y0101210D01*
X0111218Y0101152D01*
X0111273Y0101092D01*
X0111324Y0101028D01*
X0111372Y0100963D01*
X0111417Y0100895D01*
X0111459Y0100825D01*
X0111497Y0100753D01*
X0111532Y0100679D01*
X0111563Y0100604D01*
X0111590Y0100527D01*
X0111613Y0100449D01*
X0111633Y0100370D01*
X0111649Y0100290D01*
X0111661Y0100209D01*
X0111669Y0100128D01*
X0111673Y0100047D01*
X0111673Y0099965D01*
X0111669Y0099884D01*
X0111661Y0099803D01*
X0111649Y0099722D01*
X0111633Y0099642D01*
X0111613Y0099563D01*
X0111590Y0099485D01*
X0111563Y0099408D01*
X0111532Y0099333D01*
X0111497Y0099259D01*
X0111459Y0099187D01*
X0111417Y0099117D01*
X0111372Y0099049D01*
X0111324Y0098984D01*
X0111273Y0098920D01*
X0111218Y0098860D01*
X0111161Y0098802D01*
X0111101Y0098746D01*
X0111039Y0098694D01*
X0110973Y0098645D01*
X0110906Y0098600D01*
X0110837Y0098557D01*
X0110765Y0098518D01*
X0110692Y0098483D01*
X0110617Y0098451D01*
X0110540Y0098423D01*
X0110462Y0098398D01*
X0110384Y0098378D01*
X0110304Y0098361D01*
X0110223Y0098348D01*
X0110142Y0098339D01*
X0110061Y0098334D01*
X0109980Y0098333D01*
X0109898Y0098336D01*
X0109817Y0098343D01*
X0109736Y0098354D01*
X0109656Y0098369D01*
X0109577Y0098387D01*
X0109499Y0098410D01*
X0109421Y0098436D01*
X0109346Y0098466D01*
X0109271Y0098500D01*
X0109199Y0098537D01*
X0109128Y0098578D01*
X0109060Y0098622D01*
X0108994Y0098669D01*
X0108930Y0098720D01*
X0108868Y0098774D01*
X0108810Y0098830D01*
X0108754Y0098890D01*
X0108701Y0098952D01*
X0108651Y0099016D01*
X0108605Y0099083D01*
X0108561Y0099152D01*
X0108522Y0099223D01*
X0108485Y0099296D01*
X0108452Y0099370D01*
X0108423Y0099447D01*
X0108398Y0099524D01*
X0108376Y0099603D01*
X0108359Y0099682D01*
X0108345Y0099762D01*
X0108335Y0099843D01*
X0108329Y0099925D01*
X0108327Y0100006D01*
X0127305Y0173711D02*
X0127307Y0173864D01*
X0127313Y0174018D01*
X0127323Y0174171D01*
X0127337Y0174323D01*
X0127355Y0174476D01*
X0127377Y0174627D01*
X0127402Y0174778D01*
X0127432Y0174929D01*
X0127466Y0175079D01*
X0127503Y0175227D01*
X0127544Y0175375D01*
X0127589Y0175521D01*
X0127638Y0175667D01*
X0127691Y0175811D01*
X0127747Y0175953D01*
X0127807Y0176094D01*
X0127871Y0176234D01*
X0127938Y0176372D01*
X0128009Y0176508D01*
X0128084Y0176642D01*
X0128161Y0176774D01*
X0128243Y0176904D01*
X0128327Y0177032D01*
X0128415Y0177158D01*
X0128506Y0177281D01*
X0128600Y0177402D01*
X0128698Y0177520D01*
X0128798Y0177636D01*
X0128902Y0177749D01*
X0129008Y0177860D01*
X0129117Y0177968D01*
X0129229Y0178073D01*
X0129343Y0178174D01*
X0129461Y0178273D01*
X0129580Y0178369D01*
X0129702Y0178462D01*
X0129827Y0178551D01*
X0129954Y0178638D01*
X0130083Y0178720D01*
X0130214Y0178800D01*
X0130347Y0178876D01*
X0130482Y0178949D01*
X0130619Y0179018D01*
X0130758Y0179083D01*
X0130898Y0179145D01*
X0131040Y0179203D01*
X0131183Y0179258D01*
X0131328Y0179309D01*
X0131474Y0179356D01*
X0131621Y0179399D01*
X0131769Y0179438D01*
X0131918Y0179474D01*
X0132068Y0179505D01*
X0132219Y0179533D01*
X0132370Y0179557D01*
X0132523Y0179577D01*
X0132675Y0179593D01*
X0132828Y0179605D01*
X0132981Y0179613D01*
X0133134Y0179617D01*
X0133288Y0179617D01*
X0133441Y0179613D01*
X0133594Y0179605D01*
X0133747Y0179593D01*
X0133899Y0179577D01*
X0134052Y0179557D01*
X0134203Y0179533D01*
X0134354Y0179505D01*
X0134504Y0179474D01*
X0134653Y0179438D01*
X0134801Y0179399D01*
X0134948Y0179356D01*
X0135094Y0179309D01*
X0135239Y0179258D01*
X0135382Y0179203D01*
X0135524Y0179145D01*
X0135664Y0179083D01*
X0135803Y0179018D01*
X0135940Y0178949D01*
X0136075Y0178876D01*
X0136208Y0178800D01*
X0136339Y0178720D01*
X0136468Y0178638D01*
X0136595Y0178551D01*
X0136720Y0178462D01*
X0136842Y0178369D01*
X0136961Y0178273D01*
X0137079Y0178174D01*
X0137193Y0178073D01*
X0137305Y0177968D01*
X0137414Y0177860D01*
X0137520Y0177749D01*
X0137624Y0177636D01*
X0137724Y0177520D01*
X0137822Y0177402D01*
X0137916Y0177281D01*
X0138007Y0177158D01*
X0138095Y0177032D01*
X0138179Y0176904D01*
X0138261Y0176774D01*
X0138338Y0176642D01*
X0138413Y0176508D01*
X0138484Y0176372D01*
X0138551Y0176234D01*
X0138615Y0176094D01*
X0138675Y0175953D01*
X0138731Y0175811D01*
X0138784Y0175667D01*
X0138833Y0175521D01*
X0138878Y0175375D01*
X0138919Y0175227D01*
X0138956Y0175079D01*
X0138990Y0174929D01*
X0139020Y0174778D01*
X0139045Y0174627D01*
X0139067Y0174476D01*
X0139085Y0174323D01*
X0139099Y0174171D01*
X0139109Y0174018D01*
X0139115Y0173864D01*
X0139117Y0173711D01*
X0139115Y0173558D01*
X0139109Y0173404D01*
X0139099Y0173251D01*
X0139085Y0173099D01*
X0139067Y0172946D01*
X0139045Y0172795D01*
X0139020Y0172644D01*
X0138990Y0172493D01*
X0138956Y0172343D01*
X0138919Y0172195D01*
X0138878Y0172047D01*
X0138833Y0171901D01*
X0138784Y0171755D01*
X0138731Y0171611D01*
X0138675Y0171469D01*
X0138615Y0171328D01*
X0138551Y0171188D01*
X0138484Y0171050D01*
X0138413Y0170914D01*
X0138338Y0170780D01*
X0138261Y0170648D01*
X0138179Y0170518D01*
X0138095Y0170390D01*
X0138007Y0170264D01*
X0137916Y0170141D01*
X0137822Y0170020D01*
X0137724Y0169902D01*
X0137624Y0169786D01*
X0137520Y0169673D01*
X0137414Y0169562D01*
X0137305Y0169454D01*
X0137193Y0169349D01*
X0137079Y0169248D01*
X0136961Y0169149D01*
X0136842Y0169053D01*
X0136720Y0168960D01*
X0136595Y0168871D01*
X0136468Y0168784D01*
X0136339Y0168702D01*
X0136208Y0168622D01*
X0136075Y0168546D01*
X0135940Y0168473D01*
X0135803Y0168404D01*
X0135664Y0168339D01*
X0135524Y0168277D01*
X0135382Y0168219D01*
X0135239Y0168164D01*
X0135094Y0168113D01*
X0134948Y0168066D01*
X0134801Y0168023D01*
X0134653Y0167984D01*
X0134504Y0167948D01*
X0134354Y0167917D01*
X0134203Y0167889D01*
X0134052Y0167865D01*
X0133899Y0167845D01*
X0133747Y0167829D01*
X0133594Y0167817D01*
X0133441Y0167809D01*
X0133288Y0167805D01*
X0133134Y0167805D01*
X0132981Y0167809D01*
X0132828Y0167817D01*
X0132675Y0167829D01*
X0132523Y0167845D01*
X0132370Y0167865D01*
X0132219Y0167889D01*
X0132068Y0167917D01*
X0131918Y0167948D01*
X0131769Y0167984D01*
X0131621Y0168023D01*
X0131474Y0168066D01*
X0131328Y0168113D01*
X0131183Y0168164D01*
X0131040Y0168219D01*
X0130898Y0168277D01*
X0130758Y0168339D01*
X0130619Y0168404D01*
X0130482Y0168473D01*
X0130347Y0168546D01*
X0130214Y0168622D01*
X0130083Y0168702D01*
X0129954Y0168784D01*
X0129827Y0168871D01*
X0129702Y0168960D01*
X0129580Y0169053D01*
X0129461Y0169149D01*
X0129343Y0169248D01*
X0129229Y0169349D01*
X0129117Y0169454D01*
X0129008Y0169562D01*
X0128902Y0169673D01*
X0128798Y0169786D01*
X0128698Y0169902D01*
X0128600Y0170020D01*
X0128506Y0170141D01*
X0128415Y0170264D01*
X0128327Y0170390D01*
X0128243Y0170518D01*
X0128161Y0170648D01*
X0128084Y0170780D01*
X0128009Y0170914D01*
X0127938Y0171050D01*
X0127871Y0171188D01*
X0127807Y0171328D01*
X0127747Y0171469D01*
X0127691Y0171611D01*
X0127638Y0171755D01*
X0127589Y0171901D01*
X0127544Y0172047D01*
X0127503Y0172195D01*
X0127466Y0172343D01*
X0127432Y0172493D01*
X0127402Y0172644D01*
X0127377Y0172795D01*
X0127355Y0172946D01*
X0127337Y0173099D01*
X0127323Y0173251D01*
X0127313Y0173404D01*
X0127307Y0173558D01*
X0127305Y0173711D01*
X0007305Y0173711D02*
X0007307Y0173864D01*
X0007313Y0174018D01*
X0007323Y0174171D01*
X0007337Y0174323D01*
X0007355Y0174476D01*
X0007377Y0174627D01*
X0007402Y0174778D01*
X0007432Y0174929D01*
X0007466Y0175079D01*
X0007503Y0175227D01*
X0007544Y0175375D01*
X0007589Y0175521D01*
X0007638Y0175667D01*
X0007691Y0175811D01*
X0007747Y0175953D01*
X0007807Y0176094D01*
X0007871Y0176234D01*
X0007938Y0176372D01*
X0008009Y0176508D01*
X0008084Y0176642D01*
X0008161Y0176774D01*
X0008243Y0176904D01*
X0008327Y0177032D01*
X0008415Y0177158D01*
X0008506Y0177281D01*
X0008600Y0177402D01*
X0008698Y0177520D01*
X0008798Y0177636D01*
X0008902Y0177749D01*
X0009008Y0177860D01*
X0009117Y0177968D01*
X0009229Y0178073D01*
X0009343Y0178174D01*
X0009461Y0178273D01*
X0009580Y0178369D01*
X0009702Y0178462D01*
X0009827Y0178551D01*
X0009954Y0178638D01*
X0010083Y0178720D01*
X0010214Y0178800D01*
X0010347Y0178876D01*
X0010482Y0178949D01*
X0010619Y0179018D01*
X0010758Y0179083D01*
X0010898Y0179145D01*
X0011040Y0179203D01*
X0011183Y0179258D01*
X0011328Y0179309D01*
X0011474Y0179356D01*
X0011621Y0179399D01*
X0011769Y0179438D01*
X0011918Y0179474D01*
X0012068Y0179505D01*
X0012219Y0179533D01*
X0012370Y0179557D01*
X0012523Y0179577D01*
X0012675Y0179593D01*
X0012828Y0179605D01*
X0012981Y0179613D01*
X0013134Y0179617D01*
X0013288Y0179617D01*
X0013441Y0179613D01*
X0013594Y0179605D01*
X0013747Y0179593D01*
X0013899Y0179577D01*
X0014052Y0179557D01*
X0014203Y0179533D01*
X0014354Y0179505D01*
X0014504Y0179474D01*
X0014653Y0179438D01*
X0014801Y0179399D01*
X0014948Y0179356D01*
X0015094Y0179309D01*
X0015239Y0179258D01*
X0015382Y0179203D01*
X0015524Y0179145D01*
X0015664Y0179083D01*
X0015803Y0179018D01*
X0015940Y0178949D01*
X0016075Y0178876D01*
X0016208Y0178800D01*
X0016339Y0178720D01*
X0016468Y0178638D01*
X0016595Y0178551D01*
X0016720Y0178462D01*
X0016842Y0178369D01*
X0016961Y0178273D01*
X0017079Y0178174D01*
X0017193Y0178073D01*
X0017305Y0177968D01*
X0017414Y0177860D01*
X0017520Y0177749D01*
X0017624Y0177636D01*
X0017724Y0177520D01*
X0017822Y0177402D01*
X0017916Y0177281D01*
X0018007Y0177158D01*
X0018095Y0177032D01*
X0018179Y0176904D01*
X0018261Y0176774D01*
X0018338Y0176642D01*
X0018413Y0176508D01*
X0018484Y0176372D01*
X0018551Y0176234D01*
X0018615Y0176094D01*
X0018675Y0175953D01*
X0018731Y0175811D01*
X0018784Y0175667D01*
X0018833Y0175521D01*
X0018878Y0175375D01*
X0018919Y0175227D01*
X0018956Y0175079D01*
X0018990Y0174929D01*
X0019020Y0174778D01*
X0019045Y0174627D01*
X0019067Y0174476D01*
X0019085Y0174323D01*
X0019099Y0174171D01*
X0019109Y0174018D01*
X0019115Y0173864D01*
X0019117Y0173711D01*
X0019115Y0173558D01*
X0019109Y0173404D01*
X0019099Y0173251D01*
X0019085Y0173099D01*
X0019067Y0172946D01*
X0019045Y0172795D01*
X0019020Y0172644D01*
X0018990Y0172493D01*
X0018956Y0172343D01*
X0018919Y0172195D01*
X0018878Y0172047D01*
X0018833Y0171901D01*
X0018784Y0171755D01*
X0018731Y0171611D01*
X0018675Y0171469D01*
X0018615Y0171328D01*
X0018551Y0171188D01*
X0018484Y0171050D01*
X0018413Y0170914D01*
X0018338Y0170780D01*
X0018261Y0170648D01*
X0018179Y0170518D01*
X0018095Y0170390D01*
X0018007Y0170264D01*
X0017916Y0170141D01*
X0017822Y0170020D01*
X0017724Y0169902D01*
X0017624Y0169786D01*
X0017520Y0169673D01*
X0017414Y0169562D01*
X0017305Y0169454D01*
X0017193Y0169349D01*
X0017079Y0169248D01*
X0016961Y0169149D01*
X0016842Y0169053D01*
X0016720Y0168960D01*
X0016595Y0168871D01*
X0016468Y0168784D01*
X0016339Y0168702D01*
X0016208Y0168622D01*
X0016075Y0168546D01*
X0015940Y0168473D01*
X0015803Y0168404D01*
X0015664Y0168339D01*
X0015524Y0168277D01*
X0015382Y0168219D01*
X0015239Y0168164D01*
X0015094Y0168113D01*
X0014948Y0168066D01*
X0014801Y0168023D01*
X0014653Y0167984D01*
X0014504Y0167948D01*
X0014354Y0167917D01*
X0014203Y0167889D01*
X0014052Y0167865D01*
X0013899Y0167845D01*
X0013747Y0167829D01*
X0013594Y0167817D01*
X0013441Y0167809D01*
X0013288Y0167805D01*
X0013134Y0167805D01*
X0012981Y0167809D01*
X0012828Y0167817D01*
X0012675Y0167829D01*
X0012523Y0167845D01*
X0012370Y0167865D01*
X0012219Y0167889D01*
X0012068Y0167917D01*
X0011918Y0167948D01*
X0011769Y0167984D01*
X0011621Y0168023D01*
X0011474Y0168066D01*
X0011328Y0168113D01*
X0011183Y0168164D01*
X0011040Y0168219D01*
X0010898Y0168277D01*
X0010758Y0168339D01*
X0010619Y0168404D01*
X0010482Y0168473D01*
X0010347Y0168546D01*
X0010214Y0168622D01*
X0010083Y0168702D01*
X0009954Y0168784D01*
X0009827Y0168871D01*
X0009702Y0168960D01*
X0009580Y0169053D01*
X0009461Y0169149D01*
X0009343Y0169248D01*
X0009229Y0169349D01*
X0009117Y0169454D01*
X0009008Y0169562D01*
X0008902Y0169673D01*
X0008798Y0169786D01*
X0008698Y0169902D01*
X0008600Y0170020D01*
X0008506Y0170141D01*
X0008415Y0170264D01*
X0008327Y0170390D01*
X0008243Y0170518D01*
X0008161Y0170648D01*
X0008084Y0170780D01*
X0008009Y0170914D01*
X0007938Y0171050D01*
X0007871Y0171188D01*
X0007807Y0171328D01*
X0007747Y0171469D01*
X0007691Y0171611D01*
X0007638Y0171755D01*
X0007589Y0171901D01*
X0007544Y0172047D01*
X0007503Y0172195D01*
X0007466Y0172343D01*
X0007432Y0172493D01*
X0007402Y0172644D01*
X0007377Y0172795D01*
X0007355Y0172946D01*
X0007337Y0173099D01*
X0007323Y0173251D01*
X0007313Y0173404D01*
X0007307Y0173558D01*
X0007305Y0173711D01*
X0127305Y0013711D02*
X0127307Y0013864D01*
X0127313Y0014018D01*
X0127323Y0014171D01*
X0127337Y0014323D01*
X0127355Y0014476D01*
X0127377Y0014627D01*
X0127402Y0014778D01*
X0127432Y0014929D01*
X0127466Y0015079D01*
X0127503Y0015227D01*
X0127544Y0015375D01*
X0127589Y0015521D01*
X0127638Y0015667D01*
X0127691Y0015811D01*
X0127747Y0015953D01*
X0127807Y0016094D01*
X0127871Y0016234D01*
X0127938Y0016372D01*
X0128009Y0016508D01*
X0128084Y0016642D01*
X0128161Y0016774D01*
X0128243Y0016904D01*
X0128327Y0017032D01*
X0128415Y0017158D01*
X0128506Y0017281D01*
X0128600Y0017402D01*
X0128698Y0017520D01*
X0128798Y0017636D01*
X0128902Y0017749D01*
X0129008Y0017860D01*
X0129117Y0017968D01*
X0129229Y0018073D01*
X0129343Y0018174D01*
X0129461Y0018273D01*
X0129580Y0018369D01*
X0129702Y0018462D01*
X0129827Y0018551D01*
X0129954Y0018638D01*
X0130083Y0018720D01*
X0130214Y0018800D01*
X0130347Y0018876D01*
X0130482Y0018949D01*
X0130619Y0019018D01*
X0130758Y0019083D01*
X0130898Y0019145D01*
X0131040Y0019203D01*
X0131183Y0019258D01*
X0131328Y0019309D01*
X0131474Y0019356D01*
X0131621Y0019399D01*
X0131769Y0019438D01*
X0131918Y0019474D01*
X0132068Y0019505D01*
X0132219Y0019533D01*
X0132370Y0019557D01*
X0132523Y0019577D01*
X0132675Y0019593D01*
X0132828Y0019605D01*
X0132981Y0019613D01*
X0133134Y0019617D01*
X0133288Y0019617D01*
X0133441Y0019613D01*
X0133594Y0019605D01*
X0133747Y0019593D01*
X0133899Y0019577D01*
X0134052Y0019557D01*
X0134203Y0019533D01*
X0134354Y0019505D01*
X0134504Y0019474D01*
X0134653Y0019438D01*
X0134801Y0019399D01*
X0134948Y0019356D01*
X0135094Y0019309D01*
X0135239Y0019258D01*
X0135382Y0019203D01*
X0135524Y0019145D01*
X0135664Y0019083D01*
X0135803Y0019018D01*
X0135940Y0018949D01*
X0136075Y0018876D01*
X0136208Y0018800D01*
X0136339Y0018720D01*
X0136468Y0018638D01*
X0136595Y0018551D01*
X0136720Y0018462D01*
X0136842Y0018369D01*
X0136961Y0018273D01*
X0137079Y0018174D01*
X0137193Y0018073D01*
X0137305Y0017968D01*
X0137414Y0017860D01*
X0137520Y0017749D01*
X0137624Y0017636D01*
X0137724Y0017520D01*
X0137822Y0017402D01*
X0137916Y0017281D01*
X0138007Y0017158D01*
X0138095Y0017032D01*
X0138179Y0016904D01*
X0138261Y0016774D01*
X0138338Y0016642D01*
X0138413Y0016508D01*
X0138484Y0016372D01*
X0138551Y0016234D01*
X0138615Y0016094D01*
X0138675Y0015953D01*
X0138731Y0015811D01*
X0138784Y0015667D01*
X0138833Y0015521D01*
X0138878Y0015375D01*
X0138919Y0015227D01*
X0138956Y0015079D01*
X0138990Y0014929D01*
X0139020Y0014778D01*
X0139045Y0014627D01*
X0139067Y0014476D01*
X0139085Y0014323D01*
X0139099Y0014171D01*
X0139109Y0014018D01*
X0139115Y0013864D01*
X0139117Y0013711D01*
X0139115Y0013558D01*
X0139109Y0013404D01*
X0139099Y0013251D01*
X0139085Y0013099D01*
X0139067Y0012946D01*
X0139045Y0012795D01*
X0139020Y0012644D01*
X0138990Y0012493D01*
X0138956Y0012343D01*
X0138919Y0012195D01*
X0138878Y0012047D01*
X0138833Y0011901D01*
X0138784Y0011755D01*
X0138731Y0011611D01*
X0138675Y0011469D01*
X0138615Y0011328D01*
X0138551Y0011188D01*
X0138484Y0011050D01*
X0138413Y0010914D01*
X0138338Y0010780D01*
X0138261Y0010648D01*
X0138179Y0010518D01*
X0138095Y0010390D01*
X0138007Y0010264D01*
X0137916Y0010141D01*
X0137822Y0010020D01*
X0137724Y0009902D01*
X0137624Y0009786D01*
X0137520Y0009673D01*
X0137414Y0009562D01*
X0137305Y0009454D01*
X0137193Y0009349D01*
X0137079Y0009248D01*
X0136961Y0009149D01*
X0136842Y0009053D01*
X0136720Y0008960D01*
X0136595Y0008871D01*
X0136468Y0008784D01*
X0136339Y0008702D01*
X0136208Y0008622D01*
X0136075Y0008546D01*
X0135940Y0008473D01*
X0135803Y0008404D01*
X0135664Y0008339D01*
X0135524Y0008277D01*
X0135382Y0008219D01*
X0135239Y0008164D01*
X0135094Y0008113D01*
X0134948Y0008066D01*
X0134801Y0008023D01*
X0134653Y0007984D01*
X0134504Y0007948D01*
X0134354Y0007917D01*
X0134203Y0007889D01*
X0134052Y0007865D01*
X0133899Y0007845D01*
X0133747Y0007829D01*
X0133594Y0007817D01*
X0133441Y0007809D01*
X0133288Y0007805D01*
X0133134Y0007805D01*
X0132981Y0007809D01*
X0132828Y0007817D01*
X0132675Y0007829D01*
X0132523Y0007845D01*
X0132370Y0007865D01*
X0132219Y0007889D01*
X0132068Y0007917D01*
X0131918Y0007948D01*
X0131769Y0007984D01*
X0131621Y0008023D01*
X0131474Y0008066D01*
X0131328Y0008113D01*
X0131183Y0008164D01*
X0131040Y0008219D01*
X0130898Y0008277D01*
X0130758Y0008339D01*
X0130619Y0008404D01*
X0130482Y0008473D01*
X0130347Y0008546D01*
X0130214Y0008622D01*
X0130083Y0008702D01*
X0129954Y0008784D01*
X0129827Y0008871D01*
X0129702Y0008960D01*
X0129580Y0009053D01*
X0129461Y0009149D01*
X0129343Y0009248D01*
X0129229Y0009349D01*
X0129117Y0009454D01*
X0129008Y0009562D01*
X0128902Y0009673D01*
X0128798Y0009786D01*
X0128698Y0009902D01*
X0128600Y0010020D01*
X0128506Y0010141D01*
X0128415Y0010264D01*
X0128327Y0010390D01*
X0128243Y0010518D01*
X0128161Y0010648D01*
X0128084Y0010780D01*
X0128009Y0010914D01*
X0127938Y0011050D01*
X0127871Y0011188D01*
X0127807Y0011328D01*
X0127747Y0011469D01*
X0127691Y0011611D01*
X0127638Y0011755D01*
X0127589Y0011901D01*
X0127544Y0012047D01*
X0127503Y0012195D01*
X0127466Y0012343D01*
X0127432Y0012493D01*
X0127402Y0012644D01*
X0127377Y0012795D01*
X0127355Y0012946D01*
X0127337Y0013099D01*
X0127323Y0013251D01*
X0127313Y0013404D01*
X0127307Y0013558D01*
X0127305Y0013711D01*
D11*
X0094225Y0055788D02*
X0094225Y0057038D01*
X0094225Y0055788D02*
X0092975Y0055788D01*
X0092975Y0057038D01*
X0094225Y0057038D01*
X0094225Y0057037D02*
X0092975Y0057037D01*
X0094225Y0059288D02*
X0094225Y0060538D01*
X0094225Y0059288D02*
X0092975Y0059288D01*
X0092975Y0060538D01*
X0094225Y0060538D01*
X0094225Y0060537D02*
X0092975Y0060537D01*
X0092025Y0066388D02*
X0092025Y0067638D01*
X0092025Y0066388D02*
X0090775Y0066388D01*
X0090775Y0067638D01*
X0092025Y0067638D01*
X0092025Y0067637D02*
X0090775Y0067637D01*
X0092025Y0069888D02*
X0092025Y0071138D01*
X0092025Y0069888D02*
X0090775Y0069888D01*
X0090775Y0071138D01*
X0092025Y0071138D01*
X0092025Y0071137D02*
X0090775Y0071137D01*
X0097625Y0071138D02*
X0097625Y0069888D01*
X0096375Y0069888D01*
X0096375Y0071138D01*
X0097625Y0071138D01*
X0097625Y0071137D02*
X0096375Y0071137D01*
X0097625Y0067638D02*
X0097625Y0066388D01*
X0096375Y0066388D01*
X0096375Y0067638D01*
X0097625Y0067638D01*
X0097625Y0067637D02*
X0096375Y0067637D01*
X0093725Y0080119D02*
X0093725Y0081369D01*
X0093725Y0080119D02*
X0092475Y0080119D01*
X0092475Y0081369D01*
X0093725Y0081369D01*
X0093725Y0081368D02*
X0092475Y0081368D01*
X0093725Y0083619D02*
X0093725Y0084869D01*
X0093725Y0083619D02*
X0092475Y0083619D01*
X0092475Y0084869D01*
X0093725Y0084869D01*
X0093725Y0084868D02*
X0092475Y0084868D01*
X0089825Y0084869D02*
X0089825Y0083619D01*
X0088575Y0083619D01*
X0088575Y0084869D01*
X0089825Y0084869D01*
X0089825Y0084868D02*
X0088575Y0084868D01*
X0089825Y0081369D02*
X0089825Y0080119D01*
X0088575Y0080119D01*
X0088575Y0081369D01*
X0089825Y0081369D01*
X0089825Y0081368D02*
X0088575Y0081368D01*
X0057475Y0068838D02*
X0057475Y0067588D01*
X0057475Y0068838D02*
X0058725Y0068838D01*
X0058725Y0067588D01*
X0057475Y0067588D01*
X0057475Y0068837D02*
X0058725Y0068837D01*
X0057475Y0065338D02*
X0057475Y0064088D01*
X0057475Y0065338D02*
X0058725Y0065338D01*
X0058725Y0064088D01*
X0057475Y0064088D01*
X0057475Y0065337D02*
X0058725Y0065337D01*
X0054625Y0065338D02*
X0054625Y0064088D01*
X0053375Y0064088D01*
X0053375Y0065338D01*
X0054625Y0065338D01*
X0054625Y0065337D02*
X0053375Y0065337D01*
X0054625Y0067588D02*
X0054625Y0068838D01*
X0054625Y0067588D02*
X0053375Y0067588D01*
X0053375Y0068838D01*
X0054625Y0068838D01*
X0054625Y0068837D02*
X0053375Y0068837D01*
X0049375Y0068938D02*
X0049375Y0067688D01*
X0049375Y0068938D02*
X0050625Y0068938D01*
X0050625Y0067688D01*
X0049375Y0067688D01*
X0049375Y0068937D02*
X0050625Y0068937D01*
X0049375Y0065438D02*
X0049375Y0064188D01*
X0049375Y0065438D02*
X0050625Y0065438D01*
X0050625Y0064188D01*
X0049375Y0064188D01*
X0049375Y0065437D02*
X0050625Y0065437D01*
X0046625Y0078819D02*
X0046625Y0080069D01*
X0046625Y0078819D02*
X0045375Y0078819D01*
X0045375Y0080069D01*
X0046625Y0080069D01*
X0046625Y0080068D02*
X0045375Y0080068D01*
X0046625Y0082319D02*
X0046625Y0083569D01*
X0046625Y0082319D02*
X0045375Y0082319D01*
X0045375Y0083569D01*
X0046625Y0083569D01*
X0046625Y0083568D02*
X0045375Y0083568D01*
X0042525Y0083469D02*
X0042525Y0082219D01*
X0041275Y0082219D01*
X0041275Y0083469D01*
X0042525Y0083469D01*
X0042525Y0083468D02*
X0041275Y0083468D01*
X0042525Y0079969D02*
X0042525Y0078719D01*
X0041275Y0078719D01*
X0041275Y0079969D01*
X0042525Y0079969D01*
X0042525Y0079968D02*
X0041275Y0079968D01*
X0042225Y0107019D02*
X0042225Y0108269D01*
X0042225Y0107019D02*
X0040975Y0107019D01*
X0040975Y0108269D01*
X0042225Y0108269D01*
X0042225Y0108268D02*
X0040975Y0108268D01*
X0042225Y0110519D02*
X0042225Y0111769D01*
X0042225Y0110519D02*
X0040975Y0110519D01*
X0040975Y0111769D01*
X0042225Y0111769D01*
X0042225Y0111768D02*
X0040975Y0111768D01*
X0037425Y0111769D02*
X0037425Y0110519D01*
X0036175Y0110519D01*
X0036175Y0111769D01*
X0037425Y0111769D01*
X0037425Y0111768D02*
X0036175Y0111768D01*
X0037425Y0108269D02*
X0037425Y0107019D01*
X0036175Y0107019D01*
X0036175Y0108269D01*
X0037425Y0108269D01*
X0037425Y0108268D02*
X0036175Y0108268D01*
X0032625Y0108269D02*
X0032625Y0107019D01*
X0031375Y0107019D01*
X0031375Y0108269D01*
X0032625Y0108269D01*
X0032625Y0108268D02*
X0031375Y0108268D01*
X0032625Y0110519D02*
X0032625Y0111769D01*
X0032625Y0110519D02*
X0031375Y0110519D01*
X0031375Y0111769D01*
X0032625Y0111769D01*
X0032625Y0111768D02*
X0031375Y0111768D01*
X0027825Y0111769D02*
X0027825Y0110519D01*
X0026575Y0110519D01*
X0026575Y0111769D01*
X0027825Y0111769D01*
X0027825Y0111768D02*
X0026575Y0111768D01*
X0027825Y0108269D02*
X0027825Y0107019D01*
X0026575Y0107019D01*
X0026575Y0108269D01*
X0027825Y0108269D01*
X0027825Y0108268D02*
X0026575Y0108268D01*
D12*
X0075787Y0073176D02*
X0078413Y0073176D01*
X0078413Y0070550D01*
X0075787Y0070550D01*
X0075787Y0073176D01*
X0075787Y0071424D02*
X0078413Y0071424D01*
X0078413Y0072298D02*
X0075787Y0072298D01*
X0075787Y0073172D02*
X0078413Y0073172D01*
X0081787Y0073176D02*
X0084413Y0073176D01*
X0084413Y0070550D01*
X0081787Y0070550D01*
X0081787Y0073176D01*
X0081787Y0071424D02*
X0084413Y0071424D01*
X0084413Y0072298D02*
X0081787Y0072298D01*
X0081787Y0073172D02*
X0084413Y0073172D01*
X0084413Y0067576D02*
X0081787Y0067576D01*
X0084413Y0067576D02*
X0084413Y0064950D01*
X0081787Y0064950D01*
X0081787Y0067576D01*
X0081787Y0065824D02*
X0084413Y0065824D01*
X0084413Y0066698D02*
X0081787Y0066698D01*
X0081787Y0067572D02*
X0084413Y0067572D01*
X0078413Y0067576D02*
X0075787Y0067576D01*
X0078413Y0067576D02*
X0078413Y0064950D01*
X0075787Y0064950D01*
X0075787Y0067576D01*
X0075787Y0065824D02*
X0078413Y0065824D01*
X0078413Y0066698D02*
X0075787Y0066698D01*
X0075787Y0067572D02*
X0078413Y0067572D01*
X0090919Y0093087D02*
X0090919Y0095713D01*
X0090919Y0093087D02*
X0088293Y0093087D01*
X0088293Y0095713D01*
X0090919Y0095713D01*
X0090919Y0093961D02*
X0088293Y0093961D01*
X0088293Y0094835D02*
X0090919Y0094835D01*
X0090919Y0095709D02*
X0088293Y0095709D01*
X0090919Y0099087D02*
X0090919Y0101713D01*
X0090919Y0099087D02*
X0088293Y0099087D01*
X0088293Y0101713D01*
X0090919Y0101713D01*
X0090919Y0099961D02*
X0088293Y0099961D01*
X0088293Y0100835D02*
X0090919Y0100835D01*
X0090919Y0101709D02*
X0088293Y0101709D01*
D13*
X0050961Y0053987D03*
X0050961Y0050838D03*
X0050961Y0047688D03*
X0050961Y0044539D03*
X0051061Y0040587D03*
X0051061Y0037438D03*
X0051061Y0034288D03*
X0051061Y0031139D03*
X0045139Y0031139D03*
X0045139Y0034288D03*
X0045139Y0037438D03*
X0045139Y0040587D03*
X0045039Y0044539D03*
X0045039Y0047688D03*
X0045039Y0050838D03*
X0045039Y0053987D03*
X0090539Y0052287D03*
X0090539Y0049138D03*
X0090539Y0045988D03*
X0090539Y0042839D03*
X0090639Y0038987D03*
X0090639Y0035838D03*
X0090639Y0032688D03*
X0090639Y0029539D03*
X0096561Y0029539D03*
X0096561Y0032688D03*
X0096561Y0035838D03*
X0096561Y0038987D03*
X0096461Y0042839D03*
X0096461Y0045988D03*
X0096461Y0049138D03*
X0096461Y0052287D03*
D14*
X0083305Y0053461D03*
X0083305Y0056020D03*
X0083305Y0058579D03*
X0083305Y0061138D03*
X0083305Y0050902D03*
X0083305Y0048343D03*
X0083305Y0045783D03*
X0083305Y0043224D03*
X0083305Y0040665D03*
X0083305Y0038106D03*
X0083305Y0035547D03*
X0083305Y0032988D03*
X0058895Y0032988D03*
X0058895Y0035547D03*
X0058895Y0038106D03*
X0058895Y0040665D03*
X0058895Y0043224D03*
X0058895Y0045783D03*
X0058895Y0048343D03*
X0058895Y0050902D03*
X0058895Y0053461D03*
X0058895Y0056020D03*
X0058895Y0058579D03*
X0058895Y0061138D03*
D15*
X0054550Y0084294D03*
X0054550Y0089294D03*
X0054550Y0094294D03*
X0054550Y0099294D03*
X0054550Y0104294D03*
X0054550Y0109294D03*
X0054550Y0114294D03*
X0080650Y0114294D03*
X0080650Y0109294D03*
X0080650Y0104294D03*
X0080650Y0099294D03*
X0080650Y0094294D03*
X0080650Y0089294D03*
X0080650Y0084294D03*
D16*
X0042863Y0096706D02*
X0042863Y0098582D01*
X0042863Y0096706D02*
X0040337Y0096706D01*
X0040337Y0098582D01*
X0042863Y0098582D01*
X0042863Y0097330D02*
X0040337Y0097330D01*
X0040337Y0097954D02*
X0042863Y0097954D01*
X0042863Y0098578D02*
X0040337Y0098578D01*
X0038063Y0098582D02*
X0038063Y0096706D01*
X0035537Y0096706D01*
X0035537Y0098582D01*
X0038063Y0098582D01*
X0038063Y0097330D02*
X0035537Y0097330D01*
X0035537Y0097954D02*
X0038063Y0097954D01*
X0038063Y0098578D02*
X0035537Y0098578D01*
X0033263Y0098582D02*
X0033263Y0096706D01*
X0030737Y0096706D01*
X0030737Y0098582D01*
X0033263Y0098582D01*
X0033263Y0097330D02*
X0030737Y0097330D01*
X0030737Y0097954D02*
X0033263Y0097954D01*
X0033263Y0098578D02*
X0030737Y0098578D01*
X0028463Y0098582D02*
X0028463Y0096706D01*
X0025937Y0096706D01*
X0025937Y0098582D01*
X0028463Y0098582D01*
X0028463Y0097330D02*
X0025937Y0097330D01*
X0025937Y0097954D02*
X0028463Y0097954D01*
X0028463Y0098578D02*
X0025937Y0098578D01*
X0028463Y0102206D02*
X0028463Y0104082D01*
X0028463Y0102206D02*
X0025937Y0102206D01*
X0025937Y0104082D01*
X0028463Y0104082D01*
X0028463Y0102830D02*
X0025937Y0102830D01*
X0025937Y0103454D02*
X0028463Y0103454D01*
X0028463Y0104078D02*
X0025937Y0104078D01*
X0033263Y0104082D02*
X0033263Y0102206D01*
X0030737Y0102206D01*
X0030737Y0104082D01*
X0033263Y0104082D01*
X0033263Y0102830D02*
X0030737Y0102830D01*
X0030737Y0103454D02*
X0033263Y0103454D01*
X0033263Y0104078D02*
X0030737Y0104078D01*
X0038063Y0104082D02*
X0038063Y0102206D01*
X0035537Y0102206D01*
X0035537Y0104082D01*
X0038063Y0104082D01*
X0038063Y0102830D02*
X0035537Y0102830D01*
X0035537Y0103454D02*
X0038063Y0103454D01*
X0038063Y0104078D02*
X0035537Y0104078D01*
X0042863Y0104082D02*
X0042863Y0102206D01*
X0040337Y0102206D01*
X0040337Y0104082D01*
X0042863Y0104082D01*
X0042863Y0102830D02*
X0040337Y0102830D01*
X0040337Y0103454D02*
X0042863Y0103454D01*
X0042863Y0104078D02*
X0040337Y0104078D01*
D17*
X0046394Y0021800D03*
X0050331Y0021800D03*
X0054269Y0021800D03*
X0058206Y0021800D03*
X0085394Y0021800D03*
X0089331Y0021800D03*
X0093269Y0021800D03*
X0097206Y0021800D03*
D18*
X0102324Y0007331D03*
X0080276Y0007331D03*
X0063324Y0007331D03*
X0041276Y0007331D03*
D19*
X0098878Y0084257D03*
X0098878Y0094100D03*
X0098878Y0103943D03*
X0121122Y0103943D03*
X0121122Y0094100D03*
X0121122Y0084257D03*
M02*
